<svg width="154" height="51" viewBox="0 0 154 51" fill="none" xmlns="http://www.w3.org/2000/svg">
<g filter="url(#filter0_ddddd_1_2683)">
<path d="M22.1272 37.482C22.1272 38.4686 22.1148 39.4183 22.0902 40.331C22.0655 41.219 22.0532 42.181 22.0532 43.217V45.733H14.6532V43.217C14.6532 42.181 14.6408 41.219 14.6162 40.331C14.5915 39.4183 14.5792 38.4686 14.5792 37.482V21.757C14.5792 20.9183 14.6038 19.7466 14.6532 18.242C14.7272 16.7373 14.8012 15.2203 14.8752 13.691C14.9738 12.1616 15.0108 10.9406 14.9862 10.028L14.8382 1.96195C15.4795 1.81395 16.1085 1.72762 16.7252 1.70296C17.3418 1.65362 17.9215 1.62895 18.4642 1.62895C19.0315 1.62895 19.6112 1.65362 20.2032 1.70296C20.8198 1.72762 21.4612 1.81395 22.1272 1.96195V37.482ZM10.3982 42.403C10.9162 42.403 11.6562 42.4153 12.6182 42.44C13.5802 42.4646 14.3078 42.477 14.8012 42.477H21.9052C22.4232 42.477 23.1755 42.4646 24.1622 42.44C25.1488 42.4153 25.8888 42.403 26.3822 42.403H31.4882C31.7102 43.439 31.8212 44.4996 31.8212 45.585C31.8212 46.5963 31.7102 47.6693 31.4882 48.804H3.62716C3.38049 47.7433 3.25716 46.6703 3.25716 45.585C3.25716 44.4503 3.38049 43.3896 3.62716 42.403H10.3982ZM1.00016 16.17C4.57683 13.95 7.52449 11.5943 9.84316 9.10295C12.1618 6.61162 13.8268 4.23129 14.8382 1.96195L17.6872 8.10395C17.0458 9.90462 15.9975 11.619 14.5422 13.247C13.1115 14.875 11.4835 16.3303 9.65816 17.613C7.83283 18.8956 6.03216 19.944 4.25616 20.758C3.44216 20.2893 2.73916 19.6603 2.14716 18.871C1.57983 18.057 1.19749 17.1566 1.00016 16.17ZM55.7261 0.999953C57.8967 0.999953 59.7221 1.28362 61.2021 1.85095C62.7067 2.39362 63.9277 3.04729 64.8651 3.81195C65.8024 4.55195 66.4807 5.19329 66.9001 5.73595C67.2454 6.13062 67.7017 6.73495 68.2691 7.54895C68.8364 8.33829 69.4037 9.46062 69.9711 10.916C70.5631 12.3713 71.0687 14.283 71.4881 16.651C71.9074 18.9943 72.1171 21.9173 72.1171 25.42C72.1171 30.378 71.3894 34.6823 69.9341 38.333C68.4787 41.959 66.3327 44.771 63.4961 46.769C60.6841 48.767 57.1937 49.766 53.0251 49.766C50.9284 49.766 48.9427 49.5563 47.0681 49.137C45.2181 48.7176 43.6394 48.1503 42.3321 47.435C42.4307 46.4483 42.7144 45.437 43.1831 44.401C43.6517 43.365 44.2807 42.5633 45.0701 41.996C46.0321 42.3906 47.1297 42.7606 48.3631 43.106C49.5964 43.4266 51.0024 43.587 52.5811 43.587C55.3437 43.587 57.5637 42.8963 59.2411 41.515C60.9431 40.109 62.1764 38.222 62.9411 35.854C63.7057 33.4613 64.0881 30.7973 64.0881 27.862V21.498C64.0881 20.2153 63.9894 18.834 63.7921 17.354C63.5947 15.874 63.2741 14.4556 62.8301 13.099C62.4107 11.7176 61.8187 10.5583 61.0541 9.62095C60.4621 8.85629 59.7097 8.22729 58.7971 7.73395C57.9091 7.21595 56.8484 6.95695 55.6151 6.95695C53.0251 6.95695 51.0641 7.88195 49.7321 9.73196C48.4001 11.582 47.7341 14.024 47.7341 17.058C47.7341 19.5 48.0671 21.4363 48.7331 22.867C49.3991 24.273 50.2994 25.2843 51.4341 25.901C52.5934 26.5176 53.9007 26.826 55.3561 26.826C56.6634 26.826 57.9831 26.5423 59.3151 25.975C60.6471 25.4076 61.9051 24.6183 63.0891 23.607C64.2731 22.5956 65.2844 21.4116 66.1231 20.055L67.6771 24.273C66.9371 25.827 65.8517 27.2946 64.4211 28.676C63.0151 30.0326 61.3624 31.1303 59.4631 31.969C57.5884 32.8076 55.5657 33.227 53.3951 33.227C49.3991 33.227 46.1554 31.9566 43.6641 29.416C41.1727 26.8753 39.9271 22.9163 39.9271 17.539C39.9271 14.2583 40.6054 11.3723 41.9621 8.88096C43.3187 6.38962 45.1811 4.45329 47.5491 3.07195C49.9417 1.69062 52.6674 0.999953 55.7261 0.999953ZM102.053 37.482C102.053 38.4686 102.041 39.4183 102.016 40.331C101.991 41.219 101.979 42.181 101.979 43.217V45.733H94.5789V43.217C94.5789 42.181 94.5666 41.219 94.5419 40.331C94.5173 39.4183 94.5049 38.4686 94.5049 37.482V21.757C94.5049 20.9183 94.5296 19.7466 94.5789 18.242C94.6529 16.7373 94.7269 15.2203 94.8009 13.691C94.8996 12.1616 94.9366 10.9406 94.9119 10.028L94.7639 1.96195C95.4053 1.81395 96.0343 1.72762 96.6509 1.70296C97.2676 1.65362 97.8473 1.62895 98.3899 1.62895C98.9573 1.62895 99.5369 1.65362 100.129 1.70296C100.746 1.72762 101.387 1.81395 102.053 1.96195V37.482ZM90.3239 42.403C90.8419 42.403 91.5819 42.4153 92.5439 42.44C93.5059 42.4646 94.2336 42.477 94.7269 42.477H101.831C102.349 42.477 103.101 42.4646 104.088 42.44C105.075 42.4153 105.815 42.403 106.308 42.403H111.414C111.636 43.439 111.747 44.4996 111.747 45.585C111.747 46.5963 111.636 47.6693 111.414 48.804H83.5529C83.3063 47.7433 83.1829 46.6703 83.1829 45.585C83.1829 44.4503 83.3063 43.3896 83.5529 42.403H90.3239ZM80.9259 16.17C84.5026 13.95 87.4503 11.5943 89.7689 9.10295C92.0876 6.61162 93.7526 4.23129 94.7639 1.96195L97.6129 8.10395C96.9716 9.90462 95.9233 11.619 94.4679 13.247C93.0373 14.875 91.4093 16.3303 89.5839 17.613C87.7586 18.8956 85.9579 19.944 84.1819 20.758C83.3679 20.2893 82.6649 19.6603 82.0729 18.871C81.5056 18.057 81.1233 17.1566 80.9259 16.17ZM119.927 25.383C119.927 20.869 120.26 16.9593 120.926 13.654C121.616 10.3486 123.084 7.52429 125.329 5.18095C126.611 3.89829 128.104 2.88695 129.806 2.14695C131.508 1.38229 133.629 0.999953 136.17 0.999953C138.735 0.999953 140.844 1.38229 142.497 2.14695C144.149 2.88695 145.629 3.89829 146.937 5.18095C149.181 7.52429 150.637 10.3486 151.303 13.654C151.994 16.9593 152.339 20.869 152.339 25.383C152.339 29.897 151.994 33.8066 151.303 37.112C150.637 40.3926 149.181 43.217 146.937 45.585C145.629 46.843 144.137 47.8543 142.46 48.619C140.807 49.3836 138.698 49.766 136.133 49.766C133.592 49.766 131.483 49.3836 129.806 48.619C128.128 47.8543 126.636 46.843 125.329 45.585C123.109 43.217 121.653 40.3926 120.963 37.112C120.272 33.8066 119.927 29.897 119.927 25.383ZM127.956 25.383C127.956 29.527 128.165 32.857 128.585 35.373C129.029 37.889 129.769 39.813 130.805 41.145C131.397 42.0083 132.137 42.662 133.025 43.106C133.937 43.5253 134.973 43.735 136.133 43.735C137.317 43.735 138.353 43.5253 139.241 43.106C140.153 42.6866 140.893 42.033 141.461 41.145C142.497 39.813 143.224 37.889 143.644 35.373C144.088 32.857 144.31 29.527 144.31 25.383C144.31 21.2143 144.088 17.8843 143.644 15.393C143.224 12.877 142.497 10.953 141.461 9.62095C140.869 8.75762 140.129 8.11629 139.241 7.69695C138.353 7.25295 137.317 7.03095 136.133 7.03095C134.973 7.03095 133.937 7.25295 133.025 7.69695C132.137 8.11629 131.397 8.75762 130.805 9.62095C129.769 10.953 129.029 12.877 128.585 15.393C128.165 17.8843 127.956 21.2143 127.956 25.383Z" fill="#F8F7F0"/>
</g>
<defs>
<filter id="filter0_ddddd_1_2683" x="0" y="0" width="153.339" height="50.7659" filterUnits="userSpaceOnUse" color-interpolation-filters="sRGB">
<feFlood flood-opacity="0" result="BackgroundImageFix"/>
<feColorMatrix in="SourceAlpha" type="matrix" values="0 0 0 0 0 0 0 0 0 0 0 0 0 0 0 0 0 0 127 0" result="hardAlpha"/>
<feOffset dx="1" dy="1"/>
<feComposite in2="hardAlpha" operator="out"/>
<feColorMatrix type="matrix" values="0 0 0 0 0.25098 0 0 0 0 0.290196 0 0 0 0 0.239216 0 0 0 0.5 0"/>
<feBlend mode="normal" in2="BackgroundImageFix" result="effect1_dropShadow_1_2683"/>
<feColorMatrix in="SourceAlpha" type="matrix" values="0 0 0 0 0 0 0 0 0 0 0 0 0 0 0 0 0 0 127 0" result="hardAlpha"/>
<feOffset dx="-1" dy="1"/>
<feComposite in2="hardAlpha" operator="out"/>
<feColorMatrix type="matrix" values="0 0 0 0 0.25098 0 0 0 0 0.290196 0 0 0 0 0.239216 0 0 0 0.5 0"/>
<feBlend mode="normal" in2="effect1_dropShadow_1_2683" result="effect2_dropShadow_1_2683"/>
<feColorMatrix in="SourceAlpha" type="matrix" values="0 0 0 0 0 0 0 0 0 0 0 0 0 0 0 0 0 0 127 0" result="hardAlpha"/>
<feOffset dx="1" dy="-1"/>
<feComposite in2="hardAlpha" operator="out"/>
<feColorMatrix type="matrix" values="0 0 0 0 0.25098 0 0 0 0 0.290196 0 0 0 0 0.239216 0 0 0 0.5 0"/>
<feBlend mode="normal" in2="effect2_dropShadow_1_2683" result="effect3_dropShadow_1_2683"/>
<feColorMatrix in="SourceAlpha" type="matrix" values="0 0 0 0 0 0 0 0 0 0 0 0 0 0 0 0 0 0 127 0" result="hardAlpha"/>
<feOffset dx="-1" dy="-1"/>
<feComposite in2="hardAlpha" operator="out"/>
<feColorMatrix type="matrix" values="0 0 0 0 0.25098 0 0 0 0 0.290196 0 0 0 0 0.239216 0 0 0 0.5 0"/>
<feBlend mode="normal" in2="effect3_dropShadow_1_2683" result="effect4_dropShadow_1_2683"/>
<feColorMatrix in="SourceAlpha" type="matrix" values="0 0 0 0 0 0 0 0 0 0 0 0 0 0 0 0 0 0 127 0" result="hardAlpha"/>
<feOffset dx="1" dy="1"/>
<feComposite in2="hardAlpha" operator="out"/>
<feColorMatrix type="matrix" values="0 0 0 0 0.25098 0 0 0 0 0.290196 0 0 0 0 0.239216 0 0 0 0.5 0"/>
<feBlend mode="normal" in2="effect4_dropShadow_1_2683" result="effect5_dropShadow_1_2683"/>
<feBlend mode="normal" in="SourceGraphic" in2="effect5_dropShadow_1_2683" result="shape"/>
</filter>
</defs>
</svg>
