<svg width="154" height="51" viewBox="0 0 154 51" fill="none" xmlns="http://www.w3.org/2000/svg">
<g filter="url(#filter0_ddddd_1_2665)">
<path d="M22.1272 37.482C22.1272 38.4686 22.1148 39.4183 22.0902 40.331C22.0655 41.219 22.0532 42.181 22.0532 43.217V45.733H14.6532V43.217C14.6532 42.181 14.6408 41.219 14.6162 40.331C14.5915 39.4183 14.5792 38.4686 14.5792 37.482V21.757C14.5792 20.9183 14.6038 19.7466 14.6532 18.242C14.7272 16.7373 14.8012 15.2203 14.8752 13.691C14.9738 12.1616 15.0108 10.9406 14.9862 10.028L14.8382 1.96195C15.4795 1.81395 16.1085 1.72762 16.7252 1.70296C17.3418 1.65362 17.9215 1.62895 18.4642 1.62895C19.0315 1.62895 19.6112 1.65362 20.2032 1.70296C20.8198 1.72762 21.4612 1.81395 22.1272 1.96195V37.482ZM10.3982 42.403C10.9162 42.403 11.6562 42.4153 12.6182 42.44C13.5802 42.4646 14.3078 42.477 14.8012 42.477H21.9052C22.4232 42.477 23.1755 42.4646 24.1622 42.44C25.1488 42.4153 25.8888 42.403 26.3822 42.403H31.4882C31.7102 43.439 31.8212 44.4996 31.8212 45.585C31.8212 46.5963 31.7102 47.6693 31.4882 48.804H3.62716C3.38049 47.7433 3.25716 46.6703 3.25716 45.585C3.25716 44.4503 3.38049 43.3896 3.62716 42.403H10.3982ZM1.00016 16.17C4.57683 13.95 7.52449 11.5943 9.84316 9.10295C12.1618 6.61162 13.8268 4.23129 14.8382 1.96195L17.6872 8.10395C17.0458 9.90462 15.9975 11.619 14.5422 13.247C13.1115 14.875 11.4835 16.3303 9.65816 17.613C7.83283 18.8956 6.03216 19.944 4.25616 20.758C3.44216 20.2893 2.73916 19.6603 2.14716 18.871C1.57983 18.057 1.19749 17.1566 1.00016 16.17ZM55.7261 0.999953C57.8967 0.999953 59.7221 1.28362 61.2021 1.85095C62.7067 2.39362 63.9277 3.04729 64.8651 3.81195C65.8024 4.55195 66.4807 5.19329 66.9001 5.73595C67.2454 6.13062 67.7017 6.73495 68.2691 7.54895C68.8364 8.33829 69.4037 9.46062 69.9711 10.916C70.5631 12.3713 71.0687 14.283 71.4881 16.651C71.9074 18.9943 72.1171 21.9173 72.1171 25.42C72.1171 30.378 71.3894 34.6823 69.9341 38.333C68.4787 41.959 66.3327 44.771 63.4961 46.769C60.6841 48.767 57.1937 49.766 53.0251 49.766C50.9284 49.766 48.9427 49.5563 47.0681 49.137C45.2181 48.7176 43.6394 48.1503 42.3321 47.435C42.4307 46.4483 42.7144 45.437 43.1831 44.401C43.6517 43.365 44.2807 42.5633 45.0701 41.996C46.0321 42.3906 47.1297 42.7606 48.3631 43.106C49.5964 43.4266 51.0024 43.587 52.5811 43.587C55.3437 43.587 57.5637 42.8963 59.2411 41.515C60.9431 40.109 62.1764 38.222 62.9411 35.854C63.7057 33.4613 64.0881 30.7973 64.0881 27.862V21.498C64.0881 20.2153 63.9894 18.834 63.7921 17.354C63.5947 15.874 63.2741 14.4556 62.8301 13.099C62.4107 11.7176 61.8187 10.5583 61.0541 9.62095C60.4621 8.85629 59.7097 8.22729 58.7971 7.73395C57.9091 7.21595 56.8484 6.95695 55.6151 6.95695C53.0251 6.95695 51.0641 7.88195 49.7321 9.73196C48.4001 11.582 47.7341 14.024 47.7341 17.058C47.7341 19.5 48.0671 21.4363 48.7331 22.867C49.3991 24.273 50.2994 25.2843 51.4341 25.901C52.5934 26.5176 53.9007 26.826 55.3561 26.826C56.6634 26.826 57.9831 26.5423 59.3151 25.975C60.6471 25.4076 61.9051 24.6183 63.0891 23.607C64.2731 22.5956 65.2844 21.4116 66.1231 20.055L67.6771 24.273C66.9371 25.827 65.8517 27.2946 64.4211 28.676C63.0151 30.0326 61.3624 31.1303 59.4631 31.969C57.5884 32.8076 55.5657 33.227 53.3951 33.227C49.3991 33.227 46.1554 31.9566 43.6641 29.416C41.1727 26.8753 39.9271 22.9163 39.9271 17.539C39.9271 14.2583 40.6054 11.3723 41.9621 8.88096C43.3187 6.38962 45.1811 4.45329 47.5491 3.07195C49.9417 1.69062 52.6674 0.999953 55.7261 0.999953ZM79.8159 37.038C79.8159 34.7193 80.3833 32.6226 81.5179 30.748C82.6773 28.8486 84.1573 27.2453 85.9579 25.938C87.7833 24.6306 89.6826 23.681 91.6559 23.089L97.4649 25.309C94.2089 26.2956 91.7546 27.825 90.1019 29.897C88.4739 31.969 87.6599 34.152 87.6599 36.446C87.6599 38.9373 88.4739 40.8613 90.1019 42.218C91.7299 43.55 93.7156 44.216 96.0589 44.216C97.6376 44.216 99.0683 43.8953 100.351 43.254C101.634 42.6126 102.645 41.7 103.385 40.516C104.15 39.332 104.532 37.9506 104.532 36.372C104.532 34.744 104.1 33.338 103.237 32.154C102.374 30.9453 101.251 29.9463 99.8699 29.157C98.4886 28.3676 96.9839 27.7263 95.3559 27.233L94.0979 26.826C91.6066 26.0366 89.3743 25.05 87.4009 23.866C85.4523 22.6573 83.9106 21.202 82.7759 19.5C81.6659 17.7733 81.1109 15.7506 81.1109 13.432C81.1109 11.0146 81.7769 8.86862 83.1089 6.99396C84.4409 5.11929 86.2293 3.65162 88.4739 2.59095C90.7433 1.53029 93.2963 0.999953 96.1329 0.999953C99.0929 0.999953 101.695 1.51795 103.94 2.55396C106.185 3.56529 107.936 4.98362 109.194 6.80895C110.477 8.60962 111.118 10.694 111.118 13.062C111.118 15.06 110.625 16.8606 109.638 18.464C108.676 20.0426 107.406 21.387 105.827 22.497C104.248 23.5823 102.559 24.384 100.758 24.902L95.1709 22.645C97.7856 21.905 99.8329 20.6963 101.313 19.019C102.793 17.3416 103.533 15.467 103.533 13.395C103.533 11.323 102.818 9.68262 101.387 8.47395C99.9563 7.26529 98.1926 6.66095 96.0959 6.66095C94.0733 6.66095 92.3466 7.26529 90.9159 8.47395C89.5099 9.68262 88.8069 11.2983 88.8069 13.321C88.8069 15.319 89.5716 16.9346 91.1009 18.168C92.6549 19.3766 94.7269 20.3386 97.3169 21.054L98.6119 21.461C101.202 22.2256 103.545 23.274 105.642 24.606C107.739 25.938 109.391 27.5783 110.6 29.527C111.833 31.4756 112.45 33.782 112.45 36.446C112.45 39.2333 111.685 41.626 110.156 43.624C108.651 45.5973 106.641 47.1143 104.125 48.175C101.609 49.2356 98.8339 49.766 95.7999 49.766C91.0393 49.766 87.1789 48.656 84.2189 46.436C81.2836 44.216 79.8159 41.0833 79.8159 37.038ZM150.933 1.96195C151.278 2.70195 151.599 3.52829 151.895 4.44096C152.191 5.32895 152.339 6.10595 152.339 6.77195C152.339 7.24062 152.228 7.75862 152.006 8.32595C151.808 8.89328 151.463 9.52228 150.97 10.213C148.553 13.469 146.456 16.54 144.68 19.426C142.929 22.312 141.461 25.161 140.277 27.973C139.093 30.785 138.155 33.671 137.465 36.631C136.774 39.591 136.268 42.7606 135.948 46.14L135.689 48.804C135.171 48.9273 134.566 49.0136 133.876 49.063C133.185 49.1123 132.457 49.137 131.693 49.137C131.027 49.137 130.336 49.1123 129.621 49.063C128.905 49.0136 128.276 48.9273 127.734 48.804L128.03 45.77C128.474 41.256 129.448 36.7296 130.953 32.191C132.482 27.6523 134.443 23.3356 136.836 19.241C139.228 15.1216 141.954 11.4586 145.013 8.25195L144.754 7.95595C144.236 8.07928 143.459 8.17795 142.423 8.25195C141.387 8.32595 140.264 8.38762 139.056 8.43695C137.872 8.48628 136.762 8.52329 135.726 8.54795C134.69 8.57262 133.937 8.58495 133.469 8.58495H121.333C121.086 7.79562 120.963 6.90762 120.963 5.92095C120.963 5.23029 121.024 4.55195 121.148 3.88595C121.271 3.19528 121.431 2.55395 121.629 1.96195H150.933Z" fill="#F8F7F0"/>
</g>
<defs>
<filter id="filter0_ddddd_1_2665" x="0" y="0" width="153.339" height="50.7659" filterUnits="userSpaceOnUse" color-interpolation-filters="sRGB">
<feFlood flood-opacity="0" result="BackgroundImageFix"/>
<feColorMatrix in="SourceAlpha" type="matrix" values="0 0 0 0 0 0 0 0 0 0 0 0 0 0 0 0 0 0 127 0" result="hardAlpha"/>
<feOffset dx="1" dy="1"/>
<feComposite in2="hardAlpha" operator="out"/>
<feColorMatrix type="matrix" values="0 0 0 0 0.25098 0 0 0 0 0.290196 0 0 0 0 0.239216 0 0 0 0.5 0"/>
<feBlend mode="normal" in2="BackgroundImageFix" result="effect1_dropShadow_1_2665"/>
<feColorMatrix in="SourceAlpha" type="matrix" values="0 0 0 0 0 0 0 0 0 0 0 0 0 0 0 0 0 0 127 0" result="hardAlpha"/>
<feOffset dx="-1" dy="1"/>
<feComposite in2="hardAlpha" operator="out"/>
<feColorMatrix type="matrix" values="0 0 0 0 0.25098 0 0 0 0 0.290196 0 0 0 0 0.239216 0 0 0 0.5 0"/>
<feBlend mode="normal" in2="effect1_dropShadow_1_2665" result="effect2_dropShadow_1_2665"/>
<feColorMatrix in="SourceAlpha" type="matrix" values="0 0 0 0 0 0 0 0 0 0 0 0 0 0 0 0 0 0 127 0" result="hardAlpha"/>
<feOffset dx="1" dy="-1"/>
<feComposite in2="hardAlpha" operator="out"/>
<feColorMatrix type="matrix" values="0 0 0 0 0.25098 0 0 0 0 0.290196 0 0 0 0 0.239216 0 0 0 0.5 0"/>
<feBlend mode="normal" in2="effect2_dropShadow_1_2665" result="effect3_dropShadow_1_2665"/>
<feColorMatrix in="SourceAlpha" type="matrix" values="0 0 0 0 0 0 0 0 0 0 0 0 0 0 0 0 0 0 127 0" result="hardAlpha"/>
<feOffset dx="-1" dy="-1"/>
<feComposite in2="hardAlpha" operator="out"/>
<feColorMatrix type="matrix" values="0 0 0 0 0.25098 0 0 0 0 0.290196 0 0 0 0 0.239216 0 0 0 0.5 0"/>
<feBlend mode="normal" in2="effect3_dropShadow_1_2665" result="effect4_dropShadow_1_2665"/>
<feColorMatrix in="SourceAlpha" type="matrix" values="0 0 0 0 0 0 0 0 0 0 0 0 0 0 0 0 0 0 127 0" result="hardAlpha"/>
<feOffset dx="1" dy="1"/>
<feComposite in2="hardAlpha" operator="out"/>
<feColorMatrix type="matrix" values="0 0 0 0 0.25098 0 0 0 0 0.290196 0 0 0 0 0.239216 0 0 0 0.5 0"/>
<feBlend mode="normal" in2="effect4_dropShadow_1_2665" result="effect5_dropShadow_1_2665"/>
<feBlend mode="normal" in="SourceGraphic" in2="effect5_dropShadow_1_2665" result="shape"/>
</filter>
</defs>
</svg>
