<svg width="153" height="51" viewBox="0 0 153 51" fill="none" xmlns="http://www.w3.org/2000/svg">
<g filter="url(#filter0_ddddd_1_2671)">
<path d="M22.1272 37.482C22.1272 38.4686 22.1148 39.4183 22.0902 40.331C22.0655 41.219 22.0532 42.181 22.0532 43.217V45.733H14.6532V43.217C14.6532 42.181 14.6408 41.219 14.6162 40.331C14.5915 39.4183 14.5792 38.4686 14.5792 37.482V21.757C14.5792 20.9183 14.6038 19.7466 14.6532 18.242C14.7272 16.7373 14.8012 15.2203 14.8752 13.691C14.9738 12.1616 15.0108 10.9406 14.9862 10.028L14.8382 1.96195C15.4795 1.81395 16.1085 1.72762 16.7252 1.70296C17.3418 1.65362 17.9215 1.62895 18.4642 1.62895C19.0315 1.62895 19.6112 1.65362 20.2032 1.70296C20.8198 1.72762 21.4612 1.81395 22.1272 1.96195V37.482ZM10.3982 42.403C10.9162 42.403 11.6562 42.4153 12.6182 42.44C13.5802 42.4646 14.3078 42.477 14.8012 42.477H21.9052C22.4232 42.477 23.1755 42.4646 24.1622 42.44C25.1488 42.4153 25.8888 42.403 26.3822 42.403H31.4882C31.7102 43.439 31.8212 44.4996 31.8212 45.585C31.8212 46.5963 31.7102 47.6693 31.4882 48.804H3.62716C3.38049 47.7433 3.25716 46.6703 3.25716 45.585C3.25716 44.4503 3.38049 43.3896 3.62716 42.403H10.3982ZM1.00016 16.17C4.57683 13.95 7.52449 11.5943 9.84316 9.10295C12.1618 6.61162 13.8268 4.23129 14.8382 1.96195L17.6872 8.10395C17.0458 9.90462 15.9975 11.619 14.5422 13.247C13.1115 14.875 11.4835 16.3303 9.65816 17.613C7.83283 18.8956 6.03216 19.944 4.25616 20.758C3.44216 20.2893 2.73916 19.6603 2.14716 18.871C1.57983 18.057 1.19749 17.1566 1.00016 16.17ZM55.7261 0.999953C57.8967 0.999953 59.7221 1.28362 61.2021 1.85095C62.7067 2.39362 63.9277 3.04729 64.8651 3.81195C65.8024 4.55195 66.4807 5.19329 66.9001 5.73595C67.2454 6.13062 67.7017 6.73495 68.2691 7.54895C68.8364 8.33829 69.4037 9.46062 69.9711 10.916C70.5631 12.3713 71.0687 14.283 71.4881 16.651C71.9074 18.9943 72.1171 21.9173 72.1171 25.42C72.1171 30.378 71.3894 34.6823 69.9341 38.333C68.4787 41.959 66.3327 44.771 63.4961 46.769C60.6841 48.767 57.1937 49.766 53.0251 49.766C50.9284 49.766 48.9427 49.5563 47.0681 49.137C45.2181 48.7176 43.6394 48.1503 42.3321 47.435C42.4307 46.4483 42.7144 45.437 43.1831 44.401C43.6517 43.365 44.2807 42.5633 45.0701 41.996C46.0321 42.3906 47.1297 42.7606 48.3631 43.106C49.5964 43.4266 51.0024 43.587 52.5811 43.587C55.3437 43.587 57.5637 42.8963 59.2411 41.515C60.9431 40.109 62.1764 38.222 62.9411 35.854C63.7057 33.4613 64.0881 30.7973 64.0881 27.862V21.498C64.0881 20.2153 63.9894 18.834 63.7921 17.354C63.5947 15.874 63.2741 14.4556 62.8301 13.099C62.4107 11.7176 61.8187 10.5583 61.0541 9.62095C60.4621 8.85629 59.7097 8.22729 58.7971 7.73395C57.9091 7.21595 56.8484 6.95695 55.6151 6.95695C53.0251 6.95695 51.0641 7.88195 49.7321 9.73196C48.4001 11.582 47.7341 14.024 47.7341 17.058C47.7341 19.5 48.0671 21.4363 48.7331 22.867C49.3991 24.273 50.2994 25.2843 51.4341 25.901C52.5934 26.5176 53.9007 26.826 55.3561 26.826C56.6634 26.826 57.9831 26.5423 59.3151 25.975C60.6471 25.4076 61.9051 24.6183 63.0891 23.607C64.2731 22.5956 65.2844 21.4116 66.1231 20.055L67.6771 24.273C66.9371 25.827 65.8517 27.2946 64.4211 28.676C63.0151 30.0326 61.3624 31.1303 59.4631 31.969C57.5884 32.8076 55.5657 33.227 53.3951 33.227C49.3991 33.227 46.1554 31.9566 43.6641 29.416C41.1727 26.8753 39.9271 22.9163 39.9271 17.539C39.9271 14.2583 40.6054 11.3723 41.9621 8.88096C43.3187 6.38962 45.1811 4.45329 47.5491 3.07195C49.9417 1.69062 52.6674 0.999953 55.7261 0.999953ZM95.6889 0.999953C97.8596 0.999953 99.6849 1.28362 101.165 1.85095C102.67 2.39362 103.891 3.04729 104.828 3.81195C105.765 4.55195 106.444 5.19329 106.863 5.73595C107.208 6.13062 107.665 6.73495 108.232 7.54895C108.799 8.33829 109.367 9.46062 109.934 10.916C110.526 12.3713 111.032 14.283 111.451 16.651C111.87 18.9943 112.08 21.9173 112.08 25.42C112.08 30.378 111.352 34.6823 109.897 38.333C108.442 41.959 106.296 44.771 103.459 46.769C100.647 48.767 97.1566 49.766 92.9879 49.766C90.8913 49.766 88.9056 49.5563 87.0309 49.137C85.1809 48.7176 83.6023 48.1503 82.2949 47.435C82.3936 46.4483 82.6773 45.437 83.1459 44.401C83.6146 43.365 84.2436 42.5633 85.0329 41.996C85.9949 42.3906 87.0926 42.7606 88.3259 43.106C89.5593 43.4266 90.9653 43.587 92.5439 43.587C95.3066 43.587 97.5266 42.8963 99.2039 41.515C100.906 40.109 102.139 38.222 102.904 35.854C103.669 33.4613 104.051 30.7973 104.051 27.862V21.498C104.051 20.2153 103.952 18.834 103.755 17.354C103.558 15.874 103.237 14.4556 102.793 13.099C102.374 11.7176 101.782 10.5583 101.017 9.62095C100.425 8.85629 99.6726 8.22729 98.7599 7.73395C97.8719 7.21595 96.8113 6.95695 95.5779 6.95695C92.9879 6.95695 91.0269 7.88195 89.6949 9.73196C88.3629 11.582 87.6969 14.024 87.6969 17.058C87.6969 19.5 88.0299 21.4363 88.6959 22.867C89.3619 24.273 90.2623 25.2843 91.3969 25.901C92.5563 26.5176 93.8636 26.826 95.3189 26.826C96.6263 26.826 97.9459 26.5423 99.2779 25.975C100.61 25.4076 101.868 24.6183 103.052 23.607C104.236 22.5956 105.247 21.4116 106.086 20.055L107.64 24.273C106.9 25.827 105.815 27.2946 104.384 28.676C102.978 30.0326 101.325 31.1303 99.4259 31.969C97.5513 32.8076 95.5286 33.227 93.3579 33.227C89.3619 33.227 86.1183 31.9566 83.6269 29.416C81.1356 26.8753 79.8899 22.9163 79.8899 17.539C79.8899 14.2583 80.5683 11.3723 81.9249 8.88096C83.2816 6.38962 85.1439 4.45329 87.5119 3.07195C89.9046 1.69062 92.6303 0.999953 95.6889 0.999953ZM130.176 17.058C130.126 18.0446 130.015 19.056 129.843 20.092C129.695 21.128 129.473 22.1023 129.177 23.015C128.215 23.385 127.166 23.681 126.032 23.903C124.922 24.1003 123.688 24.2606 122.332 24.384L123.442 2.44295L130.25 3.51595C130.324 4.23129 130.385 5.15629 130.435 6.29095C130.484 7.40095 130.509 8.51095 130.509 9.62095C130.533 10.731 130.521 11.6066 130.472 12.248L130.176 17.058ZM120.667 45.067C120.815 44.253 121.197 43.3403 121.814 42.329C122.43 41.293 123.133 40.4913 123.923 39.924C125.427 40.96 126.994 41.811 128.622 42.477C130.25 43.143 132.063 43.476 134.061 43.476C135.713 43.476 137.255 43.106 138.686 42.366C140.141 41.626 141.313 40.4913 142.201 38.962C143.089 37.4326 143.533 35.4716 143.533 33.079C143.533 30.6863 143.064 28.824 142.127 27.492C141.214 26.1353 140.055 25.1733 138.649 24.606C137.268 24.0386 135.862 23.755 134.431 23.755C133 23.755 131.569 24.0386 130.139 24.606C128.708 25.1486 127.351 25.9503 126.069 27.011C125.378 26.863 124.675 26.53 123.96 26.012C123.244 25.494 122.702 24.9513 122.332 24.384C123.318 23.2986 124.515 22.238 125.921 21.202C127.351 20.166 128.967 19.315 130.768 18.649C132.568 17.983 134.468 17.65 136.466 17.65C141.004 17.65 144.643 18.9943 147.381 21.683C150.143 24.347 151.525 28.01 151.525 32.672C151.525 36.5693 150.699 39.7883 149.046 42.329C147.393 44.845 145.272 46.7196 142.682 47.953C140.116 49.1616 137.415 49.766 134.579 49.766C131.643 49.766 128.979 49.322 126.587 48.434C124.219 47.5213 122.245 46.399 120.667 45.067ZM149.009 1.96195C149.206 2.52929 149.342 3.09662 149.416 3.66395C149.49 4.23129 149.527 4.72462 149.527 5.14395C149.527 7.41329 148.392 8.54795 146.123 8.54795H133.358C132.075 8.54795 130.792 8.52329 129.51 8.47395C128.252 8.42462 127.105 8.37529 126.069 8.32595C125.033 8.25195 124.243 8.17795 123.701 8.10395L123.442 2.44295L123.923 1.96195H149.009Z" fill="#F8F7F0"/>
</g>
<defs>
<filter id="filter0_ddddd_1_2671" x="0" y="0" width="152.525" height="50.7659" filterUnits="userSpaceOnUse" color-interpolation-filters="sRGB">
<feFlood flood-opacity="0" result="BackgroundImageFix"/>
<feColorMatrix in="SourceAlpha" type="matrix" values="0 0 0 0 0 0 0 0 0 0 0 0 0 0 0 0 0 0 127 0" result="hardAlpha"/>
<feOffset dx="1" dy="1"/>
<feComposite in2="hardAlpha" operator="out"/>
<feColorMatrix type="matrix" values="0 0 0 0 0.25098 0 0 0 0 0.290196 0 0 0 0 0.239216 0 0 0 0.5 0"/>
<feBlend mode="normal" in2="BackgroundImageFix" result="effect1_dropShadow_1_2671"/>
<feColorMatrix in="SourceAlpha" type="matrix" values="0 0 0 0 0 0 0 0 0 0 0 0 0 0 0 0 0 0 127 0" result="hardAlpha"/>
<feOffset dx="-1" dy="1"/>
<feComposite in2="hardAlpha" operator="out"/>
<feColorMatrix type="matrix" values="0 0 0 0 0.25098 0 0 0 0 0.290196 0 0 0 0 0.239216 0 0 0 0.5 0"/>
<feBlend mode="normal" in2="effect1_dropShadow_1_2671" result="effect2_dropShadow_1_2671"/>
<feColorMatrix in="SourceAlpha" type="matrix" values="0 0 0 0 0 0 0 0 0 0 0 0 0 0 0 0 0 0 127 0" result="hardAlpha"/>
<feOffset dx="1" dy="-1"/>
<feComposite in2="hardAlpha" operator="out"/>
<feColorMatrix type="matrix" values="0 0 0 0 0.25098 0 0 0 0 0.290196 0 0 0 0 0.239216 0 0 0 0.5 0"/>
<feBlend mode="normal" in2="effect2_dropShadow_1_2671" result="effect3_dropShadow_1_2671"/>
<feColorMatrix in="SourceAlpha" type="matrix" values="0 0 0 0 0 0 0 0 0 0 0 0 0 0 0 0 0 0 127 0" result="hardAlpha"/>
<feOffset dx="-1" dy="-1"/>
<feComposite in2="hardAlpha" operator="out"/>
<feColorMatrix type="matrix" values="0 0 0 0 0.25098 0 0 0 0 0.290196 0 0 0 0 0.239216 0 0 0 0.5 0"/>
<feBlend mode="normal" in2="effect3_dropShadow_1_2671" result="effect4_dropShadow_1_2671"/>
<feColorMatrix in="SourceAlpha" type="matrix" values="0 0 0 0 0 0 0 0 0 0 0 0 0 0 0 0 0 0 127 0" result="hardAlpha"/>
<feOffset dx="1" dy="1"/>
<feComposite in2="hardAlpha" operator="out"/>
<feColorMatrix type="matrix" values="0 0 0 0 0.25098 0 0 0 0 0.290196 0 0 0 0 0.239216 0 0 0 0.5 0"/>
<feBlend mode="normal" in2="effect4_dropShadow_1_2671" result="effect5_dropShadow_1_2671"/>
<feBlend mode="normal" in="SourceGraphic" in2="effect5_dropShadow_1_2671" result="shape"/>
</filter>
</defs>
</svg>
