<svg width="154" height="51" viewBox="0 0 154 51" fill="none" xmlns="http://www.w3.org/2000/svg">
<g filter="url(#filter0_ddddd_1_2677)">
<path d="M1.5549 11.804C2.27023 9.85529 3.31857 8.06695 4.6999 6.43895C6.1059 4.81095 7.8079 3.50362 9.8059 2.51695C11.8039 1.50562 14.0609 0.999953 16.5769 0.999953C21.0169 0.999953 24.5319 2.28262 27.1219 4.84795C29.7119 7.38862 31.0069 10.694 31.0069 14.764C31.0069 17.132 30.5629 19.1916 29.6749 20.943C28.8116 22.6943 27.6769 24.273 26.2709 25.679C24.8896 27.085 23.3849 28.4663 21.7569 29.823L16.0959 34.485C14.6899 35.669 13.4319 36.816 12.3219 37.926C11.2119 39.036 10.3362 40.0596 9.6949 40.997C9.05357 41.9096 8.72057 42.6866 8.6959 43.328L8.5479 48.841H4.0709C3.30623 48.027 2.60323 47.213 1.9619 46.399C1.32057 45.5603 0.999899 44.623 0.999899 43.587C0.999899 42.181 1.43157 40.7133 2.2949 39.184C3.1829 37.6546 4.3299 36.1376 5.7359 34.633C7.16657 33.1036 8.67123 31.6483 10.2499 30.267L17.5019 24.125C19.2532 22.6696 20.6222 21.2266 21.6089 19.796C22.5956 18.3406 23.0889 16.6386 23.0889 14.69C23.0889 12.4453 22.4106 10.657 21.0539 9.32495C19.7219 7.99295 18.0076 7.32695 15.9109 7.32695C13.8636 7.32695 12.0752 8.01762 10.5459 9.39895C9.04123 10.7556 7.8819 12.4206 7.0679 14.394C6.13057 14.3446 5.1069 14.1103 3.9969 13.691C2.8869 13.247 2.0729 12.618 1.5549 11.804ZM32.1539 42.107C32.1539 44.7216 31.7716 46.4976 31.0069 47.435C30.2422 48.3723 28.9226 48.841 27.0479 48.841H4.5889L2.3689 43.809C3.8489 43.3896 5.60023 43.0566 7.6229 42.81C9.67023 42.5386 11.6806 42.3536 13.6539 42.255C15.6519 42.1563 17.3046 42.107 18.6119 42.107H32.1539ZM40.4078 25.383C40.4078 20.869 40.7408 16.9593 41.4068 13.654C42.0975 10.3486 43.5651 7.52429 45.8098 5.18095C47.0925 3.89829 48.5848 2.88695 50.2868 2.14695C51.9888 1.38229 54.1101 0.999953 56.6508 0.999953C59.2161 0.999953 61.3251 1.38229 62.9778 2.14695C64.6305 2.88695 66.1105 3.89829 67.4178 5.18095C69.6625 7.52429 71.1178 10.3486 71.7838 13.654C72.4745 16.9593 72.8198 20.869 72.8198 25.383C72.8198 29.897 72.4745 33.8066 71.7838 37.112C71.1178 40.3926 69.6625 43.217 67.4178 45.585C66.1105 46.843 64.6181 47.8543 62.9408 48.619C61.2881 49.3836 59.1791 49.766 56.6138 49.766C54.0731 49.766 51.9641 49.3836 50.2868 48.619C48.6095 47.8543 47.1171 46.843 45.8098 45.585C43.5898 43.217 42.1345 40.3926 41.4438 37.112C40.7531 33.8066 40.4078 29.897 40.4078 25.383ZM48.4368 25.383C48.4368 29.527 48.6465 32.857 49.0658 35.373C49.5098 37.889 50.2498 39.813 51.2858 41.145C51.8778 42.0083 52.6178 42.662 53.5058 43.106C54.4185 43.5253 55.4545 43.735 56.6138 43.735C57.7978 43.735 58.8338 43.5253 59.7218 43.106C60.6345 42.6866 61.3745 42.033 61.9418 41.145C62.9778 39.813 63.7055 37.889 64.1248 35.373C64.5688 32.857 64.7908 29.527 64.7908 25.383C64.7908 21.2143 64.5688 17.8843 64.1248 15.393C63.7055 12.877 62.9778 10.953 61.9418 9.62095C61.3498 8.75762 60.6098 8.11629 59.7218 7.69695C58.8338 7.25295 57.7978 7.03095 56.6138 7.03095C55.4545 7.03095 54.4185 7.25295 53.5058 7.69695C52.6178 8.11629 51.8778 8.75762 51.2858 9.62095C50.2498 10.953 49.5098 12.877 49.0658 15.393C48.6465 17.8843 48.4368 21.2143 48.4368 25.383ZM80.3707 25.383C80.3707 20.869 80.7037 16.9593 81.3697 13.654C82.0603 10.3486 83.528 7.52429 85.7727 5.18095C87.0553 3.89829 88.5477 2.88695 90.2497 2.14695C91.9517 1.38229 94.073 0.999953 96.6137 0.999953C99.179 0.999953 101.288 1.38229 102.941 2.14695C104.593 2.88695 106.073 3.89829 107.381 5.18095C109.625 7.52429 111.081 10.3486 111.747 13.654C112.437 16.9593 112.783 20.869 112.783 25.383C112.783 29.897 112.437 33.8066 111.747 37.112C111.081 40.3926 109.625 43.217 107.381 45.585C106.073 46.843 104.581 47.8543 102.904 48.619C101.251 49.3836 99.142 49.766 96.5767 49.766C94.036 49.766 91.927 49.3836 90.2497 48.619C88.5723 47.8543 87.08 46.843 85.7727 45.585C83.5527 43.217 82.0973 40.3926 81.4067 37.112C80.716 33.8066 80.3707 29.897 80.3707 25.383ZM88.3997 25.383C88.3997 29.527 88.6093 32.857 89.0287 35.373C89.4727 37.889 90.2127 39.813 91.2487 41.145C91.8407 42.0083 92.5807 42.662 93.4687 43.106C94.3813 43.5253 95.4173 43.735 96.5767 43.735C97.7607 43.735 98.7967 43.5253 99.6847 43.106C100.597 42.6866 101.337 42.033 101.905 41.145C102.941 39.813 103.668 37.889 104.088 35.373C104.532 32.857 104.754 29.527 104.754 25.383C104.754 21.2143 104.532 17.8843 104.088 15.393C103.668 12.877 102.941 10.953 101.905 9.62095C101.313 8.75762 100.573 8.11629 99.6847 7.69695C98.7967 7.25295 97.7607 7.03095 96.5767 7.03095C95.4173 7.03095 94.3813 7.25295 93.4687 7.69695C92.5807 8.11629 91.8407 8.75762 91.2487 9.62095C90.2127 10.953 89.4727 12.877 89.0287 15.393C88.6093 17.8843 88.3997 21.2143 88.3997 25.383ZM120.334 25.383C120.334 20.869 120.667 16.9593 121.333 13.654C122.023 10.3486 123.491 7.52429 125.736 5.18095C127.018 3.89829 128.511 2.88695 130.213 2.14695C131.915 1.38229 134.036 0.999953 136.577 0.999953C139.142 0.999953 141.251 1.38229 142.904 2.14695C144.556 2.88695 146.036 3.89829 147.344 5.18095C149.588 7.52429 151.044 10.3486 151.71 13.654C152.4 16.9593 152.746 20.869 152.746 25.383C152.746 29.897 152.4 33.8066 151.71 37.112C151.044 40.3926 149.588 43.217 147.344 45.585C146.036 46.843 144.544 47.8543 142.867 48.619C141.214 49.3836 139.105 49.766 136.54 49.766C133.999 49.766 131.89 49.3836 130.213 48.619C128.535 47.8543 127.043 46.843 125.736 45.585C123.516 43.217 122.06 40.3926 121.37 37.112C120.679 33.8066 120.334 29.897 120.334 25.383ZM128.363 25.383C128.363 29.527 128.572 32.857 128.992 35.373C129.436 37.889 130.176 39.813 131.212 41.145C131.804 42.0083 132.544 42.662 133.432 43.106C134.344 43.5253 135.38 43.735 136.54 43.735C137.724 43.735 138.76 43.5253 139.648 43.106C140.56 42.6866 141.3 42.033 141.868 41.145C142.904 39.813 143.631 37.889 144.051 35.373C144.495 32.857 144.717 29.527 144.717 25.383C144.717 21.2143 144.495 17.8843 144.051 15.393C143.631 12.877 142.904 10.953 141.868 9.62095C141.276 8.75762 140.536 8.11629 139.648 7.69695C138.76 7.25295 137.724 7.03095 136.54 7.03095C135.38 7.03095 134.344 7.25295 133.432 7.69695C132.544 8.11629 131.804 8.75762 131.212 9.62095C130.176 10.953 129.436 12.877 128.992 15.393C128.572 17.8843 128.363 21.2143 128.363 25.383Z" fill="#F8F7F0"/>
</g>
<defs>
<filter id="filter0_ddddd_1_2677" x="0" y="0" width="153.746" height="50.7659" filterUnits="userSpaceOnUse" color-interpolation-filters="sRGB">
<feFlood flood-opacity="0" result="BackgroundImageFix"/>
<feColorMatrix in="SourceAlpha" type="matrix" values="0 0 0 0 0 0 0 0 0 0 0 0 0 0 0 0 0 0 127 0" result="hardAlpha"/>
<feOffset dx="1" dy="1"/>
<feComposite in2="hardAlpha" operator="out"/>
<feColorMatrix type="matrix" values="0 0 0 0 0.25098 0 0 0 0 0.290196 0 0 0 0 0.239216 0 0 0 0.5 0"/>
<feBlend mode="normal" in2="BackgroundImageFix" result="effect1_dropShadow_1_2677"/>
<feColorMatrix in="SourceAlpha" type="matrix" values="0 0 0 0 0 0 0 0 0 0 0 0 0 0 0 0 0 0 127 0" result="hardAlpha"/>
<feOffset dx="-1" dy="1"/>
<feComposite in2="hardAlpha" operator="out"/>
<feColorMatrix type="matrix" values="0 0 0 0 0.25098 0 0 0 0 0.290196 0 0 0 0 0.239216 0 0 0 0.5 0"/>
<feBlend mode="normal" in2="effect1_dropShadow_1_2677" result="effect2_dropShadow_1_2677"/>
<feColorMatrix in="SourceAlpha" type="matrix" values="0 0 0 0 0 0 0 0 0 0 0 0 0 0 0 0 0 0 127 0" result="hardAlpha"/>
<feOffset dx="1" dy="-1"/>
<feComposite in2="hardAlpha" operator="out"/>
<feColorMatrix type="matrix" values="0 0 0 0 0.25098 0 0 0 0 0.290196 0 0 0 0 0.239216 0 0 0 0.5 0"/>
<feBlend mode="normal" in2="effect2_dropShadow_1_2677" result="effect3_dropShadow_1_2677"/>
<feColorMatrix in="SourceAlpha" type="matrix" values="0 0 0 0 0 0 0 0 0 0 0 0 0 0 0 0 0 0 127 0" result="hardAlpha"/>
<feOffset dx="-1" dy="-1"/>
<feComposite in2="hardAlpha" operator="out"/>
<feColorMatrix type="matrix" values="0 0 0 0 0.25098 0 0 0 0 0.290196 0 0 0 0 0.239216 0 0 0 0.5 0"/>
<feBlend mode="normal" in2="effect3_dropShadow_1_2677" result="effect4_dropShadow_1_2677"/>
<feColorMatrix in="SourceAlpha" type="matrix" values="0 0 0 0 0 0 0 0 0 0 0 0 0 0 0 0 0 0 127 0" result="hardAlpha"/>
<feOffset dx="1" dy="1"/>
<feComposite in2="hardAlpha" operator="out"/>
<feColorMatrix type="matrix" values="0 0 0 0 0.25098 0 0 0 0 0.290196 0 0 0 0 0.239216 0 0 0 0.5 0"/>
<feBlend mode="normal" in2="effect4_dropShadow_1_2677" result="effect5_dropShadow_1_2677"/>
<feBlend mode="normal" in="SourceGraphic" in2="effect5_dropShadow_1_2677" result="shape"/>
</filter>
</defs>
</svg>
