<svg width="461" height="128" viewBox="0 0 461 128" fill="none" xmlns="http://www.w3.org/2000/svg">
<g clip-path="url(#clip0_1_2638)">
<path d="M39.3774 48.34L44.7774 57.88L28.3524 64L44.7774 69.985L39.2424 79.93L25.6074 69.04L28.2624 86.5H17.1024L19.5324 69.04L5.76244 80.155L0.00244141 69.985L16.2924 63.865L0.137441 57.88L5.49244 48.205L19.5324 58.96L17.0124 41.5H28.2624L25.6074 58.96L39.3774 48.34Z" fill="#EDDD5E"/>
</g>
<g filter="url(#filter0_ddddd_1_2638)">
<path d="M66.67 92.5C65.3034 92.7333 63.9367 92.8833 62.57 92.95C61.2034 93.05 59.9534 93.1 58.82 93.1C57.72 93.1 56.42 93.05 54.92 92.95C53.42 92.8833 51.9867 92.7333 50.62 92.5V24.8L51.32 24.2H66.57V28.95C66.57 31.7167 66.5867 34.5333 66.62 37.4C66.6534 40.2333 66.67 42.9667 66.67 45.6V92.5ZM94.07 24.2C94.3367 25.0667 94.52 26.0833 94.62 27.25C94.72 28.3833 94.77 29.4167 94.77 30.35C94.77 32.95 94.0534 34.8333 92.62 36C91.22 37.1667 89.0867 37.75 86.22 37.75H73.72C71.22 37.75 68.8534 37.7333 66.62 37.7C64.42 37.6667 62.22 37.65 60.02 37.65V24.2H94.07ZM87.97 51.95C88.27 52.8833 88.4867 53.9833 88.62 55.25C88.7534 56.5167 88.82 57.5833 88.82 58.45C88.82 59.35 88.7534 60.4333 88.62 61.7C88.4867 62.9667 88.27 64.0833 87.97 65.05H68.57C67.1367 65.05 65.6867 65.0333 64.22 65C62.7534 64.9333 61.5367 64.8833 60.57 64.85V52.15C61.5367 52.0833 62.7534 52.0333 64.22 52C65.6867 51.9667 67.1367 51.95 68.57 51.95H87.97ZM95.6294 78.85C95.6294 74.8167 96.5627 71.5333 98.4294 69C100.296 66.4333 102.729 64.5333 105.729 63.3C108.763 62.0667 111.996 61.45 115.429 61.45C116.929 61.45 118.813 61.4833 121.079 61.55C123.379 61.6167 125.446 61.8333 127.279 62.2V72.1C125.846 71.7667 124.113 71.5833 122.079 71.55C120.079 71.4833 118.413 71.45 117.079 71.45C114.846 71.45 113.246 72.05 112.279 73.25C111.313 74.4167 110.829 75.9333 110.829 77.8C110.829 79.1333 111.246 80.25 112.079 81.15C112.913 82.0167 114.029 82.45 115.429 82.45C117.429 82.45 119.463 81.7333 121.529 80.3C123.596 78.8667 125.346 76.9 126.779 74.4L128.979 84.3C127.679 85.8333 126.196 87.35 124.529 88.85C122.863 90.35 120.913 91.5833 118.679 92.55C116.446 93.5167 113.829 94 110.829 94C107.396 94 104.546 93.2333 102.279 91.7C100.046 90.1667 98.3794 88.2333 97.2794 85.9C96.1794 83.5667 95.6294 81.2167 95.6294 78.85ZM140.979 85.3C140.713 86.6667 140.096 88.15 139.129 89.75C138.163 91.35 137.196 92.5333 136.229 93.3C133.296 93.2333 130.863 92.5667 128.929 91.3C127.029 90.0333 125.563 88.4833 124.529 86.65C123.529 84.7833 122.879 82.9667 122.579 81.2V59.8C122.579 57.7 122.046 56.1167 120.979 55.05C119.946 53.9833 118.296 53.45 116.029 53.45C113.896 53.45 111.563 53.8 109.029 54.5C106.496 55.1667 103.913 55.8833 101.279 56.65C100.179 55.3833 99.3127 53.75 98.6794 51.75C98.0794 49.7167 97.6961 47.7333 97.5294 45.8C99.7627 44.8667 102.246 44.0833 104.979 43.45C107.713 42.7833 110.429 42.2833 113.129 41.95C115.863 41.5833 118.296 41.4 120.429 41.4C123.363 41.4 126.179 41.95 128.879 43.05C131.579 44.1167 133.796 45.9 135.529 48.4C137.296 50.8667 138.179 54.2167 138.179 58.45V78.8C138.179 80.2333 138.396 81.5 138.829 82.6C139.296 83.7 140.013 84.6 140.979 85.3ZM183.549 42.75C183.549 44.5833 183.216 46.9333 182.549 49.8C181.882 52.6333 180.916 55.15 179.649 57.35C178.782 57.0167 177.916 56.7833 177.049 56.65C176.216 56.5167 175.366 56.4 174.499 56.3C173.166 56.3 171.966 56.55 170.899 57.05C169.832 57.5167 168.866 58.2167 167.999 59.15C167.132 60.0833 166.316 61.2333 165.549 62.6C164.782 63.9667 164.049 65.5333 163.349 67.3L161.599 64.95C161.766 62.1833 162.116 59.45 162.649 56.75C163.182 54.0167 163.999 51.5333 165.099 49.3C166.199 47.0667 167.699 45.2833 169.599 43.95C171.532 42.5833 173.966 41.9 176.899 41.9C178.432 41.9 179.666 41.9833 180.599 42.15C181.566 42.2833 182.549 42.4833 183.549 42.75ZM146.899 49.85C147.166 48.45 147.782 46.95 148.749 45.35C149.716 43.7167 150.682 42.5333 151.649 41.8C156.282 42.1333 159.766 43.85 162.099 46.95C164.466 50.0167 165.866 54.05 166.299 59.05V92.5C165.199 92.7 163.966 92.85 162.599 92.95C161.232 93.05 159.866 93.1 158.499 93.1C157.199 93.1 155.849 93.05 154.449 92.95C153.082 92.85 151.816 92.7 150.649 92.5V60.2C150.649 57.2333 150.216 54.9167 149.349 53.25C148.516 51.55 147.699 50.4167 146.899 49.85ZM196.145 41.9C199.112 41.9 201.362 42.9333 202.895 45C204.462 47.0333 205.245 49.7833 205.245 53.25V92.5C204.145 92.7 202.895 92.85 201.495 92.95C200.128 93.05 198.778 93.1 197.445 93.1C196.145 93.1 194.795 93.05 193.395 92.95C192.028 92.85 190.762 92.7 189.595 92.5V42.6L190.295 41.9H196.145ZM216.345 62.4C216.345 59.7333 215.862 57.95 214.895 57.05C213.928 56.15 212.912 55.7 211.845 55.7C210.412 55.7333 208.895 56.3 207.295 57.4C205.728 58.5 204.295 59.85 202.995 61.45C201.695 63.0167 200.762 64.5833 200.195 66.15V52.65C201.762 50.8833 203.478 49.1667 205.345 47.5C207.245 45.8 209.278 44.4167 211.445 43.35C213.612 42.25 215.895 41.7 218.295 41.7C221.195 41.7 223.662 42.3833 225.695 43.75C227.762 45.0833 229.328 46.9333 230.395 49.3C231.462 51.6667 231.995 54.3833 231.995 57.45V92.5C230.895 92.7 229.645 92.85 228.245 92.95C226.878 93.05 225.528 93.1 224.195 93.1C222.895 93.1 221.545 93.05 220.145 92.95C218.778 92.85 217.512 92.7 216.345 92.5V62.4ZM243.095 62.3C243.095 59.6333 242.578 57.8667 241.545 57C240.545 56.1333 239.512 55.7 238.445 55.7C237.145 55.7 235.712 56.2667 234.145 57.4C232.612 58.5 231.162 59.9 229.795 61.6C228.428 63.2667 227.345 64.9667 226.545 66.7V52.25C228.045 50.45 229.812 48.75 231.845 47.15C233.878 45.5167 236.062 44.2 238.395 43.2C240.762 42.2 243.112 41.7 245.445 41.7C248.378 41.7 250.828 42.4 252.795 43.8C254.762 45.1667 256.245 47.05 257.245 49.45C258.245 51.85 258.745 54.5833 258.745 57.65V80C258.745 81.9333 258.928 83.7667 259.295 85.5C259.662 87.2 260.312 88.6833 261.245 89.95C260.112 90.8833 258.695 91.6833 256.995 92.35C255.295 92.9833 253.462 93.3 251.495 93.3C248.362 93.3 246.178 92.4667 244.945 90.8C243.712 89.1333 243.095 86.7333 243.095 83.6V62.3ZM288.454 92.5C287.354 92.7 286.104 92.85 284.704 92.95C283.338 93.05 281.988 93.1 280.654 93.1C279.354 93.1 278.004 93.05 276.604 92.95C275.238 92.85 273.971 92.7 272.804 92.5V59.4C272.804 57.7333 272.454 56.35 271.754 55.25C271.088 54.15 269.871 53.6 268.104 53.6H266.604C266.171 51.9 265.954 50.1333 265.954 48.3C265.954 47.4333 266.004 46.5167 266.104 45.55C266.204 44.55 266.371 43.6 266.604 42.7C268.138 42.5333 269.704 42.4167 271.304 42.35C272.938 42.25 274.304 42.2 275.404 42.2H277.554C280.921 42.2 283.571 43.2833 285.504 45.45C287.471 47.5833 288.454 50.4833 288.454 54.15V92.5ZM269.804 28.55C269.804 27.6167 269.904 26.65 270.104 25.65C270.304 24.6167 270.588 23.6333 270.954 22.7C271.821 22.2667 272.938 21.9 274.304 21.6C275.704 21.3 277.071 21.15 278.404 21.15C279.771 21.15 281.154 21.3 282.554 21.6C283.988 21.9 285.088 22.2667 285.854 22.7C286.221 23.6333 286.504 24.6333 286.704 25.7C286.904 26.7333 287.004 27.6833 287.004 28.55C287.004 29.45 286.904 30.4167 286.704 31.45C286.504 32.4833 286.221 33.45 285.854 34.35C285.088 34.7833 283.988 35.15 282.554 35.45C281.154 35.75 279.771 35.9 278.404 35.9C277.071 35.9 275.688 35.7667 274.254 35.5C272.821 35.2 271.721 34.8167 270.954 34.35C270.588 33.45 270.304 32.4833 270.104 31.45C269.904 30.4167 269.804 29.45 269.804 28.55ZM306.84 41.9C309.84 41.9 312.09 42.9333 313.59 45C315.123 47.0333 315.89 49.7833 315.89 53.25V92.5C314.79 92.7 313.54 92.85 312.14 92.95C310.773 93.05 309.423 93.1 308.09 93.1C306.79 93.1 305.44 93.05 304.04 92.95C302.673 92.85 301.406 92.7 300.24 92.5V42.6L300.94 41.9H306.84ZM343.24 80C343.24 81.9333 343.423 83.7667 343.79 85.5C344.156 87.2 344.806 88.6833 345.74 89.95C344.606 90.8833 343.19 91.6833 341.49 92.35C339.79 92.9833 337.956 93.3 335.99 93.3C332.856 93.3 330.673 92.4667 329.44 90.8C328.206 89.1333 327.59 86.7333 327.59 83.6V62.35C327.59 60.0833 327.29 58.4167 326.69 57.35C326.123 56.25 325.006 55.7 323.34 55.7C322.306 55.7 321.106 55.9833 319.74 56.55C318.406 57.0833 317.056 57.9833 315.69 59.25C314.356 60.5167 313.173 62.2 312.14 64.3V50.6C314.506 48.3333 317.056 46.2833 319.79 44.45C322.556 42.6167 325.706 41.7 329.24 41.7C332.306 41.7 334.873 42.4667 336.94 44C339.006 45.5 340.573 47.5833 341.64 50.25C342.706 52.9167 343.24 56 343.24 59.5V80ZM399.577 49.8C398.744 50.4 398.06 51.3667 397.527 52.7C397.027 54 396.777 55.4333 396.777 57V83.4C396.777 88.0667 396.56 91.9167 396.127 94.95C395.727 98.0167 395.144 100.5 394.377 102.4C393.61 104.333 392.694 105.967 391.627 107.3C389.66 109.833 387.044 111.683 383.777 112.85C380.51 114.017 376.877 114.6 372.877 114.6C369.744 114.6 366.477 114.283 363.077 113.65C359.677 113.05 356.677 112.267 354.077 111.3C354.077 109.467 354.444 107.45 355.177 105.25C355.91 103.05 356.827 101.3 357.927 100C360.06 100.933 362.294 101.667 364.627 102.2C366.96 102.733 369.227 103 371.427 103C373.86 103 375.81 102.583 377.277 101.75C378.777 100.917 379.86 99.7333 380.527 98.2C381.194 96.6667 381.527 94.8833 381.527 92.85V56.8C381.527 52.6333 382.644 49.1167 384.877 46.25C387.11 43.35 390.427 41.8667 394.827 41.8C395.794 42.5333 396.777 43.7167 397.777 45.35C398.777 46.95 399.377 48.4333 399.577 49.8ZM352.177 67.65C352.177 61.9167 353.094 57.0833 354.927 53.15C356.76 49.1833 359.194 46.1833 362.227 44.15C365.26 42.1167 368.594 41.1 372.227 41.1C375.494 41.1 378.26 41.6333 380.527 42.7C382.827 43.7667 384.727 45.0667 386.227 46.6C387.76 48.1333 388.944 49.6333 389.777 51.1L387.227 63.85C385.294 60.2167 383.21 57.45 380.977 55.55C378.777 53.65 376.777 52.7 374.977 52.7C372.544 52.7 370.794 54.05 369.727 56.75C368.694 59.4167 368.177 63.0833 368.177 67.75C368.177 72.3833 368.727 75.75 369.827 77.85C370.96 79.9167 372.377 80.95 374.077 80.95C376.077 80.95 378.027 80.2667 379.927 78.9C381.86 77.5333 383.477 75.5 384.777 72.8L386.977 83.65C385.877 85.5167 384.46 87.2 382.727 88.7C380.994 90.2 379.044 91.3833 376.877 92.25C374.744 93.0833 372.51 93.5 370.177 93.5C366.11 93.5 362.744 92.4 360.077 90.2C357.41 88 355.427 84.9667 354.127 81.1C352.827 77.2 352.177 72.7167 352.177 67.65Z" fill="#5B8C51"/>
</g>
<defs>
<filter id="filter0_ddddd_1_2638" x="49.6201" y="20.1499" width="350.957" height="95.4502" filterUnits="userSpaceOnUse" color-interpolation-filters="sRGB">
<feFlood flood-opacity="0" result="BackgroundImageFix"/>
<feColorMatrix in="SourceAlpha" type="matrix" values="0 0 0 0 0 0 0 0 0 0 0 0 0 0 0 0 0 0 127 0" result="hardAlpha"/>
<feOffset dx="1" dy="1"/>
<feComposite in2="hardAlpha" operator="out"/>
<feColorMatrix type="matrix" values="0 0 0 0 1 0 0 0 0 1 0 0 0 0 1 0 0 0 0.5 0"/>
<feBlend mode="normal" in2="BackgroundImageFix" result="effect1_dropShadow_1_2638"/>
<feColorMatrix in="SourceAlpha" type="matrix" values="0 0 0 0 0 0 0 0 0 0 0 0 0 0 0 0 0 0 127 0" result="hardAlpha"/>
<feOffset dx="-1" dy="1"/>
<feComposite in2="hardAlpha" operator="out"/>
<feColorMatrix type="matrix" values="0 0 0 0 1 0 0 0 0 1 0 0 0 0 1 0 0 0 0.5 0"/>
<feBlend mode="normal" in2="effect1_dropShadow_1_2638" result="effect2_dropShadow_1_2638"/>
<feColorMatrix in="SourceAlpha" type="matrix" values="0 0 0 0 0 0 0 0 0 0 0 0 0 0 0 0 0 0 127 0" result="hardAlpha"/>
<feOffset dx="1" dy="-1"/>
<feComposite in2="hardAlpha" operator="out"/>
<feColorMatrix type="matrix" values="0 0 0 0 1 0 0 0 0 1 0 0 0 0 1 0 0 0 0.5 0"/>
<feBlend mode="normal" in2="effect2_dropShadow_1_2638" result="effect3_dropShadow_1_2638"/>
<feColorMatrix in="SourceAlpha" type="matrix" values="0 0 0 0 0 0 0 0 0 0 0 0 0 0 0 0 0 0 127 0" result="hardAlpha"/>
<feOffset dx="-1" dy="-1"/>
<feComposite in2="hardAlpha" operator="out"/>
<feColorMatrix type="matrix" values="0 0 0 0 1 0 0 0 0 1 0 0 0 0 1 0 0 0 0.5 0"/>
<feBlend mode="normal" in2="effect3_dropShadow_1_2638" result="effect4_dropShadow_1_2638"/>
<feColorMatrix in="SourceAlpha" type="matrix" values="0 0 0 0 0 0 0 0 0 0 0 0 0 0 0 0 0 0 127 0" result="hardAlpha"/>
<feOffset dx="1" dy="1"/>
<feComposite in2="hardAlpha" operator="out"/>
<feColorMatrix type="matrix" values="0 0 0 0 1 0 0 0 0 1 0 0 0 0 1 0 0 0 0.5 0"/>
<feBlend mode="normal" in2="effect4_dropShadow_1_2638" result="effect5_dropShadow_1_2638"/>
<feBlend mode="normal" in="SourceGraphic" in2="effect5_dropShadow_1_2638" result="shape"/>
</filter>
<clipPath id="clip0_1_2638">
<rect width="44.78" height="45" fill="white" transform="matrix(1 0 0 -1 0 86.5)"/>
</clipPath>
</defs>
</svg>
