<svg width="444" height="128" viewBox="0 0 444 128" fill="none" xmlns="http://www.w3.org/2000/svg">
<g clip-path="url(#clip0_1_2642)">
<path d="M39.3774 48.34L44.7774 57.88L28.3524 64L44.7774 69.985L39.2424 79.93L25.6074 69.04L28.2624 86.5H17.1024L19.5324 69.04L5.76244 80.155L0.00244141 69.985L16.2924 63.865L0.137441 57.88L5.49244 48.205L19.5324 58.96L17.0124 41.5H28.2624L25.6074 58.96L39.3774 48.34Z" fill="#EDDD5E"/>
</g>
<g filter="url(#filter0_ddddd_1_2642)">
<path d="M63.3303 58.3C63.3303 60.9333 63.4636 63.6167 63.7303 66.35C64.0303 69.0833 64.6136 71.6167 65.4803 73.95C66.3803 76.25 67.6969 78.1167 69.4303 79.55C71.1636 80.9833 73.4803 81.7 76.3803 81.7C79.2803 81.7 81.5803 80.9833 83.2803 79.55C85.0136 78.1167 86.3136 76.25 87.1803 73.95C88.0803 71.6167 88.6636 69.0833 88.9303 66.35C89.2303 63.6167 89.3803 60.9333 89.3803 58.3C89.3803 55.6667 89.2303 53 88.9303 50.3C88.6636 47.5667 88.0803 45.05 87.1803 42.75C86.3136 40.4167 85.0136 38.55 83.2803 37.15C81.5803 35.7167 79.2803 35 76.3803 35C73.4803 35 71.1636 35.7167 69.4303 37.15C67.6969 38.55 66.3803 40.4167 65.4803 42.75C64.6136 45.05 64.0303 47.5667 63.7303 50.3C63.4636 53 63.3303 55.6667 63.3303 58.3ZM46.6303 58.3C46.6303 51.1667 47.6969 44.9333 49.8303 39.6C51.9969 34.2667 55.2803 30.1167 59.6803 27.15C64.0803 24.1833 69.6469 22.7 76.3803 22.7C83.1469 22.7 88.7303 24.2 93.1303 27.2C97.5303 30.1667 100.797 34.3167 102.93 39.65C105.064 44.9833 106.13 51.2 106.13 58.3C106.13 65.4667 105.047 71.7333 102.88 77.1C100.714 82.4333 97.4303 86.5833 93.0303 89.55C88.6636 92.5167 83.1136 94 76.3803 94C69.6136 94 64.0303 92.5 59.6303 89.5C55.2303 86.5 51.9636 82.3333 49.8303 77C47.6969 71.6333 46.6303 65.4 46.6303 58.3ZM149.282 42.75C149.282 44.5833 148.949 46.9333 148.282 49.8C147.615 52.6333 146.649 55.15 145.382 57.35C144.515 57.0167 143.649 56.7833 142.782 56.65C141.949 56.5167 141.099 56.4 140.232 56.3C138.899 56.3 137.699 56.55 136.632 57.05C135.565 57.5167 134.599 58.2167 133.732 59.15C132.865 60.0833 132.049 61.2333 131.282 62.6C130.515 63.9667 129.782 65.5333 129.082 67.3L127.332 64.95C127.499 62.1833 127.849 59.45 128.382 56.75C128.915 54.0167 129.732 51.5333 130.832 49.3C131.932 47.0667 133.432 45.2833 135.332 43.95C137.265 42.5833 139.699 41.9 142.632 41.9C144.165 41.9 145.399 41.9833 146.332 42.15C147.299 42.2833 148.282 42.4833 149.282 42.75ZM112.632 49.85C112.899 48.45 113.515 46.95 114.482 45.35C115.449 43.7167 116.415 42.5333 117.382 41.8C122.015 42.1333 125.499 43.85 127.832 46.95C130.199 50.0167 131.599 54.05 132.032 59.05V92.5C130.932 92.7 129.699 92.85 128.332 92.95C126.965 93.05 125.599 93.1 124.232 93.1C122.932 93.1 121.582 93.05 120.182 92.95C118.815 92.85 117.549 92.7 116.382 92.5V60.2C116.382 57.2333 115.949 54.9167 115.082 53.25C114.249 51.55 113.432 50.4167 112.632 49.85ZM198.806 49.8C197.973 50.4 197.289 51.3667 196.756 52.7C196.256 54 196.006 55.4333 196.006 57V83.4C196.006 88.0667 195.789 91.9167 195.356 94.95C194.956 98.0167 194.373 100.5 193.606 102.4C192.839 104.333 191.923 105.967 190.856 107.3C188.889 109.833 186.273 111.683 183.006 112.85C179.739 114.017 176.106 114.6 172.106 114.6C168.973 114.6 165.706 114.283 162.306 113.65C158.906 113.05 155.906 112.267 153.306 111.3C153.306 109.467 153.673 107.45 154.406 105.25C155.139 103.05 156.056 101.3 157.156 100C159.289 100.933 161.523 101.667 163.856 102.2C166.189 102.733 168.456 103 170.656 103C173.089 103 175.039 102.583 176.506 101.75C178.006 100.917 179.089 99.7333 179.756 98.2C180.423 96.6667 180.756 94.8833 180.756 92.85V56.8C180.756 52.6333 181.873 49.1167 184.106 46.25C186.339 43.35 189.656 41.8667 194.056 41.8C195.023 42.5333 196.006 43.7167 197.006 45.35C198.006 46.95 198.606 48.4333 198.806 49.8ZM151.406 67.65C151.406 61.9167 152.323 57.0833 154.156 53.15C155.989 49.1833 158.423 46.1833 161.456 44.15C164.489 42.1167 167.823 41.1 171.456 41.1C174.723 41.1 177.489 41.6333 179.756 42.7C182.056 43.7667 183.956 45.0667 185.456 46.6C186.989 48.1333 188.173 49.6333 189.006 51.1L186.456 63.85C184.523 60.2167 182.439 57.45 180.206 55.55C178.006 53.65 176.006 52.7 174.206 52.7C171.773 52.7 170.023 54.05 168.956 56.75C167.923 59.4167 167.406 63.0833 167.406 67.75C167.406 72.3833 167.956 75.75 169.056 77.85C170.189 79.9167 171.606 80.95 173.306 80.95C175.306 80.95 177.256 80.2667 179.156 78.9C181.089 77.5333 182.706 75.5 184.006 72.8L186.206 83.65C185.106 85.5167 183.689 87.2 181.956 88.7C180.223 90.2 178.273 91.3833 176.106 92.25C173.973 93.0833 171.739 93.5 169.406 93.5C165.339 93.5 161.973 92.4 159.306 90.2C156.639 88 154.656 84.9667 153.356 81.1C152.056 77.2 151.406 72.7167 151.406 67.65ZM204.819 78.85C204.819 74.8167 205.753 71.5333 207.619 69C209.486 66.4333 211.919 64.5333 214.919 63.3C217.953 62.0667 221.186 61.45 224.619 61.45C226.119 61.45 228.003 61.4833 230.269 61.55C232.569 61.6167 234.636 61.8333 236.469 62.2V72.1C235.036 71.7667 233.303 71.5833 231.269 71.55C229.269 71.4833 227.603 71.45 226.269 71.45C224.036 71.45 222.436 72.05 221.469 73.25C220.503 74.4167 220.019 75.9333 220.019 77.8C220.019 79.1333 220.436 80.25 221.269 81.15C222.103 82.0167 223.219 82.45 224.619 82.45C226.619 82.45 228.653 81.7333 230.719 80.3C232.786 78.8667 234.536 76.9 235.969 74.4L238.169 84.3C236.869 85.8333 235.386 87.35 233.719 88.85C232.053 90.35 230.103 91.5833 227.869 92.55C225.636 93.5167 223.019 94 220.019 94C216.586 94 213.736 93.2333 211.469 91.7C209.236 90.1667 207.569 88.2333 206.469 85.9C205.369 83.5667 204.819 81.2167 204.819 78.85ZM250.169 85.3C249.903 86.6667 249.286 88.15 248.319 89.75C247.353 91.35 246.386 92.5333 245.419 93.3C242.486 93.2333 240.053 92.5667 238.119 91.3C236.219 90.0333 234.753 88.4833 233.719 86.65C232.719 84.7833 232.069 82.9667 231.769 81.2V59.8C231.769 57.7 231.236 56.1167 230.169 55.05C229.136 53.9833 227.486 53.45 225.219 53.45C223.086 53.45 220.753 53.8 218.219 54.5C215.686 55.1667 213.103 55.8833 210.469 56.65C209.369 55.3833 208.503 53.75 207.869 51.75C207.269 49.7167 206.886 47.7333 206.719 45.8C208.953 44.8667 211.436 44.0833 214.169 43.45C216.903 42.7833 219.619 42.2833 222.319 41.95C225.053 41.5833 227.486 41.4 229.619 41.4C232.553 41.4 235.369 41.95 238.069 43.05C240.769 44.1167 242.986 45.9 244.719 48.4C246.486 50.8667 247.369 54.2167 247.369 58.45V78.8C247.369 80.2333 247.586 81.5 248.019 82.6C248.486 83.7 249.203 84.6 250.169 85.3ZM265.639 41.9C268.639 41.9 270.889 42.9333 272.389 45C273.922 47.0333 274.689 49.7833 274.689 53.25V92.5C273.589 92.7 272.339 92.85 270.939 92.95C269.572 93.05 268.222 93.1 266.889 93.1C265.589 93.1 264.239 93.05 262.839 92.95C261.472 92.85 260.206 92.7 259.039 92.5V42.6L259.739 41.9H265.639ZM302.039 80C302.039 81.9333 302.222 83.7667 302.589 85.5C302.956 87.2 303.606 88.6833 304.539 89.95C303.406 90.8833 301.989 91.6833 300.289 92.35C298.589 92.9833 296.756 93.3 294.789 93.3C291.656 93.3 289.472 92.4667 288.239 90.8C287.006 89.1333 286.389 86.7333 286.389 83.6V62.35C286.389 60.0833 286.089 58.4167 285.489 57.35C284.922 56.25 283.806 55.7 282.139 55.7C281.106 55.7 279.906 55.9833 278.539 56.55C277.206 57.0833 275.856 57.9833 274.489 59.25C273.156 60.5167 271.972 62.2 270.939 64.3V50.6C273.306 48.3333 275.856 46.2833 278.589 44.45C281.356 42.6167 284.506 41.7 288.039 41.7C291.106 41.7 293.672 42.4667 295.739 44C297.806 45.5 299.372 47.5833 300.439 50.25C301.506 52.9167 302.039 56 302.039 59.5V80ZM331.726 92.5C330.626 92.7 329.376 92.85 327.976 92.95C326.61 93.05 325.26 93.1 323.926 93.1C322.626 93.1 321.276 93.05 319.876 92.95C318.51 92.85 317.243 92.7 316.076 92.5V59.4C316.076 57.7333 315.726 56.35 315.026 55.25C314.36 54.15 313.143 53.6 311.376 53.6H309.876C309.443 51.9 309.226 50.1333 309.226 48.3C309.226 47.4333 309.276 46.5167 309.376 45.55C309.476 44.55 309.643 43.6 309.876 42.7C311.41 42.5333 312.976 42.4167 314.576 42.35C316.21 42.25 317.576 42.2 318.676 42.2H320.826C324.193 42.2 326.843 43.2833 328.776 45.45C330.743 47.5833 331.726 50.4833 331.726 54.15V92.5ZM313.076 28.55C313.076 27.6167 313.176 26.65 313.376 25.65C313.576 24.6167 313.86 23.6333 314.226 22.7C315.093 22.2667 316.21 21.9 317.576 21.6C318.976 21.3 320.343 21.15 321.676 21.15C323.043 21.15 324.426 21.3 325.826 21.6C327.26 21.9 328.36 22.2667 329.126 22.7C329.493 23.6333 329.776 24.6333 329.976 25.7C330.176 26.7333 330.276 27.6833 330.276 28.55C330.276 29.45 330.176 30.4167 329.976 31.45C329.776 32.4833 329.493 33.45 329.126 34.35C328.36 34.7833 327.26 35.15 325.826 35.45C324.426 35.75 323.043 35.9 321.676 35.9C320.343 35.9 318.96 35.7667 317.526 35.5C316.093 35.2 314.993 34.8167 314.226 34.35C313.86 33.45 313.576 32.4833 313.376 31.45C313.176 30.4167 313.076 29.45 313.076 28.55ZM368.462 64.75C368.495 62.15 368.378 59.9667 368.112 58.2C367.878 56.4 367.345 55.0333 366.512 54.1C365.678 53.1667 364.395 52.7 362.662 52.7C360.328 52.7 358.712 53.8833 357.812 56.25C356.945 58.6167 356.512 62.4167 356.512 67.65C356.512 72.95 357.245 76.6333 358.712 78.7C360.178 80.7667 362.328 81.8 365.162 81.8C367.128 81.8 369.062 81.3833 370.962 80.55C372.862 79.7167 374.595 78.7333 376.162 77.6C377.428 78.3333 378.645 79.5833 379.812 81.35C380.978 83.1167 381.728 84.7667 382.062 86.3C379.828 88.6333 376.945 90.5 373.412 91.9C369.912 93.3 366.312 94 362.612 94C359.012 94 355.845 93.3833 353.112 92.15C350.378 90.9167 348.078 89.15 346.212 86.85C344.345 84.5167 342.928 81.7333 341.962 78.5C341.028 75.2667 340.562 71.65 340.562 67.65C340.562 62.8167 341.195 58.7167 342.462 55.35C343.762 51.95 345.495 49.2167 347.662 47.15C349.828 45.05 352.228 43.5167 354.862 42.55C357.528 41.5833 360.228 41.1 362.962 41.1C365.762 41.1 368.345 41.5 370.712 42.3C373.112 43.1 375.178 44.2333 376.912 45.7C378.678 47.1667 380.045 48.9167 381.012 50.95C381.978 52.9833 382.462 55.2333 382.462 57.7C382.462 60.3333 381.728 62.2667 380.262 63.5C378.828 64.7 377.012 65.3 374.812 65.3C373.478 65.3 372.328 65.25 371.362 65.15C370.395 65.05 369.428 64.9167 368.462 64.75Z" fill="#5B8C51"/>
</g>
<defs>
<filter id="filter0_ddddd_1_2642" x="45.6304" y="20.1499" width="337.831" height="95.4502" filterUnits="userSpaceOnUse" color-interpolation-filters="sRGB">
<feFlood flood-opacity="0" result="BackgroundImageFix"/>
<feColorMatrix in="SourceAlpha" type="matrix" values="0 0 0 0 0 0 0 0 0 0 0 0 0 0 0 0 0 0 127 0" result="hardAlpha"/>
<feOffset dx="1" dy="1"/>
<feComposite in2="hardAlpha" operator="out"/>
<feColorMatrix type="matrix" values="0 0 0 0 1 0 0 0 0 1 0 0 0 0 1 0 0 0 0.5 0"/>
<feBlend mode="normal" in2="BackgroundImageFix" result="effect1_dropShadow_1_2642"/>
<feColorMatrix in="SourceAlpha" type="matrix" values="0 0 0 0 0 0 0 0 0 0 0 0 0 0 0 0 0 0 127 0" result="hardAlpha"/>
<feOffset dx="-1" dy="1"/>
<feComposite in2="hardAlpha" operator="out"/>
<feColorMatrix type="matrix" values="0 0 0 0 1 0 0 0 0 1 0 0 0 0 1 0 0 0 0.5 0"/>
<feBlend mode="normal" in2="effect1_dropShadow_1_2642" result="effect2_dropShadow_1_2642"/>
<feColorMatrix in="SourceAlpha" type="matrix" values="0 0 0 0 0 0 0 0 0 0 0 0 0 0 0 0 0 0 127 0" result="hardAlpha"/>
<feOffset dx="1" dy="-1"/>
<feComposite in2="hardAlpha" operator="out"/>
<feColorMatrix type="matrix" values="0 0 0 0 1 0 0 0 0 1 0 0 0 0 1 0 0 0 0.5 0"/>
<feBlend mode="normal" in2="effect2_dropShadow_1_2642" result="effect3_dropShadow_1_2642"/>
<feColorMatrix in="SourceAlpha" type="matrix" values="0 0 0 0 0 0 0 0 0 0 0 0 0 0 0 0 0 0 127 0" result="hardAlpha"/>
<feOffset dx="-1" dy="-1"/>
<feComposite in2="hardAlpha" operator="out"/>
<feColorMatrix type="matrix" values="0 0 0 0 1 0 0 0 0 1 0 0 0 0 1 0 0 0 0.5 0"/>
<feBlend mode="normal" in2="effect3_dropShadow_1_2642" result="effect4_dropShadow_1_2642"/>
<feColorMatrix in="SourceAlpha" type="matrix" values="0 0 0 0 0 0 0 0 0 0 0 0 0 0 0 0 0 0 127 0" result="hardAlpha"/>
<feOffset dx="1" dy="1"/>
<feComposite in2="hardAlpha" operator="out"/>
<feColorMatrix type="matrix" values="0 0 0 0 1 0 0 0 0 1 0 0 0 0 1 0 0 0 0.5 0"/>
<feBlend mode="normal" in2="effect4_dropShadow_1_2642" result="effect5_dropShadow_1_2642"/>
<feBlend mode="normal" in="SourceGraphic" in2="effect5_dropShadow_1_2642" result="shape"/>
</filter>
<clipPath id="clip0_1_2642">
<rect width="44.78" height="45" fill="white" transform="matrix(1 0 0 -1 0 86.5)"/>
</clipPath>
</defs>
</svg>
