<svg width="602" height="128" viewBox="0 0 602 128" fill="none" xmlns="http://www.w3.org/2000/svg">
<g clip-path="url(#clip0_1_2634)">
<path d="M39.3774 48.34L44.7774 57.88L28.3524 64L44.7774 69.985L39.2424 79.93L25.6074 69.04L28.2624 86.5H17.1024L19.5324 69.04L5.76244 80.155L0.00244141 69.985L16.2924 63.865L0.137441 57.88L5.49244 48.205L19.5324 58.96L17.0124 41.5H28.2624L25.6074 58.96L39.3774 48.34Z" fill="#EDDD5E"/>
</g>
<g filter="url(#filter0_ddddd_1_2634)">
<path d="M65.97 24.2C67.2367 24 68.7534 23.85 70.52 23.75C72.32 23.65 73.8867 23.6 75.22 23.6C76.4867 23.6 78.02 23.65 79.82 23.75C81.6534 23.85 83.2034 24.0333 84.47 24.3L105.97 91.45C104.87 92.0833 103.437 92.5667 101.67 92.9C99.9367 93.2333 98.32 93.4 96.82 93.4C94.2867 93.4 92.3034 92.8167 90.87 91.65C89.4367 90.45 88.2367 88.1333 87.27 84.7L80.12 59.35C79.3534 56.55 78.4534 53.25 77.42 49.45C76.42 45.65 75.4867 42.1 74.62 38.8H74.02C73.6867 40.6333 73.2367 42.6833 72.67 44.95C72.1034 47.2167 71.5034 49.4833 70.87 51.75C70.27 53.9833 69.7034 56.0167 69.17 57.85L58.97 92.6C57.97 92.8333 56.9034 92.9833 55.77 93.05C54.6367 93.15 53.4367 93.2 52.17 93.2C50.97 93.2 49.6034 93.1 48.07 92.9C46.57 92.7 45.37 92.4333 44.47 92.1L43.87 91.25L65.97 24.2ZM67.17 78.2C66.7034 78.2 66.1534 78.2 65.52 78.2C64.92 78.1667 64.32 78.15 63.72 78.15C63.12 78.1167 62.57 78.1 62.07 78.1H53.67L58.52 65.65H65.92C66.3867 65.65 66.92 65.65 67.52 65.65C68.12 65.6167 68.72 65.6 69.32 65.6C69.92 65.5667 70.4534 65.55 70.92 65.55H78.22C78.72 65.55 79.2534 65.5667 79.82 65.6C80.42 65.6 81.02 65.6167 81.62 65.65C82.2534 65.65 82.8034 65.65 83.27 65.65H90.92L94.97 78.1H86.52C86.0534 78.1 85.5034 78.1167 84.87 78.15C84.27 78.15 83.6534 78.1667 83.02 78.2C82.42 78.2 81.8867 78.2 81.42 78.2H67.17ZM156.413 49.8C155.58 50.4 154.896 51.3667 154.363 52.7C153.863 54 153.613 55.4333 153.613 57V83.4C153.613 88.0667 153.396 91.9167 152.963 94.95C152.563 98.0167 151.98 100.5 151.213 102.4C150.446 104.333 149.53 105.967 148.463 107.3C146.496 109.833 143.88 111.683 140.613 112.85C137.346 114.017 133.713 114.6 129.713 114.6C126.58 114.6 123.313 114.283 119.913 113.65C116.513 113.05 113.513 112.267 110.913 111.3C110.913 109.467 111.28 107.45 112.013 105.25C112.746 103.05 113.663 101.3 114.763 100C116.896 100.933 119.13 101.667 121.463 102.2C123.796 102.733 126.063 103 128.263 103C130.696 103 132.646 102.583 134.113 101.75C135.613 100.917 136.696 99.7333 137.363 98.2C138.03 96.6667 138.363 94.8833 138.363 92.85V56.8C138.363 52.6333 139.48 49.1167 141.713 46.25C143.946 43.35 147.263 41.8667 151.663 41.8C152.63 42.5333 153.613 43.7167 154.613 45.35C155.613 46.95 156.213 48.4333 156.413 49.8ZM109.013 67.65C109.013 61.9167 109.93 57.0833 111.763 53.15C113.596 49.1833 116.03 46.1833 119.063 44.15C122.096 42.1167 125.43 41.1 129.063 41.1C132.33 41.1 135.096 41.6333 137.363 42.7C139.663 43.7667 141.563 45.0667 143.063 46.6C144.596 48.1333 145.78 49.6333 146.613 51.1L144.063 63.85C142.13 60.2167 140.046 57.45 137.813 55.55C135.613 53.65 133.613 52.7 131.813 52.7C129.38 52.7 127.63 54.05 126.563 56.75C125.53 59.4167 125.013 63.0833 125.013 67.75C125.013 72.3833 125.563 75.75 126.663 77.85C127.796 79.9167 129.213 80.95 130.913 80.95C132.913 80.95 134.863 80.2667 136.763 78.9C138.696 77.5333 140.313 75.5 141.613 72.8L143.813 83.65C142.713 85.5167 141.296 87.2 139.563 88.7C137.83 90.2 135.88 91.3833 133.713 92.25C131.58 93.0833 129.346 93.5 127.013 93.5C122.946 93.5 119.58 92.4 116.913 90.2C114.246 88 112.263 84.9667 110.963 81.1C109.663 77.2 109.013 72.7167 109.013 67.65ZM199.076 42.75C199.076 44.5833 198.743 46.9333 198.076 49.8C197.41 52.6333 196.443 55.15 195.176 57.35C194.31 57.0167 193.443 56.7833 192.576 56.65C191.743 56.5167 190.893 56.4 190.026 56.3C188.693 56.3 187.493 56.55 186.426 57.05C185.36 57.5167 184.393 58.2167 183.526 59.15C182.66 60.0833 181.843 61.2333 181.076 62.6C180.31 63.9667 179.576 65.5333 178.876 67.3L177.126 64.95C177.293 62.1833 177.643 59.45 178.176 56.75C178.71 54.0167 179.526 51.5333 180.626 49.3C181.726 47.0667 183.226 45.2833 185.126 43.95C187.06 42.5833 189.493 41.9 192.426 41.9C193.96 41.9 195.193 41.9833 196.126 42.15C197.093 42.2833 198.076 42.4833 199.076 42.75ZM162.426 49.85C162.693 48.45 163.31 46.95 164.276 45.35C165.243 43.7167 166.21 42.5333 167.176 41.8C171.81 42.1333 175.293 43.85 177.626 46.95C179.993 50.0167 181.393 54.05 181.826 59.05V92.5C180.726 92.7 179.493 92.85 178.126 92.95C176.76 93.05 175.393 93.1 174.026 93.1C172.726 93.1 171.376 93.05 169.976 92.95C168.61 92.85 167.343 92.7 166.176 92.5V60.2C166.176 57.2333 165.743 54.9167 164.876 53.25C164.043 51.55 163.226 50.4167 162.426 49.85ZM225.075 92.5C223.975 92.7 222.725 92.85 221.325 92.95C219.959 93.05 218.609 93.1 217.275 93.1C215.975 93.1 214.625 93.05 213.225 92.95C211.859 92.85 210.592 92.7 209.425 92.5V59.4C209.425 57.7333 209.075 56.35 208.375 55.25C207.709 54.15 206.492 53.6 204.725 53.6H203.225C202.792 51.9 202.575 50.1333 202.575 48.3C202.575 47.4333 202.625 46.5167 202.725 45.55C202.825 44.55 202.992 43.6 203.225 42.7C204.759 42.5333 206.325 42.4167 207.925 42.35C209.559 42.25 210.925 42.2 212.025 42.2H214.175C217.542 42.2 220.192 43.2833 222.125 45.45C224.092 47.5833 225.075 50.4833 225.075 54.15V92.5ZM206.425 28.55C206.425 27.6167 206.525 26.65 206.725 25.65C206.925 24.6167 207.209 23.6333 207.575 22.7C208.442 22.2667 209.559 21.9 210.925 21.6C212.325 21.3 213.692 21.15 215.025 21.15C216.392 21.15 217.775 21.3 219.175 21.6C220.609 21.9 221.709 22.2667 222.475 22.7C222.842 23.6333 223.125 24.6333 223.325 25.7C223.525 26.7333 223.625 27.6833 223.625 28.55C223.625 29.45 223.525 30.4167 223.325 31.45C223.125 32.4833 222.842 33.45 222.475 34.35C221.709 34.7833 220.609 35.15 219.175 35.45C217.775 35.75 216.392 35.9 215.025 35.9C213.692 35.9 212.309 35.7667 210.875 35.5C209.442 35.2 208.342 34.8167 207.575 34.35C207.209 33.45 206.925 32.4833 206.725 31.45C206.525 30.4167 206.425 29.45 206.425 28.55ZM261.811 64.75C261.844 62.15 261.727 59.9667 261.461 58.2C261.227 56.4 260.694 55.0333 259.861 54.1C259.027 53.1667 257.744 52.7 256.011 52.7C253.677 52.7 252.061 53.8833 251.161 56.25C250.294 58.6167 249.861 62.4167 249.861 67.65C249.861 72.95 250.594 76.6333 252.061 78.7C253.527 80.7667 255.677 81.8 258.511 81.8C260.477 81.8 262.411 81.3833 264.311 80.55C266.211 79.7167 267.944 78.7333 269.511 77.6C270.777 78.3333 271.994 79.5833 273.161 81.35C274.327 83.1167 275.077 84.7667 275.411 86.3C273.177 88.6333 270.294 90.5 266.761 91.9C263.261 93.3 259.661 94 255.961 94C252.361 94 249.194 93.3833 246.461 92.15C243.727 90.9167 241.427 89.15 239.561 86.85C237.694 84.5167 236.277 81.7333 235.311 78.5C234.377 75.2667 233.911 71.65 233.911 67.65C233.911 62.8167 234.544 58.7167 235.811 55.35C237.111 51.95 238.844 49.2167 241.011 47.15C243.177 45.05 245.577 43.5167 248.211 42.55C250.877 41.5833 253.577 41.1 256.311 41.1C259.111 41.1 261.694 41.5 264.061 42.3C266.461 43.1 268.527 44.2333 270.261 45.7C272.027 47.1667 273.394 48.9167 274.361 50.95C275.327 52.9833 275.811 55.2333 275.811 57.7C275.811 60.3333 275.077 62.2667 273.611 63.5C272.177 64.7 270.361 65.3 268.161 65.3C266.827 65.3 265.677 65.25 264.711 65.15C263.744 65.05 262.777 64.9167 261.811 64.75ZM327.072 78.25C327.072 79.85 327.322 81.3 327.822 82.6C328.355 83.9 329.038 84.85 329.872 85.45C329.605 86.85 328.988 88.3167 328.022 89.85C327.055 91.3833 326.088 92.5333 325.122 93.3C320.688 93.2333 317.305 91.7167 314.972 88.75C312.638 85.7833 311.472 82.2167 311.472 78.05V42.6C312.538 42.4 313.772 42.25 315.172 42.15C316.572 42.05 317.938 42 319.272 42C320.572 42 321.905 42.05 323.272 42.15C324.672 42.25 325.938 42.4 327.072 42.6V78.25ZM284.122 55.1C284.122 53.1333 283.922 51.3 283.522 49.6C283.155 47.9 282.522 46.4167 281.622 45.15C282.788 44.1833 284.222 43.3833 285.922 42.75C287.622 42.1167 289.438 41.8 291.372 41.8C294.505 41.8 296.672 42.6333 297.872 44.3C299.105 45.9667 299.722 48.35 299.722 51.45V72.75C299.722 74.9833 300.022 76.65 300.622 77.75C301.255 78.8167 302.388 79.35 304.022 79.35C305.055 79.35 306.238 79.0833 307.572 78.55C308.938 77.9833 310.288 77.0667 311.622 75.8C312.988 74.5333 314.172 72.8667 315.172 70.8V84.45C312.838 86.75 310.305 88.8167 307.572 90.65C304.838 92.4833 301.688 93.4 298.122 93.4C295.088 93.4 292.522 92.65 290.422 91.15C288.355 89.6167 286.788 87.5167 285.722 84.85C284.655 82.15 284.122 79.0667 284.122 75.6V55.1ZM361.454 81.1C361.821 82.2 362.121 83.4 362.354 84.7C362.588 85.9667 362.704 87.2333 362.704 88.5C362.704 89.0667 362.671 89.6667 362.604 90.3C362.571 90.9333 362.471 91.5 362.304 92C360.804 92.2333 359.121 92.45 357.254 92.65C355.388 92.8833 353.488 93 351.554 93C347.021 93 343.804 91.8833 341.904 89.65C340.038 87.3833 339.104 83.8667 339.104 79.1V19.6L339.804 18.9H345.904C348.971 18.9 351.138 19.6 352.404 21C353.704 22.4 354.354 24.8333 354.354 28.3V76.35C354.354 79.5167 355.804 81.1 358.704 81.1H361.454ZM371.383 36.95C371.383 33.4833 372.016 31.05 373.283 29.65C374.583 28.25 376.766 27.55 379.833 27.55H385.933L386.633 28.25V76.4C386.633 77.9 386.966 79.0667 387.633 79.9C388.333 80.7 389.483 81.1 391.083 81.1H396.683C397.516 83.5333 397.933 86 397.933 88.5C397.933 89.0667 397.899 89.6667 397.833 90.3C397.799 90.9333 397.699 91.5 397.533 92C395.699 92.2333 393.583 92.45 391.183 92.65C388.783 92.8833 386.583 93 384.583 93C380.049 93 376.716 91.8833 374.583 89.65C372.449 87.3833 371.383 83.8667 371.383 79.1V36.95ZM398.483 42.5C398.949 44.2667 399.183 46.0833 399.183 47.95C399.183 49.9833 398.949 51.8667 398.483 53.6L379.833 53.3L363.533 53.6C363.099 51.8333 362.883 49.95 362.883 47.95C362.883 46.15 363.099 44.3333 363.533 42.5L380.283 42.75L398.483 42.5ZM449.435 78.25C449.435 79.85 449.685 81.3 450.185 82.6C450.718 83.9 451.402 84.85 452.235 85.45C451.968 86.85 451.352 88.3167 450.385 89.85C449.418 91.3833 448.452 92.5333 447.485 93.3C443.052 93.2333 439.668 91.7167 437.335 88.75C435.002 85.7833 433.835 82.2167 433.835 78.05V42.6C434.902 42.4 436.135 42.25 437.535 42.15C438.935 42.05 440.302 42 441.635 42C442.935 42 444.268 42.05 445.635 42.15C447.035 42.25 448.302 42.4 449.435 42.6V78.25ZM406.485 55.1C406.485 53.1333 406.285 51.3 405.885 49.6C405.518 47.9 404.885 46.4167 403.985 45.15C405.152 44.1833 406.585 43.3833 408.285 42.75C409.985 42.1167 411.802 41.8 413.735 41.8C416.868 41.8 419.035 42.6333 420.235 44.3C421.468 45.9667 422.085 48.35 422.085 51.45V72.75C422.085 74.9833 422.385 76.65 422.985 77.75C423.618 78.8167 424.752 79.35 426.385 79.35C427.418 79.35 428.602 79.0833 429.935 78.55C431.302 77.9833 432.652 77.0667 433.985 75.8C435.352 74.5333 436.535 72.8667 437.535 70.8V84.45C435.202 86.75 432.668 88.8167 429.935 90.65C427.202 92.4833 424.052 93.4 420.485 93.4C417.452 93.4 414.885 92.65 412.785 91.15C410.718 89.6167 409.152 87.5167 408.085 84.85C407.018 82.15 406.485 79.0667 406.485 75.6V55.1ZM495.268 42.75C495.268 44.5833 494.934 46.9333 494.268 49.8C493.601 52.6333 492.634 55.15 491.368 57.35C490.501 57.0167 489.634 56.7833 488.768 56.65C487.934 56.5167 487.084 56.4 486.218 56.3C484.884 56.3 483.684 56.55 482.618 57.05C481.551 57.5167 480.584 58.2167 479.718 59.15C478.851 60.0833 478.034 61.2333 477.268 62.6C476.501 63.9667 475.768 65.5333 475.068 67.3L473.318 64.95C473.484 62.1833 473.834 59.45 474.368 56.75C474.901 54.0167 475.718 51.5333 476.818 49.3C477.918 47.0667 479.418 45.2833 481.318 43.95C483.251 42.5833 485.684 41.9 488.618 41.9C490.151 41.9 491.384 41.9833 492.318 42.15C493.284 42.2833 494.268 42.4833 495.268 42.75ZM458.618 49.85C458.884 48.45 459.501 46.95 460.468 45.35C461.434 43.7167 462.401 42.5333 463.368 41.8C468.001 42.1333 471.484 43.85 473.818 46.95C476.184 50.0167 477.584 54.05 478.018 59.05V92.5C476.918 92.7 475.684 92.85 474.318 92.95C472.951 93.05 471.584 93.1 470.218 93.1C468.918 93.1 467.568 93.05 466.168 92.95C464.801 92.85 463.534 92.7 462.368 92.5V60.2C462.368 57.2333 461.934 54.9167 461.068 53.25C460.234 51.55 459.418 50.4167 458.618 49.85ZM506.899 72.6V61.85H525.749V60.7C525.749 59.1667 525.532 57.7667 525.099 56.5C524.666 55.2 523.966 54.1667 522.999 53.4C522.066 52.6 520.799 52.2 519.199 52.2C516.766 52.2 515.049 53.2 514.049 55.2C513.082 57.2 512.599 60.2833 512.599 64.45V69.15C512.599 71.4167 512.799 73.5333 513.199 75.5C513.599 77.4667 514.449 79.05 515.749 80.25C517.049 81.45 519.032 82.05 521.699 82.05C523.966 82.05 526.182 81.7667 528.349 81.2C530.549 80.6 532.649 79.8833 534.649 79.05C535.816 80.1833 536.749 81.6167 537.449 83.35C538.149 85.0833 538.616 86.7333 538.849 88.3C536.316 90.1333 533.282 91.5333 529.749 92.5C526.249 93.5 522.716 94 519.149 94C514.749 94 511.116 93.2833 508.249 91.85C505.382 90.3833 503.116 88.4167 501.449 85.95C499.782 83.45 498.599 80.65 497.899 77.55C497.232 74.4167 496.899 71.2 496.899 67.9C496.899 62.8667 497.649 58.3333 499.149 54.3C500.682 50.2333 503.099 47.0167 506.399 44.65C509.699 42.2833 513.999 41.1 519.299 41.1C523.699 41.1 527.449 42.0333 530.549 43.9C533.649 45.7667 536.016 48.3 537.649 51.5C539.316 54.6667 540.149 58.2667 540.149 62.3C540.149 64.5333 540.032 66.4 539.799 67.9C539.599 69.3667 539.266 70.9333 538.799 72.6H506.899Z" fill="#5B8C51"/>
</g>
<defs>
<filter id="filter0_ddddd_1_2634" x="42.8701" y="17.8999" width="498.279" height="97.7002" filterUnits="userSpaceOnUse" color-interpolation-filters="sRGB">
<feFlood flood-opacity="0" result="BackgroundImageFix"/>
<feColorMatrix in="SourceAlpha" type="matrix" values="0 0 0 0 0 0 0 0 0 0 0 0 0 0 0 0 0 0 127 0" result="hardAlpha"/>
<feOffset dx="1" dy="1"/>
<feComposite in2="hardAlpha" operator="out"/>
<feColorMatrix type="matrix" values="0 0 0 0 1 0 0 0 0 1 0 0 0 0 1 0 0 0 0.5 0"/>
<feBlend mode="normal" in2="BackgroundImageFix" result="effect1_dropShadow_1_2634"/>
<feColorMatrix in="SourceAlpha" type="matrix" values="0 0 0 0 0 0 0 0 0 0 0 0 0 0 0 0 0 0 127 0" result="hardAlpha"/>
<feOffset dx="-1" dy="1"/>
<feComposite in2="hardAlpha" operator="out"/>
<feColorMatrix type="matrix" values="0 0 0 0 1 0 0 0 0 1 0 0 0 0 1 0 0 0 0.5 0"/>
<feBlend mode="normal" in2="effect1_dropShadow_1_2634" result="effect2_dropShadow_1_2634"/>
<feColorMatrix in="SourceAlpha" type="matrix" values="0 0 0 0 0 0 0 0 0 0 0 0 0 0 0 0 0 0 127 0" result="hardAlpha"/>
<feOffset dx="1" dy="-1"/>
<feComposite in2="hardAlpha" operator="out"/>
<feColorMatrix type="matrix" values="0 0 0 0 1 0 0 0 0 1 0 0 0 0 1 0 0 0 0.5 0"/>
<feBlend mode="normal" in2="effect2_dropShadow_1_2634" result="effect3_dropShadow_1_2634"/>
<feColorMatrix in="SourceAlpha" type="matrix" values="0 0 0 0 0 0 0 0 0 0 0 0 0 0 0 0 0 0 127 0" result="hardAlpha"/>
<feOffset dx="-1" dy="-1"/>
<feComposite in2="hardAlpha" operator="out"/>
<feColorMatrix type="matrix" values="0 0 0 0 1 0 0 0 0 1 0 0 0 0 1 0 0 0 0.5 0"/>
<feBlend mode="normal" in2="effect3_dropShadow_1_2634" result="effect4_dropShadow_1_2634"/>
<feColorMatrix in="SourceAlpha" type="matrix" values="0 0 0 0 0 0 0 0 0 0 0 0 0 0 0 0 0 0 127 0" result="hardAlpha"/>
<feOffset dx="1" dy="1"/>
<feComposite in2="hardAlpha" operator="out"/>
<feColorMatrix type="matrix" values="0 0 0 0 1 0 0 0 0 1 0 0 0 0 1 0 0 0 0.5 0"/>
<feBlend mode="normal" in2="effect4_dropShadow_1_2634" result="effect5_dropShadow_1_2634"/>
<feBlend mode="normal" in="SourceGraphic" in2="effect5_dropShadow_1_2634" result="shape"/>
</filter>
<clipPath id="clip0_1_2634">
<rect width="44.78" height="45" fill="white" transform="matrix(1 0 0 -1 0 86.5)"/>
</clipPath>
</defs>
</svg>
