<svg width="712" height="50" viewBox="0 0 712 50" fill="none" xmlns="http://www.w3.org/2000/svg">
<rect x="263.39" width="50" height="50" rx="25" fill="white"/>
<g clip-path="url(#clip0_1_2702)">
<path d="M294.19 28.4C293.79 27.9556 293.324 27.7333 292.79 27.7333C292.257 27.7333 291.768 27.9556 291.324 28.4L289.99 29.7333L289.257 29.3333C288.013 28.5333 286.857 27.4667 285.79 26.1333C285.257 25.5111 284.879 24.9111 284.657 24.3333L285.99 23.0667C286.435 22.6222 286.657 22.1333 286.657 21.6C286.657 21.0667 286.435 20.5778 285.99 20.1333L283.657 17.8C283.213 17.3556 282.735 17.1333 282.224 17.1333C281.713 17.1333 281.235 17.3556 280.79 17.8L279.324 19.2667C278.79 19.8 278.479 20.4444 278.39 21.2C278.346 22.1333 278.546 23.1778 278.99 24.3333C279.657 26.1556 280.724 27.9556 282.19 29.7333C284.057 31.9556 286.257 33.6667 288.79 34.8667C290.213 35.5333 291.457 35.9111 292.524 36H292.79C293.768 36 294.568 35.6444 295.19 34.9333H295.257C295.39 34.7556 295.613 34.5111 295.924 34.2L296.524 33.6C296.968 33.1556 297.19 32.6667 297.19 32.1333C297.19 31.6 296.968 31.1333 296.524 30.7333L294.19 28.4ZM295.724 32.8667L295.19 33.3333C294.835 33.6889 294.568 33.9778 294.39 34.2C293.946 34.6444 293.413 34.8667 292.79 34.8667H292.59C291.657 34.8222 290.568 34.4889 289.324 33.8667C286.924 32.7111 284.835 31.0889 283.057 29C281.679 27.3111 280.679 25.6222 280.057 23.9333C279.657 22.9111 279.501 22.0222 279.59 21.2667C279.635 20.7778 279.813 20.3778 280.124 20.0667L281.59 18.6C281.813 18.3778 282.024 18.2667 282.224 18.2667C282.424 18.2667 282.635 18.3778 282.857 18.6L285.19 20.9333C285.59 21.3778 285.59 21.8 285.19 22.2L284.79 22.6C284.39 23.0444 284.035 23.3778 283.724 23.6V23.6667C283.457 23.9333 283.39 24.2444 283.524 24.6V24.6667C283.79 25.3333 284.235 26.0667 284.857 26.8667C286.013 28.2889 287.279 29.4222 288.657 30.2667L289.59 30.8C289.768 30.8889 289.946 30.9333 290.124 30.9333C290.301 30.9333 290.479 30.8222 290.657 30.6L292.124 29.2C292.346 28.9778 292.557 28.8667 292.757 28.8667C292.957 28.8667 293.168 28.9778 293.39 29.2L295.724 31.5333C296.124 31.9333 296.124 32.3778 295.724 32.8667ZM289.19 20.7333C290.301 20.9556 291.268 21.4667 292.09 22.2667C292.913 23.0667 293.413 24.0444 293.59 25.2C293.635 25.3333 293.713 25.4444 293.824 25.5333C293.935 25.6222 294.057 25.6667 294.19 25.6667H294.257C294.435 25.6222 294.568 25.5333 294.657 25.4C294.746 25.2667 294.768 25.1333 294.724 25C294.501 23.6222 293.901 22.4444 292.924 21.4667C291.946 20.4889 290.768 19.8889 289.39 19.6667C289.257 19.6222 289.124 19.6444 288.99 19.7333C288.857 19.8222 288.779 19.9444 288.757 20.1C288.735 20.2556 288.768 20.4 288.857 20.5333C288.946 20.6667 289.057 20.7333 289.19 20.7333ZM298.39 24.8C297.99 22.5778 296.979 20.6556 295.357 19.0333C293.735 17.4111 291.79 16.4 289.524 16C289.39 16 289.257 16.0444 289.124 16.1333C288.99 16.2222 288.913 16.3444 288.89 16.5C288.868 16.6556 288.901 16.7889 288.99 16.9C289.079 17.0111 289.213 17.0889 289.39 17.1333C291.39 17.4889 293.113 18.3889 294.557 19.8333C296.001 21.2778 296.901 23 297.257 25C297.257 25.1333 297.313 25.2444 297.424 25.3333C297.535 25.4222 297.657 25.4667 297.79 25.4667H297.924C298.057 25.4667 298.168 25.4 298.257 25.2667C298.346 25.1333 298.39 24.9778 298.39 24.8Z" fill="#404A3D"/>
</g>
<path d="M325.623 26.63H327.325C327.45 26.63 327.583 26.6325 327.723 26.6375C327.868 26.6425 328 26.645 328.12 26.645H329.38C329.505 26.645 329.638 26.6425 329.778 26.6375C329.918 26.6325 330.05 26.63 330.175 26.63H331.878C331.923 26.845 331.945 27.0675 331.945 27.2975C331.945 27.5425 331.923 27.765 331.878 27.965H330.175C330.05 27.965 329.918 27.9625 329.778 27.9575C329.638 27.9525 329.505 27.95 329.38 27.95H328.12C328 27.95 327.868 27.9525 327.723 27.9575C327.583 27.9625 327.45 27.965 327.325 27.965H325.623C325.578 27.77 325.555 27.5475 325.555 27.2975C325.555 27.0575 325.578 26.835 325.623 26.63ZM328.045 25.91V24.0575C328.155 24.0375 328.268 24.025 328.383 24.02C328.498 24.01 328.62 24.005 328.75 24.005C328.875 24.005 328.998 24.01 329.118 24.02C329.238 24.025 329.35 24.0375 329.455 24.0575V25.91C329.455 26.03 329.453 26.1625 329.448 26.3075C329.443 26.4475 329.44 26.5775 329.44 26.6975V27.89C329.44 28.01 329.443 28.14 329.448 28.28C329.453 28.415 329.455 28.5475 329.455 28.6775V30.53C329.35 30.55 329.238 30.565 329.118 30.575C329.003 30.58 328.883 30.5825 328.758 30.5825C328.628 30.5825 328.503 30.58 328.383 30.575C328.268 30.565 328.155 30.55 328.045 30.53V28.6775C328.045 28.5475 328.048 28.415 328.053 28.28C328.058 28.14 328.06 28.01 328.06 27.89V26.6975C328.06 26.5775 328.058 26.4475 328.053 26.3075C328.048 26.1625 328.045 26.03 328.045 25.91ZM341.339 29.705C341.339 29.905 341.337 30.0975 341.332 30.2825C341.327 30.4625 341.324 30.6575 341.324 30.8675V31.3775H339.824V30.8675C339.824 30.6575 339.822 30.4625 339.817 30.2825C339.812 30.0975 339.809 29.905 339.809 29.705V26.5175C339.809 26.3475 339.814 26.11 339.824 25.805C339.839 25.5 339.854 25.1925 339.869 24.8825C339.889 24.5725 339.897 24.325 339.892 24.14L339.862 22.505C339.992 22.475 340.119 22.4575 340.244 22.4525C340.369 22.4425 340.487 22.4375 340.597 22.4375C340.712 22.4375 340.829 22.4425 340.949 22.4525C341.074 22.4575 341.204 22.475 341.339 22.505V29.705ZM338.962 30.7025C339.067 30.7025 339.217 30.705 339.412 30.71C339.607 30.715 339.754 30.7175 339.854 30.7175H341.294C341.399 30.7175 341.552 30.715 341.752 30.71C341.952 30.705 342.102 30.7025 342.202 30.7025H343.237C343.282 30.9125 343.304 31.1275 343.304 31.3475C343.304 31.5525 343.282 31.77 343.237 32H337.589C337.539 31.785 337.514 31.5675 337.514 31.3475C337.514 31.1175 337.539 30.9025 337.589 30.7025H338.962ZM337.057 25.385C337.782 24.935 338.379 24.4575 338.849 23.9525C339.319 23.4475 339.657 22.965 339.862 22.505L340.439 23.75C340.309 24.115 340.097 24.4625 339.802 24.7925C339.512 25.1225 339.182 25.4175 338.812 25.6775C338.442 25.9375 338.077 26.15 337.717 26.315C337.552 26.22 337.409 26.0925 337.289 25.9325C337.174 25.7675 337.097 25.585 337.057 25.385ZM346.8 27.875C346.8 28.65 346.875 29.4325 347.025 30.2225C347.18 31.0125 347.415 31.78 347.73 32.525C348.045 33.27 348.447 33.965 348.937 34.61C348.837 34.835 348.705 35.015 348.54 35.15C348.375 35.29 348.197 35.39 348.007 35.45C347.387 34.84 346.862 34.1125 346.432 33.2675C346.007 32.4225 345.685 31.5325 345.465 30.5975C345.245 29.6625 345.135 28.755 345.135 27.875C345.135 27 345.245 26.095 345.465 25.16C345.685 24.225 346.007 23.335 346.432 22.49C346.862 21.645 347.387 20.92 348.007 20.315C348.197 20.375 348.375 20.475 348.54 20.615C348.705 20.75 348.837 20.93 348.937 21.155C348.447 21.8 348.045 22.495 347.73 23.24C347.415 23.98 347.18 24.745 347.025 25.535C346.875 26.32 346.8 27.1 346.8 27.875ZM350.168 24.5C350.313 24.105 350.525 23.7425 350.805 23.4125C351.09 23.0825 351.435 22.8175 351.84 22.6175C352.245 22.4125 352.703 22.31 353.213 22.31C354.113 22.31 354.825 22.57 355.35 23.09C355.875 23.605 356.138 24.275 356.138 25.1C356.138 25.58 356.048 25.9975 355.868 26.3525C355.693 26.7075 355.463 27.0275 355.178 27.3125C354.898 27.5975 354.593 27.8775 354.263 28.1525L353.115 29.0975C352.83 29.3375 352.575 29.57 352.35 29.795C352.125 30.02 351.948 30.2275 351.818 30.4175C351.688 30.6025 351.62 30.76 351.615 30.89L351.585 32.0075H350.678C350.523 31.8425 350.38 31.6775 350.25 31.5125C350.12 31.3425 350.055 31.1525 350.055 30.9425C350.055 30.6575 350.143 30.36 350.318 30.05C350.498 29.74 350.73 29.4325 351.015 29.1275C351.305 28.8175 351.61 28.5225 351.93 28.2425L353.4 26.9975C353.755 26.7025 354.033 26.41 354.233 26.12C354.433 25.825 354.533 25.48 354.533 25.085C354.533 24.63 354.395 24.2675 354.12 23.9975C353.85 23.7275 353.503 23.5925 353.078 23.5925C352.663 23.5925 352.3 23.7325 351.99 24.0125C351.685 24.2875 351.45 24.625 351.285 25.025C351.095 25.015 350.888 24.9675 350.663 24.8825C350.438 24.7925 350.273 24.665 350.168 24.5ZM356.37 30.6425C356.37 31.1725 356.293 31.5325 356.138 31.7225C355.983 31.9125 355.715 32.0075 355.335 32.0075H350.783L350.333 30.9875C350.633 30.9025 350.988 30.835 351.398 30.785C351.813 30.73 352.22 30.6925 352.62 30.6725C353.025 30.6525 353.36 30.6425 353.625 30.6425H356.37ZM362.521 29.705C362.521 29.905 362.518 30.0975 362.513 30.2825C362.508 30.4625 362.506 30.6575 362.506 30.8675V31.3775H361.006V30.8675C361.006 30.6575 361.003 30.4625 360.998 30.2825C360.993 30.0975 360.991 29.905 360.991 29.705V26.5175C360.991 26.3475 360.996 26.11 361.006 25.805C361.021 25.5 361.036 25.1925 361.051 24.8825C361.071 24.5725 361.078 24.325 361.073 24.14L361.043 22.505C361.173 22.475 361.301 22.4575 361.426 22.4525C361.551 22.4425 361.668 22.4375 361.778 22.4375C361.893 22.4375 362.011 22.4425 362.131 22.4525C362.256 22.4575 362.386 22.475 362.521 22.505V29.705ZM360.143 30.7025C360.248 30.7025 360.398 30.705 360.593 30.71C360.788 30.715 360.936 30.7175 361.036 30.7175H362.476C362.581 30.7175 362.733 30.715 362.933 30.71C363.133 30.705 363.283 30.7025 363.383 30.7025H364.418C364.463 30.9125 364.486 31.1275 364.486 31.3475C364.486 31.5525 364.463 31.77 364.418 32H358.771C358.721 31.785 358.696 31.5675 358.696 31.3475C358.696 31.1175 358.721 30.9025 358.771 30.7025H360.143ZM358.238 25.385C358.963 24.935 359.561 24.4575 360.031 23.9525C360.501 23.4475 360.838 22.965 361.043 22.505L361.621 23.75C361.491 24.115 361.278 24.4625 360.983 24.7925C360.693 25.1225 360.363 25.4175 359.993 25.6775C359.623 25.9375 359.258 26.15 358.898 26.315C358.733 26.22 358.591 26.0925 358.471 25.9325C358.356 25.7675 358.278 25.585 358.238 25.385ZM366.369 24.5C366.514 24.105 366.726 23.7425 367.006 23.4125C367.291 23.0825 367.636 22.8175 368.041 22.6175C368.446 22.4125 368.904 22.31 369.414 22.31C370.314 22.31 371.026 22.57 371.551 23.09C372.076 23.605 372.339 24.275 372.339 25.1C372.339 25.58 372.249 25.9975 372.069 26.3525C371.894 26.7075 371.664 27.0275 371.379 27.3125C371.099 27.5975 370.794 27.8775 370.464 28.1525L369.316 29.0975C369.031 29.3375 368.776 29.57 368.551 29.795C368.326 30.02 368.149 30.2275 368.019 30.4175C367.889 30.6025 367.821 30.76 367.816 30.89L367.786 32.0075H366.879C366.724 31.8425 366.581 31.6775 366.451 31.5125C366.321 31.3425 366.256 31.1525 366.256 30.9425C366.256 30.6575 366.344 30.36 366.519 30.05C366.699 29.74 366.931 29.4325 367.216 29.1275C367.506 28.8175 367.811 28.5225 368.131 28.2425L369.601 26.9975C369.956 26.7025 370.234 26.41 370.434 26.12C370.634 25.825 370.734 25.48 370.734 25.085C370.734 24.63 370.596 24.2675 370.321 23.9975C370.051 23.7275 369.704 23.5925 369.279 23.5925C368.864 23.5925 368.501 23.7325 368.191 24.0125C367.886 24.2875 367.651 24.625 367.486 25.025C367.296 25.015 367.089 24.9675 366.864 24.8825C366.639 24.7925 366.474 24.665 366.369 24.5ZM372.571 30.6425C372.571 31.1725 372.494 31.5325 372.339 31.7225C372.184 31.9125 371.916 32.0075 371.536 32.0075H366.984L366.534 30.9875C366.834 30.9025 367.189 30.835 367.599 30.785C368.014 30.73 368.421 30.6925 368.821 30.6725C369.226 30.6525 369.561 30.6425 369.826 30.6425H372.571ZM375.849 27.875C375.849 27.1 375.774 26.32 375.624 25.535C375.474 24.745 375.242 23.98 374.927 23.24C374.612 22.495 374.207 21.8 373.712 21.155C373.817 20.93 373.952 20.75 374.117 20.615C374.282 20.475 374.457 20.375 374.642 20.315C375.267 20.92 375.792 21.645 376.217 22.49C376.642 23.335 376.964 24.225 377.184 25.16C377.404 26.095 377.514 27 377.514 27.875C377.514 28.755 377.404 29.6625 377.184 30.5975C376.964 31.5325 376.642 32.4225 376.217 33.2675C375.792 34.1125 375.267 34.84 374.642 35.45C374.457 35.39 374.282 35.29 374.117 35.15C373.952 35.015 373.817 34.835 373.712 34.61C374.207 33.965 374.612 33.27 374.927 32.525C375.242 31.78 375.474 31.0125 375.624 30.2225C375.774 29.4325 375.849 28.65 375.849 27.875ZM382.746 24.5C382.891 24.105 383.103 23.7425 383.383 23.4125C383.668 23.0825 384.013 22.8175 384.418 22.6175C384.823 22.4125 385.281 22.31 385.791 22.31C386.691 22.31 387.403 22.57 387.928 23.09C388.453 23.605 388.716 24.275 388.716 25.1C388.716 25.58 388.626 25.9975 388.446 26.3525C388.271 26.7075 388.041 27.0275 387.756 27.3125C387.476 27.5975 387.171 27.8775 386.841 28.1525L385.693 29.0975C385.408 29.3375 385.153 29.57 384.928 29.795C384.703 30.02 384.526 30.2275 384.396 30.4175C384.266 30.6025 384.198 30.76 384.193 30.89L384.163 32.0075H383.256C383.101 31.8425 382.958 31.6775 382.828 31.5125C382.698 31.3425 382.633 31.1525 382.633 30.9425C382.633 30.6575 382.721 30.36 382.896 30.05C383.076 29.74 383.308 29.4325 383.593 29.1275C383.883 28.8175 384.188 28.5225 384.508 28.2425L385.978 26.9975C386.333 26.7025 386.611 26.41 386.811 26.12C387.011 25.825 387.111 25.48 387.111 25.085C387.111 24.63 386.973 24.2675 386.698 23.9975C386.428 23.7275 386.081 23.5925 385.656 23.5925C385.241 23.5925 384.878 23.7325 384.568 24.0125C384.263 24.2875 384.028 24.625 383.863 25.025C383.673 25.015 383.466 24.9675 383.241 24.8825C383.016 24.7925 382.851 24.665 382.746 24.5ZM388.948 30.6425C388.948 31.1725 388.871 31.5325 388.716 31.7225C388.561 31.9125 388.293 32.0075 387.913 32.0075H383.361L382.911 30.9875C383.211 30.9025 383.566 30.835 383.976 30.785C384.391 30.73 384.798 30.6925 385.198 30.6725C385.603 30.6525 385.938 30.6425 386.203 30.6425H388.948ZM392.699 25.565C392.689 25.765 392.666 25.97 392.631 26.18C392.601 26.39 392.556 26.5875 392.496 26.7725C392.301 26.8475 392.089 26.9075 391.859 26.9525C391.634 26.9925 391.384 27.025 391.109 27.05L391.334 22.6025L392.714 22.82C392.729 22.965 392.741 23.1525 392.751 23.3825C392.761 23.6075 392.766 23.8325 392.766 24.0575C392.771 24.2825 392.769 24.46 392.759 24.59L392.699 25.565ZM390.771 31.2425C390.801 31.0775 390.879 30.8925 391.004 30.6875C391.129 30.4775 391.271 30.315 391.431 30.2C391.736 30.41 392.054 30.5825 392.384 30.7175C392.714 30.8525 393.081 30.92 393.486 30.92C393.821 30.92 394.134 30.845 394.424 30.695C394.719 30.545 394.956 30.315 395.136 30.005C395.316 29.695 395.406 29.2975 395.406 28.8125C395.406 28.3275 395.311 27.95 395.121 27.68C394.936 27.405 394.701 27.21 394.416 27.095C394.136 26.98 393.851 26.9225 393.561 26.9225C393.271 26.9225 392.981 26.98 392.691 27.095C392.401 27.205 392.126 27.3675 391.866 27.5825C391.726 27.5525 391.584 27.485 391.439 27.38C391.294 27.275 391.184 27.165 391.109 27.05C391.309 26.83 391.551 26.615 391.836 26.405C392.126 26.195 392.454 26.0225 392.819 25.8875C393.184 25.7525 393.569 25.685 393.974 25.685C394.894 25.685 395.631 25.9575 396.186 26.5025C396.746 27.0425 397.026 27.785 397.026 28.73C397.026 29.52 396.859 30.1725 396.524 30.6875C396.189 31.1975 395.759 31.5775 395.234 31.8275C394.714 32.0725 394.166 32.195 393.591 32.195C392.996 32.195 392.456 32.105 391.971 31.925C391.491 31.74 391.091 31.5125 390.771 31.2425ZM396.516 22.505C396.556 22.62 396.584 22.735 396.599 22.85C396.614 22.965 396.621 23.065 396.621 23.15C396.621 23.61 396.391 23.84 395.931 23.84H393.344C393.084 23.84 392.824 23.835 392.564 23.825C392.309 23.815 392.076 23.805 391.866 23.795C391.656 23.78 391.496 23.765 391.386 23.75L391.334 22.6025L391.431 22.505H396.516ZM400.8 25.565C400.79 25.765 400.767 25.97 400.732 26.18C400.702 26.39 400.657 26.5875 400.597 26.7725C400.402 26.8475 400.19 26.9075 399.96 26.9525C399.735 26.9925 399.485 27.025 399.21 27.05L399.435 22.6025L400.815 22.82C400.83 22.965 400.842 23.1525 400.852 23.3825C400.862 23.6075 400.867 23.8325 400.867 24.0575C400.872 24.2825 400.87 24.46 400.86 24.59L400.8 25.565ZM398.872 31.2425C398.902 31.0775 398.98 30.8925 399.105 30.6875C399.23 30.4775 399.372 30.315 399.532 30.2C399.837 30.41 400.155 30.5825 400.485 30.7175C400.815 30.8525 401.182 30.92 401.587 30.92C401.922 30.92 402.235 30.845 402.525 30.695C402.82 30.545 403.057 30.315 403.237 30.005C403.417 29.695 403.507 29.2975 403.507 28.8125C403.507 28.3275 403.412 27.95 403.222 27.68C403.037 27.405 402.802 27.21 402.517 27.095C402.237 26.98 401.952 26.9225 401.662 26.9225C401.372 26.9225 401.082 26.98 400.792 27.095C400.502 27.205 400.227 27.3675 399.967 27.5825C399.827 27.5525 399.685 27.485 399.54 27.38C399.395 27.275 399.285 27.165 399.21 27.05C399.41 26.83 399.652 26.615 399.937 26.405C400.227 26.195 400.555 26.0225 400.92 25.8875C401.285 25.7525 401.67 25.685 402.075 25.685C402.995 25.685 403.732 25.9575 404.287 26.5025C404.847 27.0425 405.127 27.785 405.127 28.73C405.127 29.52 404.96 30.1725 404.625 30.6875C404.29 31.1975 403.86 31.5775 403.335 31.8275C402.815 32.0725 402.267 32.195 401.692 32.195C401.097 32.195 400.557 32.105 400.072 31.925C399.592 31.74 399.192 31.5125 398.872 31.2425ZM404.617 22.505C404.657 22.62 404.685 22.735 404.7 22.85C404.715 22.965 404.722 23.065 404.722 23.15C404.722 23.61 404.492 23.84 404.032 23.84H401.445C401.185 23.84 400.925 23.835 400.665 23.825C400.41 23.815 400.177 23.805 399.967 23.795C399.757 23.78 399.597 23.765 399.487 23.75L399.435 22.6025L399.532 22.505H404.617ZM406.815 28.67C406.795 28.565 406.78 28.4525 406.77 28.3325C406.76 28.2125 406.755 28.1025 406.755 28.0025C406.755 27.8975 406.76 27.7875 406.77 27.6725C406.78 27.5525 406.795 27.4375 406.815 27.3275H410.543C410.573 27.4375 410.59 27.5525 410.595 27.6725C410.605 27.7875 410.61 27.8975 410.61 28.0025C410.61 28.1025 410.605 28.2125 410.595 28.3325C410.59 28.4525 410.573 28.565 410.543 28.67H406.815ZM414.144 25.565C414.134 25.765 414.112 25.97 414.077 26.18C414.047 26.39 414.002 26.5875 413.942 26.7725C413.747 26.8475 413.534 26.9075 413.304 26.9525C413.079 26.9925 412.829 27.025 412.554 27.05L412.779 22.6025L414.159 22.82C414.174 22.965 414.187 23.1525 414.197 23.3825C414.207 23.6075 414.212 23.8325 414.212 24.0575C414.217 24.2825 414.214 24.46 414.204 24.59L414.144 25.565ZM412.217 31.2425C412.247 31.0775 412.324 30.8925 412.449 30.6875C412.574 30.4775 412.717 30.315 412.877 30.2C413.182 30.41 413.499 30.5825 413.829 30.7175C414.159 30.8525 414.527 30.92 414.932 30.92C415.267 30.92 415.579 30.845 415.869 30.695C416.164 30.545 416.402 30.315 416.582 30.005C416.762 29.695 416.852 29.2975 416.852 28.8125C416.852 28.3275 416.757 27.95 416.567 27.68C416.382 27.405 416.147 27.21 415.862 27.095C415.582 26.98 415.297 26.9225 415.007 26.9225C414.717 26.9225 414.427 26.98 414.137 27.095C413.847 27.205 413.572 27.3675 413.312 27.5825C413.172 27.5525 413.029 27.485 412.884 27.38C412.739 27.275 412.629 27.165 412.554 27.05C412.754 26.83 412.997 26.615 413.282 26.405C413.572 26.195 413.899 26.0225 414.264 25.8875C414.629 25.7525 415.014 25.685 415.419 25.685C416.339 25.685 417.077 25.9575 417.632 26.5025C418.192 27.0425 418.472 27.785 418.472 28.73C418.472 29.52 418.304 30.1725 417.969 30.6875C417.634 31.1975 417.204 31.5775 416.679 31.8275C416.159 32.0725 415.612 32.195 415.037 32.195C414.442 32.195 413.902 32.105 413.417 31.925C412.937 31.74 412.537 31.5125 412.217 31.2425ZM417.962 22.505C418.002 22.62 418.029 22.735 418.044 22.85C418.059 22.965 418.067 23.065 418.067 23.15C418.067 23.61 417.837 23.84 417.377 23.84H414.789C414.529 23.84 414.269 23.835 414.009 23.825C413.754 23.815 413.522 23.805 413.312 23.795C413.102 23.78 412.942 23.765 412.832 23.75L412.779 22.6025L412.877 22.505H417.962ZM424.645 29.705C424.645 29.905 424.642 30.0975 424.637 30.2825C424.632 30.4625 424.63 30.6575 424.63 30.8675V31.3775H423.13V30.8675C423.13 30.6575 423.127 30.4625 423.122 30.2825C423.117 30.0975 423.115 29.905 423.115 29.705V26.5175C423.115 26.3475 423.12 26.11 423.13 25.805C423.145 25.5 423.16 25.1925 423.175 24.8825C423.195 24.5725 423.202 24.325 423.197 24.14L423.167 22.505C423.297 22.475 423.425 22.4575 423.55 22.4525C423.675 22.4425 423.792 22.4375 423.902 22.4375C424.017 22.4375 424.135 22.4425 424.255 22.4525C424.38 22.4575 424.51 22.475 424.645 22.505V29.705ZM422.267 30.7025C422.372 30.7025 422.522 30.705 422.717 30.71C422.912 30.715 423.06 30.7175 423.16 30.7175H424.6C424.705 30.7175 424.857 30.715 425.057 30.71C425.257 30.705 425.407 30.7025 425.507 30.7025H426.542C426.587 30.9125 426.61 31.1275 426.61 31.3475C426.61 31.5525 426.587 31.77 426.542 32H420.895C420.845 31.785 420.82 31.5675 420.82 31.3475C420.82 31.1175 420.845 30.9025 420.895 30.7025H422.267ZM420.362 25.385C421.087 24.935 421.685 24.4575 422.155 23.9525C422.625 23.4475 422.962 22.965 423.167 22.505L423.745 23.75C423.615 24.115 423.402 24.4625 423.107 24.7925C422.817 25.1225 422.487 25.4175 422.117 25.6775C421.747 25.9375 421.382 26.15 421.022 26.315C420.857 26.22 420.715 26.0925 420.595 25.9325C420.48 25.7675 420.402 25.585 420.362 25.385ZM432.745 29.705C432.745 29.905 432.743 30.0975 432.738 30.2825C432.733 30.4625 432.73 30.6575 432.73 30.8675V31.3775H431.23V30.8675C431.23 30.6575 431.228 30.4625 431.223 30.2825C431.218 30.0975 431.215 29.905 431.215 29.705V26.5175C431.215 26.3475 431.22 26.11 431.23 25.805C431.245 25.5 431.26 25.1925 431.275 24.8825C431.295 24.5725 431.303 24.325 431.298 24.14L431.268 22.505C431.398 22.475 431.525 22.4575 431.65 22.4525C431.775 22.4425 431.893 22.4375 432.003 22.4375C432.118 22.4375 432.235 22.4425 432.355 22.4525C432.48 22.4575 432.61 22.475 432.745 22.505V29.705ZM430.368 30.7025C430.473 30.7025 430.623 30.705 430.818 30.71C431.013 30.715 431.16 30.7175 431.26 30.7175H432.7C432.805 30.7175 432.958 30.715 433.158 30.71C433.358 30.705 433.508 30.7025 433.608 30.7025H434.643C434.688 30.9125 434.71 31.1275 434.71 31.3475C434.71 31.5525 434.688 31.77 434.643 32H428.995C428.945 31.785 428.92 31.5675 428.92 31.3475C428.92 31.1175 428.945 30.9025 428.995 30.7025H430.368ZM428.463 25.385C429.188 24.935 429.785 24.4575 430.255 23.9525C430.725 23.4475 431.063 22.965 431.268 22.505L431.845 23.75C431.715 24.115 431.503 24.4625 431.208 24.7925C430.918 25.1225 430.588 25.4175 430.218 25.6775C429.848 25.9375 429.483 26.15 429.123 26.315C428.958 26.22 428.815 26.0925 428.695 25.9325C428.58 25.7675 428.503 25.585 428.463 25.385Z" fill="#404A3D"/>
<rect x="465.61" width="50" height="50" rx="25" fill="white"/>
<g clip-path="url(#clip1_1_2702)">
<path d="M498.877 18.4001H482.343C481.854 18.4001 481.443 18.5668 481.11 18.9001C480.777 19.2334 480.61 19.6445 480.61 20.1334V31.8668C480.61 32.3557 480.777 32.7668 481.11 33.1001C481.443 33.4334 481.854 33.6001 482.343 33.6001H498.877C499.365 33.6001 499.777 33.4334 500.11 33.1001C500.443 32.7668 500.61 32.3557 500.61 31.8668V20.1334C500.61 19.6445 500.443 19.2334 500.11 18.9001C499.777 18.5668 499.365 18.4001 498.877 18.4001ZM498.61 19.5334L490.677 27.5334L482.61 19.5334H498.61ZM481.81 31.6001V20.4001L487.41 26.0001L481.81 31.6001ZM482.61 32.4668L488.277 26.8001L490.21 28.7334C490.343 28.8668 490.488 28.9334 490.643 28.9334C490.799 28.9334 490.943 28.8668 491.077 28.7334L493.01 26.8001L498.61 32.4668H482.61ZM499.41 31.6001L493.81 26.0001L499.41 20.4001V31.6001Z" fill="#404A3D"/>
</g>
<path d="M528.765 24.53C529.09 24.53 529.315 24.6275 529.44 24.8225C529.57 25.0175 529.635 25.2875 529.635 25.6325V32C529.535 32.02 529.417 32.035 529.282 32.045C529.147 32.055 529.01 32.06 528.87 32.06C528.73 32.06 528.592 32.055 528.457 32.045C528.322 32.035 528.2 32.02 528.09 32V24.6275L528.187 24.53H528.765ZM534 30.4175C534 30.6775 534.017 30.925 534.052 31.16C534.092 31.39 534.16 31.5925 534.255 31.7675C534.14 31.8625 533.995 31.94 533.82 32C533.645 32.065 533.465 32.0975 533.28 32.0975C532.975 32.0975 532.76 32.015 532.635 31.85C532.515 31.685 532.455 31.44 532.455 31.115V27.2975C532.455 26.7925 532.39 26.4275 532.26 26.2025C532.13 25.9725 531.882 25.8575 531.517 25.8575C531.267 25.8575 530.995 25.9175 530.7 26.0375C530.41 26.1575 530.135 26.33 529.875 26.555C529.615 26.775 529.405 27.0325 529.245 27.3275V25.8425C529.58 25.4575 529.99 25.1325 530.475 24.8675C530.96 24.5975 531.472 24.4625 532.012 24.4625C532.482 24.4625 532.862 24.5725 533.152 24.7925C533.442 25.0075 533.655 25.3 533.79 25.67C533.93 26.04 534 26.4575 534 26.9225V30.4175ZM542.248 28.295C542.248 29.06 542.126 29.7375 541.881 30.3275C541.636 30.9125 541.273 31.37 540.793 31.7C540.313 32.03 539.716 32.195 539.001 32.195C538.291 32.195 537.696 32.0275 537.216 31.6925C536.736 31.3575 536.373 30.8975 536.128 30.3125C535.888 29.7225 535.768 29.05 535.768 28.295C535.768 27.535 535.891 26.8625 536.136 26.2775C536.381 25.6925 536.743 25.235 537.223 24.905C537.703 24.57 538.296 24.4025 539.001 24.4025C539.721 24.4025 540.321 24.57 540.801 24.905C541.286 25.235 541.648 25.6925 541.888 26.2775C542.128 26.8625 542.248 27.535 542.248 28.295ZM537.366 28.295C537.366 28.76 537.413 29.2 537.508 29.615C537.603 30.03 537.771 30.3675 538.011 30.6275C538.251 30.8825 538.586 31.01 539.016 31.01C539.446 31.01 539.778 30.8825 540.013 30.6275C540.248 30.3675 540.413 30.03 540.508 29.615C540.603 29.2 540.651 28.76 540.651 28.295C540.651 27.83 540.603 27.39 540.508 26.975C540.413 26.56 540.248 26.2225 540.013 25.9625C539.778 25.7025 539.446 25.5725 539.016 25.5725C538.586 25.5725 538.251 25.7025 538.011 25.9625C537.771 26.2225 537.603 26.56 537.508 26.975C537.413 27.39 537.366 27.83 537.366 28.295ZM548.354 24.575C548.354 24.785 548.324 25.03 548.264 25.31C548.204 25.585 548.106 25.8275 547.971 26.0375C547.876 26.0125 547.776 25.9975 547.671 25.9925C547.566 25.9825 547.464 25.975 547.364 25.97C547.079 25.97 546.829 26.03 546.614 26.15C546.404 26.265 546.224 26.4175 546.074 26.6075C545.929 26.7925 545.804 26.9975 545.699 27.2225C545.594 27.4475 545.509 27.6675 545.444 27.8825L545.219 27.5975C545.229 27.2425 545.276 26.885 545.361 26.525C545.446 26.16 545.576 25.825 545.751 25.52C545.931 25.21 546.169 24.9625 546.464 24.7775C546.764 24.5875 547.126 24.4925 547.551 24.4925C547.686 24.4925 547.816 24.5 547.941 24.515C548.071 24.525 548.209 24.545 548.354 24.575ZM543.651 25.31C543.686 25.175 543.759 25.025 543.869 24.86C543.979 24.69 544.094 24.565 544.214 24.485C544.714 24.595 545.086 24.8475 545.331 25.2425C545.576 25.6325 545.716 26.125 545.751 26.72V32C545.646 32.02 545.526 32.035 545.391 32.045C545.256 32.055 545.119 32.06 544.979 32.06C544.839 32.06 544.701 32.055 544.566 32.045C544.431 32.035 544.311 32.02 544.206 32V26.855C544.206 26.455 544.146 26.1275 544.026 25.8725C543.906 25.6175 543.781 25.43 543.651 25.31ZM549.781 28.79V27.665H553.418V27.47C553.418 27.12 553.368 26.8 553.268 26.51C553.173 26.215 553.016 25.98 552.796 25.805C552.581 25.63 552.293 25.5425 551.933 25.5425C551.423 25.5425 551.041 25.7575 550.786 26.1875C550.531 26.6175 550.403 27.21 550.403 27.965V28.4375C550.403 28.9075 550.451 29.3325 550.546 29.7125C550.646 30.0875 550.821 30.385 551.071 30.605C551.321 30.82 551.676 30.9275 552.136 30.9275C552.511 30.9275 552.873 30.875 553.223 30.77C553.573 30.66 553.906 30.5225 554.221 30.3575C554.351 30.4825 554.458 30.64 554.543 30.83C554.633 31.015 554.688 31.1875 554.708 31.3475C554.353 31.6075 553.926 31.815 553.426 31.97C552.931 32.12 552.421 32.195 551.896 32.195C551.301 32.195 550.803 32.09 550.403 31.88C550.008 31.67 549.693 31.3825 549.458 31.0175C549.228 30.6475 549.061 30.23 548.956 29.765C548.856 29.3 548.806 28.815 548.806 28.31C548.806 27.565 548.921 26.8975 549.151 26.3075C549.386 25.7175 549.736 25.2525 550.201 24.9125C550.666 24.5725 551.243 24.4025 551.933 24.4025C552.583 24.4025 553.128 24.545 553.568 24.83C554.013 25.115 554.348 25.5 554.573 25.985C554.798 26.465 554.911 27.0025 554.911 27.5975C554.911 27.8375 554.901 28.045 554.881 28.22C554.866 28.39 554.838 28.58 554.798 28.79H549.781ZM557.4 24.53C557.73 24.53 557.97 24.6375 558.12 24.8525C558.275 25.0625 558.353 25.36 558.353 25.745V34.2425C558.353 34.5825 558.293 34.8325 558.173 34.9925C558.058 35.1525 557.838 35.2325 557.513 35.2325H556.928L556.83 35.135V24.6275L556.928 24.53H557.4ZM562.95 28.205C562.95 29.1 562.81 29.8375 562.53 30.4175C562.25 30.9975 561.89 31.4275 561.45 31.7075C561.01 31.9875 560.55 32.1275 560.07 32.1275C559.595 32.1275 559.155 32.03 558.75 31.835C558.35 31.635 557.978 31.4075 557.633 31.1525L557.805 29.93C558.095 30.155 558.415 30.3725 558.765 30.5825C559.12 30.7875 559.485 30.89 559.86 30.89C560.14 30.89 560.393 30.795 560.618 30.605C560.848 30.41 561.03 30.1125 561.165 29.7125C561.305 29.3125 561.375 28.8075 561.375 28.1975C561.375 27.6025 561.31 27.1225 561.18 26.7575C561.055 26.3875 560.89 26.1175 560.685 25.9475C560.48 25.7775 560.255 25.6925 560.01 25.6925C559.76 25.6925 559.498 25.76 559.223 25.895C558.948 26.03 558.693 26.24 558.458 26.525C558.223 26.81 558.04 27.1775 557.91 27.6275L557.595 26.48C557.69 26.145 557.868 25.8175 558.128 25.4975C558.388 25.1775 558.708 24.915 559.088 24.71C559.473 24.505 559.9 24.4025 560.37 24.4025C560.94 24.4025 561.415 24.565 561.795 24.89C562.18 25.21 562.468 25.655 562.658 26.225C562.853 26.795 562.95 27.455 562.95 28.205ZM567.424 30.8375C567.464 30.9475 567.494 31.07 567.514 31.205C567.539 31.34 567.552 31.4775 567.552 31.6175C567.552 31.6725 567.549 31.73 567.544 31.79C567.544 31.85 567.534 31.905 567.514 31.955C567.344 31.98 567.139 32.005 566.899 32.03C566.664 32.055 566.444 32.0675 566.239 32.0675C565.754 32.0675 565.387 31.94 565.137 31.685C564.887 31.425 564.762 31.0375 564.762 30.5225V21.065L564.859 20.9675H565.444C565.769 20.9675 565.989 21.0475 566.104 21.2075C566.219 21.3625 566.277 21.6125 566.277 21.9575V30.1775C566.277 30.6175 566.474 30.8375 566.869 30.8375H567.424ZM572.708 31.76C572.488 32.525 572.245 33.1675 571.98 33.6875C571.72 34.2075 571.385 34.6025 570.975 34.8725C570.565 35.1425 570.028 35.2775 569.363 35.2775C569.128 35.2775 568.868 35.25 568.583 35.195C568.303 35.145 568.085 35.0925 567.93 35.0375C567.915 34.8525 567.94 34.65 568.005 34.43C568.075 34.215 568.16 34.0475 568.26 33.9275C568.38 33.9675 568.545 34.0075 568.755 34.0475C568.97 34.0875 569.178 34.1075 569.378 34.1075C569.713 34.1075 569.99 34.0325 570.21 33.8825C570.435 33.7325 570.623 33.5175 570.773 33.2375C570.928 32.9575 571.06 32.63 571.17 32.255L571.223 32.075C570.913 32.065 570.665 32.005 570.48 31.895C570.295 31.78 570.155 31.5725 570.06 31.2725L568.095 24.7175C568.27 24.6325 568.438 24.5725 568.598 24.5375C568.763 24.5025 568.908 24.485 569.033 24.485C569.218 24.485 569.375 24.5325 569.505 24.6275C569.64 24.7175 569.743 24.9 569.813 25.175L570.825 28.625C570.9 28.855 570.97 29.105 571.035 29.375C571.105 29.645 571.17 29.9075 571.23 30.1625C571.295 30.4125 571.348 30.635 571.388 30.83C571.408 30.9 571.455 30.935 571.53 30.935L573.173 24.59C573.268 24.57 573.375 24.555 573.495 24.545C573.615 24.535 573.73 24.53 573.84 24.53C573.975 24.53 574.11 24.5375 574.245 24.5525C574.38 24.5675 574.51 24.595 574.635 24.635L574.688 24.725L572.708 31.76ZM584.582 29.645C584.582 30.02 584.635 30.2875 584.74 30.4475C584.845 30.6025 585.01 30.68 585.235 30.68C585.48 30.68 585.715 30.5825 585.94 30.3875C586.17 30.1925 586.357 29.8725 586.502 29.4275C586.647 28.9775 586.72 28.37 586.72 27.605C586.72 26.67 586.525 25.86 586.135 25.175C585.75 24.485 585.202 23.95 584.492 23.57C583.787 23.185 582.96 22.9925 582.01 22.9925C581.245 22.9925 580.55 23.135 579.925 23.42C579.305 23.7 578.772 24.095 578.327 24.605C577.887 25.11 577.547 25.705 577.307 26.39C577.072 27.07 576.955 27.8125 576.955 28.6175C576.955 29.7075 577.142 30.625 577.517 31.37C577.892 32.11 578.417 32.67 579.092 33.05C579.767 33.43 580.55 33.62 581.44 33.62C581.99 33.62 582.52 33.5725 583.03 33.4775C583.54 33.3875 584.022 33.2525 584.477 33.0725C584.602 33.1975 584.702 33.3625 584.777 33.5675C584.857 33.7725 584.897 33.97 584.897 34.16C584.547 34.295 584.175 34.4125 583.78 34.5125C583.385 34.6125 582.98 34.69 582.565 34.745C582.155 34.8 581.747 34.8275 581.342 34.8275C580.197 34.8275 579.177 34.595 578.282 34.13C577.387 33.665 576.682 32.97 576.167 32.045C575.657 31.125 575.402 29.9825 575.402 28.6175C575.402 27.6475 575.562 26.75 575.882 25.925C576.207 25.1 576.665 24.3825 577.255 23.7725C577.845 23.1575 578.542 22.6825 579.347 22.3475C580.157 22.0075 581.045 21.8375 582.01 21.8375C582.925 21.8375 583.762 21.9725 584.522 22.2425C585.282 22.5125 585.94 22.9025 586.495 23.4125C587.055 23.9175 587.487 24.5275 587.792 25.2425C588.097 25.9575 588.25 26.76 588.25 27.65C588.25 28.58 588.1 29.3575 587.8 29.9825C587.505 30.6075 587.125 31.0775 586.66 31.3925C586.195 31.7075 585.702 31.865 585.182 31.865C584.757 31.865 584.39 31.7775 584.08 31.6025C583.77 31.4275 583.53 31.19 583.36 30.89C583.195 30.59 583.112 30.245 583.112 29.855V26.36C582.987 26.235 582.825 26.13 582.625 26.045C582.425 25.955 582.205 25.91 581.965 25.91C581.615 25.91 581.325 26.03 581.095 26.27C580.865 26.51 580.692 26.83 580.577 27.23C580.467 27.63 580.412 28.0725 580.412 28.5575C580.412 29.2075 580.505 29.7275 580.69 30.1175C580.875 30.5075 581.185 30.7025 581.62 30.7025C581.85 30.7025 582.082 30.635 582.317 30.5C582.552 30.365 582.767 30.19 582.962 29.975C583.157 29.76 583.302 29.5375 583.397 29.3075L583.967 30.0725C583.842 30.3675 583.645 30.6575 583.375 30.9425C583.105 31.2225 582.787 31.4575 582.422 31.6475C582.062 31.8325 581.685 31.925 581.29 31.925C580.79 31.925 580.36 31.7875 580 31.5125C579.645 31.2375 579.372 30.8525 579.182 30.3575C578.992 29.8625 578.897 29.2775 578.897 28.6025C578.897 27.8975 579.015 27.255 579.25 26.675C579.485 26.095 579.83 25.635 580.285 25.295C580.745 24.95 581.305 24.7775 581.965 24.7775C582.495 24.7775 582.987 24.88 583.442 25.085C583.902 25.285 584.282 25.5275 584.582 25.8125V29.645ZM590.623 24.53C590.953 24.53 591.193 24.6375 591.343 24.8525C591.498 25.0625 591.575 25.36 591.575 25.745V34.2425C591.575 34.5825 591.515 34.8325 591.395 34.9925C591.28 35.1525 591.06 35.2325 590.735 35.2325H590.15L590.053 35.135V24.6275L590.15 24.53H590.623ZM596.173 28.205C596.173 29.1 596.033 29.8375 595.753 30.4175C595.473 30.9975 595.113 31.4275 594.673 31.7075C594.233 31.9875 593.773 32.1275 593.293 32.1275C592.818 32.1275 592.378 32.03 591.973 31.835C591.573 31.635 591.2 31.4075 590.855 31.1525L591.028 29.93C591.318 30.155 591.638 30.3725 591.988 30.5825C592.343 30.7875 592.708 30.89 593.083 30.89C593.363 30.89 593.615 30.795 593.84 30.605C594.07 30.41 594.253 30.1125 594.388 29.7125C594.528 29.3125 594.598 28.8075 594.598 28.1975C594.598 27.6025 594.533 27.1225 594.403 26.7575C594.278 26.3875 594.113 26.1175 593.908 25.9475C593.703 25.7775 593.478 25.6925 593.233 25.6925C592.983 25.6925 592.72 25.76 592.445 25.895C592.17 26.03 591.915 26.24 591.68 26.525C591.445 26.81 591.263 27.1775 591.133 27.6275L590.818 26.48C590.913 26.145 591.09 25.8175 591.35 25.4975C591.61 25.1775 591.93 24.915 592.31 24.71C592.695 24.505 593.123 24.4025 593.593 24.4025C594.163 24.4025 594.638 24.565 595.018 24.89C595.403 25.21 595.69 25.655 595.88 26.225C596.075 26.795 596.173 27.455 596.173 28.205ZM599.529 31.625H598.007V21.065L598.104 20.9675H598.682C599.007 20.9675 599.229 21.0475 599.349 21.2075C599.469 21.3625 599.529 21.6125 599.529 21.9575V31.625ZM604.104 28.1975C604.104 29.0725 603.952 29.8 603.647 30.38C603.342 30.96 602.934 31.395 602.424 31.685C601.914 31.97 601.352 32.1125 600.737 32.1125C600.257 32.1125 599.787 32.07 599.327 31.985C598.867 31.9 598.427 31.78 598.007 31.625L598.772 30.4325C599.082 30.6125 599.392 30.7475 599.702 30.8375C600.017 30.9225 600.367 30.965 600.752 30.965C601.092 30.965 601.394 30.865 601.659 30.665C601.929 30.46 602.139 30.1525 602.289 29.7425C602.444 29.3325 602.522 28.825 602.522 28.22C602.522 27.35 602.389 26.7225 602.124 26.3375C601.864 25.9525 601.542 25.76 601.157 25.76C600.787 25.755 600.424 25.8725 600.069 26.1125C599.714 26.3525 599.432 26.6625 599.222 27.0425L598.997 25.775C599.152 25.58 599.349 25.3825 599.589 25.1825C599.829 24.9825 600.109 24.815 600.429 24.68C600.754 24.54 601.114 24.47 601.509 24.47C602.084 24.47 602.562 24.63 602.942 24.95C603.327 25.265 603.617 25.705 603.812 26.27C604.007 26.83 604.104 27.4725 604.104 28.1975ZM606.592 24.53C606.912 24.53 607.137 24.6275 607.267 24.8225C607.397 25.0175 607.462 25.2875 607.462 25.6325V32C607.362 32.02 607.245 32.035 607.11 32.045C606.975 32.055 606.837 32.06 606.697 32.06C606.557 32.06 606.42 32.055 606.285 32.045C606.15 32.035 606.027 32.02 605.917 32V24.635L606.015 24.53H606.592ZM609.982 27.305C609.982 26.775 609.907 26.4025 609.757 26.1875C609.607 25.9675 609.385 25.8575 609.09 25.8575C608.84 25.8575 608.572 25.9375 608.287 26.0975C608.007 26.2525 607.747 26.46 607.507 26.72C607.267 26.98 607.077 27.27 606.937 27.59V26.0825C607.157 25.7725 607.407 25.4975 607.687 25.2575C607.972 25.0125 608.275 24.82 608.595 24.68C608.92 24.535 609.25 24.4625 609.585 24.4625C610.02 24.4625 610.382 24.5675 610.672 24.7775C610.962 24.9825 611.177 25.2625 611.317 25.6175C611.462 25.9675 611.535 26.3575 611.535 26.7875V32C611.425 32.02 611.302 32.035 611.167 32.045C611.032 32.055 610.897 32.06 610.762 32.06C610.622 32.06 610.485 32.055 610.35 32.045C610.215 32.035 610.092 32.02 609.982 32V27.305ZM614.047 27.29C614.047 26.76 613.97 26.39 613.815 26.18C613.665 25.965 613.442 25.8575 613.147 25.8575C612.912 25.8575 612.655 25.935 612.375 26.09C612.1 26.24 611.837 26.4475 611.587 26.7125C611.337 26.9775 611.13 27.2825 610.965 27.6275V25.9025C611.215 25.6325 611.485 25.39 611.775 25.175C612.065 24.955 612.372 24.7825 612.697 24.6575C613.022 24.5275 613.35 24.4625 613.68 24.4625C614.115 24.4625 614.475 24.5675 614.76 24.7775C615.045 24.9875 615.255 25.27 615.39 25.625C615.53 25.975 615.6 26.37 615.6 26.81V30.4175C615.6 30.6775 615.617 30.925 615.652 31.16C615.687 31.39 615.752 31.5925 615.847 31.7675C615.732 31.8625 615.587 31.94 615.412 32C615.242 32.065 615.065 32.0975 614.88 32.0975C614.575 32.0975 614.36 32.015 614.235 31.85C614.11 31.685 614.047 31.44 614.047 31.115V27.29ZM619.625 32C619.52 32.02 619.4 32.035 619.265 32.045C619.13 32.055 618.993 32.06 618.853 32.06C618.713 32.06 618.575 32.055 618.44 32.045C618.305 32.035 618.183 32.02 618.073 32V26.5025C618.073 26.2375 618.025 26.0425 617.93 25.9175C617.84 25.7875 617.67 25.7225 617.42 25.7225H617.255C617.21 25.5425 617.188 25.36 617.188 25.175C617.188 25.085 617.193 24.995 617.203 24.905C617.213 24.81 617.23 24.7125 617.255 24.6125C617.445 24.5875 617.623 24.57 617.788 24.56C617.958 24.55 618.098 24.545 618.208 24.545H618.41C618.785 24.545 619.08 24.665 619.295 24.905C619.515 25.14 619.625 25.4625 619.625 25.8725V32ZM617.615 22.595C617.615 22.485 617.625 22.3675 617.645 22.2425C617.67 22.1175 617.705 22.01 617.75 21.92C617.84 21.87 617.963 21.8275 618.118 21.7925C618.278 21.7575 618.43 21.74 618.575 21.74C618.715 21.74 618.868 21.7575 619.033 21.7925C619.198 21.8275 619.32 21.87 619.4 21.92C619.445 22.01 619.478 22.12 619.498 22.25C619.523 22.375 619.535 22.49 619.535 22.595C619.535 22.7 619.523 22.815 619.498 22.94C619.478 23.065 619.445 23.1725 619.4 23.2625C619.33 23.3125 619.21 23.3575 619.04 23.3975C618.87 23.4325 618.715 23.45 618.575 23.45C618.43 23.45 618.278 23.4325 618.118 23.3975C617.958 23.3625 617.835 23.3175 617.75 23.2625C617.705 23.1725 617.67 23.065 617.645 22.94C617.625 22.815 617.615 22.7 617.615 22.595ZM622.617 24.53C622.942 24.53 623.167 24.6275 623.292 24.8225C623.422 25.0175 623.487 25.2875 623.487 25.6325V32C623.387 32.02 623.27 32.035 623.135 32.045C623 32.055 622.862 32.06 622.722 32.06C622.582 32.06 622.445 32.055 622.31 32.045C622.175 32.035 622.052 32.02 621.942 32V24.6275L622.04 24.53H622.617ZM627.852 30.4175C627.852 30.6775 627.87 30.925 627.905 31.16C627.945 31.39 628.012 31.5925 628.107 31.7675C627.992 31.8625 627.847 31.94 627.672 32C627.497 32.065 627.317 32.0975 627.132 32.0975C626.827 32.0975 626.612 32.015 626.487 31.85C626.367 31.685 626.307 31.44 626.307 31.115V27.2975C626.307 26.7925 626.242 26.4275 626.112 26.2025C625.982 25.9725 625.735 25.8575 625.37 25.8575C625.12 25.8575 624.847 25.9175 624.552 26.0375C624.262 26.1575 623.987 26.33 623.727 26.555C623.467 26.775 623.257 27.0325 623.097 27.3275V25.8425C623.432 25.4575 623.842 25.1325 624.327 24.8675C624.812 24.5975 625.325 24.4625 625.865 24.4625C626.335 24.4625 626.715 24.5725 627.005 24.7925C627.295 25.0075 627.507 25.3 627.642 25.67C627.782 26.04 627.852 26.4575 627.852 26.9225V30.4175ZM631.211 24.6125L633.993 24.5825C634.018 24.6775 634.036 24.7725 634.046 24.8675C634.056 24.9575 634.061 25.05 634.061 25.145C634.061 25.245 634.056 25.345 634.046 25.445C634.036 25.54 634.018 25.6325 633.993 25.7225L631.211 25.6925L629.186 25.7225C629.166 25.6325 629.148 25.54 629.133 25.445C629.123 25.345 629.118 25.245 629.118 25.145C629.118 25.05 629.123 24.9575 629.133 24.8675C629.148 24.7725 629.166 24.6775 629.186 24.5825L631.211 24.6125ZM630.476 25.265C630.446 24.905 630.408 24.5575 630.363 24.2225C630.323 23.8825 630.303 23.5575 630.303 23.2475C630.303 22.8075 630.393 22.4125 630.573 22.0625C630.758 21.7075 631.023 21.4275 631.368 21.2225C631.718 21.0125 632.138 20.9075 632.628 20.9075C632.963 20.9075 633.308 20.945 633.663 21.02C634.018 21.09 634.311 21.1725 634.541 21.2675C634.546 21.4475 634.513 21.6375 634.443 21.8375C634.378 22.0325 634.293 22.19 634.188 22.31C633.993 22.25 633.781 22.1975 633.551 22.1525C633.326 22.1075 633.106 22.085 632.891 22.085C632.541 22.085 632.268 22.1925 632.073 22.4075C631.878 22.6225 631.781 22.9325 631.781 23.3375C631.781 23.6375 631.803 23.9525 631.848 24.2825C631.898 24.6125 631.946 24.9475 631.991 25.2875V32C631.756 32.04 631.501 32.06 631.226 32.06C630.956 32.06 630.706 32.04 630.476 32V25.265ZM640.994 28.295C640.994 29.06 640.871 29.7375 640.626 30.3275C640.381 30.9125 640.019 31.37 639.539 31.7C639.059 32.03 638.461 32.195 637.746 32.195C637.036 32.195 636.441 32.0275 635.961 31.6925C635.481 31.3575 635.119 30.8975 634.874 30.3125C634.634 29.7225 634.514 29.05 634.514 28.295C634.514 27.535 634.636 26.8625 634.881 26.2775C635.126 25.6925 635.489 25.235 635.969 24.905C636.449 24.57 637.041 24.4025 637.746 24.4025C638.466 24.4025 639.066 24.57 639.546 24.905C640.031 25.235 640.394 25.6925 640.634 26.2775C640.874 26.8625 640.994 27.535 640.994 28.295ZM636.111 28.295C636.111 28.76 636.159 29.2 636.254 29.615C636.349 30.03 636.516 30.3675 636.756 30.6275C636.996 30.8825 637.331 31.01 637.761 31.01C638.191 31.01 638.524 30.8825 638.759 30.6275C638.994 30.3675 639.159 30.03 639.254 29.615C639.349 29.2 639.396 28.76 639.396 28.295C639.396 27.83 639.349 27.39 639.254 26.975C639.159 26.56 638.994 26.2225 638.759 25.9625C638.524 25.7025 638.191 25.5725 637.761 25.5725C637.331 25.5725 636.996 25.7025 636.756 25.9625C636.516 26.2225 636.349 26.56 636.254 26.975C636.159 27.39 636.111 27.83 636.111 28.295ZM642.962 23.285C642.962 22.94 643.02 22.69 643.135 22.535C643.25 22.375 643.47 22.295 643.795 22.295H644.38L644.477 22.4V30.185C644.477 30.385 644.525 30.545 644.62 30.665C644.715 30.78 644.875 30.8375 645.1 30.8375H646.135C646.215 31.0725 646.255 31.3325 646.255 31.6175C646.255 31.6725 646.252 31.73 646.247 31.79C646.247 31.85 646.24 31.905 646.225 31.955C645.975 31.985 645.707 32.01 645.422 32.03C645.137 32.055 644.847 32.0675 644.552 32.0675C644.042 32.0675 643.65 31.94 643.375 31.685C643.1 31.425 642.962 31.0375 642.962 30.5225V23.285ZM646.33 24.5825C646.38 24.7675 646.405 24.955 646.405 25.145C646.405 25.355 646.38 25.5475 646.33 25.7225L643.877 25.6925L641.86 25.7225C641.82 25.5375 641.8 25.345 641.8 25.145C641.8 24.965 641.82 24.7775 641.86 24.5825L643.9 24.6125L646.33 24.5825ZM648.277 28.79V27.665H651.914V27.47C651.914 27.12 651.864 26.8 651.764 26.51C651.669 26.215 651.512 25.98 651.292 25.805C651.077 25.63 650.789 25.5425 650.429 25.5425C649.919 25.5425 649.537 25.7575 649.282 26.1875C649.027 26.6175 648.899 27.21 648.899 27.965V28.4375C648.899 28.9075 648.947 29.3325 649.042 29.7125C649.142 30.0875 649.317 30.385 649.567 30.605C649.817 30.82 650.172 30.9275 650.632 30.9275C651.007 30.9275 651.369 30.875 651.719 30.77C652.069 30.66 652.402 30.5225 652.717 30.3575C652.847 30.4825 652.954 30.64 653.039 30.83C653.129 31.015 653.184 31.1875 653.204 31.3475C652.849 31.6075 652.422 31.815 651.922 31.97C651.427 32.12 650.917 32.195 650.392 32.195C649.797 32.195 649.299 32.09 648.899 31.88C648.504 31.67 648.189 31.3825 647.954 31.0175C647.724 30.6475 647.557 30.23 647.452 29.765C647.352 29.3 647.302 28.815 647.302 28.31C647.302 27.565 647.417 26.8975 647.647 26.3075C647.882 25.7175 648.232 25.2525 648.697 24.9125C649.162 24.5725 649.739 24.4025 650.429 24.4025C651.079 24.4025 651.624 24.545 652.064 24.83C652.509 25.115 652.844 25.5 653.069 25.985C653.294 26.465 653.407 27.0025 653.407 27.5975C653.407 27.8375 653.397 28.045 653.377 28.22C653.362 28.39 653.334 28.58 653.294 28.79H648.277ZM659.241 27.455C659.256 27.13 659.226 26.8275 659.151 26.5475C659.081 26.2625 658.949 26.0325 658.754 25.8575C658.564 25.6775 658.286 25.5875 657.921 25.5875C657.446 25.5875 657.076 25.8175 656.811 26.2775C656.551 26.7325 656.421 27.42 656.421 28.34C656.421 29.24 656.569 29.8975 656.864 30.3125C657.164 30.7225 657.581 30.9275 658.116 30.9275C658.456 30.9275 658.779 30.85 659.084 30.695C659.394 30.54 659.679 30.3625 659.939 30.1625C660.074 30.2475 660.206 30.3825 660.336 30.5675C660.471 30.7475 660.556 30.9225 660.591 31.0925C660.251 31.4225 659.849 31.69 659.384 31.895C658.919 32.095 658.416 32.195 657.876 32.195C657.341 32.195 656.881 32.0925 656.496 31.8875C656.111 31.6825 655.794 31.4025 655.544 31.0475C655.299 30.6875 655.116 30.275 654.996 29.81C654.876 29.345 654.816 28.855 654.816 28.34C654.816 27.645 654.904 27.05 655.079 26.555C655.254 26.055 655.491 25.6475 655.791 25.3325C656.091 25.0125 656.426 24.7775 656.796 24.6275C657.171 24.4775 657.559 24.4025 657.959 24.4025C658.414 24.4025 658.811 24.47 659.151 24.605C659.491 24.74 659.774 24.92 659.999 25.145C660.229 25.365 660.399 25.6075 660.509 25.8725C660.619 26.1375 660.674 26.4 660.674 26.66C660.674 26.925 660.611 27.135 660.486 27.29C660.361 27.445 660.161 27.5225 659.886 27.5225C659.761 27.5225 659.649 27.5175 659.549 27.5075C659.449 27.4975 659.346 27.48 659.241 27.455ZM663.924 32C663.714 32.04 663.456 32.06 663.151 32.06C662.876 32.06 662.626 32.04 662.401 32V21.065L662.499 20.9675H663.084C663.409 20.9675 663.629 21.0475 663.744 21.2075C663.864 21.3625 663.924 21.6125 663.924 21.9575V32ZM668.281 30.4175C668.281 30.6775 668.299 30.925 668.334 31.16C668.369 31.39 668.434 31.5925 668.529 31.7675C668.414 31.8625 668.269 31.94 668.094 32C667.924 32.065 667.744 32.0975 667.554 32.0975C667.254 32.0975 667.041 32.015 666.916 31.85C666.796 31.685 666.736 31.44 666.736 31.115V27.305C666.736 26.805 666.671 26.44 666.541 26.21C666.411 25.98 666.164 25.865 665.799 25.865C665.549 25.865 665.276 25.9275 664.981 26.0525C664.691 26.1725 664.416 26.3425 664.156 26.5625C663.896 26.7825 663.686 27.0425 663.526 27.3425V25.85C663.861 25.465 664.271 25.14 664.756 24.875C665.241 24.605 665.754 24.47 666.294 24.47C666.764 24.47 667.144 24.58 667.434 24.8C667.724 25.015 667.936 25.31 668.071 25.685C668.211 26.055 668.281 26.47 668.281 26.93V30.4175ZM670.306 31.1825C670.306 31.0925 670.318 30.9675 670.343 30.8075C670.368 30.6475 670.403 30.5225 670.448 30.4325C670.548 30.3775 670.686 30.3325 670.861 30.2975C671.036 30.2575 671.203 30.2375 671.363 30.2375C671.513 30.2375 671.678 30.2575 671.858 30.2975C672.043 30.3325 672.183 30.3775 672.278 30.4325C672.328 30.5225 672.366 30.6475 672.391 30.8075C672.416 30.9675 672.428 31.0925 672.428 31.1825C672.428 31.2725 672.416 31.3975 672.391 31.5575C672.366 31.7125 672.328 31.835 672.278 31.925C672.193 31.985 672.056 32.0325 671.866 32.0675C671.681 32.1025 671.513 32.12 671.363 32.12C671.203 32.12 671.036 32.1025 670.861 32.0675C670.686 32.0325 670.548 31.985 670.448 31.925C670.403 31.835 670.368 31.7125 670.343 31.5575C670.318 31.3975 670.306 31.2725 670.306 31.1825ZM678.416 27.455C678.431 27.13 678.401 26.8275 678.326 26.5475C678.256 26.2625 678.124 26.0325 677.929 25.8575C677.739 25.6775 677.461 25.5875 677.096 25.5875C676.621 25.5875 676.251 25.8175 675.986 26.2775C675.726 26.7325 675.596 27.42 675.596 28.34C675.596 29.24 675.744 29.8975 676.039 30.3125C676.339 30.7225 676.756 30.9275 677.291 30.9275C677.631 30.9275 677.954 30.85 678.259 30.695C678.569 30.54 678.854 30.3625 679.114 30.1625C679.249 30.2475 679.381 30.3825 679.511 30.5675C679.646 30.7475 679.731 30.9225 679.766 31.0925C679.426 31.4225 679.024 31.69 678.559 31.895C678.094 32.095 677.591 32.195 677.051 32.195C676.516 32.195 676.056 32.0925 675.671 31.8875C675.286 31.6825 674.969 31.4025 674.719 31.0475C674.474 30.6875 674.291 30.275 674.171 29.81C674.051 29.345 673.991 28.855 673.991 28.34C673.991 27.645 674.079 27.05 674.254 26.555C674.429 26.055 674.666 25.6475 674.966 25.3325C675.266 25.0125 675.601 24.7775 675.971 24.6275C676.346 24.4775 676.734 24.4025 677.134 24.4025C677.589 24.4025 677.986 24.47 678.326 24.605C678.666 24.74 678.949 24.92 679.174 25.145C679.404 25.365 679.574 25.6075 679.684 25.8725C679.794 26.1375 679.849 26.4 679.849 26.66C679.849 26.925 679.786 27.135 679.661 27.29C679.536 27.445 679.336 27.5225 679.061 27.5225C678.936 27.5225 678.824 27.5175 678.724 27.5075C678.624 27.4975 678.521 27.48 678.416 27.455ZM687.458 28.295C687.458 29.06 687.336 29.7375 687.091 30.3275C686.846 30.9125 686.483 31.37 686.003 31.7C685.523 32.03 684.926 32.195 684.211 32.195C683.501 32.195 682.906 32.0275 682.426 31.6925C681.946 31.3575 681.583 30.8975 681.338 30.3125C681.098 29.7225 680.978 29.05 680.978 28.295C680.978 27.535 681.101 26.8625 681.346 26.2775C681.591 25.6925 681.953 25.235 682.433 24.905C682.913 24.57 683.506 24.4025 684.211 24.4025C684.931 24.4025 685.531 24.57 686.011 24.905C686.496 25.235 686.858 25.6925 687.098 26.2775C687.338 26.8625 687.458 27.535 687.458 28.295ZM682.576 28.295C682.576 28.76 682.623 29.2 682.718 29.615C682.813 30.03 682.981 30.3675 683.221 30.6275C683.461 30.8825 683.796 31.01 684.226 31.01C684.656 31.01 684.988 30.8825 685.223 30.6275C685.458 30.3675 685.623 30.03 685.718 29.615C685.813 29.2 685.861 28.76 685.861 28.295C685.861 27.83 685.813 27.39 685.718 26.975C685.623 26.56 685.458 26.2225 685.223 25.9625C684.988 25.7025 684.656 25.5725 684.226 25.5725C683.796 25.5725 683.461 25.7025 683.221 25.9625C682.981 26.2225 682.813 26.56 682.718 26.975C682.623 27.39 682.576 27.83 682.576 28.295ZM689.956 24.53C690.276 24.53 690.501 24.6275 690.631 24.8225C690.761 25.0175 690.826 25.2875 690.826 25.6325V32C690.726 32.02 690.609 32.035 690.474 32.045C690.339 32.055 690.201 32.06 690.061 32.06C689.921 32.06 689.784 32.055 689.649 32.045C689.514 32.035 689.391 32.02 689.281 32V24.635L689.379 24.53H689.956ZM693.346 27.305C693.346 26.775 693.271 26.4025 693.121 26.1875C692.971 25.9675 692.749 25.8575 692.454 25.8575C692.204 25.8575 691.936 25.9375 691.651 26.0975C691.371 26.2525 691.111 26.46 690.871 26.72C690.631 26.98 690.441 27.27 690.301 27.59V26.0825C690.521 25.7725 690.771 25.4975 691.051 25.2575C691.336 25.0125 691.639 24.82 691.959 24.68C692.284 24.535 692.614 24.4625 692.949 24.4625C693.384 24.4625 693.746 24.5675 694.036 24.7775C694.326 24.9825 694.541 25.2625 694.681 25.6175C694.826 25.9675 694.899 26.3575 694.899 26.7875V32C694.789 32.02 694.666 32.035 694.531 32.045C694.396 32.055 694.261 32.06 694.126 32.06C693.986 32.06 693.849 32.055 693.714 32.045C693.579 32.035 693.456 32.02 693.346 32V27.305ZM697.411 27.29C697.411 26.76 697.334 26.39 697.179 26.18C697.029 25.965 696.806 25.8575 696.511 25.8575C696.276 25.8575 696.019 25.935 695.739 26.09C695.464 26.24 695.201 26.4475 694.951 26.7125C694.701 26.9775 694.494 27.2825 694.329 27.6275V25.9025C694.579 25.6325 694.849 25.39 695.139 25.175C695.429 24.955 695.736 24.7825 696.061 24.6575C696.386 24.5275 696.714 24.4625 697.044 24.4625C697.479 24.4625 697.839 24.5675 698.124 24.7775C698.409 24.9875 698.619 25.27 698.754 25.625C698.894 25.975 698.964 26.37 698.964 26.81V30.4175C698.964 30.6775 698.981 30.925 699.016 31.16C699.051 31.39 699.116 31.5925 699.211 31.7675C699.096 31.8625 698.951 31.94 698.776 32C698.606 32.065 698.429 32.0975 698.244 32.0975C697.939 32.0975 697.724 32.015 697.599 31.85C697.474 31.685 697.411 31.44 697.411 31.115V27.29Z" fill="#404A3D"/>
<defs>
<clipPath id="clip0_1_2702">
<rect width="20" height="20" fill="white" transform="matrix(1 0 0 -1 278.39 36)"/>
</clipPath>
<clipPath id="clip1_1_2702">
<rect width="20" height="20" fill="white" transform="matrix(1 0 0 -1 480.61 36)"/>
</clipPath>
</defs>
</svg>
