<svg width="23" height="24" viewBox="0 0 23 24" fill="none" xmlns="http://www.w3.org/2000/svg">
<g clip-path="url(#clip0_1_2626)">
<g clip-path="url(#clip1_1_2626)">
<path d="M4.09218 3.528L3.59618 4.04L4.25218 4.6C5.32951 5.496 6.55618 6.17867 7.93218 6.648C8.45484 6.82933 8.90818 6.94667 9.29218 7C9.70818 7.064 10.3108 7.10133 11.1002 7.112C11.6548 7.112 12.1775 7.10133 12.6682 7.08C13.1802 7.05867 13.5268 7.02667 13.7082 6.984C13.8468 6.952 13.9268 6.95733 13.9482 7C13.9695 7.04267 13.9082 7.15467 13.7642 7.336C13.6202 7.51733 13.3615 7.81067 12.9882 8.216C12.6255 8.58933 12.0922 9.13333 11.3882 9.848L8.78018 12.472L3.18018 18.072L3.62818 18.552L4.10818 19L9.70818 13.4L12.3322 10.792C13.0468 10.088 13.5908 9.55467 13.9642 9.192C14.3695 8.81867 14.6628 8.56 14.8442 8.416C15.0255 8.272 15.1375 8.21067 15.1802 8.232C15.2228 8.25333 15.2282 8.33333 15.1962 8.472C15.1535 8.65333 15.1215 9 15.1002 9.512C15.0788 10.0027 15.0682 10.5253 15.0682 11.08C15.0788 11.8693 15.1162 12.472 15.1802 12.888C15.2335 13.272 15.3508 13.7253 15.5322 14.248C16.0015 15.624 16.6842 16.8507 17.5802 17.928L18.1402 18.584L18.6522 18.088L19.1802 17.592L18.7802 17.16C18.5668 16.9573 18.2255 16.4773 17.7562 15.72C17.0735 14.5893 16.6468 13.3733 16.4762 12.072C16.3055 10.7813 16.3935 9.504 16.7402 8.24C17.0868 6.976 17.6762 5.816 18.5082 4.76L19.1642 3.928L18.7322 3.464L18.2842 3.016L17.8522 3.352C17.3615 3.72533 16.8335 4.08533 16.2682 4.432C15.7028 4.77867 15.2335 5.02667 14.8602 5.176C14.2842 5.4 13.5508 5.57333 12.6602 5.696C11.7695 5.81867 11.0362 5.84267 10.4602 5.768C9.46818 5.65067 8.46284 5.37067 7.44418 4.928C6.42551 4.48533 5.61751 3.976 5.02018 3.4L4.58818 3L4.09218 3.528Z" fill="white"/>
</g>
<g clip-path="url(#clip2_1_2626)">
<path d="M-0.99286 23.0574L-1.12182 23.1905L-0.95126 23.3361C-0.671154 23.569 -0.35222 23.7465 0.00553954 23.8686C0.141433 23.9157 0.2593 23.9462 0.35914 23.9601C0.4673 23.9767 0.623993 23.9864 0.82922 23.9892C0.973433 23.9892 1.10933 23.9864 1.2369 23.9809C1.37002 23.9753 1.46015 23.967 1.5073 23.9559C1.54335 23.9476 1.56415 23.949 1.5697 23.9601C1.57525 23.9712 1.5593 24.0003 1.52186 24.0474C1.48442 24.0946 1.41717 24.1709 1.3201 24.2762C1.22581 24.3733 1.08714 24.5147 0.904099 24.7006L0.22602 25.3828L-1.22998 26.8388L-1.1135 26.9636L-0.9887 27.0801L0.4673 25.6241L1.14954 24.946C1.33535 24.763 1.47679 24.6243 1.57386 24.53C1.67925 24.4329 1.75551 24.3657 1.80266 24.3282C1.84981 24.2908 1.87893 24.2749 1.89002 24.2804C1.90111 24.2859 1.9025 24.3067 1.89418 24.3428C1.88309 24.3899 1.87477 24.4801 1.86922 24.6132C1.86367 24.7408 1.8609 24.8767 1.8609 25.0209C1.86367 25.2261 1.87338 25.3828 1.89002 25.491C1.90389 25.5908 1.93439 25.7087 1.98154 25.8446C2.10357 26.2023 2.28106 26.5213 2.51402 26.8014L2.65962 26.9719L2.79274 26.843L2.93002 26.714L2.82602 26.6017C2.77055 26.549 2.68181 26.4242 2.55978 26.2273C2.38229 25.9333 2.27135 25.6171 2.22698 25.2788C2.18261 24.9432 2.20549 24.6111 2.29562 24.2825C2.38575 23.9538 2.53898 23.6522 2.7553 23.3777L2.92586 23.1614L2.81354 23.0407L2.69706 22.9242L2.58474 23.0116C2.45717 23.1087 2.31989 23.2023 2.1729 23.2924C2.02591 23.3825 1.90389 23.447 1.80682 23.4858C1.65706 23.5441 1.46639 23.5891 1.23482 23.621C1.00325 23.6529 0.81258 23.6592 0.66282 23.6398C0.404899 23.6093 0.143513 23.5365 -0.121341 23.4214C-0.386194 23.3063 -0.596274 23.1738 -0.75158 23.0241L-0.8639 22.9201L-0.99286 23.0574Z" fill="white"/>
</g>
</g>
<defs>
<clipPath id="clip0_1_2626">
<rect width="22.38" height="24" fill="white"/>
</clipPath>
<clipPath id="clip1_1_2626">
<rect width="16" height="16" fill="white" transform="matrix(1 0 0 -1 3.18018 19)"/>
</clipPath>
<clipPath id="clip2_1_2626">
<rect width="4.16" height="6.24" fill="white" transform="matrix(1 0 0 -1 -1.22998 28.1201)"/>
</clipPath>
</defs>
</svg>
