<svg width="173" height="50" viewBox="0 0 173 50" fill="none" xmlns="http://www.w3.org/2000/svg">
<rect width="50" height="50" rx="25" fill="white"/>
<g clip-path="url(#clip0_1_2703)">
<path d="M30.8002 28.4C30.4002 27.9556 29.9335 27.7333 29.4002 27.7333C28.8669 27.7333 28.378 27.9556 27.9335 28.4L26.6002 29.7333L25.8669 29.3333C24.6224 28.5333 23.4669 27.4667 22.4002 26.1333C21.8669 25.5111 21.4891 24.9111 21.2669 24.3333L22.6002 23.0667C23.0446 22.6222 23.2669 22.1333 23.2669 21.6C23.2669 21.0667 23.0446 20.5778 22.6002 20.1333L20.2669 17.8C19.8224 17.3556 19.3446 17.1333 18.8335 17.1333C18.3224 17.1333 17.8446 17.3556 17.4002 17.8L15.9335 19.2667C15.4002 19.8 15.0891 20.4444 15.0002 21.2C14.9558 22.1333 15.1558 23.1778 15.6002 24.3333C16.2669 26.1556 17.3335 27.9556 18.8002 29.7333C20.6669 31.9556 22.8669 33.6667 25.4002 34.8667C26.8224 35.5333 28.0669 35.9111 29.1335 36H29.4002C30.378 36 31.178 35.6444 31.8002 34.9333H31.8669C32.0002 34.7556 32.2224 34.5111 32.5335 34.2L33.1335 33.6C33.578 33.1556 33.8002 32.6667 33.8002 32.1333C33.8002 31.6 33.578 31.1333 33.1335 30.7333L30.8002 28.4ZM32.3335 32.8667L31.8002 33.3333C31.4446 33.6889 31.178 33.9778 31.0002 34.2C30.5558 34.6444 30.0224 34.8667 29.4002 34.8667H29.2002C28.2669 34.8222 27.178 34.4889 25.9335 33.8667C23.5335 32.7111 21.4446 31.0889 19.6669 29C18.2891 27.3111 17.2891 25.6222 16.6669 23.9333C16.2669 22.9111 16.1113 22.0222 16.2002 21.2667C16.2446 20.7778 16.4224 20.3778 16.7335 20.0667L18.2002 18.6C18.4224 18.3778 18.6335 18.2667 18.8335 18.2667C19.0335 18.2667 19.2446 18.3778 19.4669 18.6L21.8002 20.9333C22.2002 21.3778 22.2002 21.8 21.8002 22.2L21.4002 22.6C21.0002 23.0444 20.6446 23.3778 20.3335 23.6V23.6667C20.0669 23.9333 20.0002 24.2444 20.1335 24.6V24.6667C20.4002 25.3333 20.8446 26.0667 21.4669 26.8667C22.6224 28.2889 23.8891 29.4222 25.2669 30.2667L26.2002 30.8C26.378 30.8889 26.5558 30.9333 26.7335 30.9333C26.9113 30.9333 27.0891 30.8222 27.2669 30.6L28.7335 29.2C28.9558 28.9778 29.1669 28.8667 29.3669 28.8667C29.5669 28.8667 29.778 28.9778 30.0002 29.2L32.3335 31.5333C32.7335 31.9333 32.7335 32.3778 32.3335 32.8667ZM25.8002 20.7333C26.9113 20.9556 27.878 21.4667 28.7002 22.2667C29.5224 23.0667 30.0224 24.0444 30.2002 25.2C30.2446 25.3333 30.3224 25.4444 30.4335 25.5333C30.5446 25.6222 30.6669 25.6667 30.8002 25.6667H30.8669C31.0446 25.6222 31.178 25.5333 31.2669 25.4C31.3558 25.2667 31.378 25.1333 31.3335 25C31.1113 23.6222 30.5113 22.4444 29.5335 21.4667C28.5558 20.4889 27.378 19.8889 26.0002 19.6667C25.8669 19.6222 25.7335 19.6444 25.6002 19.7333C25.4669 19.8222 25.3891 19.9444 25.3669 20.1C25.3446 20.2556 25.378 20.4 25.4669 20.5333C25.5558 20.6667 25.6669 20.7333 25.8002 20.7333ZM35.0002 24.8C34.6002 22.5778 33.5891 20.6556 31.9669 19.0333C30.3446 17.4111 28.4002 16.4 26.1335 16C26.0002 16 25.8669 16.0444 25.7335 16.1333C25.6002 16.2222 25.5224 16.3444 25.5002 16.5C25.478 16.6556 25.5113 16.7889 25.6002 16.9C25.6891 17.0111 25.8224 17.0889 26.0002 17.1333C28.0002 17.4889 29.7224 18.3889 31.1669 19.8333C32.6113 21.2778 33.5113 23 33.8669 25C33.8669 25.1333 33.9224 25.2444 34.0335 25.3333C34.1446 25.4222 34.2669 25.4667 34.4002 25.4667H34.5335C34.6669 25.4667 34.778 25.4 34.8669 25.2667C34.9558 25.1333 35.0002 24.9778 35.0002 24.8Z" fill="#404A3D"/>
</g>
<path d="M62.2326 26.63H63.9351C64.0601 26.63 64.1926 26.6325 64.3326 26.6375C64.4776 26.6425 64.6101 26.645 64.7301 26.645H65.9901C66.1151 26.645 66.2476 26.6425 66.3876 26.6375C66.5276 26.6325 66.6601 26.63 66.7851 26.63H68.4876C68.5326 26.845 68.5551 27.0675 68.5551 27.2975C68.5551 27.5425 68.5326 27.765 68.4876 27.965H66.7851C66.6601 27.965 66.5276 27.9625 66.3876 27.9575C66.2476 27.9525 66.1151 27.95 65.9901 27.95H64.7301C64.6101 27.95 64.4776 27.9525 64.3326 27.9575C64.1926 27.9625 64.0601 27.965 63.9351 27.965H62.2326C62.1876 27.77 62.1651 27.5475 62.1651 27.2975C62.1651 27.0575 62.1876 26.835 62.2326 26.63ZM64.6551 25.91V24.0575C64.7651 24.0375 64.8776 24.025 64.9926 24.02C65.1076 24.01 65.2301 24.005 65.3601 24.005C65.4851 24.005 65.6076 24.01 65.7276 24.02C65.8476 24.025 65.9601 24.0375 66.0651 24.0575V25.91C66.0651 26.03 66.0626 26.1625 66.0576 26.3075C66.0526 26.4475 66.0501 26.5775 66.0501 26.6975V27.89C66.0501 28.01 66.0526 28.14 66.0576 28.28C66.0626 28.415 66.0651 28.5475 66.0651 28.6775V30.53C65.9601 30.55 65.8476 30.565 65.7276 30.575C65.6126 30.58 65.4926 30.5825 65.3676 30.5825C65.2376 30.5825 65.1126 30.58 64.9926 30.575C64.8776 30.565 64.7651 30.55 64.6551 30.53V28.6775C64.6551 28.5475 64.6576 28.415 64.6626 28.28C64.6676 28.14 64.6701 28.01 64.6701 27.89V26.6975C64.6701 26.5775 64.6676 26.4475 64.6626 26.3075C64.6576 26.1625 64.6551 26.03 64.6551 25.91ZM77.949 29.705C77.949 29.905 77.9465 30.0975 77.9415 30.2825C77.9365 30.4625 77.934 30.6575 77.934 30.8675V31.3775H76.434V30.8675C76.434 30.6575 76.4315 30.4625 76.4265 30.2825C76.4215 30.0975 76.419 29.905 76.419 29.705V26.5175C76.419 26.3475 76.424 26.11 76.434 25.805C76.449 25.5 76.464 25.1925 76.479 24.8825C76.499 24.5725 76.5065 24.325 76.5015 24.14L76.4715 22.505C76.6015 22.475 76.729 22.4575 76.854 22.4525C76.979 22.4425 77.0965 22.4375 77.2065 22.4375C77.3215 22.4375 77.439 22.4425 77.559 22.4525C77.684 22.4575 77.814 22.475 77.949 22.505V29.705ZM75.5715 30.7025C75.6765 30.7025 75.8265 30.705 76.0215 30.71C76.2165 30.715 76.364 30.7175 76.464 30.7175H77.904C78.009 30.7175 78.1615 30.715 78.3615 30.71C78.5615 30.705 78.7115 30.7025 78.8115 30.7025H79.8465C79.8915 30.9125 79.914 31.1275 79.914 31.3475C79.914 31.5525 79.8915 31.77 79.8465 32H74.199C74.149 31.785 74.124 31.5675 74.124 31.3475C74.124 31.1175 74.149 30.9025 74.199 30.7025H75.5715ZM73.6665 25.385C74.3915 24.935 74.989 24.4575 75.459 23.9525C75.929 23.4475 76.2665 22.965 76.4715 22.505L77.049 23.75C76.919 24.115 76.7065 24.4625 76.4115 24.7925C76.1215 25.1225 75.7915 25.4175 75.4215 25.6775C75.0515 25.9375 74.6865 26.15 74.3265 26.315C74.1615 26.22 74.019 26.0925 73.899 25.9325C73.784 25.7675 73.7065 25.585 73.6665 25.385ZM83.4096 27.875C83.4096 28.65 83.4846 29.4325 83.6346 30.2225C83.7896 31.0125 84.0246 31.78 84.3396 32.525C84.6546 33.27 85.0571 33.965 85.5471 34.61C85.4471 34.835 85.3146 35.015 85.1496 35.15C84.9846 35.29 84.8071 35.39 84.6171 35.45C83.9971 34.84 83.4721 34.1125 83.0421 33.2675C82.6171 32.4225 82.2946 31.5325 82.0746 30.5975C81.8546 29.6625 81.7446 28.755 81.7446 27.875C81.7446 27 81.8546 26.095 82.0746 25.16C82.2946 24.225 82.6171 23.335 83.0421 22.49C83.4721 21.645 83.9971 20.92 84.6171 20.315C84.8071 20.375 84.9846 20.475 85.1496 20.615C85.3146 20.75 85.4471 20.93 85.5471 21.155C85.0571 21.8 84.6546 22.495 84.3396 23.24C84.0246 23.98 83.7896 24.745 83.6346 25.535C83.4846 26.32 83.4096 27.1 83.4096 27.875ZM86.7776 24.5C86.9226 24.105 87.1351 23.7425 87.4151 23.4125C87.7001 23.0825 88.0451 22.8175 88.4501 22.6175C88.8551 22.4125 89.3126 22.31 89.8226 22.31C90.7226 22.31 91.4351 22.57 91.9601 23.09C92.4851 23.605 92.7476 24.275 92.7476 25.1C92.7476 25.58 92.6576 25.9975 92.4776 26.3525C92.3026 26.7075 92.0726 27.0275 91.7876 27.3125C91.5076 27.5975 91.2026 27.8775 90.8726 28.1525L89.7251 29.0975C89.4401 29.3375 89.1851 29.57 88.9601 29.795C88.7351 30.02 88.5576 30.2275 88.4276 30.4175C88.2976 30.6025 88.2301 30.76 88.2251 30.89L88.1951 32.0075H87.2876C87.1326 31.8425 86.9901 31.6775 86.8601 31.5125C86.7301 31.3425 86.6651 31.1525 86.6651 30.9425C86.6651 30.6575 86.7526 30.36 86.9276 30.05C87.1076 29.74 87.3401 29.4325 87.6251 29.1275C87.9151 28.8175 88.2201 28.5225 88.5401 28.2425L90.0101 26.9975C90.3651 26.7025 90.6426 26.41 90.8426 26.12C91.0426 25.825 91.1426 25.48 91.1426 25.085C91.1426 24.63 91.0051 24.2675 90.7301 23.9975C90.4601 23.7275 90.1126 23.5925 89.6876 23.5925C89.2726 23.5925 88.9101 23.7325 88.6001 24.0125C88.2951 24.2875 88.0601 24.625 87.8951 25.025C87.7051 25.015 87.4976 24.9675 87.2726 24.8825C87.0476 24.7925 86.8826 24.665 86.7776 24.5ZM92.9801 30.6425C92.9801 31.1725 92.9026 31.5325 92.7476 31.7225C92.5926 31.9125 92.3251 32.0075 91.9451 32.0075H87.3926L86.9426 30.9875C87.2426 30.9025 87.5976 30.835 88.0076 30.785C88.4226 30.73 88.8301 30.6925 89.2301 30.6725C89.6351 30.6525 89.9701 30.6425 90.2351 30.6425H92.9801ZM99.1307 29.705C99.1307 29.905 99.1282 30.0975 99.1232 30.2825C99.1182 30.4625 99.1157 30.6575 99.1157 30.8675V31.3775H97.6157V30.8675C97.6157 30.6575 97.6132 30.4625 97.6082 30.2825C97.6032 30.0975 97.6007 29.905 97.6007 29.705V26.5175C97.6007 26.3475 97.6057 26.11 97.6157 25.805C97.6307 25.5 97.6457 25.1925 97.6607 24.8825C97.6807 24.5725 97.6882 24.325 97.6832 24.14L97.6532 22.505C97.7832 22.475 97.9107 22.4575 98.0357 22.4525C98.1607 22.4425 98.2782 22.4375 98.3882 22.4375C98.5032 22.4375 98.6207 22.4425 98.7407 22.4525C98.8657 22.4575 98.9957 22.475 99.1307 22.505V29.705ZM96.7532 30.7025C96.8582 30.7025 97.0082 30.705 97.2032 30.71C97.3982 30.715 97.5457 30.7175 97.6457 30.7175H99.0857C99.1907 30.7175 99.3432 30.715 99.5432 30.71C99.7432 30.705 99.8932 30.7025 99.9932 30.7025H101.028C101.073 30.9125 101.096 31.1275 101.096 31.3475C101.096 31.5525 101.073 31.77 101.028 32H95.3807C95.3307 31.785 95.3057 31.5675 95.3057 31.3475C95.3057 31.1175 95.3307 30.9025 95.3807 30.7025H96.7532ZM94.8482 25.385C95.5732 24.935 96.1707 24.4575 96.6407 23.9525C97.1107 23.4475 97.4482 22.965 97.6532 22.505L98.2307 23.75C98.1007 24.115 97.8882 24.4625 97.5932 24.7925C97.3032 25.1225 96.9732 25.4175 96.6032 25.6775C96.2332 25.9375 95.8682 26.15 95.5082 26.315C95.3432 26.22 95.2007 26.0925 95.0807 25.9325C94.9657 25.7675 94.8882 25.585 94.8482 25.385ZM102.979 24.5C103.124 24.105 103.336 23.7425 103.616 23.4125C103.901 23.0825 104.246 22.8175 104.651 22.6175C105.056 22.4125 105.514 22.31 106.024 22.31C106.924 22.31 107.636 22.57 108.161 23.09C108.686 23.605 108.949 24.275 108.949 25.1C108.949 25.58 108.859 25.9975 108.679 26.3525C108.504 26.7075 108.274 27.0275 107.989 27.3125C107.709 27.5975 107.404 27.8775 107.074 28.1525L105.926 29.0975C105.641 29.3375 105.386 29.57 105.161 29.795C104.936 30.02 104.759 30.2275 104.629 30.4175C104.499 30.6025 104.431 30.76 104.426 30.89L104.396 32.0075H103.489C103.334 31.8425 103.191 31.6775 103.061 31.5125C102.931 31.3425 102.866 31.1525 102.866 30.9425C102.866 30.6575 102.954 30.36 103.129 30.05C103.309 29.74 103.541 29.4325 103.826 29.1275C104.116 28.8175 104.421 28.5225 104.741 28.2425L106.211 26.9975C106.566 26.7025 106.844 26.41 107.044 26.12C107.244 25.825 107.344 25.48 107.344 25.085C107.344 24.63 107.206 24.2675 106.931 23.9975C106.661 23.7275 106.314 23.5925 105.889 23.5925C105.474 23.5925 105.111 23.7325 104.801 24.0125C104.496 24.2875 104.261 24.625 104.096 25.025C103.906 25.015 103.699 24.9675 103.474 24.8825C103.249 24.7925 103.084 24.665 102.979 24.5ZM109.181 30.6425C109.181 31.1725 109.104 31.5325 108.949 31.7225C108.794 31.9125 108.526 32.0075 108.146 32.0075H103.594L103.144 30.9875C103.444 30.9025 103.799 30.835 104.209 30.785C104.624 30.73 105.031 30.6925 105.431 30.6725C105.836 30.6525 106.171 30.6425 106.436 30.6425H109.181ZM112.459 27.875C112.459 27.1 112.384 26.32 112.234 25.535C112.084 24.745 111.852 23.98 111.537 23.24C111.222 22.495 110.817 21.8 110.322 21.155C110.427 20.93 110.562 20.75 110.727 20.615C110.892 20.475 111.067 20.375 111.252 20.315C111.877 20.92 112.402 21.645 112.827 22.49C113.252 23.335 113.574 24.225 113.794 25.16C114.014 26.095 114.124 27 114.124 27.875C114.124 28.755 114.014 29.6625 113.794 30.5975C113.574 31.5325 113.252 32.4225 112.827 33.2675C112.402 34.1125 111.877 34.84 111.252 35.45C111.067 35.39 110.892 35.29 110.727 35.15C110.562 35.015 110.427 34.835 110.322 34.61C110.817 33.965 111.222 33.27 111.537 32.525C111.852 31.78 112.084 31.0125 112.234 30.2225C112.384 29.4325 112.459 28.65 112.459 27.875ZM119.356 24.5C119.501 24.105 119.713 23.7425 119.993 23.4125C120.278 23.0825 120.623 22.8175 121.028 22.6175C121.433 22.4125 121.891 22.31 122.401 22.31C123.301 22.31 124.013 22.57 124.538 23.09C125.063 23.605 125.326 24.275 125.326 25.1C125.326 25.58 125.236 25.9975 125.056 26.3525C124.881 26.7075 124.651 27.0275 124.366 27.3125C124.086 27.5975 123.781 27.8775 123.451 28.1525L122.303 29.0975C122.018 29.3375 121.763 29.57 121.538 29.795C121.313 30.02 121.136 30.2275 121.006 30.4175C120.876 30.6025 120.808 30.76 120.803 30.89L120.773 32.0075H119.866C119.711 31.8425 119.568 31.6775 119.438 31.5125C119.308 31.3425 119.243 31.1525 119.243 30.9425C119.243 30.6575 119.331 30.36 119.506 30.05C119.686 29.74 119.918 29.4325 120.203 29.1275C120.493 28.8175 120.798 28.5225 121.118 28.2425L122.588 26.9975C122.943 26.7025 123.221 26.41 123.421 26.12C123.621 25.825 123.721 25.48 123.721 25.085C123.721 24.63 123.583 24.2675 123.308 23.9975C123.038 23.7275 122.691 23.5925 122.266 23.5925C121.851 23.5925 121.488 23.7325 121.178 24.0125C120.873 24.2875 120.638 24.625 120.473 25.025C120.283 25.015 120.076 24.9675 119.851 24.8825C119.626 24.7925 119.461 24.665 119.356 24.5ZM125.558 30.6425C125.558 31.1725 125.481 31.5325 125.326 31.7225C125.171 31.9125 124.903 32.0075 124.523 32.0075H119.971L119.521 30.9875C119.821 30.9025 120.176 30.835 120.586 30.785C121.001 30.73 121.408 30.6925 121.808 30.6725C122.213 30.6525 122.548 30.6425 122.813 30.6425H125.558ZM129.309 25.565C129.299 25.765 129.276 25.97 129.241 26.18C129.211 26.39 129.166 26.5875 129.106 26.7725C128.911 26.8475 128.699 26.9075 128.469 26.9525C128.244 26.9925 127.994 27.025 127.719 27.05L127.944 22.6025L129.324 22.82C129.339 22.965 129.351 23.1525 129.361 23.3825C129.371 23.6075 129.376 23.8325 129.376 24.0575C129.381 24.2825 129.379 24.46 129.369 24.59L129.309 25.565ZM127.381 31.2425C127.411 31.0775 127.489 30.8925 127.614 30.6875C127.739 30.4775 127.881 30.315 128.041 30.2C128.346 30.41 128.664 30.5825 128.994 30.7175C129.324 30.8525 129.691 30.92 130.096 30.92C130.431 30.92 130.744 30.845 131.034 30.695C131.329 30.545 131.566 30.315 131.746 30.005C131.926 29.695 132.016 29.2975 132.016 28.8125C132.016 28.3275 131.921 27.95 131.731 27.68C131.546 27.405 131.311 27.21 131.026 27.095C130.746 26.98 130.461 26.9225 130.171 26.9225C129.881 26.9225 129.591 26.98 129.301 27.095C129.011 27.205 128.736 27.3675 128.476 27.5825C128.336 27.5525 128.194 27.485 128.049 27.38C127.904 27.275 127.794 27.165 127.719 27.05C127.919 26.83 128.161 26.615 128.446 26.405C128.736 26.195 129.064 26.0225 129.429 25.8875C129.794 25.7525 130.179 25.685 130.584 25.685C131.504 25.685 132.241 25.9575 132.796 26.5025C133.356 27.0425 133.636 27.785 133.636 28.73C133.636 29.52 133.469 30.1725 133.134 30.6875C132.799 31.1975 132.369 31.5775 131.844 31.8275C131.324 32.0725 130.776 32.195 130.201 32.195C129.606 32.195 129.066 32.105 128.581 31.925C128.101 31.74 127.701 31.5125 127.381 31.2425ZM133.126 22.505C133.166 22.62 133.194 22.735 133.209 22.85C133.224 22.965 133.231 23.065 133.231 23.15C133.231 23.61 133.001 23.84 132.541 23.84H129.954C129.694 23.84 129.434 23.835 129.174 23.825C128.919 23.815 128.686 23.805 128.476 23.795C128.266 23.78 128.106 23.765 127.996 23.75L127.944 22.6025L128.041 22.505H133.126ZM137.409 25.565C137.399 25.765 137.377 25.97 137.342 26.18C137.312 26.39 137.267 26.5875 137.207 26.7725C137.012 26.8475 136.799 26.9075 136.569 26.9525C136.344 26.9925 136.094 27.025 135.819 27.05L136.044 22.6025L137.424 22.82C137.439 22.965 137.452 23.1525 137.462 23.3825C137.472 23.6075 137.477 23.8325 137.477 24.0575C137.482 24.2825 137.479 24.46 137.469 24.59L137.409 25.565ZM135.482 31.2425C135.512 31.0775 135.589 30.8925 135.714 30.6875C135.839 30.4775 135.982 30.315 136.142 30.2C136.447 30.41 136.764 30.5825 137.094 30.7175C137.424 30.8525 137.792 30.92 138.197 30.92C138.532 30.92 138.844 30.845 139.134 30.695C139.429 30.545 139.667 30.315 139.847 30.005C140.027 29.695 140.117 29.2975 140.117 28.8125C140.117 28.3275 140.022 27.95 139.832 27.68C139.647 27.405 139.412 27.21 139.127 27.095C138.847 26.98 138.562 26.9225 138.272 26.9225C137.982 26.9225 137.692 26.98 137.402 27.095C137.112 27.205 136.837 27.3675 136.577 27.5825C136.437 27.5525 136.294 27.485 136.149 27.38C136.004 27.275 135.894 27.165 135.819 27.05C136.019 26.83 136.262 26.615 136.547 26.405C136.837 26.195 137.164 26.0225 137.529 25.8875C137.894 25.7525 138.279 25.685 138.684 25.685C139.604 25.685 140.342 25.9575 140.897 26.5025C141.457 27.0425 141.737 27.785 141.737 28.73C141.737 29.52 141.569 30.1725 141.234 30.6875C140.899 31.1975 140.469 31.5775 139.944 31.8275C139.424 32.0725 138.877 32.195 138.302 32.195C137.707 32.195 137.167 32.105 136.682 31.925C136.202 31.74 135.802 31.5125 135.482 31.2425ZM141.227 22.505C141.267 22.62 141.294 22.735 141.309 22.85C141.324 22.965 141.332 23.065 141.332 23.15C141.332 23.61 141.102 23.84 140.642 23.84H138.054C137.794 23.84 137.534 23.835 137.274 23.825C137.019 23.815 136.787 23.805 136.577 23.795C136.367 23.78 136.207 23.765 136.097 23.75L136.044 22.6025L136.142 22.505H141.227ZM143.425 28.67C143.405 28.565 143.39 28.4525 143.38 28.3325C143.37 28.2125 143.365 28.1025 143.365 28.0025C143.365 27.8975 143.37 27.7875 143.38 27.6725C143.39 27.5525 143.405 27.4375 143.425 27.3275H147.152C147.182 27.4375 147.2 27.5525 147.205 27.6725C147.215 27.7875 147.22 27.8975 147.22 28.0025C147.22 28.1025 147.215 28.2125 147.205 28.3325C147.2 28.4525 147.182 28.565 147.152 28.67H143.425ZM150.754 25.565C150.744 25.765 150.722 25.97 150.687 26.18C150.657 26.39 150.612 26.5875 150.552 26.7725C150.357 26.8475 150.144 26.9075 149.914 26.9525C149.689 26.9925 149.439 27.025 149.164 27.05L149.389 22.6025L150.769 22.82C150.784 22.965 150.797 23.1525 150.807 23.3825C150.817 23.6075 150.822 23.8325 150.822 24.0575C150.827 24.2825 150.824 24.46 150.814 24.59L150.754 25.565ZM148.827 31.2425C148.857 31.0775 148.934 30.8925 149.059 30.6875C149.184 30.4775 149.327 30.315 149.487 30.2C149.792 30.41 150.109 30.5825 150.439 30.7175C150.769 30.8525 151.137 30.92 151.542 30.92C151.877 30.92 152.189 30.845 152.479 30.695C152.774 30.545 153.012 30.315 153.192 30.005C153.372 29.695 153.462 29.2975 153.462 28.8125C153.462 28.3275 153.367 27.95 153.177 27.68C152.992 27.405 152.757 27.21 152.472 27.095C152.192 26.98 151.907 26.9225 151.617 26.9225C151.327 26.9225 151.037 26.98 150.747 27.095C150.457 27.205 150.182 27.3675 149.922 27.5825C149.782 27.5525 149.639 27.485 149.494 27.38C149.349 27.275 149.239 27.165 149.164 27.05C149.364 26.83 149.607 26.615 149.892 26.405C150.182 26.195 150.509 26.0225 150.874 25.8875C151.239 25.7525 151.624 25.685 152.029 25.685C152.949 25.685 153.687 25.9575 154.242 26.5025C154.802 27.0425 155.082 27.785 155.082 28.73C155.082 29.52 154.914 30.1725 154.579 30.6875C154.244 31.1975 153.814 31.5775 153.289 31.8275C152.769 32.0725 152.222 32.195 151.647 32.195C151.052 32.195 150.512 32.105 150.027 31.925C149.547 31.74 149.147 31.5125 148.827 31.2425ZM154.572 22.505C154.612 22.62 154.639 22.735 154.654 22.85C154.669 22.965 154.677 23.065 154.677 23.15C154.677 23.61 154.447 23.84 153.987 23.84H151.399C151.139 23.84 150.879 23.835 150.619 23.825C150.364 23.815 150.132 23.805 149.922 23.795C149.712 23.78 149.552 23.765 149.442 23.75L149.389 22.6025L149.487 22.505H154.572ZM161.255 29.705C161.255 29.905 161.252 30.0975 161.247 30.2825C161.242 30.4625 161.24 30.6575 161.24 30.8675V31.3775H159.74V30.8675C159.74 30.6575 159.737 30.4625 159.732 30.2825C159.727 30.0975 159.725 29.905 159.725 29.705V26.5175C159.725 26.3475 159.73 26.11 159.74 25.805C159.755 25.5 159.77 25.1925 159.785 24.8825C159.805 24.5725 159.812 24.325 159.807 24.14L159.777 22.505C159.907 22.475 160.035 22.4575 160.16 22.4525C160.285 22.4425 160.402 22.4375 160.512 22.4375C160.627 22.4375 160.745 22.4425 160.865 22.4525C160.99 22.4575 161.12 22.475 161.255 22.505V29.705ZM158.877 30.7025C158.982 30.7025 159.132 30.705 159.327 30.71C159.522 30.715 159.67 30.7175 159.77 30.7175H161.21C161.315 30.7175 161.467 30.715 161.667 30.71C161.867 30.705 162.017 30.7025 162.117 30.7025H163.152C163.197 30.9125 163.22 31.1275 163.22 31.3475C163.22 31.5525 163.197 31.77 163.152 32H157.505C157.455 31.785 157.43 31.5675 157.43 31.3475C157.43 31.1175 157.455 30.9025 157.505 30.7025H158.877ZM156.972 25.385C157.697 24.935 158.295 24.4575 158.765 23.9525C159.235 23.4475 159.572 22.965 159.777 22.505L160.355 23.75C160.225 24.115 160.012 24.4625 159.717 24.7925C159.427 25.1225 159.097 25.4175 158.727 25.6775C158.357 25.9375 157.992 26.15 157.632 26.315C157.467 26.22 157.325 26.0925 157.205 25.9325C157.09 25.7675 157.012 25.585 156.972 25.385ZM169.355 29.705C169.355 29.905 169.353 30.0975 169.348 30.2825C169.343 30.4625 169.34 30.6575 169.34 30.8675V31.3775H167.84V30.8675C167.84 30.6575 167.838 30.4625 167.833 30.2825C167.828 30.0975 167.825 29.905 167.825 29.705V26.5175C167.825 26.3475 167.83 26.11 167.84 25.805C167.855 25.5 167.87 25.1925 167.885 24.8825C167.905 24.5725 167.913 24.325 167.908 24.14L167.878 22.505C168.008 22.475 168.135 22.4575 168.26 22.4525C168.385 22.4425 168.503 22.4375 168.613 22.4375C168.728 22.4375 168.845 22.4425 168.965 22.4525C169.09 22.4575 169.22 22.475 169.355 22.505V29.705ZM166.978 30.7025C167.083 30.7025 167.233 30.705 167.428 30.71C167.623 30.715 167.77 30.7175 167.87 30.7175H169.31C169.415 30.7175 169.568 30.715 169.768 30.71C169.968 30.705 170.118 30.7025 170.218 30.7025H171.253C171.298 30.9125 171.32 31.1275 171.32 31.3475C171.32 31.5525 171.298 31.77 171.253 32H165.605C165.555 31.785 165.53 31.5675 165.53 31.3475C165.53 31.1175 165.555 30.9025 165.605 30.7025H166.978ZM165.073 25.385C165.798 24.935 166.395 24.4575 166.865 23.9525C167.335 23.4475 167.673 22.965 167.878 22.505L168.455 23.75C168.325 24.115 168.113 24.4625 167.818 24.7925C167.528 25.1225 167.198 25.4175 166.828 25.6775C166.458 25.9375 166.093 26.15 165.733 26.315C165.568 26.22 165.425 26.0925 165.305 25.9325C165.19 25.7675 165.113 25.585 165.073 25.385Z" fill="#404A3D"/>
<defs>
<clipPath id="clip0_1_2703">
<rect width="20" height="20" fill="white" transform="matrix(1 0 0 -1 15 36)"/>
</clipPath>
</defs>
</svg>
