<svg width="169" height="43" viewBox="0 0 169 43" fill="none" xmlns="http://www.w3.org/2000/svg">
<path d="M57.368 7.848C57.368 7.44267 57.3013 7.04 57.168 6.64C57.04 6.24 56.8133 5.90933 56.488 5.648C56.1627 5.38133 55.712 5.248 55.136 5.248C54.2933 5.248 53.656 5.61867 53.224 6.36C52.7973 7.096 52.584 8.17333 52.584 9.592C52.584 10.9147 52.8187 11.9333 53.288 12.648C53.7573 13.3627 54.4053 13.72 55.232 13.72C55.7333 13.72 56.2187 13.616 56.688 13.408C57.1573 13.1947 57.624 12.8933 58.088 12.504C58.2747 12.6213 58.4507 12.7867 58.616 13C58.7813 13.208 58.8907 13.4107 58.944 13.608C58.6507 13.9013 58.296 14.1707 57.88 14.416C57.4693 14.656 57.0133 14.848 56.512 14.992C56.016 15.136 55.4933 15.208 54.944 15.208C54.1813 15.208 53.5333 15.0507 53 14.736C52.472 14.4213 52.0453 13.9973 51.72 13.464C51.3947 12.9253 51.1573 12.3227 51.008 11.656C50.864 10.984 50.792 10.2933 50.792 9.584C50.792 8.256 50.992 7.17067 51.392 6.328C51.7973 5.48533 52.3307 4.864 52.992 4.464C53.6587 4.064 54.3867 3.864 55.176 3.864C55.9653 3.864 56.648 4.01333 57.224 4.312C57.8 4.60533 58.2453 4.98933 58.56 5.464C58.8747 5.93333 59.032 6.44 59.032 6.984C59.032 7.272 58.9573 7.50667 58.808 7.688C58.6587 7.864 58.4107 7.952 58.064 7.952C57.936 7.952 57.8187 7.944 57.712 7.928C57.6107 7.90667 57.496 7.88 57.368 7.848ZM60.7429 12.856C60.7429 12.2427 60.8762 11.7413 61.1429 11.352C61.4149 10.9573 61.7802 10.6667 62.2389 10.48C62.7029 10.2933 63.2255 10.2 63.8069 10.2C64.1002 10.2 64.4362 10.2133 64.8149 10.24C65.1935 10.2667 65.5455 10.3173 65.8709 10.392V11.504C65.5829 11.4347 65.2602 11.392 64.9029 11.376C64.5509 11.3547 64.2202 11.344 63.9109 11.344C63.4255 11.344 63.0495 11.4693 62.7829 11.72C62.5162 11.9653 62.3829 12.304 62.3829 12.736C62.3829 13.0613 62.4762 13.3387 62.6629 13.568C62.8495 13.792 63.1162 13.904 63.4629 13.904C63.8522 13.904 64.2629 13.768 64.6949 13.496C65.1269 13.224 65.4922 12.824 65.7909 12.296L66.0469 13.56C65.8549 13.784 65.6175 14.024 65.3349 14.28C65.0522 14.536 64.7242 14.7547 64.3509 14.936C63.9829 15.1173 63.5642 15.208 63.0949 15.208C62.5669 15.208 62.1269 15.0907 61.7749 14.856C61.4282 14.6213 61.1695 14.3253 60.9989 13.968C60.8282 13.6053 60.7429 13.2347 60.7429 12.856ZM67.4149 14.264C67.3775 14.4133 67.2975 14.5733 67.1749 14.744C67.0575 14.9093 66.9322 15.0347 66.7989 15.12C66.4629 15.0507 66.1909 14.9253 65.9829 14.744C65.7749 14.5627 65.6202 14.3467 65.5189 14.096C65.4175 13.84 65.3562 13.5707 65.3349 13.288V9.68C65.3349 9.17867 65.2202 8.81867 64.9909 8.6C64.7669 8.376 64.4469 8.264 64.0309 8.264C63.6309 8.264 63.2175 8.32533 62.7909 8.448C62.3642 8.57067 61.9375 8.71467 61.5109 8.88C61.3829 8.74667 61.2735 8.56533 61.1829 8.336C61.0975 8.10133 61.0495 7.87733 61.0389 7.664C61.3375 7.536 61.6735 7.416 62.0469 7.304C62.4255 7.192 62.8149 7.104 63.2149 7.04C63.6149 6.97067 63.9962 6.936 64.3589 6.936C64.8869 6.936 65.3455 7.032 65.7349 7.224C66.1242 7.416 66.4255 7.70933 66.6389 8.104C66.8575 8.49867 66.9669 9.00267 66.9669 9.616V12.896C66.9669 13.1947 66.9962 13.4587 67.0549 13.688C67.1135 13.912 67.2335 14.104 67.4149 14.264ZM72.7203 13.76C72.7629 13.8773 72.7949 14.008 72.8163 14.152C72.8429 14.296 72.8563 14.4427 72.8563 14.592C72.8563 14.6507 72.8536 14.712 72.8483 14.776C72.8483 14.84 72.8376 14.8987 72.8163 14.952C72.6349 14.9787 72.4163 15.0053 72.1603 15.032C71.9096 15.0587 71.6749 15.072 71.4563 15.072C70.9389 15.072 70.5469 14.936 70.2803 14.664C70.0136 14.3867 69.8803 13.9733 69.8803 13.424V3.336L69.9843 3.232H70.6083C70.9549 3.232 71.1896 3.31733 71.3123 3.488C71.4349 3.65333 71.4963 3.92 71.4963 4.288V13.056C71.4963 13.5253 71.7069 13.76 72.1283 13.76H72.7203ZM77.7515 13.76C77.7942 13.8773 77.8262 14.008 77.8475 14.152C77.8742 14.296 77.8875 14.4427 77.8875 14.592C77.8875 14.6507 77.8848 14.712 77.8795 14.776C77.8795 14.84 77.8688 14.8987 77.8475 14.952C77.6662 14.9787 77.4475 15.0053 77.1915 15.032C76.9408 15.0587 76.7062 15.072 76.4875 15.072C75.9702 15.072 75.5782 14.936 75.3115 14.664C75.0448 14.3867 74.9115 13.9733 74.9115 13.424V3.336L75.0155 3.232H75.6395C75.9862 3.232 76.2208 3.31733 76.3435 3.488C76.4662 3.65333 76.5275 3.92 76.5275 4.288V13.056C76.5275 13.5253 76.7382 13.76 77.1595 13.76H77.7515ZM90.3863 12.76C90.3863 13.0693 90.4183 13.36 90.4823 13.632C90.5463 13.904 90.6636 14.1173 90.8343 14.272C90.7916 14.4267 90.7116 14.5867 90.5943 14.752C90.4769 14.912 90.3516 15.0347 90.2183 15.12C89.6956 15.0133 89.3169 14.7627 89.0823 14.368C88.8529 13.968 88.7383 13.512 88.7383 13V7.104C88.8449 7.08267 88.9703 7.06667 89.1143 7.056C89.2636 7.04533 89.4129 7.04 89.5623 7.04C89.7116 7.04 89.8583 7.04533 90.0023 7.056C90.1463 7.06667 90.2743 7.08267 90.3863 7.104V12.76ZM84.0822 8.792C84.0822 8.51467 84.0636 8.25333 84.0263 8.008C83.9889 7.75733 83.9223 7.53867 83.8263 7.352C83.9436 7.25067 84.0956 7.168 84.2823 7.104C84.4689 7.03467 84.6609 7 84.8583 7C85.1783 7 85.4049 7.088 85.5383 7.264C85.6716 7.44 85.7383 7.70133 85.7383 8.048V12.12C85.7383 12.6533 85.8049 13.0427 85.9383 13.288C86.0769 13.5333 86.3409 13.656 86.7303 13.656C87.0023 13.656 87.2929 13.592 87.6023 13.464C87.9116 13.3307 88.2049 13.1467 88.4823 12.912C88.7596 12.6773 88.9836 12.4027 89.1543 12.088V13.664C88.8023 14.08 88.3676 14.432 87.8503 14.72C87.3329 15.0027 86.7836 15.144 86.2023 15.144C85.7063 15.144 85.3009 15.0293 84.9863 14.8C84.6769 14.5653 84.4476 14.248 84.2983 13.848C84.1543 13.448 84.0822 13.0053 84.0822 12.52V8.792ZM92.6523 14.408C92.6629 14.2267 92.7216 14.024 92.8283 13.8C92.9349 13.5707 93.0576 13.3893 93.1963 13.256C93.5323 13.4373 93.8923 13.6027 94.2763 13.752C94.6603 13.896 95.0496 13.968 95.4443 13.968C95.8816 13.968 96.2283 13.8747 96.4843 13.688C96.7403 13.5013 96.8709 13.2613 96.8763 12.968C96.8763 12.744 96.7909 12.536 96.6203 12.344C96.4496 12.152 96.1989 11.9973 95.8683 11.88L94.9403 11.536C94.5723 11.4027 94.2336 11.2347 93.9243 11.032C93.6203 10.8293 93.3749 10.584 93.1883 10.296C93.0016 10.0027 92.9083 9.656 92.9083 9.256C92.9083 8.76533 93.0309 8.344 93.2763 7.992C93.5269 7.64 93.8656 7.37067 94.2923 7.184C94.7243 6.992 95.2069 6.896 95.7403 6.896C96.1723 6.896 96.6309 6.952 97.1163 7.064C97.6069 7.176 98.0176 7.312 98.3483 7.472C98.3536 7.60533 98.3376 7.752 98.3003 7.912C98.2629 8.06667 98.2043 8.21333 98.1243 8.352C98.0496 8.48533 97.9643 8.59733 97.8683 8.688C97.5856 8.55467 97.2576 8.43467 96.8843 8.328C96.5109 8.216 96.1243 8.16 95.7243 8.16C95.3776 8.16 95.1003 8.24533 94.8923 8.416C94.6843 8.58133 94.5803 8.80533 94.5803 9.088C94.5803 9.312 94.6603 9.49867 94.8203 9.648C94.9856 9.79733 95.2336 9.93333 95.5643 10.056L96.5483 10.416C97.1509 10.6347 97.6389 10.936 98.0123 11.32C98.3909 11.704 98.5803 12.2053 98.5803 12.824C98.5803 13.5653 98.2923 14.1493 97.7163 14.576C97.1403 14.9973 96.3829 15.208 95.4443 15.208C94.8843 15.208 94.3643 15.128 93.8843 14.968C93.4096 14.808 92.9989 14.6213 92.6523 14.408ZM105.12 4.088C105.259 4.06133 105.429 4.04267 105.632 4.032C105.84 4.016 106.008 4.008 106.136 4.008C106.269 4.008 106.429 4.01333 106.616 4.024C106.808 4.02933 106.987 4.04533 107.152 4.072L106.704 6.056L106.576 6.08C106.597 6.45333 106.616 6.86933 106.632 7.328C106.653 7.78133 106.669 8.24267 106.68 8.712C106.696 9.176 106.704 9.60533 106.704 10V15C106.56 15.0213 106.421 15.0373 106.288 15.048C106.155 15.0587 106.032 15.064 105.92 15.064C105.813 15.064 105.688 15.0587 105.544 15.048C105.4 15.0373 105.259 15.0213 105.12 15V4.088ZM107.648 8.288C107.451 7.89333 107.267 7.50933 107.096 7.136C106.931 6.76267 106.773 6.40533 106.624 6.064L105.824 5.104L107.152 4.072L110.536 10.776C110.739 11.1973 110.928 11.608 111.104 12.008C111.285 12.4027 111.453 12.7627 111.608 13.088L112.448 13.976L111.056 15L107.648 8.288ZM113.096 4.096V14.984C112.963 15.0107 112.797 15.0293 112.6 15.04C112.408 15.056 112.232 15.064 112.072 15.064C111.917 15.064 111.752 15.0587 111.576 15.048C111.4 15.0373 111.227 15.0213 111.056 15L111.52 13.096L111.656 13.08C111.629 12.6533 111.605 12.2 111.584 11.72C111.563 11.2347 111.547 10.76 111.536 10.296C111.531 9.832 111.528 9.416 111.528 9.048V5.064C111.528 4.69067 111.592 4.42133 111.72 4.256C111.853 4.09067 112.093 4.008 112.44 4.008H113L113.096 4.096ZM122.663 11.048C122.663 11.864 122.532 12.5867 122.271 13.216C122.01 13.84 121.623 14.328 121.111 14.68C120.599 15.032 119.962 15.208 119.199 15.208C118.442 15.208 117.807 15.0293 117.295 14.672C116.783 14.3147 116.396 13.824 116.135 13.2C115.879 12.5707 115.751 11.8533 115.751 11.048C115.751 10.2373 115.882 9.52 116.143 8.896C116.404 8.272 116.791 7.784 117.303 7.432C117.815 7.07467 118.447 6.896 119.199 6.896C119.967 6.896 120.607 7.07467 121.119 7.432C121.636 7.784 122.023 8.272 122.279 8.896C122.535 9.52 122.663 10.2373 122.663 11.048ZM117.455 11.048C117.455 11.544 117.506 12.0133 117.607 12.456C117.708 12.8987 117.887 13.2587 118.143 13.536C118.399 13.808 118.756 13.944 119.215 13.944C119.674 13.944 120.028 13.808 120.279 13.536C120.53 13.2587 120.706 12.8987 120.807 12.456C120.908 12.0133 120.959 11.544 120.959 11.048C120.959 10.552 120.908 10.0827 120.807 9.64C120.706 9.19733 120.53 8.83733 120.279 8.56C120.028 8.28267 119.674 8.144 119.215 8.144C118.756 8.144 118.399 8.28267 118.143 8.56C117.887 8.83733 117.708 9.19733 117.607 9.64C117.506 10.0827 117.455 10.552 117.455 11.048ZM124.063 7.208C124.25 7.12267 124.42 7.064 124.575 7.032C124.735 7 124.887 6.984 125.031 6.984C125.25 6.984 125.42 7.03467 125.543 7.136C125.666 7.23733 125.751 7.41067 125.799 7.656L126.527 10.976C126.634 11.472 126.732 11.9627 126.823 12.448C126.919 12.9333 126.994 13.328 127.047 13.632C127.063 13.7227 127.106 13.768 127.175 13.768L128.519 7.144C128.652 7.112 128.823 7.09067 129.031 7.08C129.239 7.064 129.396 7.056 129.503 7.056C129.626 7.056 129.791 7.064 129.999 7.08C130.212 7.09067 130.378 7.112 130.495 7.144L131.791 13.632C131.812 13.7227 131.855 13.768 131.919 13.768C132.015 13.304 132.108 12.8427 132.199 12.384C132.295 11.92 132.396 11.4507 132.503 10.976L133.375 7.096C133.466 7.07467 133.575 7.05867 133.703 7.048C133.831 7.03733 133.956 7.032 134.079 7.032C134.207 7.032 134.348 7.04267 134.503 7.064C134.663 7.08 134.796 7.112 134.903 7.16L134.959 7.24L133.015 15.008C132.85 15.0347 132.65 15.0507 132.415 15.056C132.18 15.0667 131.964 15.072 131.767 15.072C131.447 15.072 131.194 15.0213 131.007 14.92C130.82 14.8187 130.69 14.5733 130.615 14.184L130.151 11.96C130.103 11.6773 130.044 11.352 129.975 10.984C129.906 10.6107 129.834 10.2213 129.759 9.816C129.69 9.41067 129.618 9.01867 129.543 8.64H129.463C129.399 9.01867 129.327 9.41067 129.247 9.816C129.167 10.216 129.09 10.6027 129.015 10.976C128.94 11.344 128.874 11.6693 128.815 11.952L128.159 15C127.978 15.0267 127.762 15.0453 127.511 15.056C127.266 15.0667 127.042 15.072 126.839 15.072C126.556 15.072 126.322 15.0187 126.135 14.912C125.948 14.8053 125.812 14.5573 125.727 14.168L124.063 7.208Z" fill="white"/>
<path d="M50.968 32.2H52.68C52.8293 32.2 52.9813 32.2027 53.136 32.208C53.2907 32.2133 53.44 32.216 53.584 32.216H55.056C55.2 32.216 55.3493 32.2133 55.504 32.208C55.6587 32.2027 55.8107 32.2 55.96 32.2H57.672C57.72 32.4507 57.744 32.7067 57.744 32.968C57.744 33.2453 57.72 33.4987 57.672 33.728H55.96C55.8107 33.728 55.6587 33.7253 55.504 33.72C55.3493 33.7147 55.2 33.712 55.056 33.712H53.584C53.44 33.712 53.2907 33.7147 53.136 33.72C52.9813 33.7253 52.8293 33.728 52.68 33.728H50.968C50.92 33.5093 50.896 33.256 50.896 32.968C50.896 32.6907 50.92 32.4347 50.968 32.2ZM53.504 31.36V29.512C53.6373 29.4853 53.768 29.4693 53.896 29.464C54.0293 29.4533 54.1707 29.448 54.32 29.448C54.4587 29.448 54.5973 29.4533 54.736 29.464C54.8747 29.4693 55.008 29.4853 55.136 29.512V31.36C55.136 31.5093 55.1333 31.664 55.128 31.824C55.1227 31.9787 55.12 32.128 55.12 32.272V33.648C55.12 33.792 55.1227 33.9413 55.128 34.096C55.1333 34.2507 55.136 34.4027 55.136 34.552V36.408C55.008 36.4347 54.8773 36.4533 54.744 36.464C54.6107 36.4693 54.4747 36.472 54.336 36.472C54.1867 36.472 54.0427 36.4693 53.904 36.464C53.7707 36.4533 53.6373 36.4347 53.504 36.408V34.552C53.504 34.4027 53.5067 34.2507 53.512 34.096C53.5173 33.9413 53.52 33.792 53.52 33.648V32.272C53.52 32.128 53.5173 31.9787 53.512 31.824C53.5067 31.664 53.504 31.5093 53.504 31.36ZM64.5158 35.4C64.5158 35.6133 64.5131 35.8213 64.5078 36.024C64.5024 36.2213 64.4998 36.432 64.4998 36.656V37.272H62.7478V36.656C62.7478 36.432 62.7451 36.2213 62.7398 36.024C62.7344 35.8213 62.7318 35.6133 62.7318 35.4V32.304C62.7318 32.1173 62.7398 31.8613 62.7558 31.536C62.7718 31.2107 62.7878 30.8827 62.8038 30.552C62.8251 30.2213 62.8331 29.9493 62.8278 29.736L62.7878 27.872C62.9424 27.84 63.0918 27.8187 63.2358 27.808C63.3851 27.7973 63.5238 27.792 63.6518 27.792C63.7851 27.792 63.9211 27.7973 64.0598 27.808C64.2038 27.8187 64.3558 27.84 64.5158 27.872V35.4ZM61.8038 36.488C61.9211 36.488 62.0838 36.4907 62.2918 36.496C62.5051 36.5013 62.6678 36.504 62.7798 36.504H64.4678C64.5851 36.504 64.7531 36.5013 64.9718 36.496C65.1958 36.4907 65.3611 36.488 65.4678 36.488H66.5238C66.5771 36.7333 66.6038 36.984 66.6038 37.24C66.6038 37.4853 66.5771 37.7387 66.5238 38H60.3798C60.3158 37.7493 60.2838 37.496 60.2838 37.24C60.2838 36.9733 60.3158 36.7227 60.3798 36.488H61.8038ZM59.7718 30.976C60.5504 30.4907 61.1904 29.9813 61.6918 29.448C62.1931 28.9093 62.5584 28.384 62.7878 27.872L63.4518 29.312C63.3078 29.712 63.0784 30.0907 62.7638 30.448C62.4544 30.8 62.1024 31.1147 61.7078 31.392C61.3131 31.664 60.9238 31.8853 60.5398 32.056C60.3531 31.9547 60.1878 31.808 60.0438 31.616C59.9051 31.4187 59.8144 31.2053 59.7718 30.976ZM70.9124 33.608C70.9124 34.424 70.9924 35.2507 71.1524 36.088C71.3124 36.9253 71.5577 37.7413 71.8884 38.536C72.2244 39.3307 72.651 40.072 73.1684 40.76C73.051 41.016 72.8937 41.224 72.6964 41.384C72.5044 41.5493 72.3017 41.6667 72.0884 41.736C71.411 41.0747 70.8404 40.2907 70.3764 39.384C69.9124 38.4773 69.5604 37.5227 69.3204 36.52C69.0857 35.5173 68.9684 34.5467 68.9684 33.608C68.9684 32.6693 69.0857 31.7013 69.3204 30.704C69.5604 29.7013 69.9124 28.7467 70.3764 27.84C70.8404 26.9333 71.411 26.1493 72.0884 25.488C72.3017 25.5627 72.5044 25.68 72.6964 25.84C72.8937 26 73.051 26.2107 73.1684 26.472C72.651 27.1547 72.2244 27.8933 71.8884 28.688C71.5577 29.4773 71.3124 30.2907 71.1524 31.128C70.9924 31.9653 70.9124 32.792 70.9124 33.608ZM74.9455 30.064C75.0948 29.632 75.3188 29.2347 75.6175 28.872C75.9215 28.504 76.2922 28.2107 76.7295 27.992C77.1722 27.768 77.6708 27.656 78.2255 27.656C79.1962 27.656 79.9668 27.936 80.5375 28.496C81.1082 29.0507 81.3935 29.776 81.3935 30.672C81.3935 31.1733 81.3002 31.6133 81.1135 31.992C80.9322 32.3653 80.6922 32.704 80.3935 33.008C80.0948 33.312 79.7695 33.6133 79.4175 33.912L78.2095 34.896C77.9268 35.1307 77.6682 35.3627 77.4335 35.592C77.1988 35.8213 77.0095 36.0347 76.8655 36.232C76.7268 36.424 76.6548 36.5867 76.6495 36.72L76.6095 38.008H75.5215C75.3455 37.816 75.1855 37.624 75.0415 37.432C74.8975 37.24 74.8255 37.024 74.8255 36.784C74.8255 36.48 74.9162 36.168 75.0975 35.848C75.2842 35.5227 75.5268 35.1973 75.8255 34.872C76.1295 34.5467 76.4522 34.2373 76.7935 33.944L78.3935 32.584C78.7402 32.2907 79.0148 31.9947 79.2175 31.696C79.4202 31.3973 79.5215 31.048 79.5215 30.648C79.5215 30.2 79.3855 29.84 79.1135 29.568C78.8468 29.296 78.4948 29.16 78.0575 29.16C77.6255 29.16 77.2548 29.3093 76.9455 29.608C76.6362 29.9013 76.4042 30.2533 76.2495 30.664C76.0255 30.6533 75.7802 30.5973 75.5135 30.496C75.2522 30.3947 75.0628 30.2507 74.9455 30.064ZM81.6495 36.424C81.6495 37.0373 81.5588 37.456 81.3775 37.68C81.2015 37.8987 80.8948 38.008 80.4575 38.008H75.6415L75.1295 36.848C75.4655 36.7413 75.8655 36.6587 76.3295 36.6C76.7935 36.536 77.2548 36.4907 77.7135 36.464C78.1722 36.4373 78.5562 36.424 78.8655 36.424H81.6495ZM88.7501 35.4C88.7501 35.6133 88.7475 35.8213 88.7421 36.024C88.7368 36.2213 88.7341 36.432 88.7341 36.656V37.272H86.9821V36.656C86.9821 36.432 86.9795 36.2213 86.9741 36.024C86.9688 35.8213 86.9661 35.6133 86.9661 35.4V32.304C86.9661 32.1173 86.9741 31.8613 86.9901 31.536C87.0061 31.2107 87.0221 30.8827 87.0381 30.552C87.0595 30.2213 87.0675 29.9493 87.0621 29.736L87.0221 27.872C87.1768 27.84 87.3261 27.8187 87.4701 27.808C87.6195 27.7973 87.7581 27.792 87.8861 27.792C88.0195 27.792 88.1555 27.7973 88.2941 27.808C88.4381 27.8187 88.5901 27.84 88.7501 27.872V35.4ZM86.0381 36.488C86.1555 36.488 86.3181 36.4907 86.5261 36.496C86.7395 36.5013 86.9021 36.504 87.0141 36.504H88.7021C88.8195 36.504 88.9875 36.5013 89.2061 36.496C89.4301 36.4907 89.5955 36.488 89.7021 36.488H90.7581C90.8115 36.7333 90.8381 36.984 90.8381 37.24C90.8381 37.4853 90.8115 37.7387 90.7581 38H84.6141C84.5501 37.7493 84.5181 37.496 84.5181 37.24C84.5181 36.9733 84.5501 36.7227 84.6141 36.488H86.0381ZM84.0061 30.976C84.7848 30.4907 85.4248 29.9813 85.9261 29.448C86.4275 28.9093 86.7928 28.384 87.0221 27.872L87.6861 29.312C87.5421 29.712 87.3128 30.0907 86.9981 30.448C86.6888 30.8 86.3368 31.1147 85.9421 31.392C85.5475 31.664 85.1581 31.8853 84.7741 32.056C84.5875 31.9547 84.4221 31.808 84.2781 31.616C84.1395 31.4187 84.0488 31.2053 84.0061 30.976ZM93.2268 30.064C93.3761 29.632 93.6001 29.2347 93.8988 28.872C94.2028 28.504 94.5734 28.2107 95.0108 27.992C95.4534 27.768 95.9521 27.656 96.5068 27.656C97.4774 27.656 98.2481 27.936 98.8188 28.496C99.3894 29.0507 99.6748 29.776 99.6748 30.672C99.6748 31.1733 99.5814 31.6133 99.3948 31.992C99.2134 32.3653 98.9734 32.704 98.6748 33.008C98.3761 33.312 98.0508 33.6133 97.6988 33.912L96.4908 34.896C96.2081 35.1307 95.9494 35.3627 95.7148 35.592C95.4801 35.8213 95.2908 36.0347 95.1468 36.232C95.0081 36.424 94.9361 36.5867 94.9308 36.72L94.8908 38.008H93.8028C93.6268 37.816 93.4668 37.624 93.3228 37.432C93.1788 37.24 93.1068 37.024 93.1068 36.784C93.1068 36.48 93.1974 36.168 93.3788 35.848C93.5654 35.5227 93.8081 35.1973 94.1068 34.872C94.4108 34.5467 94.7334 34.2373 95.0748 33.944L96.6748 32.584C97.0214 32.2907 97.2961 31.9947 97.4988 31.696C97.7014 31.3973 97.8028 31.048 97.8028 30.648C97.8028 30.2 97.6668 29.84 97.3948 29.568C97.1281 29.296 96.7761 29.16 96.3388 29.16C95.9068 29.16 95.5361 29.3093 95.2268 29.608C94.9174 29.9013 94.6854 30.2533 94.5308 30.664C94.3068 30.6533 94.0614 30.5973 93.7948 30.496C93.5334 30.3947 93.3441 30.2507 93.2268 30.064ZM99.9308 36.424C99.9308 37.0373 99.8401 37.456 99.6588 37.68C99.4828 37.8987 99.1761 38.008 98.7388 38.008H93.9228L93.4108 36.848C93.7468 36.7413 94.1468 36.6587 94.6108 36.6C95.0748 36.536 95.5361 36.4907 95.9948 36.464C96.4534 36.4373 96.8374 36.424 97.1468 36.424H99.9308ZM103.871 33.608C103.871 32.792 103.791 31.9653 103.631 31.128C103.477 30.2907 103.231 29.4773 102.895 28.688C102.565 27.8933 102.141 27.1547 101.623 26.472C101.741 26.2107 101.895 26 102.087 25.84C102.285 25.68 102.49 25.5627 102.703 25.488C103.381 26.1493 103.949 26.9333 104.407 27.84C104.871 28.7467 105.221 29.7013 105.455 30.704C105.695 31.7013 105.815 32.6693 105.815 33.608C105.815 34.5467 105.695 35.5173 105.455 36.52C105.221 37.5227 104.871 38.4773 104.407 39.384C103.949 40.2907 103.381 41.0747 102.703 41.736C102.49 41.6667 102.285 41.5493 102.087 41.384C101.895 41.224 101.741 41.016 101.623 40.76C102.141 40.072 102.565 39.3307 102.895 38.536C103.231 37.7413 103.477 36.9253 103.631 36.088C103.791 35.2507 103.871 34.424 103.871 33.608ZM108.321 30.064C108.47 29.632 108.694 29.2347 108.993 28.872C109.297 28.504 109.667 28.2107 110.105 27.992C110.547 27.768 111.046 27.656 111.601 27.656C112.571 27.656 113.342 27.936 113.913 28.496C114.483 29.0507 114.769 29.776 114.769 30.672C114.769 31.1733 114.675 31.6133 114.489 31.992C114.307 32.3653 114.067 32.704 113.769 33.008C113.47 33.312 113.145 33.6133 112.793 33.912L111.585 34.896C111.302 35.1307 111.043 35.3627 110.809 35.592C110.574 35.8213 110.385 36.0347 110.241 36.232C110.102 36.424 110.03 36.5867 110.025 36.72L109.985 38.008H108.897C108.721 37.816 108.561 37.624 108.417 37.432C108.273 37.24 108.201 37.024 108.201 36.784C108.201 36.48 108.291 36.168 108.473 35.848C108.659 35.5227 108.902 35.1973 109.201 34.872C109.505 34.5467 109.827 34.2373 110.169 33.944L111.769 32.584C112.115 32.2907 112.39 31.9947 112.593 31.696C112.795 31.3973 112.897 31.048 112.897 30.648C112.897 30.2 112.761 29.84 112.489 29.568C112.222 29.296 111.87 29.16 111.433 29.16C111.001 29.16 110.63 29.3093 110.321 29.608C110.011 29.9013 109.779 30.2533 109.625 30.664C109.401 30.6533 109.155 30.5973 108.889 30.496C108.627 30.3947 108.438 30.2507 108.321 30.064ZM115.025 36.424C115.025 37.0373 114.934 37.456 114.753 37.68C114.577 37.8987 114.27 38.008 113.833 38.008H109.017L108.505 36.848C108.841 36.7413 109.241 36.6587 109.705 36.6C110.169 36.536 110.63 36.4907 111.089 36.464C111.547 36.4373 111.931 36.424 112.241 36.424H115.025ZM119.597 31.12C119.586 31.3333 119.562 31.552 119.525 31.776C119.488 32 119.434 32.2133 119.365 32.416C119.13 32.5013 118.877 32.568 118.605 32.616C118.333 32.664 118.045 32.7013 117.741 32.728L117.989 27.984L119.597 28.248C119.618 28.3973 119.634 28.5973 119.645 28.848C119.661 29.0933 119.669 29.336 119.669 29.576C119.674 29.816 119.672 30.0053 119.661 30.144L119.597 31.12ZM117.365 37.176C117.402 36.9947 117.493 36.7813 117.637 36.536C117.781 36.2907 117.946 36.1013 118.133 35.968C118.458 36.192 118.792 36.3733 119.133 36.512C119.48 36.6507 119.864 36.72 120.285 36.72C120.632 36.72 120.954 36.6453 121.253 36.496C121.552 36.3467 121.792 36.1173 121.973 35.808C122.154 35.4933 122.245 35.0933 122.245 34.608C122.245 34.128 122.152 33.7493 121.965 33.472C121.778 33.1893 121.538 32.9893 121.245 32.872C120.957 32.7493 120.661 32.688 120.357 32.688C120.058 32.688 119.762 32.7467 119.469 32.864C119.176 32.976 118.898 33.1387 118.637 33.352C118.472 33.32 118.301 33.2427 118.125 33.12C117.954 32.9973 117.826 32.8667 117.741 32.728C117.954 32.4987 118.216 32.272 118.525 32.048C118.84 31.8187 119.192 31.6293 119.581 31.48C119.976 31.3307 120.4 31.256 120.853 31.256C121.856 31.256 122.653 31.5493 123.245 32.136C123.837 32.7227 124.133 33.5173 124.133 34.52C124.133 35.3627 123.952 36.0587 123.589 36.608C123.232 37.152 122.768 37.5573 122.197 37.824C121.632 38.0853 121.037 38.216 120.413 38.216C119.784 38.216 119.205 38.12 118.677 37.928C118.154 37.7307 117.717 37.48 117.365 37.176ZM123.589 27.872C123.642 28.0107 123.677 28.1467 123.693 28.28C123.714 28.4133 123.725 28.528 123.725 28.624C123.725 29.152 123.456 29.416 122.917 29.416H120.189C119.917 29.416 119.637 29.4133 119.349 29.408C119.066 29.3973 118.808 29.384 118.573 29.368C118.344 29.352 118.168 29.3387 118.045 29.328L117.989 27.984L118.101 27.872H123.589ZM128.738 31.12C128.727 31.3333 128.703 31.552 128.666 31.776C128.628 32 128.575 32.2133 128.506 32.416C128.271 32.5013 128.018 32.568 127.746 32.616C127.474 32.664 127.186 32.7013 126.882 32.728L127.13 27.984L128.738 28.248C128.759 28.3973 128.775 28.5973 128.786 28.848C128.802 29.0933 128.81 29.336 128.81 29.576C128.815 29.816 128.812 30.0053 128.802 30.144L128.738 31.12ZM126.506 37.176C126.543 36.9947 126.634 36.7813 126.778 36.536C126.922 36.2907 127.087 36.1013 127.274 35.968C127.599 36.192 127.932 36.3733 128.274 36.512C128.62 36.6507 129.004 36.72 129.426 36.72C129.772 36.72 130.095 36.6453 130.394 36.496C130.692 36.3467 130.932 36.1173 131.114 35.808C131.295 35.4933 131.386 35.0933 131.386 34.608C131.386 34.128 131.292 33.7493 131.106 33.472C130.919 33.1893 130.679 32.9893 130.386 32.872C130.098 32.7493 129.802 32.688 129.498 32.688C129.199 32.688 128.903 32.7467 128.61 32.864C128.316 32.976 128.039 33.1387 127.778 33.352C127.612 33.32 127.442 33.2427 127.266 33.12C127.095 32.9973 126.967 32.8667 126.882 32.728C127.095 32.4987 127.356 32.272 127.666 32.048C127.98 31.8187 128.332 31.6293 128.722 31.48C129.116 31.3307 129.54 31.256 129.994 31.256C130.996 31.256 131.794 31.5493 132.386 32.136C132.978 32.7227 133.274 33.5173 133.274 34.52C133.274 35.3627 133.092 36.0587 132.73 36.608C132.372 37.152 131.908 37.5573 131.338 37.824C130.772 38.0853 130.178 38.216 129.554 38.216C128.924 38.216 128.346 38.12 127.818 37.928C127.295 37.7307 126.858 37.48 126.506 37.176ZM132.73 27.872C132.783 28.0107 132.818 28.1467 132.834 28.28C132.855 28.4133 132.866 28.528 132.866 28.624C132.866 29.152 132.596 29.416 132.058 29.416H129.33C129.058 29.416 128.778 29.4133 128.49 29.408C128.207 29.3973 127.948 29.384 127.714 29.368C127.484 29.352 127.308 29.3387 127.186 29.328L127.13 27.984L127.242 27.872H132.73ZM135.534 34.496C135.508 34.368 135.489 34.2347 135.478 34.096C135.468 33.9573 135.462 33.8347 135.462 33.728C135.462 33.616 135.468 33.4907 135.478 33.352C135.489 33.208 135.508 33.0747 135.534 32.952H139.614C139.646 33.0747 139.668 33.208 139.678 33.352C139.689 33.4907 139.694 33.616 139.694 33.728C139.694 33.8347 139.689 33.9573 139.678 34.096C139.668 34.2347 139.646 34.368 139.614 34.496H135.534ZM144.066 31.12C144.055 31.3333 144.031 31.552 143.994 31.776C143.957 32 143.903 32.2133 143.834 32.416C143.599 32.5013 143.346 32.568 143.074 32.616C142.802 32.664 142.514 32.7013 142.21 32.728L142.458 27.984L144.066 28.248C144.087 28.3973 144.103 28.5973 144.114 28.848C144.13 29.0933 144.138 29.336 144.138 29.576C144.143 29.816 144.141 30.0053 144.13 30.144L144.066 31.12ZM141.834 37.176C141.871 36.9947 141.962 36.7813 142.106 36.536C142.25 36.2907 142.415 36.1013 142.602 35.968C142.927 36.192 143.261 36.3733 143.602 36.512C143.949 36.6507 144.333 36.72 144.754 36.72C145.101 36.72 145.423 36.6453 145.722 36.496C146.021 36.3467 146.261 36.1173 146.442 35.808C146.623 35.4933 146.714 35.0933 146.714 34.608C146.714 34.128 146.621 33.7493 146.434 33.472C146.247 33.1893 146.007 32.9893 145.714 32.872C145.426 32.7493 145.13 32.688 144.826 32.688C144.527 32.688 144.231 32.7467 143.938 32.864C143.645 32.976 143.367 33.1387 143.106 33.352C142.941 33.32 142.77 33.2427 142.594 33.12C142.423 32.9973 142.295 32.8667 142.21 32.728C142.423 32.4987 142.685 32.272 142.994 32.048C143.309 31.8187 143.661 31.6293 144.05 31.48C144.445 31.3307 144.869 31.256 145.322 31.256C146.325 31.256 147.122 31.5493 147.714 32.136C148.306 32.7227 148.602 33.5173 148.602 34.52C148.602 35.3627 148.421 36.0587 148.058 36.608C147.701 37.152 147.237 37.5573 146.666 37.824C146.101 38.0853 145.506 38.216 144.882 38.216C144.253 38.216 143.674 38.12 143.146 37.928C142.623 37.7307 142.186 37.48 141.834 37.176ZM148.058 27.872C148.111 28.0107 148.146 28.1467 148.162 28.28C148.183 28.4133 148.194 28.528 148.194 28.624C148.194 29.152 147.925 29.416 147.386 29.416H144.658C144.386 29.416 144.106 29.4133 143.818 29.408C143.535 29.3973 143.277 29.384 143.042 29.368C142.813 29.352 142.637 29.3387 142.514 29.328L142.458 27.984L142.57 27.872H148.058ZM155.735 35.4C155.735 35.6133 155.732 35.8213 155.727 36.024C155.721 36.2213 155.719 36.432 155.719 36.656V37.272H153.967V36.656C153.967 36.432 153.964 36.2213 153.959 36.024C153.953 35.8213 153.951 35.6133 153.951 35.4V32.304C153.951 32.1173 153.959 31.8613 153.975 31.536C153.991 31.2107 154.007 30.8827 154.023 30.552C154.044 30.2213 154.052 29.9493 154.047 29.736L154.007 27.872C154.161 27.84 154.311 27.8187 154.455 27.808C154.604 27.7973 154.743 27.792 154.871 27.792C155.004 27.792 155.14 27.7973 155.279 27.808C155.423 27.8187 155.575 27.84 155.735 27.872V35.4ZM153.023 36.488C153.14 36.488 153.303 36.4907 153.511 36.496C153.724 36.5013 153.887 36.504 153.999 36.504H155.687C155.804 36.504 155.972 36.5013 156.191 36.496C156.415 36.4907 156.58 36.488 156.687 36.488H157.743C157.796 36.7333 157.823 36.984 157.823 37.24C157.823 37.4853 157.796 37.7387 157.743 38H151.599C151.535 37.7493 151.503 37.496 151.503 37.24C151.503 36.9733 151.535 36.7227 151.599 36.488H153.023ZM150.991 30.976C151.769 30.4907 152.409 29.9813 152.911 29.448C153.412 28.9093 153.777 28.384 154.007 27.872L154.671 29.312C154.527 29.712 154.297 30.0907 153.983 30.448C153.673 30.8 153.321 31.1147 152.927 31.392C152.532 31.664 152.143 31.8853 151.759 32.056C151.572 31.9547 151.407 31.808 151.263 31.616C151.124 31.4187 151.033 31.2053 150.991 30.976ZM164.875 35.4C164.875 35.6133 164.872 35.8213 164.867 36.024C164.862 36.2213 164.859 36.432 164.859 36.656V37.272H163.107V36.656C163.107 36.432 163.104 36.2213 163.099 36.024C163.094 35.8213 163.091 35.6133 163.091 35.4V32.304C163.091 32.1173 163.099 31.8613 163.115 31.536C163.131 31.2107 163.147 30.8827 163.163 30.552C163.184 30.2213 163.192 29.9493 163.187 29.736L163.147 27.872C163.302 27.84 163.451 27.8187 163.595 27.808C163.744 27.7973 163.883 27.792 164.011 27.792C164.144 27.792 164.28 27.7973 164.419 27.808C164.563 27.8187 164.715 27.84 164.875 27.872V35.4ZM162.163 36.488C162.28 36.488 162.443 36.4907 162.651 36.496C162.864 36.5013 163.027 36.504 163.139 36.504H164.827C164.944 36.504 165.112 36.5013 165.331 36.496C165.555 36.4907 165.72 36.488 165.827 36.488H166.883C166.936 36.7333 166.963 36.984 166.963 37.24C166.963 37.4853 166.936 37.7387 166.883 38H160.739C160.675 37.7493 160.643 37.496 160.643 37.24C160.643 36.9733 160.675 36.7227 160.739 36.488H162.163ZM160.131 30.976C160.91 30.4907 161.55 29.9813 162.051 29.448C162.552 28.9093 162.918 28.384 163.147 27.872L163.811 29.312C163.667 29.712 163.438 30.0907 163.123 30.448C162.814 30.8 162.462 31.1147 162.067 31.392C161.672 31.664 161.283 31.8853 160.899 32.056C160.712 31.9547 160.547 31.808 160.403 31.616C160.264 31.4187 160.174 31.2053 160.131 30.976Z" fill="white"/>
<g clip-path="url(#clip0_1_2818)">
<path d="M34.3398 32.985L27.2348 28.26C26.7914 27.9567 26.3014 27.8517 25.7648 27.945C25.2281 28.0383 24.7964 28.295 24.4698 28.715L22.4048 31.375C22.2881 31.5383 22.1189 31.6492 21.8973 31.7075C21.6756 31.7658 21.4714 31.7367 21.2848 31.62L20.7598 31.34C19.8498 30.8267 19.0681 30.325 18.4148 29.835C17.3181 29.0183 16.0814 27.9217 14.7048 26.545C13.3281 25.1683 12.2314 23.9317 11.4148 22.835C10.9248 22.1817 10.4231 21.4 9.90977 20.49L9.62977 19.965C9.5131 19.7783 9.48394 19.5742 9.54227 19.3525C9.6006 19.1308 9.71144 18.9617 9.87477 18.845L12.5348 16.78C12.9548 16.4533 13.2114 16.0217 13.3048 15.485C13.3981 14.9483 13.2931 14.4583 12.9898 14.015L8.26477 6.91C7.9381 6.44333 7.50644 6.15166 6.96977 6.035C6.4331 5.91833 5.93144 6 5.46477 6.28L2.52477 8.065C1.5681 8.625 0.926436 9.45333 0.59977 10.55C0.203103 12.0433 0.14477 13.6533 0.42477 15.38C0.798103 17.5267 1.69644 19.8017 3.11977 22.205C4.77644 25.005 7.14477 27.945 10.2248 31.025C13.8648 34.665 17.3064 37.3133 20.5498 38.97C23.1864 40.3233 25.6598 41 27.9698 41C28.9498 41 29.8598 40.8833 30.6998 40.65C31.7964 40.3233 32.6248 39.6817 33.1848 38.725L34.9698 35.785C35.2498 35.3183 35.3314 34.8167 35.2148 34.28C35.0981 33.7433 34.8064 33.3117 34.3398 32.985ZM33.9548 35.19L32.1698 38.13C31.7498 38.8533 31.1548 39.32 30.3848 39.53C29.0081 39.9033 27.5148 39.95 25.9048 39.67C23.8981 39.2967 21.7631 38.4217 19.4998 37.045C16.8398 35.435 14.0281 33.1483 11.0648 30.185C6.77144 25.8917 3.90144 21.925 2.45477 18.285C1.3581 15.5317 1.1131 13.0583 1.71977 10.865C1.97644 10.0717 2.4431 9.47667 3.11977 9.08L6.09477 7.295C6.28144 7.17833 6.49144 7.14333 6.72477 7.19C6.9581 7.23667 7.14477 7.365 7.28477 7.575L9.83977 11.425L12.0098 14.645C12.1264 14.8317 12.1673 15.0417 12.1323 15.275C12.0973 15.5083 11.9864 15.695 11.7998 15.835L9.13977 17.9C8.7431 18.2033 8.49227 18.6058 8.38727 19.1075C8.28227 19.6092 8.3581 20.0817 8.61477 20.525L8.82477 20.91C9.3381 21.8667 9.85144 22.695 10.3648 23.395C11.2048 24.5617 12.3714 25.8917 13.8648 27.385C15.3581 28.8783 16.6881 30.045 17.8548 30.885C18.5548 31.3983 19.3831 31.9117 20.3398 32.425L20.7248 32.635C21.1681 32.8917 21.6406 32.9675 22.1423 32.8625C22.6439 32.7575 23.0464 32.5067 23.3498 32.11L25.3798 29.45C25.5431 29.2633 25.7414 29.1525 25.9748 29.1175C26.2081 29.0825 26.4181 29.1233 26.6048 29.24L33.6748 33.965C33.8848 34.105 34.0131 34.2917 34.0598 34.525C34.1064 34.7583 34.0714 34.98 33.9548 35.19ZM20.0948 11.845C21.8914 11.845 23.5598 12.3 25.0998 13.21C26.5931 14.0733 27.7714 15.2517 28.6348 16.745C29.5448 18.285 29.9998 19.9533 29.9998 21.75C29.9998 21.9133 30.0581 22.0533 30.1748 22.17C30.2914 22.2867 30.4314 22.345 30.5948 22.345C30.7581 22.345 30.8923 22.2867 30.9973 22.17C31.1023 22.0533 31.1548 21.9133 31.1548 21.75C31.1548 19.7433 30.6531 17.8767 29.6498 16.15C28.6698 14.4933 27.3398 13.175 25.6598 12.195C23.9564 11.1683 22.1014 10.655 20.0948 10.655C19.9314 10.655 19.7914 10.7133 19.6748 10.83C19.5581 10.9467 19.4998 11.0867 19.4998 11.25C19.4998 11.4133 19.5581 11.5533 19.6748 11.67C19.7914 11.7867 19.9314 11.845 20.0948 11.845ZM20.0948 15.345C21.2614 15.345 22.3348 15.6308 23.3148 16.2025C24.2948 16.7742 25.0706 17.55 25.6423 18.53C26.2139 19.51 26.4998 20.5833 26.4998 21.75C26.4998 21.9133 26.5581 22.0533 26.6748 22.17C26.7914 22.2867 26.9314 22.345 27.0948 22.345C27.2581 22.345 27.3923 22.2867 27.4973 22.17C27.6023 22.0533 27.6548 21.9133 27.6548 21.75C27.6548 20.3733 27.3164 19.1017 26.6398 17.935C25.9631 16.7683 25.0473 15.8467 23.8923 15.17C22.7373 14.4933 21.4714 14.155 20.0948 14.155C19.9314 14.155 19.7914 14.2133 19.6748 14.33C19.5581 14.4467 19.4998 14.5867 19.4998 14.75C19.4998 14.9133 19.5581 15.0533 19.6748 15.17C19.7914 15.2867 19.9314 15.345 20.0948 15.345ZM20.0948 18.845C20.9114 18.845 21.5998 19.125 22.1598 19.685C22.7198 20.245 22.9998 20.9333 22.9998 21.75C22.9998 21.9133 23.0581 22.0533 23.1748 22.17C23.2914 22.2867 23.4314 22.345 23.5948 22.345C23.7581 22.345 23.8923 22.2867 23.9973 22.17C24.1023 22.0533 24.1548 21.9133 24.1548 21.75C24.1548 21.0033 23.9739 20.3208 23.6123 19.7025C23.2506 19.0842 22.7548 18.5883 22.1248 18.215C21.4948 17.8417 20.8181 17.655 20.0948 17.655C19.9314 17.655 19.7914 17.7133 19.6748 17.83C19.5581 17.9467 19.4998 18.0867 19.4998 18.25C19.4998 18.4133 19.5581 18.5533 19.6748 18.67C19.7914 18.7867 19.9314 18.845 20.0948 18.845Z" fill="#EDDD5E"/>
</g>
<defs>
<clipPath id="clip0_1_2818">
<rect width="35.5" height="35" fill="white" transform="matrix(1 0 0 -1 0 41)"/>
</clipPath>
</defs>
</svg>
