<svg width="235" height="50" viewBox="0 0 235 50" fill="none" xmlns="http://www.w3.org/2000/svg">
<rect width="50" height="50" rx="25" fill="white"/>
<g clip-path="url(#clip0_1_2708)">
<path d="M33.2667 18.4001H16.7333C16.2444 18.4001 15.8333 18.5668 15.5 18.9001C15.1667 19.2334 15 19.6445 15 20.1334V31.8668C15 32.3557 15.1667 32.7668 15.5 33.1001C15.8333 33.4334 16.2444 33.6001 16.7333 33.6001H33.2667C33.7556 33.6001 34.1667 33.4334 34.5 33.1001C34.8333 32.7668 35 32.3557 35 31.8668V20.1334C35 19.6445 34.8333 19.2334 34.5 18.9001C34.1667 18.5668 33.7556 18.4001 33.2667 18.4001ZM33 19.5334L25.0667 27.5334L17 19.5334H33ZM16.2 31.6001V20.4001L21.8 26.0001L16.2 31.6001ZM17 32.4668L22.6667 26.8001L24.6 28.7334C24.7333 28.8668 24.8778 28.9334 25.0333 28.9334C25.1889 28.9334 25.3333 28.8668 25.4667 28.7334L27.4 26.8001L33 32.4668H17ZM33.8 31.6001L28.2 26.0001L33.8 20.4001V31.6001Z" fill="#404A3D"/>
</g>
<path d="M63.1551 24.53C63.4801 24.53 63.7051 24.6275 63.8301 24.8225C63.9601 25.0175 64.0251 25.2875 64.0251 25.6325V32C63.9251 32.02 63.8076 32.035 63.6726 32.045C63.5376 32.055 63.4001 32.06 63.2601 32.06C63.1201 32.06 62.9826 32.055 62.8476 32.045C62.7126 32.035 62.5901 32.02 62.4801 32V24.6275L62.5776 24.53H63.1551ZM68.3901 30.4175C68.3901 30.6775 68.4076 30.925 68.4426 31.16C68.4826 31.39 68.5501 31.5925 68.6451 31.7675C68.5301 31.8625 68.3851 31.94 68.2101 32C68.0351 32.065 67.8551 32.0975 67.6701 32.0975C67.3651 32.0975 67.1501 32.015 67.0251 31.85C66.9051 31.685 66.8451 31.44 66.8451 31.115V27.2975C66.8451 26.7925 66.7801 26.4275 66.6501 26.2025C66.5201 25.9725 66.2726 25.8575 65.9076 25.8575C65.6576 25.8575 65.3851 25.9175 65.0901 26.0375C64.8001 26.1575 64.5251 26.33 64.2651 26.555C64.0051 26.775 63.7951 27.0325 63.6351 27.3275V25.8425C63.9701 25.4575 64.3801 25.1325 64.8651 24.8675C65.3501 24.5975 65.8626 24.4625 66.4026 24.4625C66.8726 24.4625 67.2526 24.5725 67.5426 24.7925C67.8326 25.0075 68.0451 25.3 68.1801 25.67C68.3201 26.04 68.3901 26.4575 68.3901 26.9225V30.4175ZM76.6385 28.295C76.6385 29.06 76.516 29.7375 76.271 30.3275C76.026 30.9125 75.6635 31.37 75.1835 31.7C74.7035 32.03 74.106 32.195 73.391 32.195C72.681 32.195 72.086 32.0275 71.606 31.6925C71.126 31.3575 70.7635 30.8975 70.5185 30.3125C70.2785 29.7225 70.1585 29.05 70.1585 28.295C70.1585 27.535 70.281 26.8625 70.526 26.2775C70.771 25.6925 71.1335 25.235 71.6135 24.905C72.0935 24.57 72.686 24.4025 73.391 24.4025C74.111 24.4025 74.711 24.57 75.191 24.905C75.676 25.235 76.0385 25.6925 76.2785 26.2775C76.5185 26.8625 76.6385 27.535 76.6385 28.295ZM71.756 28.295C71.756 28.76 71.8035 29.2 71.8985 29.615C71.9935 30.03 72.161 30.3675 72.401 30.6275C72.641 30.8825 72.976 31.01 73.406 31.01C73.836 31.01 74.1685 30.8825 74.4035 30.6275C74.6385 30.3675 74.8035 30.03 74.8985 29.615C74.9935 29.2 75.041 28.76 75.041 28.295C75.041 27.83 74.9935 27.39 74.8985 26.975C74.8035 26.56 74.6385 26.2225 74.4035 25.9625C74.1685 25.7025 73.836 25.5725 73.406 25.5725C72.976 25.5725 72.641 25.7025 72.401 25.9625C72.161 26.2225 71.9935 26.56 71.8985 26.975C71.8035 27.39 71.756 27.83 71.756 28.295ZM82.744 24.575C82.744 24.785 82.714 25.03 82.654 25.31C82.594 25.585 82.4965 25.8275 82.3615 26.0375C82.2665 26.0125 82.1665 25.9975 82.0615 25.9925C81.9565 25.9825 81.854 25.975 81.754 25.97C81.469 25.97 81.219 26.03 81.004 26.15C80.794 26.265 80.614 26.4175 80.464 26.6075C80.319 26.7925 80.194 26.9975 80.089 27.2225C79.984 27.4475 79.899 27.6675 79.834 27.8825L79.609 27.5975C79.619 27.2425 79.6665 26.885 79.7515 26.525C79.8365 26.16 79.9665 25.825 80.1415 25.52C80.3215 25.21 80.559 24.9625 80.854 24.7775C81.154 24.5875 81.5165 24.4925 81.9415 24.4925C82.0765 24.4925 82.2065 24.5 82.3315 24.515C82.4615 24.525 82.599 24.545 82.744 24.575ZM78.0415 25.31C78.0765 25.175 78.149 25.025 78.259 24.86C78.369 24.69 78.484 24.565 78.604 24.485C79.104 24.595 79.4765 24.8475 79.7215 25.2425C79.9665 25.6325 80.1065 26.125 80.1415 26.72V32C80.0365 32.02 79.9165 32.035 79.7815 32.045C79.6465 32.055 79.509 32.06 79.369 32.06C79.229 32.06 79.0915 32.055 78.9565 32.045C78.8215 32.035 78.7015 32.02 78.5965 32V26.855C78.5965 26.455 78.5365 26.1275 78.4165 25.8725C78.2965 25.6175 78.1715 25.43 78.0415 25.31ZM84.1706 28.79V27.665H87.8081V27.47C87.8081 27.12 87.7581 26.8 87.6581 26.51C87.5631 26.215 87.4056 25.98 87.1856 25.805C86.9706 25.63 86.6831 25.5425 86.3231 25.5425C85.8131 25.5425 85.4306 25.7575 85.1756 26.1875C84.9206 26.6175 84.7931 27.21 84.7931 27.965V28.4375C84.7931 28.9075 84.8406 29.3325 84.9356 29.7125C85.0356 30.0875 85.2106 30.385 85.4606 30.605C85.7106 30.82 86.0656 30.9275 86.5256 30.9275C86.9006 30.9275 87.2631 30.875 87.6131 30.77C87.9631 30.66 88.2956 30.5225 88.6106 30.3575C88.7406 30.4825 88.8481 30.64 88.9331 30.83C89.0231 31.015 89.0781 31.1875 89.0981 31.3475C88.7431 31.6075 88.3156 31.815 87.8156 31.97C87.3206 32.12 86.8106 32.195 86.2856 32.195C85.6906 32.195 85.1931 32.09 84.7931 31.88C84.3981 31.67 84.0831 31.3825 83.8481 31.0175C83.6181 30.6475 83.4506 30.23 83.3456 29.765C83.2456 29.3 83.1956 28.815 83.1956 28.31C83.1956 27.565 83.3106 26.8975 83.5406 26.3075C83.7756 25.7175 84.1256 25.2525 84.5906 24.9125C85.0556 24.5725 85.6331 24.4025 86.3231 24.4025C86.9731 24.4025 87.5181 24.545 87.9581 24.83C88.4031 25.115 88.7381 25.5 88.9631 25.985C89.1881 26.465 89.3006 27.0025 89.3006 27.5975C89.3006 27.8375 89.2906 28.045 89.2706 28.22C89.2556 28.39 89.2281 28.58 89.1881 28.79H84.1706ZM91.7903 24.53C92.1203 24.53 92.3603 24.6375 92.5103 24.8525C92.6653 25.0625 92.7428 25.36 92.7428 25.745V34.2425C92.7428 34.5825 92.6828 34.8325 92.5628 34.9925C92.4478 35.1525 92.2278 35.2325 91.9028 35.2325H91.3178L91.2203 35.135V24.6275L91.3178 24.53H91.7903ZM97.3403 28.205C97.3403 29.1 97.2003 29.8375 96.9203 30.4175C96.6403 30.9975 96.2803 31.4275 95.8403 31.7075C95.4003 31.9875 94.9403 32.1275 94.4603 32.1275C93.9853 32.1275 93.5453 32.03 93.1403 31.835C92.7403 31.635 92.3678 31.4075 92.0228 31.1525L92.1953 29.93C92.4853 30.155 92.8053 30.3725 93.1553 30.5825C93.5103 30.7875 93.8753 30.89 94.2503 30.89C94.5303 30.89 94.7828 30.795 95.0078 30.605C95.2378 30.41 95.4203 30.1125 95.5553 29.7125C95.6953 29.3125 95.7653 28.8075 95.7653 28.1975C95.7653 27.6025 95.7003 27.1225 95.5703 26.7575C95.4453 26.3875 95.2803 26.1175 95.0753 25.9475C94.8703 25.7775 94.6453 25.6925 94.4003 25.6925C94.1503 25.6925 93.8878 25.76 93.6128 25.895C93.3378 26.03 93.0828 26.24 92.8478 26.525C92.6128 26.81 92.4303 27.1775 92.3003 27.6275L91.9853 26.48C92.0803 26.145 92.2578 25.8175 92.5178 25.4975C92.7778 25.1775 93.0978 24.915 93.4778 24.71C93.8628 24.505 94.2903 24.4025 94.7603 24.4025C95.3303 24.4025 95.8053 24.565 96.1853 24.89C96.5703 25.21 96.8578 25.655 97.0478 26.225C97.2428 26.795 97.3403 27.455 97.3403 28.205ZM101.814 30.8375C101.854 30.9475 101.884 31.07 101.904 31.205C101.929 31.34 101.942 31.4775 101.942 31.6175C101.942 31.6725 101.939 31.73 101.934 31.79C101.934 31.85 101.924 31.905 101.904 31.955C101.734 31.98 101.529 32.005 101.289 32.03C101.054 32.055 100.834 32.0675 100.629 32.0675C100.144 32.0675 99.7769 31.94 99.5269 31.685C99.2769 31.425 99.1519 31.0375 99.1519 30.5225V21.065L99.2494 20.9675H99.8344C100.159 20.9675 100.379 21.0475 100.494 21.2075C100.609 21.3625 100.667 21.6125 100.667 21.9575V30.1775C100.667 30.6175 100.864 30.8375 101.259 30.8375H101.814ZM107.098 31.76C106.878 32.525 106.635 33.1675 106.37 33.6875C106.11 34.2075 105.775 34.6025 105.365 34.8725C104.955 35.1425 104.418 35.2775 103.753 35.2775C103.518 35.2775 103.258 35.25 102.973 35.195C102.693 35.145 102.475 35.0925 102.32 35.0375C102.305 34.8525 102.33 34.65 102.395 34.43C102.465 34.215 102.55 34.0475 102.65 33.9275C102.77 33.9675 102.935 34.0075 103.145 34.0475C103.36 34.0875 103.568 34.1075 103.768 34.1075C104.103 34.1075 104.38 34.0325 104.6 33.8825C104.825 33.7325 105.013 33.5175 105.163 33.2375C105.318 32.9575 105.45 32.63 105.56 32.255L105.613 32.075C105.303 32.065 105.055 32.005 104.87 31.895C104.685 31.78 104.545 31.5725 104.45 31.2725L102.485 24.7175C102.66 24.6325 102.828 24.5725 102.988 24.5375C103.153 24.5025 103.298 24.485 103.423 24.485C103.608 24.485 103.765 24.5325 103.895 24.6275C104.03 24.7175 104.133 24.9 104.203 25.175L105.215 28.625C105.29 28.855 105.36 29.105 105.425 29.375C105.495 29.645 105.56 29.9075 105.62 30.1625C105.685 30.4125 105.738 30.635 105.778 30.83C105.798 30.9 105.845 30.935 105.92 30.935L107.563 24.59C107.658 24.57 107.765 24.555 107.885 24.545C108.005 24.535 108.12 24.53 108.23 24.53C108.365 24.53 108.5 24.5375 108.635 24.5525C108.77 24.5675 108.9 24.595 109.025 24.635L109.078 24.725L107.098 31.76ZM118.972 29.645C118.972 30.02 119.025 30.2875 119.13 30.4475C119.235 30.6025 119.4 30.68 119.625 30.68C119.87 30.68 120.105 30.5825 120.33 30.3875C120.56 30.1925 120.747 29.8725 120.892 29.4275C121.037 28.9775 121.11 28.37 121.11 27.605C121.11 26.67 120.915 25.86 120.525 25.175C120.14 24.485 119.592 23.95 118.882 23.57C118.177 23.185 117.35 22.9925 116.4 22.9925C115.635 22.9925 114.94 23.135 114.315 23.42C113.695 23.7 113.162 24.095 112.717 24.605C112.277 25.11 111.937 25.705 111.697 26.39C111.462 27.07 111.345 27.8125 111.345 28.6175C111.345 29.7075 111.532 30.625 111.907 31.37C112.282 32.11 112.807 32.67 113.482 33.05C114.157 33.43 114.94 33.62 115.83 33.62C116.38 33.62 116.91 33.5725 117.42 33.4775C117.93 33.3875 118.412 33.2525 118.867 33.0725C118.992 33.1975 119.092 33.3625 119.167 33.5675C119.247 33.7725 119.287 33.97 119.287 34.16C118.937 34.295 118.565 34.4125 118.17 34.5125C117.775 34.6125 117.37 34.69 116.955 34.745C116.545 34.8 116.137 34.8275 115.732 34.8275C114.587 34.8275 113.567 34.595 112.672 34.13C111.777 33.665 111.072 32.97 110.557 32.045C110.047 31.125 109.792 29.9825 109.792 28.6175C109.792 27.6475 109.952 26.75 110.272 25.925C110.597 25.1 111.055 24.3825 111.645 23.7725C112.235 23.1575 112.932 22.6825 113.737 22.3475C114.547 22.0075 115.435 21.8375 116.4 21.8375C117.315 21.8375 118.152 21.9725 118.912 22.2425C119.672 22.5125 120.33 22.9025 120.885 23.4125C121.445 23.9175 121.877 24.5275 122.182 25.2425C122.487 25.9575 122.64 26.76 122.64 27.65C122.64 28.58 122.49 29.3575 122.19 29.9825C121.895 30.6075 121.515 31.0775 121.05 31.3925C120.585 31.7075 120.092 31.865 119.572 31.865C119.147 31.865 118.78 31.7775 118.47 31.6025C118.16 31.4275 117.92 31.19 117.75 30.89C117.585 30.59 117.502 30.245 117.502 29.855V26.36C117.377 26.235 117.215 26.13 117.015 26.045C116.815 25.955 116.595 25.91 116.355 25.91C116.005 25.91 115.715 26.03 115.485 26.27C115.255 26.51 115.082 26.83 114.967 27.23C114.857 27.63 114.802 28.0725 114.802 28.5575C114.802 29.2075 114.895 29.7275 115.08 30.1175C115.265 30.5075 115.575 30.7025 116.01 30.7025C116.24 30.7025 116.472 30.635 116.707 30.5C116.942 30.365 117.157 30.19 117.352 29.975C117.547 29.76 117.692 29.5375 117.787 29.3075L118.357 30.0725C118.232 30.3675 118.035 30.6575 117.765 30.9425C117.495 31.2225 117.177 31.4575 116.812 31.6475C116.452 31.8325 116.075 31.925 115.68 31.925C115.18 31.925 114.75 31.7875 114.39 31.5125C114.035 31.2375 113.762 30.8525 113.572 30.3575C113.382 29.8625 113.287 29.2775 113.287 28.6025C113.287 27.8975 113.405 27.255 113.64 26.675C113.875 26.095 114.22 25.635 114.675 25.295C115.135 24.95 115.695 24.7775 116.355 24.7775C116.885 24.7775 117.377 24.88 117.832 25.085C118.292 25.285 118.672 25.5275 118.972 25.8125V29.645ZM125.013 24.53C125.343 24.53 125.583 24.6375 125.733 24.8525C125.888 25.0625 125.965 25.36 125.965 25.745V34.2425C125.965 34.5825 125.905 34.8325 125.785 34.9925C125.67 35.1525 125.45 35.2325 125.125 35.2325H124.54L124.443 35.135V24.6275L124.54 24.53H125.013ZM130.563 28.205C130.563 29.1 130.423 29.8375 130.143 30.4175C129.863 30.9975 129.503 31.4275 129.063 31.7075C128.623 31.9875 128.163 32.1275 127.683 32.1275C127.208 32.1275 126.768 32.03 126.363 31.835C125.963 31.635 125.59 31.4075 125.245 31.1525L125.418 29.93C125.708 30.155 126.028 30.3725 126.378 30.5825C126.733 30.7875 127.098 30.89 127.473 30.89C127.753 30.89 128.005 30.795 128.23 30.605C128.46 30.41 128.643 30.1125 128.778 29.7125C128.918 29.3125 128.988 28.8075 128.988 28.1975C128.988 27.6025 128.923 27.1225 128.793 26.7575C128.668 26.3875 128.503 26.1175 128.298 25.9475C128.093 25.7775 127.868 25.6925 127.623 25.6925C127.373 25.6925 127.11 25.76 126.835 25.895C126.56 26.03 126.305 26.24 126.07 26.525C125.835 26.81 125.653 27.1775 125.523 27.6275L125.208 26.48C125.303 26.145 125.48 25.8175 125.74 25.4975C126 25.1775 126.32 24.915 126.7 24.71C127.085 24.505 127.513 24.4025 127.983 24.4025C128.553 24.4025 129.028 24.565 129.408 24.89C129.793 25.21 130.08 25.655 130.27 26.225C130.465 26.795 130.563 27.455 130.563 28.205ZM133.92 31.625H132.397V21.065L132.495 20.9675H133.072C133.397 20.9675 133.62 21.0475 133.74 21.2075C133.86 21.3625 133.92 21.6125 133.92 21.9575V31.625ZM138.495 28.1975C138.495 29.0725 138.342 29.8 138.037 30.38C137.732 30.96 137.325 31.395 136.815 31.685C136.305 31.97 135.742 32.1125 135.127 32.1125C134.647 32.1125 134.177 32.07 133.717 31.985C133.257 31.9 132.817 31.78 132.397 31.625L133.162 30.4325C133.472 30.6125 133.782 30.7475 134.092 30.8375C134.407 30.9225 134.757 30.965 135.142 30.965C135.482 30.965 135.785 30.865 136.05 30.665C136.32 30.46 136.53 30.1525 136.68 29.7425C136.835 29.3325 136.912 28.825 136.912 28.22C136.912 27.35 136.78 26.7225 136.515 26.3375C136.255 25.9525 135.932 25.76 135.547 25.76C135.177 25.755 134.815 25.8725 134.46 26.1125C134.105 26.3525 133.822 26.6625 133.612 27.0425L133.387 25.775C133.542 25.58 133.74 25.3825 133.98 25.1825C134.22 24.9825 134.5 24.815 134.82 24.68C135.145 24.54 135.505 24.47 135.9 24.47C136.475 24.47 136.952 24.63 137.332 24.95C137.717 25.265 138.007 25.705 138.202 26.27C138.397 26.83 138.495 27.4725 138.495 28.1975ZM140.982 24.53C141.302 24.53 141.527 24.6275 141.657 24.8225C141.787 25.0175 141.852 25.2875 141.852 25.6325V32C141.752 32.02 141.635 32.035 141.5 32.045C141.365 32.055 141.227 32.06 141.087 32.06C140.947 32.06 140.81 32.055 140.675 32.045C140.54 32.035 140.417 32.02 140.307 32V24.635L140.405 24.53H140.982ZM144.372 27.305C144.372 26.775 144.297 26.4025 144.147 26.1875C143.997 25.9675 143.775 25.8575 143.48 25.8575C143.23 25.8575 142.962 25.9375 142.677 26.0975C142.397 26.2525 142.137 26.46 141.897 26.72C141.657 26.98 141.467 27.27 141.327 27.59V26.0825C141.547 25.7725 141.797 25.4975 142.077 25.2575C142.362 25.0125 142.665 24.82 142.985 24.68C143.31 24.535 143.64 24.4625 143.975 24.4625C144.41 24.4625 144.772 24.5675 145.062 24.7775C145.352 24.9825 145.567 25.2625 145.707 25.6175C145.852 25.9675 145.925 26.3575 145.925 26.7875V32C145.815 32.02 145.692 32.035 145.557 32.045C145.422 32.055 145.287 32.06 145.152 32.06C145.012 32.06 144.875 32.055 144.74 32.045C144.605 32.035 144.482 32.02 144.372 32V27.305ZM148.437 27.29C148.437 26.76 148.36 26.39 148.205 26.18C148.055 25.965 147.832 25.8575 147.537 25.8575C147.302 25.8575 147.045 25.935 146.765 26.09C146.49 26.24 146.227 26.4475 145.977 26.7125C145.727 26.9775 145.52 27.2825 145.355 27.6275V25.9025C145.605 25.6325 145.875 25.39 146.165 25.175C146.455 24.955 146.762 24.7825 147.087 24.6575C147.412 24.5275 147.74 24.4625 148.07 24.4625C148.505 24.4625 148.865 24.5675 149.15 24.7775C149.435 24.9875 149.645 25.27 149.78 25.625C149.92 25.975 149.99 26.37 149.99 26.81V30.4175C149.99 30.6775 150.007 30.925 150.042 31.16C150.077 31.39 150.142 31.5925 150.237 31.7675C150.122 31.8625 149.977 31.94 149.802 32C149.632 32.065 149.455 32.0975 149.27 32.0975C148.965 32.0975 148.75 32.015 148.625 31.85C148.5 31.685 148.437 31.44 148.437 31.115V27.29ZM154.015 32C153.91 32.02 153.79 32.035 153.655 32.045C153.52 32.055 153.383 32.06 153.243 32.06C153.103 32.06 152.965 32.055 152.83 32.045C152.695 32.035 152.573 32.02 152.463 32V26.5025C152.463 26.2375 152.415 26.0425 152.32 25.9175C152.23 25.7875 152.06 25.7225 151.81 25.7225H151.645C151.6 25.5425 151.578 25.36 151.578 25.175C151.578 25.085 151.583 24.995 151.593 24.905C151.603 24.81 151.62 24.7125 151.645 24.6125C151.835 24.5875 152.013 24.57 152.178 24.56C152.348 24.55 152.488 24.545 152.598 24.545H152.8C153.175 24.545 153.47 24.665 153.685 24.905C153.905 25.14 154.015 25.4625 154.015 25.8725V32ZM152.005 22.595C152.005 22.485 152.015 22.3675 152.035 22.2425C152.06 22.1175 152.095 22.01 152.14 21.92C152.23 21.87 152.353 21.8275 152.508 21.7925C152.668 21.7575 152.82 21.74 152.965 21.74C153.105 21.74 153.258 21.7575 153.423 21.7925C153.588 21.8275 153.71 21.87 153.79 21.92C153.835 22.01 153.868 22.12 153.888 22.25C153.913 22.375 153.925 22.49 153.925 22.595C153.925 22.7 153.913 22.815 153.888 22.94C153.868 23.065 153.835 23.1725 153.79 23.2625C153.72 23.3125 153.6 23.3575 153.43 23.3975C153.26 23.4325 153.105 23.45 152.965 23.45C152.82 23.45 152.668 23.4325 152.508 23.3975C152.348 23.3625 152.225 23.3175 152.14 23.2625C152.095 23.1725 152.06 23.065 152.035 22.94C152.015 22.815 152.005 22.7 152.005 22.595ZM157.008 24.53C157.333 24.53 157.558 24.6275 157.683 24.8225C157.813 25.0175 157.878 25.2875 157.878 25.6325V32C157.778 32.02 157.66 32.035 157.525 32.045C157.39 32.055 157.253 32.06 157.113 32.06C156.973 32.06 156.835 32.055 156.7 32.045C156.565 32.035 156.443 32.02 156.333 32V24.6275L156.43 24.53H157.008ZM162.243 30.4175C162.243 30.6775 162.26 30.925 162.295 31.16C162.335 31.39 162.403 31.5925 162.498 31.7675C162.383 31.8625 162.238 31.94 162.063 32C161.888 32.065 161.708 32.0975 161.523 32.0975C161.218 32.0975 161.003 32.015 160.878 31.85C160.758 31.685 160.698 31.44 160.698 31.115V27.2975C160.698 26.7925 160.633 26.4275 160.503 26.2025C160.373 25.9725 160.125 25.8575 159.76 25.8575C159.51 25.8575 159.238 25.9175 158.943 26.0375C158.653 26.1575 158.378 26.33 158.118 26.555C157.858 26.775 157.648 27.0325 157.488 27.3275V25.8425C157.823 25.4575 158.233 25.1325 158.718 24.8675C159.203 24.5975 159.715 24.4625 160.255 24.4625C160.725 24.4625 161.105 24.5725 161.395 24.7925C161.685 25.0075 161.898 25.3 162.033 25.67C162.173 26.04 162.243 26.4575 162.243 26.9225V30.4175ZM165.601 24.6125L168.384 24.5825C168.409 24.6775 168.426 24.7725 168.436 24.8675C168.446 24.9575 168.451 25.05 168.451 25.145C168.451 25.245 168.446 25.345 168.436 25.445C168.426 25.54 168.409 25.6325 168.384 25.7225L165.601 25.6925L163.576 25.7225C163.556 25.6325 163.539 25.54 163.524 25.445C163.514 25.345 163.509 25.245 163.509 25.145C163.509 25.05 163.514 24.9575 163.524 24.8675C163.539 24.7725 163.556 24.6775 163.576 24.5825L165.601 24.6125ZM164.866 25.265C164.836 24.905 164.799 24.5575 164.754 24.2225C164.714 23.8825 164.694 23.5575 164.694 23.2475C164.694 22.8075 164.784 22.4125 164.964 22.0625C165.149 21.7075 165.414 21.4275 165.759 21.2225C166.109 21.0125 166.529 20.9075 167.019 20.9075C167.354 20.9075 167.699 20.945 168.054 21.02C168.409 21.09 168.701 21.1725 168.931 21.2675C168.936 21.4475 168.904 21.6375 168.834 21.8375C168.769 22.0325 168.684 22.19 168.579 22.31C168.384 22.25 168.171 22.1975 167.941 22.1525C167.716 22.1075 167.496 22.085 167.281 22.085C166.931 22.085 166.659 22.1925 166.464 22.4075C166.269 22.6225 166.171 22.9325 166.171 23.3375C166.171 23.6375 166.194 23.9525 166.239 24.2825C166.289 24.6125 166.336 24.9475 166.381 25.2875V32C166.146 32.04 165.891 32.06 165.616 32.06C165.346 32.06 165.096 32.04 164.866 32V25.265ZM175.384 28.295C175.384 29.06 175.261 29.7375 175.016 30.3275C174.771 30.9125 174.409 31.37 173.929 31.7C173.449 32.03 172.851 32.195 172.136 32.195C171.426 32.195 170.831 32.0275 170.351 31.6925C169.871 31.3575 169.509 30.8975 169.264 30.3125C169.024 29.7225 168.904 29.05 168.904 28.295C168.904 27.535 169.026 26.8625 169.271 26.2775C169.516 25.6925 169.879 25.235 170.359 24.905C170.839 24.57 171.431 24.4025 172.136 24.4025C172.856 24.4025 173.456 24.57 173.936 24.905C174.421 25.235 174.784 25.6925 175.024 26.2775C175.264 26.8625 175.384 27.535 175.384 28.295ZM170.501 28.295C170.501 28.76 170.549 29.2 170.644 29.615C170.739 30.03 170.906 30.3675 171.146 30.6275C171.386 30.8825 171.721 31.01 172.151 31.01C172.581 31.01 172.914 30.8825 173.149 30.6275C173.384 30.3675 173.549 30.03 173.644 29.615C173.739 29.2 173.786 28.76 173.786 28.295C173.786 27.83 173.739 27.39 173.644 26.975C173.549 26.56 173.384 26.2225 173.149 25.9625C172.914 25.7025 172.581 25.5725 172.151 25.5725C171.721 25.5725 171.386 25.7025 171.146 25.9625C170.906 26.2225 170.739 26.56 170.644 26.975C170.549 27.39 170.501 27.83 170.501 28.295ZM177.352 23.285C177.352 22.94 177.41 22.69 177.525 22.535C177.64 22.375 177.86 22.295 178.185 22.295H178.77L178.867 22.4V30.185C178.867 30.385 178.915 30.545 179.01 30.665C179.105 30.78 179.265 30.8375 179.49 30.8375H180.525C180.605 31.0725 180.645 31.3325 180.645 31.6175C180.645 31.6725 180.642 31.73 180.637 31.79C180.637 31.85 180.63 31.905 180.615 31.955C180.365 31.985 180.097 32.01 179.812 32.03C179.527 32.055 179.237 32.0675 178.942 32.0675C178.432 32.0675 178.04 31.94 177.765 31.685C177.49 31.425 177.352 31.0375 177.352 30.5225V23.285ZM180.72 24.5825C180.77 24.7675 180.795 24.955 180.795 25.145C180.795 25.355 180.77 25.5475 180.72 25.7225L178.267 25.6925L176.25 25.7225C176.21 25.5375 176.19 25.345 176.19 25.145C176.19 24.965 176.21 24.7775 176.25 24.5825L178.29 24.6125L180.72 24.5825ZM182.667 28.79V27.665H186.304V27.47C186.304 27.12 186.254 26.8 186.154 26.51C186.059 26.215 185.902 25.98 185.682 25.805C185.467 25.63 185.179 25.5425 184.819 25.5425C184.309 25.5425 183.927 25.7575 183.672 26.1875C183.417 26.6175 183.289 27.21 183.289 27.965V28.4375C183.289 28.9075 183.337 29.3325 183.432 29.7125C183.532 30.0875 183.707 30.385 183.957 30.605C184.207 30.82 184.562 30.9275 185.022 30.9275C185.397 30.9275 185.759 30.875 186.109 30.77C186.459 30.66 186.792 30.5225 187.107 30.3575C187.237 30.4825 187.344 30.64 187.429 30.83C187.519 31.015 187.574 31.1875 187.594 31.3475C187.239 31.6075 186.812 31.815 186.312 31.97C185.817 32.12 185.307 32.195 184.782 32.195C184.187 32.195 183.689 32.09 183.289 31.88C182.894 31.67 182.579 31.3825 182.344 31.0175C182.114 30.6475 181.947 30.23 181.842 29.765C181.742 29.3 181.692 28.815 181.692 28.31C181.692 27.565 181.807 26.8975 182.037 26.3075C182.272 25.7175 182.622 25.2525 183.087 24.9125C183.552 24.5725 184.129 24.4025 184.819 24.4025C185.469 24.4025 186.014 24.545 186.454 24.83C186.899 25.115 187.234 25.5 187.459 25.985C187.684 26.465 187.797 27.0025 187.797 27.5975C187.797 27.8375 187.787 28.045 187.767 28.22C187.752 28.39 187.724 28.58 187.684 28.79H182.667ZM193.631 27.455C193.646 27.13 193.616 26.8275 193.541 26.5475C193.471 26.2625 193.339 26.0325 193.144 25.8575C192.954 25.6775 192.676 25.5875 192.311 25.5875C191.836 25.5875 191.466 25.8175 191.201 26.2775C190.941 26.7325 190.811 27.42 190.811 28.34C190.811 29.24 190.959 29.8975 191.254 30.3125C191.554 30.7225 191.971 30.9275 192.506 30.9275C192.846 30.9275 193.169 30.85 193.474 30.695C193.784 30.54 194.069 30.3625 194.329 30.1625C194.464 30.2475 194.596 30.3825 194.726 30.5675C194.861 30.7475 194.946 30.9225 194.981 31.0925C194.641 31.4225 194.239 31.69 193.774 31.895C193.309 32.095 192.806 32.195 192.266 32.195C191.731 32.195 191.271 32.0925 190.886 31.8875C190.501 31.6825 190.184 31.4025 189.934 31.0475C189.689 30.6875 189.506 30.275 189.386 29.81C189.266 29.345 189.206 28.855 189.206 28.34C189.206 27.645 189.294 27.05 189.469 26.555C189.644 26.055 189.881 25.6475 190.181 25.3325C190.481 25.0125 190.816 24.7775 191.186 24.6275C191.561 24.4775 191.949 24.4025 192.349 24.4025C192.804 24.4025 193.201 24.47 193.541 24.605C193.881 24.74 194.164 24.92 194.389 25.145C194.619 25.365 194.789 25.6075 194.899 25.8725C195.009 26.1375 195.064 26.4 195.064 26.66C195.064 26.925 195.001 27.135 194.876 27.29C194.751 27.445 194.551 27.5225 194.276 27.5225C194.151 27.5225 194.039 27.5175 193.939 27.5075C193.839 27.4975 193.736 27.48 193.631 27.455ZM198.314 32C198.104 32.04 197.847 32.06 197.542 32.06C197.267 32.06 197.017 32.04 196.792 32V21.065L196.889 20.9675H197.474C197.799 20.9675 198.019 21.0475 198.134 21.2075C198.254 21.3625 198.314 21.6125 198.314 21.9575V32ZM202.672 30.4175C202.672 30.6775 202.689 30.925 202.724 31.16C202.759 31.39 202.824 31.5925 202.919 31.7675C202.804 31.8625 202.659 31.94 202.484 32C202.314 32.065 202.134 32.0975 201.944 32.0975C201.644 32.0975 201.432 32.015 201.307 31.85C201.187 31.685 201.127 31.44 201.127 31.115V27.305C201.127 26.805 201.062 26.44 200.932 26.21C200.802 25.98 200.554 25.865 200.189 25.865C199.939 25.865 199.667 25.9275 199.372 26.0525C199.082 26.1725 198.807 26.3425 198.547 26.5625C198.287 26.7825 198.077 27.0425 197.917 27.3425V25.85C198.252 25.465 198.662 25.14 199.147 24.875C199.632 24.605 200.144 24.47 200.684 24.47C201.154 24.47 201.534 24.58 201.824 24.8C202.114 25.015 202.327 25.31 202.462 25.685C202.602 26.055 202.672 26.47 202.672 26.93V30.4175ZM204.696 31.1825C204.696 31.0925 204.708 30.9675 204.733 30.8075C204.758 30.6475 204.793 30.5225 204.838 30.4325C204.938 30.3775 205.076 30.3325 205.251 30.2975C205.426 30.2575 205.593 30.2375 205.753 30.2375C205.903 30.2375 206.068 30.2575 206.248 30.2975C206.433 30.3325 206.573 30.3775 206.668 30.4325C206.718 30.5225 206.756 30.6475 206.781 30.8075C206.806 30.9675 206.818 31.0925 206.818 31.1825C206.818 31.2725 206.806 31.3975 206.781 31.5575C206.756 31.7125 206.718 31.835 206.668 31.925C206.583 31.985 206.446 32.0325 206.256 32.0675C206.071 32.1025 205.903 32.12 205.753 32.12C205.593 32.12 205.426 32.1025 205.251 32.0675C205.076 32.0325 204.938 31.985 204.838 31.925C204.793 31.835 204.758 31.7125 204.733 31.5575C204.708 31.3975 204.696 31.2725 204.696 31.1825ZM212.806 27.455C212.821 27.13 212.791 26.8275 212.716 26.5475C212.646 26.2625 212.514 26.0325 212.319 25.8575C212.129 25.6775 211.851 25.5875 211.486 25.5875C211.011 25.5875 210.641 25.8175 210.376 26.2775C210.116 26.7325 209.986 27.42 209.986 28.34C209.986 29.24 210.134 29.8975 210.429 30.3125C210.729 30.7225 211.146 30.9275 211.681 30.9275C212.021 30.9275 212.344 30.85 212.649 30.695C212.959 30.54 213.244 30.3625 213.504 30.1625C213.639 30.2475 213.771 30.3825 213.901 30.5675C214.036 30.7475 214.121 30.9225 214.156 31.0925C213.816 31.4225 213.414 31.69 212.949 31.895C212.484 32.095 211.981 32.195 211.441 32.195C210.906 32.195 210.446 32.0925 210.061 31.8875C209.676 31.6825 209.359 31.4025 209.109 31.0475C208.864 30.6875 208.681 30.275 208.561 29.81C208.441 29.345 208.381 28.855 208.381 28.34C208.381 27.645 208.469 27.05 208.644 26.555C208.819 26.055 209.056 25.6475 209.356 25.3325C209.656 25.0125 209.991 24.7775 210.361 24.6275C210.736 24.4775 211.124 24.4025 211.524 24.4025C211.979 24.4025 212.376 24.47 212.716 24.605C213.056 24.74 213.339 24.92 213.564 25.145C213.794 25.365 213.964 25.6075 214.074 25.8725C214.184 26.1375 214.239 26.4 214.239 26.66C214.239 26.925 214.176 27.135 214.051 27.29C213.926 27.445 213.726 27.5225 213.451 27.5225C213.326 27.5225 213.214 27.5175 213.114 27.5075C213.014 27.4975 212.911 27.48 212.806 27.455ZM221.848 28.295C221.848 29.06 221.726 29.7375 221.481 30.3275C221.236 30.9125 220.873 31.37 220.393 31.7C219.913 32.03 219.316 32.195 218.601 32.195C217.891 32.195 217.296 32.0275 216.816 31.6925C216.336 31.3575 215.973 30.8975 215.728 30.3125C215.488 29.7225 215.368 29.05 215.368 28.295C215.368 27.535 215.491 26.8625 215.736 26.2775C215.981 25.6925 216.343 25.235 216.823 24.905C217.303 24.57 217.896 24.4025 218.601 24.4025C219.321 24.4025 219.921 24.57 220.401 24.905C220.886 25.235 221.248 25.6925 221.488 26.2775C221.728 26.8625 221.848 27.535 221.848 28.295ZM216.966 28.295C216.966 28.76 217.013 29.2 217.108 29.615C217.203 30.03 217.371 30.3675 217.611 30.6275C217.851 30.8825 218.186 31.01 218.616 31.01C219.046 31.01 219.378 30.8825 219.613 30.6275C219.848 30.3675 220.013 30.03 220.108 29.615C220.203 29.2 220.251 28.76 220.251 28.295C220.251 27.83 220.203 27.39 220.108 26.975C220.013 26.56 219.848 26.2225 219.613 25.9625C219.378 25.7025 219.046 25.5725 218.616 25.5725C218.186 25.5725 217.851 25.7025 217.611 25.9625C217.371 26.2225 217.203 26.56 217.108 26.975C217.013 27.39 216.966 27.83 216.966 28.295ZM224.346 24.53C224.666 24.53 224.891 24.6275 225.021 24.8225C225.151 25.0175 225.216 25.2875 225.216 25.6325V32C225.116 32.02 224.999 32.035 224.864 32.045C224.729 32.055 224.591 32.06 224.451 32.06C224.311 32.06 224.174 32.055 224.039 32.045C223.904 32.035 223.781 32.02 223.671 32V24.635L223.769 24.53H224.346ZM227.736 27.305C227.736 26.775 227.661 26.4025 227.511 26.1875C227.361 25.9675 227.139 25.8575 226.844 25.8575C226.594 25.8575 226.326 25.9375 226.041 26.0975C225.761 26.2525 225.501 26.46 225.261 26.72C225.021 26.98 224.831 27.27 224.691 27.59V26.0825C224.911 25.7725 225.161 25.4975 225.441 25.2575C225.726 25.0125 226.029 24.82 226.349 24.68C226.674 24.535 227.004 24.4625 227.339 24.4625C227.774 24.4625 228.136 24.5675 228.426 24.7775C228.716 24.9825 228.931 25.2625 229.071 25.6175C229.216 25.9675 229.289 26.3575 229.289 26.7875V32C229.179 32.02 229.056 32.035 228.921 32.045C228.786 32.055 228.651 32.06 228.516 32.06C228.376 32.06 228.239 32.055 228.104 32.045C227.969 32.035 227.846 32.02 227.736 32V27.305ZM231.801 27.29C231.801 26.76 231.724 26.39 231.569 26.18C231.419 25.965 231.196 25.8575 230.901 25.8575C230.666 25.8575 230.409 25.935 230.129 26.09C229.854 26.24 229.591 26.4475 229.341 26.7125C229.091 26.9775 228.884 27.2825 228.719 27.6275V25.9025C228.969 25.6325 229.239 25.39 229.529 25.175C229.819 24.955 230.126 24.7825 230.451 24.6575C230.776 24.5275 231.104 24.4625 231.434 24.4625C231.869 24.4625 232.229 24.5675 232.514 24.7775C232.799 24.9875 233.009 25.27 233.144 25.625C233.284 25.975 233.354 26.37 233.354 26.81V30.4175C233.354 30.6775 233.371 30.925 233.406 31.16C233.441 31.39 233.506 31.5925 233.601 31.7675C233.486 31.8625 233.341 31.94 233.166 32C232.996 32.065 232.819 32.0975 232.634 32.0975C232.329 32.0975 232.114 32.015 231.989 31.85C231.864 31.685 231.801 31.44 231.801 31.115V27.29Z" fill="#404A3D"/>
<defs>
<clipPath id="clip0_1_2708">
<rect width="20" height="20" fill="white" transform="matrix(1 0 0 -1 15 36)"/>
</clipPath>
</defs>
</svg>
