<svg width="139" height="45" viewBox="0 0 139 45" fill="none" xmlns="http://www.w3.org/2000/svg">
<g clip-path="url(#clip0_1_2012)">
<path d="M30.1032 3.14661L28.9647 -0.00341797H16.2617L-0.00292969 44.9799H11.4686L19.3155 21.7148C17.7222 19.3913 16.6268 15.2986 19.1528 8.26831L20.1486 5.50996L22.4721 7.3223C22.6812 7.48163 26.8901 10.9005 26.1466 18.6478C26.8304 18.2096 27.5407 17.8014 28.2809 17.4097C26.7474 15.1891 25.3201 10.6449 30.1032 3.14661ZM40.3002 31.3309L38.5575 26.5146C37.6932 26.6591 36.8182 26.7302 35.9419 26.727C33.7877 26.6998 31.6492 26.3553 29.5954 25.7047L28.8751 25.4856C28.4137 25.8972 27.9556 26.332 27.5108 26.7967L27.5474 26.883C28.0859 26.8175 28.628 26.7854 29.1705 26.7867C31.3712 26.7867 33.8806 27.2913 36.6323 28.2771L39.394 29.2729L37.5816 31.5964C37.4787 31.7292 35.2581 34.5008 30.3455 35.1946L30.9297 36.9206L33.6549 45.0098H45.2393L40.3002 31.3309Z" fill="#EDDD5E"/>
<path d="M35.9053 30.259C35.9053 30.259 32.0715 35.1384 22.4854 32.3501C22.4854 32.3501 24.7491 26.2459 35.9053 30.259Z" fill="white"/>
<path d="M21.1438 8.98535C21.1438 8.98535 26.0232 12.8192 23.2317 22.4053C23.2317 22.4053 17.1341 20.1416 21.1438 8.98535Z" fill="white"/>
<path d="M32.1937 3.79053C32.1937 3.79053 36.0109 8.67987 31.0153 17.32C31.0253 17.32 25.6447 13.6622 32.1937 3.79053Z" fill="white"/>
<path d="M43.6487 21.7513C43.6487 21.7513 39.7584 26.5842 30.2021 23.6831C30.2021 23.6831 32.5423 17.6088 43.6487 21.7513Z" fill="white"/>
<path d="M23.2082 44.9799C23.2082 44.9799 19.0989 42.8025 18.1297 36.0178C17.1605 29.2331 22.4846 21.9937 31.6725 18.1201C35.5594 16.4837 37.8464 14.4688 39.1907 12.6631C38.2646 11.3786 36.7112 7.76382 41.8462 1.46045C41.8462 1.46045 44.9829 8.62684 40.2263 12.7461C39.277 14.9966 37.3253 17.6786 33.3487 19.8229C26.0263 23.7895 16.6758 32.4064 23.2082 44.9799Z" fill="white"/>
<path d="M51.0605 27.9021C51.0605 25.7689 51.3925 23.9986 52.0563 22.5912C52.6186 21.3242 53.5204 20.2375 54.662 19.4511C55.6496 18.7808 56.8142 18.4192 58.0078 18.4122C58.9638 18.3923 59.914 18.5639 60.8027 18.9167C61.5307 19.2131 62.2039 19.6294 62.7943 20.1482C63.319 20.6077 63.7981 21.1168 64.2249 21.6684L63.6474 25.0674C63.0536 24.0792 62.2627 23.2238 61.3238 22.5547C60.5596 21.9673 59.6316 21.632 58.6684 21.5954C57.9956 21.589 57.3455 21.8381 56.8494 22.2925C56.2575 22.8692 55.8301 23.5934 55.6113 24.3903C55.2816 25.5331 55.1293 26.7197 55.1599 27.9087C55.1599 29.9977 55.4608 31.5025 56.0627 32.423C56.6646 33.3436 57.3882 33.8049 58.2336 33.8072C59.2072 33.7975 60.1525 33.4777 60.9322 32.8944C61.7935 32.2806 62.4891 31.4629 62.9569 30.5144L63.5544 33.5549C63.1668 34.1762 62.6878 34.7357 62.1337 35.2145C61.4974 35.7724 60.7814 36.2322 60.0094 36.5788C59.1843 36.9501 58.2885 37.1381 57.3838 37.1298C56.1091 37.1766 54.8602 36.763 53.8653 35.9647C52.8751 35.1032 52.147 33.9806 51.7642 32.7251C51.2721 31.1656 51.0345 29.5371 51.0605 27.9021ZM66.9932 20.7025C66.5964 21.0759 66.3222 21.5609 66.2065 22.0933C66.0523 22.721 65.9764 23.3655 65.9808 24.0119V34.5606C65.9933 35.7705 65.9301 36.98 65.7916 38.182C65.6971 39.0222 65.5021 39.8479 65.2107 40.6416C64.9807 41.2557 64.6547 41.8293 64.2448 42.3411C63.5899 43.1363 62.7419 43.75 61.7819 44.1236C60.627 44.5859 59.391 44.8116 58.1473 44.7874C57.0096 44.7864 55.8751 44.6685 54.7616 44.4356C53.7492 44.2364 52.7562 43.9487 51.7941 43.5759C51.8159 43.0236 51.9199 42.4777 52.1028 41.9561C52.258 41.4513 52.5093 40.9813 52.843 40.5719C53.6416 40.9355 54.4759 41.2147 55.3325 41.4051C56.1295 41.5983 56.9455 41.7018 57.7655 41.7138C58.9339 41.7138 59.8324 41.4925 60.4608 41.0499C61.0762 40.6321 61.5296 40.0158 61.7454 39.3039C61.979 38.5145 62.091 37.6941 62.0773 36.8709V23.5073C62.0541 22.3923 62.3316 21.2916 62.8806 20.3208C63.4183 19.4047 64.3035 18.8437 65.536 18.6379C65.896 18.8759 66.2042 19.1841 66.4422 19.5441C66.7067 19.8872 66.8966 20.2818 66.9999 20.7025H66.9932Z" fill="white"/>
<path d="M70.3828 20.772C70.5058 20.3471 70.6963 19.9448 70.9471 19.5804C71.1683 19.2153 71.4566 18.8954 71.7968 18.6377C72.3756 18.7227 72.9296 18.9298 73.4223 19.2451C73.915 19.5604 74.3351 19.9767 74.6548 20.4666C75.3257 21.5842 75.6994 22.8549 75.7402 24.1577V36.8043C75.0828 36.92 74.4161 36.9745 73.7486 36.9669C73.0701 36.9742 72.3924 36.9198 71.7238 36.8043V24.4996C71.7536 23.682 71.6052 22.8676 71.289 22.113C71.0789 21.6103 70.7708 21.1545 70.3828 20.772ZM82.0004 18.89C81.9884 19.5184 81.9094 20.1437 81.7647 20.7554C81.6301 21.4265 81.3797 22.069 81.0245 22.6541C80.7741 22.5959 80.5202 22.5538 80.2644 22.5279L79.4844 22.4549C78.8869 22.4422 78.296 22.5827 77.7683 22.8632C77.2778 23.1301 76.8438 23.4897 76.4903 23.922C76.128 24.3669 75.8246 24.8567 75.5875 25.3792C75.345 25.9009 75.13 26.4349 74.9435 26.9791L74.3826 26.2754C74.4206 25.381 74.5417 24.492 74.7444 23.62C74.9389 22.755 75.2587 21.923 75.6937 21.1504C76.1049 20.4146 76.6894 19.7902 77.3965 19.3314C78.1822 18.8511 79.0918 18.6122 80.0121 18.6443C80.3448 18.6426 80.6773 18.6604 81.0079 18.6974C81.3422 18.7422 81.6736 18.8065 82.0004 18.89Z" fill="white"/>
<path d="M90.1059 36.8045C88.7759 37.0214 87.4196 37.0214 86.0896 36.8045V23.7231C86.1286 23.2266 86.0126 22.7302 85.7576 22.3024C85.5286 21.9705 85.1137 21.8244 84.5096 21.8244H84.0781C83.9674 21.3613 83.9117 20.8866 83.9121 20.4104C83.9121 20.1814 83.9121 19.9457 83.9486 19.6968C83.9746 19.444 84.0178 19.1934 84.0781 18.9466C84.5461 18.8869 85.0009 18.8437 85.4324 18.8205C85.8639 18.7972 86.2223 18.784 86.5012 18.784H87.0455C87.462 18.7642 87.8778 18.8347 88.2645 18.9905C88.6512 19.1463 88.9997 19.3838 89.2861 19.6868C89.8667 20.378 90.1612 21.2651 90.1093 22.1663L90.1059 36.8045ZM84.971 14.044C84.9573 13.4655 85.0706 12.8911 85.3029 12.3611C85.6026 12.2075 85.9221 12.0958 86.2522 12.0292C86.6284 11.9391 87.0139 11.8934 87.4007 11.8931C87.7906 11.8966 88.179 11.9422 88.5591 12.0292C88.8893 12.0841 89.2072 12.1964 89.4985 12.3611C89.6059 12.6238 89.6882 12.8961 89.7441 13.1743C89.8075 13.46 89.8408 13.7514 89.8437 14.044C89.8559 14.6277 89.7427 15.2072 89.5118 15.7435C89.2266 15.9136 88.9109 16.0264 88.5824 16.0754C88.198 16.1559 87.8067 16.1981 87.414 16.2015C87.0212 16.2007 86.6295 16.1584 86.2456 16.0754C85.9194 16.0176 85.6052 15.9054 85.3162 15.7435C85.0807 15.2082 84.963 14.6287 84.971 14.044Z" fill="white"/>
<path d="M97.2526 18.7273C98.0725 18.7273 98.6567 18.9862 99.0085 19.4974C99.3898 20.1319 99.5725 20.866 99.533 21.6052V36.8043C98.8757 36.921 98.2089 36.9754 97.5414 36.967C96.8629 36.9742 96.1852 36.9198 95.5166 36.8043V18.9829L95.7523 18.7273H97.2526ZM105.285 25.5319C105.285 24.3148 105.108 23.4551 104.754 22.9528C104.58 22.7077 104.346 22.5105 104.075 22.3794C103.804 22.2483 103.505 22.1875 103.204 22.2027C102.543 22.2272 101.9 22.4278 101.342 22.7835C100.653 23.1898 100.031 23.6991 99.4965 24.2938C98.938 24.8952 98.4887 25.5894 98.1687 26.3452V22.5114C98.6959 21.7793 99.3063 21.111 99.9877 20.5198C100.644 19.9446 101.381 19.4692 102.175 19.1091C102.923 18.7685 103.734 18.5898 104.555 18.5846C105.487 18.5498 106.405 18.8125 107.177 19.3348C107.886 19.8454 108.432 20.5496 108.751 21.3629C109.117 22.2729 109.3 23.2465 109.288 24.2274V36.801C108.631 36.9185 107.964 36.9729 107.297 36.9636C106.617 36.9709 105.938 36.9165 105.269 36.801L105.285 25.5319ZM115.094 25.4954C115.094 24.2783 114.91 23.4253 114.543 22.9362C114.365 22.6968 114.13 22.5048 113.861 22.3769C113.591 22.249 113.294 22.1892 112.996 22.2027C112.348 22.2258 111.717 22.4193 111.167 22.7636C110.476 23.1699 109.85 23.6792 109.312 24.2739C108.721 24.9185 108.229 25.648 107.854 26.4381V22.123C108.442 21.4657 109.094 20.8686 109.8 20.3405C110.492 19.8184 111.249 19.3899 112.053 19.0659C112.812 18.756 113.624 18.5959 114.443 18.5946C115.377 18.5575 116.297 18.8242 117.066 19.3547C117.764 19.8747 118.299 20.5844 118.606 21.3994C118.952 22.312 119.123 23.2815 119.11 24.2573V32.8875C119.108 33.4969 119.157 34.1053 119.256 34.7065C119.336 35.2301 119.507 35.7357 119.761 36.2002C119.427 36.4728 119.047 36.6841 118.639 36.8242C118.187 36.9886 117.709 37.0718 117.228 37.0699C116.445 37.0699 115.892 36.8486 115.569 36.406C115.211 35.8435 115.039 35.1828 115.077 34.5173L115.094 25.4954Z" fill="white"/>
<path d="M138.999 27.8791C139.032 29.5601 138.728 31.2306 138.103 32.7916C137.565 34.1359 136.641 35.2908 135.448 36.1109C134.152 36.941 132.634 37.3566 131.096 37.3026C129.359 37.3026 127.906 36.8987 126.738 36.091C125.544 35.263 124.62 34.1016 124.082 32.7518C123.469 31.2019 123.17 29.5455 123.203 27.8791C123.17 26.1984 123.474 24.5283 124.095 22.9665C124.638 21.6245 125.561 20.4706 126.751 19.6472C128.067 18.8575 129.573 18.4404 131.108 18.4404C132.642 18.4404 134.148 18.8575 135.464 19.6472C136.659 20.4748 137.582 21.6363 138.12 22.9864C138.736 24.5424 139.035 26.2059 138.999 27.8791ZM127.345 27.8791C127.34 28.9218 127.446 29.9622 127.66 30.9826C127.822 31.8484 128.21 32.6559 128.786 33.3227C129.086 33.6305 129.449 33.8698 129.85 34.0245C130.251 34.1792 130.68 34.2455 131.109 34.2189C131.533 34.2453 131.957 34.1787 132.352 34.0239C132.747 33.8691 133.103 33.6298 133.396 33.3227C133.972 32.65 134.362 31.8389 134.528 30.9693C134.962 28.9208 134.962 26.8041 134.528 24.7556C134.362 23.8809 133.972 23.0642 133.396 22.3856C133.105 22.0758 132.749 21.8341 132.354 21.6775C131.958 21.5208 131.534 21.4532 131.109 21.4794C130.679 21.4519 130.249 21.5188 129.847 21.6753C129.446 21.8318 129.083 22.0743 128.786 22.3856C128.206 23.0617 127.815 23.8795 127.654 24.7556C127.441 25.7829 127.337 26.8299 127.345 27.8791Z" fill="white"/>
</g>
<defs>
<clipPath id="clip0_1_2012">
<rect width="139" height="44.98" fill="white"/>
</clipPath>
</defs>
</svg>
