<svg width="1920" height="128" viewBox="0 0 1920 128" fill="none" xmlns="http://www.w3.org/2000/svg">
<rect width="1920" height="128" fill="#5B8C51"/>
<g clip-path="url(#clip0_1_2631)">
<g filter="url(#filter0_ddddd_1_2631)">
<path d="M-321.78 23.7C-320.613 23.4333 -319.43 23.2667 -318.23 23.2C-316.997 23.1333 -315.863 23.1 -314.83 23.1C-313.863 23.1 -312.663 23.1833 -311.23 23.35C-309.797 23.5167 -308.547 23.7833 -307.48 24.15L-306.83 25.05L-325.58 92C-327.413 92.2 -329.48 92.35 -331.78 92.45C-334.08 92.55 -336.263 92.6 -338.33 92.6C-341.33 92.6 -343.68 92.1167 -345.38 91.15C-347.08 90.15 -348.33 88.2333 -349.13 85.4L-365.78 25.15C-364.313 24.5167 -362.78 23.9667 -361.18 23.5C-359.547 23.0333 -357.863 22.8 -356.13 22.8C-353.763 22.8 -351.913 23.4333 -350.58 24.7C-349.247 25.9667 -348.23 27.9833 -347.53 30.75L-339.83 59.2C-339.297 61.1667 -338.813 63.1833 -338.38 65.25C-337.913 67.2833 -337.48 69.3333 -337.08 71.4C-336.68 73.4333 -336.33 75.4333 -336.03 77.4C-335.863 78.2333 -335.513 78.65 -334.98 78.65L-321.78 23.7ZM-297.771 72.1V61.35H-278.921V60.2C-278.921 58.6667 -279.137 57.2667 -279.571 56C-280.004 54.7 -280.704 53.6667 -281.671 52.9C-282.604 52.1 -283.871 51.7 -285.471 51.7C-287.904 51.7 -289.621 52.7 -290.621 54.7C-291.587 56.7 -292.071 59.7833 -292.071 63.95V68.65C-292.071 70.9167 -291.871 73.0333 -291.471 75C-291.071 76.9667 -290.221 78.55 -288.921 79.75C-287.621 80.95 -285.637 81.55 -282.971 81.55C-280.704 81.55 -278.487 81.2667 -276.321 80.7C-274.121 80.1 -272.021 79.3833 -270.021 78.55C-268.854 79.6833 -267.921 81.1167 -267.221 82.85C-266.521 84.5833 -266.054 86.2333 -265.821 87.8C-268.354 89.6333 -271.387 91.0333 -274.921 92C-278.421 93 -281.954 93.5 -285.521 93.5C-289.921 93.5 -293.554 92.7833 -296.421 91.35C-299.287 89.8833 -301.554 87.9167 -303.221 85.45C-304.887 82.95 -306.071 80.15 -306.771 77.05C-307.437 73.9167 -307.771 70.7 -307.771 67.4C-307.771 62.3667 -307.021 57.8333 -305.521 53.8C-303.987 49.7333 -301.571 46.5167 -298.271 44.15C-294.971 41.7833 -290.671 40.6 -285.371 40.6C-280.971 40.6 -277.221 41.5333 -274.121 43.4C-271.021 45.2667 -268.654 47.8 -267.021 51C-265.354 54.1667 -264.521 57.7667 -264.521 61.8C-264.521 64.0333 -264.637 65.9 -264.871 67.4C-265.071 68.8667 -265.404 70.4333 -265.871 72.1H-297.771ZM-210.561 49.3C-211.394 49.9 -212.078 50.8667 -212.611 52.2C-213.111 53.5 -213.361 54.9333 -213.361 56.5V82.9C-213.361 87.5667 -213.578 91.4167 -214.011 94.45C-214.411 97.5167 -214.994 100 -215.761 101.9C-216.528 103.833 -217.444 105.467 -218.511 106.8C-220.478 109.333 -223.094 111.183 -226.361 112.35C-229.628 113.517 -233.261 114.1 -237.261 114.1C-240.394 114.1 -243.661 113.783 -247.061 113.15C-250.461 112.55 -253.461 111.767 -256.061 110.8C-256.061 108.967 -255.694 106.95 -254.961 104.75C-254.228 102.55 -253.311 100.8 -252.211 99.5C-250.078 100.433 -247.844 101.167 -245.511 101.7C-243.178 102.233 -240.911 102.5 -238.711 102.5C-236.278 102.5 -234.328 102.083 -232.861 101.25C-231.361 100.417 -230.278 99.2333 -229.611 97.7C-228.944 96.1667 -228.611 94.3833 -228.611 92.35V56.3C-228.611 52.1333 -227.494 48.6167 -225.261 45.75C-223.028 42.85 -219.711 41.3667 -215.311 41.3C-214.344 42.0333 -213.361 43.2167 -212.361 44.85C-211.361 46.45 -210.761 47.9333 -210.561 49.3ZM-257.961 67.15C-257.961 61.4167 -257.044 56.5833 -255.211 52.65C-253.378 48.6833 -250.944 45.6833 -247.911 43.65C-244.878 41.6167 -241.544 40.6 -237.911 40.6C-234.644 40.6 -231.878 41.1333 -229.611 42.2C-227.311 43.2667 -225.411 44.5667 -223.911 46.1C-222.378 47.6333 -221.194 49.1333 -220.361 50.6L-222.911 63.35C-224.844 59.7167 -226.928 56.95 -229.161 55.05C-231.361 53.15 -233.361 52.2 -235.161 52.2C-237.594 52.2 -239.344 53.55 -240.411 56.25C-241.444 58.9167 -241.961 62.5833 -241.961 67.25C-241.961 71.8833 -241.411 75.25 -240.311 77.35C-239.178 79.4167 -237.761 80.45 -236.061 80.45C-234.061 80.45 -232.111 79.7667 -230.211 78.4C-228.278 77.0333 -226.661 75 -225.361 72.3L-223.161 83.15C-224.261 85.0167 -225.678 86.7 -227.411 88.2C-229.144 89.7 -231.094 90.8833 -233.261 91.75C-235.394 92.5833 -237.628 93 -239.961 93C-244.028 93 -247.394 91.9 -250.061 89.7C-252.728 87.5 -254.711 84.4667 -256.011 80.6C-257.311 76.7 -257.961 72.2167 -257.961 67.15ZM-194.548 72.1V61.35H-175.698V60.2C-175.698 58.6667 -175.915 57.2667 -176.348 56C-176.781 54.7 -177.481 53.6667 -178.448 52.9C-179.381 52.1 -180.648 51.7 -182.248 51.7C-184.681 51.7 -186.398 52.7 -187.398 54.7C-188.365 56.7 -188.848 59.7833 -188.848 63.95V68.65C-188.848 70.9167 -188.648 73.0333 -188.248 75C-187.848 76.9667 -186.998 78.55 -185.698 79.75C-184.398 80.95 -182.415 81.55 -179.748 81.55C-177.481 81.55 -175.265 81.2667 -173.098 80.7C-170.898 80.1 -168.798 79.3833 -166.798 78.55C-165.631 79.6833 -164.698 81.1167 -163.998 82.85C-163.298 84.5833 -162.831 86.2333 -162.598 87.8C-165.131 89.6333 -168.165 91.0333 -171.698 92C-175.198 93 -178.731 93.5 -182.298 93.5C-186.698 93.5 -190.331 92.7833 -193.198 91.35C-196.065 89.8833 -198.331 87.9167 -199.998 85.45C-201.665 82.95 -202.848 80.15 -203.548 77.05C-204.215 73.9167 -204.548 70.7 -204.548 67.4C-204.548 62.3667 -203.798 57.8333 -202.298 53.8C-200.765 49.7333 -198.348 46.5167 -195.048 44.15C-191.748 41.7833 -187.448 40.6 -182.148 40.6C-177.748 40.6 -173.998 41.5333 -170.898 43.4C-167.798 45.2667 -165.431 47.8 -163.798 51C-162.131 54.1667 -161.298 57.7667 -161.298 61.8C-161.298 64.0333 -161.415 65.9 -161.648 67.4C-161.848 68.8667 -162.181 70.4333 -162.648 72.1H-194.548ZM-149.888 36.45C-149.888 32.9833 -149.255 30.55 -147.988 29.15C-146.688 27.75 -144.505 27.05 -141.438 27.05H-135.338L-134.638 27.75V75.9C-134.638 77.4 -134.305 78.5667 -133.638 79.4C-132.938 80.2 -131.788 80.6 -130.188 80.6H-124.588C-123.755 83.0333 -123.338 85.5 -123.338 88C-123.338 88.5667 -123.372 89.1667 -123.438 89.8C-123.472 90.4333 -123.572 91 -123.738 91.5C-125.572 91.7333 -127.688 91.95 -130.088 92.15C-132.488 92.3833 -134.688 92.5 -136.688 92.5C-141.222 92.5 -144.555 91.3833 -146.688 89.15C-148.822 86.8833 -149.888 83.3667 -149.888 78.6V36.45ZM-122.788 42C-122.322 43.7667 -122.088 45.5833 -122.088 47.45C-122.088 49.4833 -122.322 51.3667 -122.788 53.1L-141.438 52.8L-157.738 53.1C-158.172 51.3333 -158.388 49.45 -158.388 47.45C-158.388 45.65 -158.172 43.8333 -157.738 42L-140.988 42.25L-122.788 42ZM-117.536 78.35C-117.536 74.3167 -116.603 71.0333 -114.736 68.5C-112.869 65.9333 -110.436 64.0333 -107.436 62.8C-104.403 61.5667 -101.169 60.95 -97.7361 60.95C-96.2361 60.95 -94.3528 60.9833 -92.0861 61.05C-89.7861 61.1167 -87.7195 61.3333 -85.8861 61.7V71.6C-87.3195 71.2667 -89.0528 71.0833 -91.0861 71.05C-93.0861 70.9833 -94.7528 70.95 -96.0861 70.95C-98.3195 70.95 -99.9195 71.55 -100.886 72.75C-101.853 73.9167 -102.336 75.4333 -102.336 77.3C-102.336 78.6333 -101.919 79.75 -101.086 80.65C-100.253 81.5167 -99.1361 81.95 -97.7361 81.95C-95.7361 81.95 -93.7028 81.2333 -91.6361 79.8C-89.5695 78.3667 -87.8195 76.4 -86.3861 73.9L-84.1861 83.8C-85.4861 85.3333 -86.9695 86.85 -88.6361 88.35C-90.3028 89.85 -92.2528 91.0833 -94.4861 92.05C-96.7195 93.0167 -99.3361 93.5 -102.336 93.5C-105.769 93.5 -108.619 92.7333 -110.886 91.2C-113.119 89.6667 -114.786 87.7333 -115.886 85.4C-116.986 83.0667 -117.536 80.7167 -117.536 78.35ZM-72.1861 84.8C-72.4528 86.1667 -73.0695 87.65 -74.0361 89.25C-75.0028 90.85 -75.9695 92.0333 -76.9361 92.8C-79.8695 92.7333 -82.3028 92.0667 -84.2361 90.8C-86.1361 89.5333 -87.6028 87.9833 -88.6361 86.15C-89.6361 84.2833 -90.2861 82.4667 -90.5861 80.7V59.3C-90.5861 57.2 -91.1195 55.6167 -92.1861 54.55C-93.2195 53.4833 -94.8695 52.95 -97.1361 52.95C-99.2695 52.95 -101.603 53.3 -104.136 54C-106.669 54.6667 -109.253 55.3833 -111.886 56.15C-112.986 54.8833 -113.853 53.25 -114.486 51.25C-115.086 49.2167 -115.469 47.2333 -115.636 45.3C-113.403 44.3667 -110.919 43.5833 -108.186 42.95C-105.453 42.2833 -102.736 41.7833 -100.036 41.45C-97.3028 41.0833 -94.8695 40.9 -92.7361 40.9C-89.8028 40.9 -86.9861 41.45 -84.2861 42.55C-81.5861 43.6167 -79.3695 45.4 -77.6361 47.9C-75.8695 50.3667 -74.9861 53.7167 -74.9861 57.95V78.3C-74.9861 79.7333 -74.7695 81 -74.3361 82.1C-73.8695 83.2 -73.1528 84.1 -72.1861 84.8ZM-48.0166 89.5H-63.3166V19.1L-62.6166 18.4H-56.7166C-53.6499 18.4 -51.4333 19.1 -50.0666 20.5C-48.6999 21.9 -48.0166 24.3333 -48.0166 27.8V89.5ZM-18.7666 66.35C-18.7333 71.75 -19.7333 76.45 -21.7666 80.45C-23.7999 84.4167 -26.6999 87.4833 -30.4666 89.65C-34.1999 91.8167 -38.6166 92.9 -43.7166 92.9C-47.3499 92.9 -50.8666 92.6 -54.2666 92C-57.6333 91.3667 -60.6499 90.5333 -63.3166 89.5L-55.9166 78C-54.0499 79.2 -52.0833 80.1167 -50.0166 80.75C-47.9166 81.3833 -45.7166 81.7 -43.4166 81.7C-41.3833 81.7 -39.7333 81.1 -38.4666 79.9C-37.1999 78.6667 -36.2666 76.9167 -35.6666 74.65C-35.0666 72.3833 -34.7666 69.7 -34.7666 66.6C-34.7666 62.0667 -35.2999 58.7833 -36.3666 56.75C-37.3999 54.7167 -38.9999 53.6833 -41.1666 53.65C-42.5999 53.5833 -44.1833 54.05 -45.9166 55.05C-47.6166 56.05 -49.0833 57.6833 -50.3166 59.95L-52.5166 48.15C-51.1499 46.8167 -49.6833 45.6167 -48.1166 44.55C-46.5499 43.4833 -44.8166 42.65 -42.9166 42.05C-40.9833 41.4167 -38.8499 41.1 -36.5166 41.1C-32.5499 41.1 -29.2666 42.2 -26.6666 44.4C-24.0333 46.5667 -22.0666 49.55 -20.7666 53.35C-19.4333 57.15 -18.7666 61.4833 -18.7666 66.35ZM12.449 80.6C12.8157 81.7 13.1157 82.9 13.349 84.2C13.5824 85.4667 13.699 86.7333 13.699 88C13.699 88.5667 13.6657 89.1667 13.599 89.8C13.5657 90.4333 13.4657 91 13.299 91.5C11.799 91.7333 10.1157 91.95 8.24902 92.15C6.38236 92.3833 4.48236 92.5 2.54902 92.5C-1.98431 92.5 -5.20098 91.3833 -7.10098 89.15C-8.96764 86.8833 -9.90098 83.3667 -9.90098 78.6V19.1L-9.20098 18.4H-3.10098C-0.0343086 18.4 2.13236 19.1 3.39902 20.5C4.69902 21.9 5.34902 24.3333 5.34902 27.8V75.85C5.34902 79.0167 6.79902 80.6 9.69902 80.6H12.449ZM27.6201 72.1V61.35H46.4701V60.2C46.4701 58.6667 46.2535 57.2667 45.8201 56C45.3868 54.7 44.6868 53.6667 43.7201 52.9C42.7868 52.1 41.5201 51.7 39.9201 51.7C37.4868 51.7 35.7701 52.7 34.7701 54.7C33.8035 56.7 33.3201 59.7833 33.3201 63.95V68.65C33.3201 70.9167 33.5201 73.0333 33.9201 75C34.3201 76.9667 35.1701 78.55 36.4701 79.75C37.7701 80.95 39.7535 81.55 42.4201 81.55C44.6868 81.55 46.9035 81.2667 49.0701 80.7C51.2701 80.1 53.3701 79.3833 55.3701 78.55C56.5368 79.6833 57.4701 81.1167 58.1701 82.85C58.8701 84.5833 59.3368 86.2333 59.5701 87.8C57.0368 89.6333 54.0035 91.0333 50.4701 92C46.9701 93 43.4368 93.5 39.8701 93.5C35.4701 93.5 31.8368 92.7833 28.9701 91.35C26.1035 89.8833 23.8368 87.9167 22.1701 85.45C20.5035 82.95 19.3201 80.15 18.6201 77.05C17.9535 73.9167 17.6201 70.7 17.6201 67.4C17.6201 62.3667 18.3701 57.8333 19.8701 53.8C21.4035 49.7333 23.8201 46.5167 27.1201 44.15C30.4201 41.7833 34.7201 40.6 40.0201 40.6C44.4201 40.6 48.1701 41.5333 51.2701 43.4C54.3701 45.2667 56.7368 47.8 58.3701 51C60.0368 54.1667 60.8701 57.7667 60.8701 61.8C60.8701 64.0333 60.7535 65.9 60.5201 67.4C60.3201 68.8667 59.9868 70.4333 59.5201 72.1H27.6201ZM66.1795 88.55C66.2462 86.8833 66.6962 85.0167 67.5295 82.95C68.3962 80.8833 69.3962 79.25 70.5295 78.05C72.7295 79.1833 74.9962 80.1667 77.3295 81C79.6962 81.8 82.0462 82.2 84.3795 82.2C86.3128 82.2 87.7628 81.8667 88.7295 81.2C89.7295 80.5333 90.2295 79.7 90.2295 78.7C90.2295 77.7333 89.8795 76.8833 89.1795 76.15C88.4795 75.3833 87.3128 74.7167 85.6795 74.15L80.1295 72.15C77.7962 71.2833 75.6795 70.2 73.7795 68.9C71.8795 67.5667 70.3795 65.95 69.2795 64.05C68.1795 62.1167 67.6295 59.8167 67.6295 57.15C67.6295 53.75 68.4295 50.8167 70.0295 48.35C71.6295 45.8833 73.8795 43.9833 76.7795 42.65C79.6795 41.2833 83.0795 40.6 86.9795 40.6C90.1462 40.6 93.4628 41.0333 96.9295 41.9C100.396 42.7667 103.213 43.7333 105.379 44.8C105.446 46 105.296 47.3333 104.929 48.8C104.563 50.2667 104.029 51.6167 103.329 52.85C102.663 54.0833 101.913 55.0167 101.079 55.65C99.0128 54.7167 96.7628 53.8667 94.3295 53.1C91.8962 52.3 89.4962 51.9 87.1295 51.9C85.7962 51.9 84.7795 52.2167 84.0795 52.85C83.3795 53.4833 83.0295 54.2333 83.0295 55.1C83.0295 55.9667 83.3295 56.7 83.9295 57.3C84.5295 57.9 85.4962 58.4333 86.8295 58.9L93.0295 61.1C96.8295 62.4333 99.9962 64.3833 102.529 66.95C105.063 69.5167 106.329 72.9333 106.329 77.2C106.329 82.1667 104.413 86.1333 100.579 89.1C96.7795 92.0333 91.4962 93.5 84.7295 93.5C81.1628 93.5 77.7628 93 74.5295 92C71.3295 91.0333 68.5462 89.8833 66.1795 88.55Z" fill="#5B8C51"/>
</g>
<g clip-path="url(#clip1_1_2631)">
<path d="M225.038 48.34L230.438 57.88L214.013 64L230.438 69.985L224.903 79.93L211.268 69.04L213.923 86.5H202.763L205.193 69.04L191.423 80.155L185.663 69.985L201.953 63.865L185.798 57.88L191.153 48.205L205.193 58.96L202.673 41.5H213.923L211.268 58.96L225.038 48.34Z" fill="#EDDD5E"/>
</g>
<g filter="url(#filter1_ddddd_1_2631)">
<path d="M251.63 24.2C252.897 24 254.414 23.85 256.18 23.75C257.98 23.65 259.547 23.6 260.88 23.6C262.147 23.6 263.68 23.65 265.48 23.75C267.314 23.85 268.864 24.0333 270.13 24.3L291.63 91.45C290.53 92.0833 289.097 92.5667 287.33 92.9C285.597 93.2333 283.98 93.4 282.48 93.4C279.947 93.4 277.964 92.8167 276.53 91.65C275.097 90.45 273.897 88.1333 272.93 84.7L265.78 59.35C265.014 56.55 264.114 53.25 263.08 49.45C262.08 45.65 261.147 42.1 260.28 38.8H259.68C259.347 40.6333 258.897 42.6833 258.33 44.95C257.764 47.2167 257.164 49.4833 256.53 51.75C255.93 53.9833 255.364 56.0167 254.83 57.85L244.63 92.6C243.63 92.8333 242.564 92.9833 241.43 93.05C240.297 93.15 239.097 93.2 237.83 93.2C236.63 93.2 235.264 93.1 233.73 92.9C232.23 92.7 231.03 92.4333 230.13 92.1L229.53 91.25L251.63 24.2ZM252.83 78.2C252.364 78.2 251.814 78.2 251.18 78.2C250.58 78.1667 249.98 78.15 249.38 78.15C248.78 78.1167 248.23 78.1 247.73 78.1H239.33L244.18 65.65H251.58C252.047 65.65 252.58 65.65 253.18 65.65C253.78 65.6167 254.38 65.6 254.98 65.6C255.58 65.5667 256.114 65.55 256.58 65.55H263.88C264.38 65.55 264.914 65.5667 265.48 65.6C266.08 65.6 266.68 65.6167 267.28 65.65C267.914 65.65 268.464 65.65 268.93 65.65H276.58L280.63 78.1H272.18C271.714 78.1 271.164 78.1167 270.53 78.15C269.93 78.15 269.314 78.1667 268.68 78.2C268.08 78.2 267.547 78.2 267.08 78.2H252.83ZM342.073 49.8C341.24 50.4 340.556 51.3667 340.023 52.7C339.523 54 339.273 55.4333 339.273 57V83.4C339.273 88.0667 339.056 91.9167 338.623 94.95C338.223 98.0167 337.64 100.5 336.873 102.4C336.106 104.333 335.19 105.967 334.123 107.3C332.156 109.833 329.54 111.683 326.273 112.85C323.006 114.017 319.373 114.6 315.373 114.6C312.24 114.6 308.973 114.283 305.573 113.65C302.173 113.05 299.173 112.267 296.573 111.3C296.573 109.467 296.94 107.45 297.673 105.25C298.406 103.05 299.323 101.3 300.423 100C302.556 100.933 304.79 101.667 307.123 102.2C309.456 102.733 311.723 103 313.923 103C316.356 103 318.306 102.583 319.773 101.75C321.273 100.917 322.356 99.7333 323.023 98.2C323.69 96.6667 324.023 94.8833 324.023 92.85V56.8C324.023 52.6333 325.14 49.1167 327.373 46.25C329.606 43.35 332.923 41.8667 337.323 41.8C338.29 42.5333 339.273 43.7167 340.273 45.35C341.273 46.95 341.873 48.4333 342.073 49.8ZM294.673 67.65C294.673 61.9167 295.59 57.0833 297.423 53.15C299.256 49.1833 301.69 46.1833 304.723 44.15C307.756 42.1167 311.09 41.1 314.723 41.1C317.99 41.1 320.756 41.6333 323.023 42.7C325.323 43.7667 327.223 45.0667 328.723 46.6C330.256 48.1333 331.44 49.6333 332.273 51.1L329.723 63.85C327.79 60.2167 325.706 57.45 323.473 55.55C321.273 53.65 319.273 52.7 317.473 52.7C315.04 52.7 313.29 54.05 312.223 56.75C311.19 59.4167 310.673 63.0833 310.673 67.75C310.673 72.3833 311.223 75.75 312.323 77.85C313.456 79.9167 314.873 80.95 316.573 80.95C318.573 80.95 320.523 80.2667 322.423 78.9C324.356 77.5333 325.973 75.5 327.273 72.8L329.473 83.65C328.373 85.5167 326.956 87.2 325.223 88.7C323.49 90.2 321.54 91.3833 319.373 92.25C317.24 93.0833 315.006 93.5 312.673 93.5C308.606 93.5 305.24 92.4 302.573 90.2C299.906 88 297.923 84.9667 296.623 81.1C295.323 77.2 294.673 72.7167 294.673 67.65ZM384.736 42.75C384.736 44.5833 384.403 46.9333 383.736 49.8C383.07 52.6333 382.103 55.15 380.836 57.35C379.97 57.0167 379.103 56.7833 378.236 56.65C377.403 56.5167 376.553 56.4 375.686 56.3C374.353 56.3 373.153 56.55 372.086 57.05C371.02 57.5167 370.053 58.2167 369.186 59.15C368.32 60.0833 367.503 61.2333 366.736 62.6C365.97 63.9667 365.236 65.5333 364.536 67.3L362.786 64.95C362.953 62.1833 363.303 59.45 363.836 56.75C364.37 54.0167 365.186 51.5333 366.286 49.3C367.386 47.0667 368.886 45.2833 370.786 43.95C372.72 42.5833 375.153 41.9 378.086 41.9C379.62 41.9 380.853 41.9833 381.786 42.15C382.753 42.2833 383.736 42.4833 384.736 42.75ZM348.086 49.85C348.353 48.45 348.97 46.95 349.936 45.35C350.903 43.7167 351.87 42.5333 352.836 41.8C357.47 42.1333 360.953 43.85 363.286 46.95C365.653 50.0167 367.053 54.05 367.486 59.05V92.5C366.386 92.7 365.153 92.85 363.786 92.95C362.42 93.05 361.053 93.1 359.686 93.1C358.386 93.1 357.036 93.05 355.636 92.95C354.27 92.85 353.003 92.7 351.836 92.5V60.2C351.836 57.2333 351.403 54.9167 350.536 53.25C349.703 51.55 348.886 50.4167 348.086 49.85ZM410.736 92.5C409.636 92.7 408.386 92.85 406.986 92.95C405.619 93.05 404.269 93.1 402.936 93.1C401.636 93.1 400.286 93.05 398.886 92.95C397.519 92.85 396.252 92.7 395.086 92.5V59.4C395.086 57.7333 394.736 56.35 394.036 55.25C393.369 54.15 392.152 53.6 390.386 53.6H388.886C388.452 51.9 388.236 50.1333 388.236 48.3C388.236 47.4333 388.286 46.5167 388.386 45.55C388.486 44.55 388.652 43.6 388.886 42.7C390.419 42.5333 391.986 42.4167 393.586 42.35C395.219 42.25 396.586 42.2 397.686 42.2H399.836C403.202 42.2 405.852 43.2833 407.786 45.45C409.752 47.5833 410.736 50.4833 410.736 54.15V92.5ZM392.086 28.55C392.086 27.6167 392.186 26.65 392.386 25.65C392.586 24.6167 392.869 23.6333 393.236 22.7C394.102 22.2667 395.219 21.9 396.586 21.6C397.986 21.3 399.352 21.15 400.686 21.15C402.052 21.15 403.436 21.3 404.836 21.6C406.269 21.9 407.369 22.2667 408.136 22.7C408.502 23.6333 408.786 24.6333 408.986 25.7C409.186 26.7333 409.286 27.6833 409.286 28.55C409.286 29.45 409.186 30.4167 408.986 31.45C408.786 32.4833 408.502 33.45 408.136 34.35C407.369 34.7833 406.269 35.15 404.836 35.45C403.436 35.75 402.052 35.9 400.686 35.9C399.352 35.9 397.969 35.7667 396.536 35.5C395.102 35.2 394.002 34.8167 393.236 34.35C392.869 33.45 392.586 32.4833 392.386 31.45C392.186 30.4167 392.086 29.45 392.086 28.55ZM447.471 64.75C447.504 62.15 447.387 59.9667 447.121 58.2C446.887 56.4 446.354 55.0333 445.521 54.1C444.687 53.1667 443.404 52.7 441.671 52.7C439.337 52.7 437.721 53.8833 436.821 56.25C435.954 58.6167 435.521 62.4167 435.521 67.65C435.521 72.95 436.254 76.6333 437.721 78.7C439.187 80.7667 441.337 81.8 444.171 81.8C446.137 81.8 448.071 81.3833 449.971 80.55C451.871 79.7167 453.604 78.7333 455.171 77.6C456.437 78.3333 457.654 79.5833 458.821 81.35C459.987 83.1167 460.737 84.7667 461.071 86.3C458.837 88.6333 455.954 90.5 452.421 91.9C448.921 93.3 445.321 94 441.621 94C438.021 94 434.854 93.3833 432.121 92.15C429.387 90.9167 427.087 89.15 425.221 86.85C423.354 84.5167 421.937 81.7333 420.971 78.5C420.037 75.2667 419.571 71.65 419.571 67.65C419.571 62.8167 420.204 58.7167 421.471 55.35C422.771 51.95 424.504 49.2167 426.671 47.15C428.837 45.05 431.237 43.5167 433.871 42.55C436.537 41.5833 439.237 41.1 441.971 41.1C444.771 41.1 447.354 41.5 449.721 42.3C452.121 43.1 454.187 44.2333 455.921 45.7C457.687 47.1667 459.054 48.9167 460.021 50.95C460.987 52.9833 461.471 55.2333 461.471 57.7C461.471 60.3333 460.737 62.2667 459.271 63.5C457.837 64.7 456.021 65.3 453.821 65.3C452.487 65.3 451.337 65.25 450.371 65.15C449.404 65.05 448.437 64.9167 447.471 64.75ZM512.732 78.25C512.732 79.85 512.982 81.3 513.482 82.6C514.015 83.9 514.698 84.85 515.532 85.45C515.265 86.85 514.648 88.3167 513.682 89.85C512.715 91.3833 511.748 92.5333 510.782 93.3C506.348 93.2333 502.965 91.7167 500.632 88.75C498.298 85.7833 497.132 82.2167 497.132 78.05V42.6C498.198 42.4 499.432 42.25 500.832 42.15C502.232 42.05 503.598 42 504.932 42C506.232 42 507.565 42.05 508.932 42.15C510.332 42.25 511.598 42.4 512.732 42.6V78.25ZM469.782 55.1C469.782 53.1333 469.582 51.3 469.182 49.6C468.815 47.9 468.182 46.4167 467.282 45.15C468.448 44.1833 469.882 43.3833 471.582 42.75C473.282 42.1167 475.098 41.8 477.032 41.8C480.165 41.8 482.332 42.6333 483.532 44.3C484.765 45.9667 485.382 48.35 485.382 51.45V72.75C485.382 74.9833 485.682 76.65 486.282 77.75C486.915 78.8167 488.048 79.35 489.682 79.35C490.715 79.35 491.898 79.0833 493.232 78.55C494.598 77.9833 495.948 77.0667 497.282 75.8C498.648 74.5333 499.832 72.8667 500.832 70.8V84.45C498.498 86.75 495.965 88.8167 493.232 90.65C490.498 92.4833 487.348 93.4 483.782 93.4C480.748 93.4 478.182 92.65 476.082 91.15C474.015 89.6167 472.448 87.5167 471.382 84.85C470.315 82.15 469.782 79.0667 469.782 75.6V55.1ZM547.115 81.1C547.481 82.2 547.781 83.4 548.015 84.7C548.248 85.9667 548.365 87.2333 548.365 88.5C548.365 89.0667 548.331 89.6667 548.265 90.3C548.231 90.9333 548.131 91.5 547.965 92C546.465 92.2333 544.781 92.45 542.915 92.65C541.048 92.8833 539.148 93 537.215 93C532.681 93 529.465 91.8833 527.565 89.65C525.698 87.3833 524.765 83.8667 524.765 79.1V19.6L525.465 18.9H531.565C534.631 18.9 536.798 19.6 538.065 21C539.365 22.4 540.015 24.8333 540.015 28.3V76.35C540.015 79.5167 541.465 81.1 544.365 81.1H547.115ZM557.043 36.95C557.043 33.4833 557.676 31.05 558.943 29.65C560.243 28.25 562.426 27.55 565.493 27.55H571.593L572.293 28.25V76.4C572.293 77.9 572.626 79.0667 573.293 79.9C573.993 80.7 575.143 81.1 576.743 81.1H582.343C583.176 83.5333 583.593 86 583.593 88.5C583.593 89.0667 583.559 89.6667 583.493 90.3C583.459 90.9333 583.359 91.5 583.193 92C581.359 92.2333 579.243 92.45 576.843 92.65C574.443 92.8833 572.243 93 570.243 93C565.709 93 562.376 91.8833 560.243 89.65C558.109 87.3833 557.043 83.8667 557.043 79.1V36.95ZM584.143 42.5C584.609 44.2667 584.843 46.0833 584.843 47.95C584.843 49.9833 584.609 51.8667 584.143 53.6L565.493 53.3L549.193 53.6C548.759 51.8333 548.543 49.95 548.543 47.95C548.543 46.15 548.759 44.3333 549.193 42.5L565.943 42.75L584.143 42.5ZM635.095 78.25C635.095 79.85 635.345 81.3 635.845 82.6C636.378 83.9 637.062 84.85 637.895 85.45C637.628 86.85 637.012 88.3167 636.045 89.85C635.078 91.3833 634.112 92.5333 633.145 93.3C628.712 93.2333 625.328 91.7167 622.995 88.75C620.662 85.7833 619.495 82.2167 619.495 78.05V42.6C620.562 42.4 621.795 42.25 623.195 42.15C624.595 42.05 625.962 42 627.295 42C628.595 42 629.928 42.05 631.295 42.15C632.695 42.25 633.962 42.4 635.095 42.6V78.25ZM592.145 55.1C592.145 53.1333 591.945 51.3 591.545 49.6C591.178 47.9 590.545 46.4167 589.645 45.15C590.812 44.1833 592.245 43.3833 593.945 42.75C595.645 42.1167 597.462 41.8 599.395 41.8C602.528 41.8 604.695 42.6333 605.895 44.3C607.128 45.9667 607.745 48.35 607.745 51.45V72.75C607.745 74.9833 608.045 76.65 608.645 77.75C609.278 78.8167 610.412 79.35 612.045 79.35C613.078 79.35 614.262 79.0833 615.595 78.55C616.962 77.9833 618.312 77.0667 619.645 75.8C621.012 74.5333 622.195 72.8667 623.195 70.8V84.45C620.862 86.75 618.328 88.8167 615.595 90.65C612.862 92.4833 609.712 93.4 606.145 93.4C603.112 93.4 600.545 92.65 598.445 91.15C596.378 89.6167 594.812 87.5167 593.745 84.85C592.678 82.15 592.145 79.0667 592.145 75.6V55.1ZM680.928 42.75C680.928 44.5833 680.595 46.9333 679.928 49.8C679.261 52.6333 678.294 55.15 677.028 57.35C676.161 57.0167 675.294 56.7833 674.428 56.65C673.594 56.5167 672.744 56.4 671.878 56.3C670.545 56.3 669.344 56.55 668.278 57.05C667.211 57.5167 666.244 58.2167 665.378 59.15C664.511 60.0833 663.695 61.2333 662.928 62.6C662.161 63.9667 661.428 65.5333 660.728 67.3L658.978 64.95C659.144 62.1833 659.495 59.45 660.028 56.75C660.561 54.0167 661.378 51.5333 662.478 49.3C663.578 47.0667 665.078 45.2833 666.978 43.95C668.911 42.5833 671.345 41.9 674.278 41.9C675.811 41.9 677.045 41.9833 677.978 42.15C678.944 42.2833 679.928 42.4833 680.928 42.75ZM644.278 49.85C644.544 48.45 645.161 46.95 646.128 45.35C647.094 43.7167 648.061 42.5333 649.028 41.8C653.661 42.1333 657.144 43.85 659.478 46.95C661.845 50.0167 663.245 54.05 663.678 59.05V92.5C662.578 92.7 661.344 92.85 659.978 92.95C658.611 93.05 657.244 93.1 655.878 93.1C654.578 93.1 653.228 93.05 651.828 92.95C650.461 92.85 649.194 92.7 648.028 92.5V60.2C648.028 57.2333 647.594 54.9167 646.728 53.25C645.894 51.55 645.078 50.4167 644.278 49.85ZM692.559 72.6V61.85H711.409V60.7C711.409 59.1667 711.192 57.7667 710.759 56.5C710.326 55.2 709.626 54.1667 708.659 53.4C707.726 52.6 706.459 52.2 704.859 52.2C702.426 52.2 700.709 53.2 699.709 55.2C698.742 57.2 698.259 60.2833 698.259 64.45V69.15C698.259 71.4167 698.459 73.5333 698.859 75.5C699.259 77.4667 700.109 79.05 701.409 80.25C702.709 81.45 704.692 82.05 707.359 82.05C709.626 82.05 711.842 81.7667 714.009 81.2C716.209 80.6 718.309 79.8833 720.309 79.05C721.476 80.1833 722.409 81.6167 723.109 83.35C723.809 85.0833 724.276 86.7333 724.509 88.3C721.976 90.1333 718.942 91.5333 715.409 92.5C711.909 93.5 708.376 94 704.809 94C700.409 94 696.776 93.2833 693.909 91.85C691.042 90.3833 688.776 88.4167 687.109 85.95C685.442 83.45 684.259 80.65 683.559 77.55C682.892 74.4167 682.559 71.2 682.559 67.9C682.559 62.8667 683.309 58.3333 684.809 54.3C686.342 50.2333 688.759 47.0167 692.059 44.65C695.359 42.2833 699.659 41.1 704.959 41.1C709.359 41.1 713.109 42.0333 716.209 43.9C719.309 45.7667 721.676 48.3 723.309 51.5C724.976 54.6667 725.809 58.2667 725.809 62.3C725.809 64.5333 725.692 66.4 725.459 67.9C725.259 69.3667 724.926 70.9333 724.459 72.6H692.559Z" fill="#5B8C51"/>
</g>
<g clip-path="url(#clip2_1_2631)">
<path d="M845.487 48.34L850.887 57.88L834.462 64L850.887 69.985L845.352 79.93L831.717 69.04L834.372 86.5H823.212L825.642 69.04L811.872 80.155L806.112 69.985L822.402 63.865L806.247 57.88L811.602 48.205L825.642 58.96L823.122 41.5H834.372L831.717 58.96L845.487 48.34Z" fill="#EDDD5E"/>
</g>
<g filter="url(#filter2_ddddd_1_2631)">
<path d="M872.78 92.5C871.413 92.7333 870.047 92.8833 868.68 92.95C867.313 93.05 866.063 93.1 864.93 93.1C863.83 93.1 862.53 93.05 861.03 92.95C859.53 92.8833 858.097 92.7333 856.73 92.5V24.8L857.43 24.2H872.68V28.95C872.68 31.7167 872.697 34.5333 872.73 37.4C872.763 40.2333 872.78 42.9667 872.78 45.6V92.5ZM900.18 24.2C900.447 25.0667 900.63 26.0833 900.73 27.25C900.83 28.3833 900.88 29.4167 900.88 30.35C900.88 32.95 900.163 34.8333 898.73 36C897.33 37.1667 895.197 37.75 892.33 37.75H879.83C877.33 37.75 874.963 37.7333 872.73 37.7C870.53 37.6667 868.33 37.65 866.13 37.65V24.2H900.18ZM894.08 51.95C894.38 52.8833 894.597 53.9833 894.73 55.25C894.863 56.5167 894.93 57.5833 894.93 58.45C894.93 59.35 894.863 60.4333 894.73 61.7C894.597 62.9667 894.38 64.0833 894.08 65.05H874.68C873.247 65.05 871.797 65.0333 870.33 65C868.863 64.9333 867.647 64.8833 866.68 64.85V52.15C867.647 52.0833 868.863 52.0333 870.33 52C871.797 51.9667 873.247 51.95 874.68 51.95H894.08ZM901.739 78.85C901.739 74.8167 902.673 71.5333 904.539 69C906.406 66.4333 908.839 64.5333 911.839 63.3C914.873 62.0667 918.106 61.45 921.539 61.45C923.039 61.45 924.923 61.4833 927.189 61.55C929.489 61.6167 931.556 61.8333 933.389 62.2V72.1C931.956 71.7667 930.223 71.5833 928.189 71.55C926.189 71.4833 924.523 71.45 923.189 71.45C920.956 71.45 919.356 72.05 918.389 73.25C917.423 74.4167 916.939 75.9333 916.939 77.8C916.939 79.1333 917.356 80.25 918.189 81.15C919.023 82.0167 920.139 82.45 921.539 82.45C923.539 82.45 925.573 81.7333 927.639 80.3C929.706 78.8667 931.456 76.9 932.889 74.4L935.089 84.3C933.789 85.8333 932.306 87.35 930.639 88.85C928.973 90.35 927.023 91.5833 924.789 92.55C922.556 93.5167 919.939 94 916.939 94C913.506 94 910.656 93.2333 908.389 91.7C906.156 90.1667 904.489 88.2333 903.389 85.9C902.289 83.5667 901.739 81.2167 901.739 78.85ZM947.089 85.3C946.823 86.6667 946.206 88.15 945.239 89.75C944.273 91.35 943.306 92.5333 942.339 93.3C939.406 93.2333 936.973 92.5667 935.039 91.3C933.139 90.0333 931.673 88.4833 930.639 86.65C929.639 84.7833 928.989 82.9667 928.689 81.2V59.8C928.689 57.7 928.156 56.1167 927.089 55.05C926.056 53.9833 924.406 53.45 922.139 53.45C920.006 53.45 917.673 53.8 915.139 54.5C912.606 55.1667 910.023 55.8833 907.389 56.65C906.289 55.3833 905.423 53.75 904.789 51.75C904.189 49.7167 903.806 47.7333 903.639 45.8C905.873 44.8667 908.356 44.0833 911.089 43.45C913.823 42.7833 916.539 42.2833 919.239 41.95C921.973 41.5833 924.406 41.4 926.539 41.4C929.473 41.4 932.289 41.95 934.989 43.05C937.689 44.1167 939.906 45.9 941.639 48.4C943.406 50.8667 944.289 54.2167 944.289 58.45V78.8C944.289 80.2333 944.506 81.5 944.939 82.6C945.406 83.7 946.123 84.6 947.089 85.3ZM989.659 42.75C989.659 44.5833 989.325 46.9333 988.659 49.8C987.992 52.6333 987.025 55.15 985.759 57.35C984.892 57.0167 984.025 56.7833 983.159 56.65C982.325 56.5167 981.475 56.4 980.609 56.3C979.275 56.3 978.075 56.55 977.009 57.05C975.942 57.5167 974.975 58.2167 974.109 59.15C973.242 60.0833 972.425 61.2333 971.659 62.6C970.892 63.9667 970.159 65.5333 969.459 67.3L967.709 64.95C967.875 62.1833 968.225 59.45 968.759 56.75C969.292 54.0167 970.109 51.5333 971.209 49.3C972.309 47.0667 973.809 45.2833 975.709 43.95C977.642 42.5833 980.075 41.9 983.009 41.9C984.542 41.9 985.775 41.9833 986.709 42.15C987.675 42.2833 988.659 42.4833 989.659 42.75ZM953.009 49.85C953.275 48.45 953.892 46.95 954.859 45.35C955.825 43.7167 956.792 42.5333 957.759 41.8C962.392 42.1333 965.875 43.85 968.209 46.95C970.575 50.0167 971.975 54.05 972.409 59.05V92.5C971.309 92.7 970.075 92.85 968.709 92.95C967.342 93.05 965.975 93.1 964.609 93.1C963.309 93.1 961.959 93.05 960.559 92.95C959.192 92.85 957.925 92.7 956.759 92.5V60.2C956.759 57.2333 956.325 54.9167 955.459 53.25C954.625 51.55 953.809 50.4167 953.009 49.85ZM1002.25 41.9C1005.22 41.9 1007.47 42.9333 1009 45C1010.57 47.0333 1011.35 49.7833 1011.35 53.25V92.5C1010.25 92.7 1009 92.85 1007.6 92.95C1006.24 93.05 1004.89 93.1 1003.55 93.1C1002.25 93.1 1000.9 93.05 999.505 92.95C998.138 92.85 996.872 92.7 995.705 92.5V42.6L996.405 41.9H1002.25ZM1022.45 62.4C1022.45 59.7333 1021.97 57.95 1021 57.05C1020.04 56.15 1019.02 55.7 1017.95 55.7C1016.52 55.7333 1015 56.3 1013.4 57.4C1011.84 58.5 1010.4 59.85 1009.1 61.45C1007.8 63.0167 1006.87 64.5833 1006.3 66.15V52.65C1007.87 50.8833 1009.59 49.1667 1011.45 47.5C1013.35 45.8 1015.39 44.4167 1017.55 43.35C1019.72 42.25 1022 41.7 1024.4 41.7C1027.3 41.7 1029.77 42.3833 1031.8 43.75C1033.87 45.0833 1035.44 46.9333 1036.5 49.3C1037.57 51.6667 1038.1 54.3833 1038.1 57.45V92.5C1037 92.7 1035.75 92.85 1034.35 92.95C1032.99 93.05 1031.64 93.1 1030.3 93.1C1029 93.1 1027.65 93.05 1026.25 92.95C1024.89 92.85 1023.62 92.7 1022.45 92.5V62.4ZM1049.2 62.3C1049.2 59.6333 1048.69 57.8667 1047.65 57C1046.65 56.1333 1045.62 55.7 1044.55 55.7C1043.25 55.7 1041.82 56.2667 1040.25 57.4C1038.72 58.5 1037.27 59.9 1035.9 61.6C1034.54 63.2667 1033.45 64.9667 1032.65 66.7V52.25C1034.15 50.45 1035.92 48.75 1037.95 47.15C1039.99 45.5167 1042.17 44.2 1044.5 43.2C1046.87 42.2 1049.22 41.7 1051.55 41.7C1054.49 41.7 1056.94 42.4 1058.9 43.8C1060.87 45.1667 1062.35 47.05 1063.35 49.45C1064.35 51.85 1064.85 54.5833 1064.85 57.65V80C1064.85 81.9333 1065.04 83.7667 1065.4 85.5C1065.77 87.2 1066.42 88.6833 1067.35 89.95C1066.22 90.8833 1064.8 91.6833 1063.1 92.35C1061.4 92.9833 1059.57 93.3 1057.6 93.3C1054.47 93.3 1052.29 92.4667 1051.05 90.8C1049.82 89.1333 1049.2 86.7333 1049.2 83.6V62.3ZM1094.56 92.5C1093.46 92.7 1092.21 92.85 1090.81 92.95C1089.45 93.05 1088.1 93.1 1086.76 93.1C1085.46 93.1 1084.11 93.05 1082.71 92.95C1081.35 92.85 1080.08 92.7 1078.91 92.5V59.4C1078.91 57.7333 1078.56 56.35 1077.86 55.25C1077.2 54.15 1075.98 53.6 1074.21 53.6H1072.71C1072.28 51.9 1072.06 50.1333 1072.06 48.3C1072.06 47.4333 1072.11 46.5167 1072.21 45.55C1072.31 44.55 1072.48 43.6 1072.71 42.7C1074.25 42.5333 1075.81 42.4167 1077.41 42.35C1079.05 42.25 1080.41 42.2 1081.51 42.2H1083.66C1087.03 42.2 1089.68 43.2833 1091.61 45.45C1093.58 47.5833 1094.56 50.4833 1094.56 54.15V92.5ZM1075.91 28.55C1075.91 27.6167 1076.01 26.65 1076.21 25.65C1076.41 24.6167 1076.7 23.6333 1077.06 22.7C1077.93 22.2667 1079.05 21.9 1080.41 21.6C1081.81 21.3 1083.18 21.15 1084.51 21.15C1085.88 21.15 1087.26 21.3 1088.66 21.6C1090.1 21.9 1091.2 22.2667 1091.96 22.7C1092.33 23.6333 1092.61 24.6333 1092.81 25.7C1093.01 26.7333 1093.11 27.6833 1093.11 28.55C1093.11 29.45 1093.01 30.4167 1092.81 31.45C1092.61 32.4833 1092.33 33.45 1091.96 34.35C1091.2 34.7833 1090.1 35.15 1088.66 35.45C1087.26 35.75 1085.88 35.9 1084.51 35.9C1083.18 35.9 1081.8 35.7667 1080.36 35.5C1078.93 35.2 1077.83 34.8167 1077.06 34.35C1076.7 33.45 1076.41 32.4833 1076.21 31.45C1076.01 30.4167 1075.91 29.45 1075.91 28.55ZM1112.95 41.9C1115.95 41.9 1118.2 42.9333 1119.7 45C1121.23 47.0333 1122 49.7833 1122 53.25V92.5C1120.9 92.7 1119.65 92.85 1118.25 92.95C1116.88 93.05 1115.53 93.1 1114.2 93.1C1112.9 93.1 1111.55 93.05 1110.15 92.95C1108.78 92.85 1107.52 92.7 1106.35 92.5V42.6L1107.05 41.9H1112.95ZM1149.35 80C1149.35 81.9333 1149.53 83.7667 1149.9 85.5C1150.27 87.2 1150.92 88.6833 1151.85 89.95C1150.72 90.8833 1149.3 91.6833 1147.6 92.35C1145.9 92.9833 1144.07 93.3 1142.1 93.3C1138.97 93.3 1136.78 92.4667 1135.55 90.8C1134.32 89.1333 1133.7 86.7333 1133.7 83.6V62.35C1133.7 60.0833 1133.4 58.4167 1132.8 57.35C1132.23 56.25 1131.12 55.7 1129.45 55.7C1128.42 55.7 1127.22 55.9833 1125.85 56.55C1124.52 57.0833 1123.17 57.9833 1121.8 59.25C1120.47 60.5167 1119.28 62.2 1118.25 64.3V50.6C1120.62 48.3333 1123.17 46.2833 1125.9 44.45C1128.67 42.6167 1131.82 41.7 1135.35 41.7C1138.42 41.7 1140.98 42.4667 1143.05 44C1145.12 45.5 1146.68 47.5833 1147.75 50.25C1148.82 52.9167 1149.35 56 1149.35 59.5V80ZM1205.69 49.8C1204.85 50.4 1204.17 51.3667 1203.64 52.7C1203.14 54 1202.89 55.4333 1202.89 57V83.4C1202.89 88.0667 1202.67 91.9167 1202.24 94.95C1201.84 98.0167 1201.25 100.5 1200.49 102.4C1199.72 104.333 1198.8 105.967 1197.74 107.3C1195.77 109.833 1193.15 111.683 1189.89 112.85C1186.62 114.017 1182.99 114.6 1178.99 114.6C1175.85 114.6 1172.59 114.283 1169.19 113.65C1165.79 113.05 1162.79 112.267 1160.19 111.3C1160.19 109.467 1160.55 107.45 1161.29 105.25C1162.02 103.05 1162.94 101.3 1164.04 100C1166.17 100.933 1168.4 101.667 1170.74 102.2C1173.07 102.733 1175.34 103 1177.54 103C1179.97 103 1181.92 102.583 1183.39 101.75C1184.89 100.917 1185.97 99.7333 1186.64 98.2C1187.3 96.6667 1187.64 94.8833 1187.64 92.85V56.8C1187.64 52.6333 1188.75 49.1167 1190.99 46.25C1193.22 43.35 1196.54 41.8667 1200.94 41.8C1201.9 42.5333 1202.89 43.7167 1203.89 45.35C1204.89 46.95 1205.49 48.4333 1205.69 49.8ZM1158.29 67.65C1158.29 61.9167 1159.2 57.0833 1161.04 53.15C1162.87 49.1833 1165.3 46.1833 1168.34 44.15C1171.37 42.1167 1174.7 41.1 1178.34 41.1C1181.6 41.1 1184.37 41.6333 1186.64 42.7C1188.94 43.7667 1190.84 45.0667 1192.34 46.6C1193.87 48.1333 1195.05 49.6333 1195.89 51.1L1193.34 63.85C1191.4 60.2167 1189.32 57.45 1187.09 55.55C1184.89 53.65 1182.89 52.7 1181.09 52.7C1178.65 52.7 1176.9 54.05 1175.84 56.75C1174.8 59.4167 1174.29 63.0833 1174.29 67.75C1174.29 72.3833 1174.84 75.75 1175.94 77.85C1177.07 79.9167 1178.49 80.95 1180.19 80.95C1182.19 80.95 1184.14 80.2667 1186.04 78.9C1187.97 77.5333 1189.59 75.5 1190.89 72.8L1193.09 83.65C1191.99 85.5167 1190.57 87.2 1188.84 88.7C1187.1 90.2 1185.15 91.3833 1182.99 92.25C1180.85 93.0833 1178.62 93.5 1176.29 93.5C1172.22 93.5 1168.85 92.4 1166.19 90.2C1163.52 88 1161.54 84.9667 1160.24 81.1C1158.94 77.2 1158.29 72.7167 1158.29 67.65Z" fill="#5B8C51"/>
</g>
<g clip-path="url(#clip3_1_2631)">
<path d="M1325.05 48.34L1330.45 57.88L1314.02 64L1330.45 69.985L1324.91 79.93L1311.28 69.04L1313.93 86.5H1302.77L1305.2 69.04L1291.43 80.155L1285.67 69.985L1301.96 63.865L1285.81 57.88L1291.16 48.205L1305.2 58.96L1302.68 41.5H1313.93L1311.28 58.96L1325.05 48.34Z" fill="#EDDD5E"/>
</g>
<g filter="url(#filter3_ddddd_1_2631)">
<path d="M1349 58.3C1349 60.9333 1349.13 63.6167 1349.4 66.35C1349.7 69.0833 1350.28 71.6167 1351.15 73.95C1352.05 76.25 1353.37 78.1167 1355.1 79.55C1356.83 80.9833 1359.15 81.7 1362.05 81.7C1364.95 81.7 1367.25 80.9833 1368.95 79.55C1370.68 78.1167 1371.98 76.25 1372.85 73.95C1373.75 71.6167 1374.33 69.0833 1374.6 66.35C1374.9 63.6167 1375.05 60.9333 1375.05 58.3C1375.05 55.6667 1374.9 53 1374.6 50.3C1374.33 47.5667 1373.75 45.05 1372.85 42.75C1371.98 40.4167 1370.68 38.55 1368.95 37.15C1367.25 35.7167 1364.95 35 1362.05 35C1359.15 35 1356.83 35.7167 1355.1 37.15C1353.37 38.55 1352.05 40.4167 1351.15 42.75C1350.28 45.05 1349.7 47.5667 1349.4 50.3C1349.13 53 1349 55.6667 1349 58.3ZM1332.3 58.3C1332.3 51.1667 1333.37 44.9333 1335.5 39.6C1337.67 34.2667 1340.95 30.1167 1345.35 27.15C1349.75 24.1833 1355.32 22.7 1362.05 22.7C1368.82 22.7 1374.4 24.2 1378.8 27.2C1383.2 30.1667 1386.47 34.3167 1388.6 39.65C1390.73 44.9833 1391.8 51.2 1391.8 58.3C1391.8 65.4667 1390.72 71.7333 1388.55 77.1C1386.38 82.4333 1383.1 86.5833 1378.7 89.55C1374.33 92.5167 1368.78 94 1362.05 94C1355.28 94 1349.7 92.5 1345.3 89.5C1340.9 86.5 1337.63 82.3333 1335.5 77C1333.37 71.6333 1332.3 65.4 1332.3 58.3ZM1434.95 42.75C1434.95 44.5833 1434.62 46.9333 1433.95 49.8C1433.29 52.6333 1432.32 55.15 1431.05 57.35C1430.19 57.0167 1429.32 56.7833 1428.45 56.65C1427.62 56.5167 1426.77 56.4 1425.9 56.3C1424.57 56.3 1423.37 56.55 1422.3 57.05C1421.24 57.5167 1420.27 58.2167 1419.4 59.15C1418.54 60.0833 1417.72 61.2333 1416.95 62.6C1416.19 63.9667 1415.45 65.5333 1414.75 67.3L1413 64.95C1413.17 62.1833 1413.52 59.45 1414.05 56.75C1414.59 54.0167 1415.4 51.5333 1416.5 49.3C1417.6 47.0667 1419.1 45.2833 1421 43.95C1422.94 42.5833 1425.37 41.9 1428.3 41.9C1429.84 41.9 1431.07 41.9833 1432 42.15C1432.97 42.2833 1433.95 42.4833 1434.95 42.75ZM1398.3 49.85C1398.57 48.45 1399.19 46.95 1400.15 45.35C1401.12 43.7167 1402.09 42.5333 1403.05 41.8C1407.69 42.1333 1411.17 43.85 1413.5 46.95C1415.87 50.0167 1417.27 54.05 1417.7 59.05V92.5C1416.6 92.7 1415.37 92.85 1414 92.95C1412.64 93.05 1411.27 93.1 1409.9 93.1C1408.6 93.1 1407.25 93.05 1405.85 92.95C1404.49 92.85 1403.22 92.7 1402.05 92.5V60.2C1402.05 57.2333 1401.62 54.9167 1400.75 53.25C1399.92 51.55 1399.1 50.4167 1398.3 49.85ZM1484.48 49.8C1483.64 50.4 1482.96 51.3667 1482.43 52.7C1481.93 54 1481.68 55.4333 1481.68 57V83.4C1481.68 88.0667 1481.46 91.9167 1481.03 94.95C1480.63 98.0167 1480.04 100.5 1479.28 102.4C1478.51 104.333 1477.59 105.967 1476.53 107.3C1474.56 109.833 1471.94 111.683 1468.68 112.85C1465.41 114.017 1461.78 114.6 1457.78 114.6C1454.64 114.6 1451.38 114.283 1447.98 113.65C1444.58 113.05 1441.58 112.267 1438.98 111.3C1438.98 109.467 1439.34 107.45 1440.08 105.25C1440.81 103.05 1441.73 101.3 1442.83 100C1444.96 100.933 1447.19 101.667 1449.53 102.2C1451.86 102.733 1454.13 103 1456.33 103C1458.76 103 1460.71 102.583 1462.18 101.75C1463.68 100.917 1464.76 99.7333 1465.43 98.2C1466.09 96.6667 1466.43 94.8833 1466.43 92.85V56.8C1466.43 52.6333 1467.54 49.1167 1469.78 46.25C1472.01 43.35 1475.33 41.8667 1479.73 41.8C1480.69 42.5333 1481.68 43.7167 1482.68 45.35C1483.68 46.95 1484.28 48.4333 1484.48 49.8ZM1437.08 67.65C1437.08 61.9167 1437.99 57.0833 1439.83 53.15C1441.66 49.1833 1444.09 46.1833 1447.13 44.15C1450.16 42.1167 1453.49 41.1 1457.13 41.1C1460.39 41.1 1463.16 41.6333 1465.43 42.7C1467.73 43.7667 1469.63 45.0667 1471.13 46.6C1472.66 48.1333 1473.84 49.6333 1474.68 51.1L1472.13 63.85C1470.19 60.2167 1468.11 57.45 1465.88 55.55C1463.68 53.65 1461.68 52.7 1459.88 52.7C1457.44 52.7 1455.69 54.05 1454.63 56.75C1453.59 59.4167 1453.08 63.0833 1453.08 67.75C1453.08 72.3833 1453.63 75.75 1454.73 77.85C1455.86 79.9167 1457.28 80.95 1458.98 80.95C1460.98 80.95 1462.93 80.2667 1464.83 78.9C1466.76 77.5333 1468.38 75.5 1469.68 72.8L1471.88 83.65C1470.78 85.5167 1469.36 87.2 1467.63 88.7C1465.89 90.2 1463.94 91.3833 1461.78 92.25C1459.64 93.0833 1457.41 93.5 1455.08 93.5C1451.01 93.5 1447.64 92.4 1444.98 90.2C1442.31 88 1440.33 84.9667 1439.03 81.1C1437.73 77.2 1437.08 72.7167 1437.08 67.65ZM1490.49 78.85C1490.49 74.8167 1491.42 71.5333 1493.29 69C1495.16 66.4333 1497.59 64.5333 1500.59 63.3C1503.62 62.0667 1506.86 61.45 1510.29 61.45C1511.79 61.45 1513.67 61.4833 1515.94 61.55C1518.24 61.6167 1520.31 61.8333 1522.14 62.2V72.1C1520.71 71.7667 1518.97 71.5833 1516.94 71.55C1514.94 71.4833 1513.27 71.45 1511.94 71.45C1509.71 71.45 1508.11 72.05 1507.14 73.25C1506.17 74.4167 1505.69 75.9333 1505.69 77.8C1505.69 79.1333 1506.11 80.25 1506.94 81.15C1507.77 82.0167 1508.89 82.45 1510.29 82.45C1512.29 82.45 1514.32 81.7333 1516.39 80.3C1518.46 78.8667 1520.21 76.9 1521.64 74.4L1523.84 84.3C1522.54 85.8333 1521.06 87.35 1519.39 88.85C1517.72 90.35 1515.77 91.5833 1513.54 92.55C1511.31 93.5167 1508.69 94 1505.69 94C1502.26 94 1499.41 93.2333 1497.14 91.7C1494.91 90.1667 1493.24 88.2333 1492.14 85.9C1491.04 83.5667 1490.49 81.2167 1490.49 78.85ZM1535.84 85.3C1535.57 86.6667 1534.96 88.15 1533.99 89.75C1533.02 91.35 1532.06 92.5333 1531.09 93.3C1528.16 93.2333 1525.72 92.5667 1523.79 91.3C1521.89 90.0333 1520.42 88.4833 1519.39 86.65C1518.39 84.7833 1517.74 82.9667 1517.44 81.2V59.8C1517.44 57.7 1516.91 56.1167 1515.84 55.05C1514.81 53.9833 1513.16 53.45 1510.89 53.45C1508.76 53.45 1506.42 53.8 1503.89 54.5C1501.36 55.1667 1498.77 55.8833 1496.14 56.65C1495.04 55.3833 1494.17 53.75 1493.54 51.75C1492.94 49.7167 1492.56 47.7333 1492.39 45.8C1494.62 44.8667 1497.11 44.0833 1499.84 43.45C1502.57 42.7833 1505.29 42.2833 1507.99 41.95C1510.72 41.5833 1513.16 41.4 1515.29 41.4C1518.22 41.4 1521.04 41.95 1523.74 43.05C1526.44 44.1167 1528.66 45.9 1530.39 48.4C1532.16 50.8667 1533.04 54.2167 1533.04 58.45V78.8C1533.04 80.2333 1533.26 81.5 1533.69 82.6C1534.16 83.7 1534.87 84.6 1535.84 85.3ZM1551.31 41.9C1554.31 41.9 1556.56 42.9333 1558.06 45C1559.59 47.0333 1560.36 49.7833 1560.36 53.25V92.5C1559.26 92.7 1558.01 92.85 1556.61 92.95C1555.24 93.05 1553.89 93.1 1552.56 93.1C1551.26 93.1 1549.91 93.05 1548.51 92.95C1547.14 92.85 1545.88 92.7 1544.71 92.5V42.6L1545.41 41.9H1551.31ZM1587.71 80C1587.71 81.9333 1587.89 83.7667 1588.26 85.5C1588.63 87.2 1589.28 88.6833 1590.21 89.95C1589.08 90.8833 1587.66 91.6833 1585.96 92.35C1584.26 92.9833 1582.43 93.3 1580.46 93.3C1577.33 93.3 1575.14 92.4667 1573.91 90.8C1572.68 89.1333 1572.06 86.7333 1572.06 83.6V62.35C1572.06 60.0833 1571.76 58.4167 1571.16 57.35C1570.59 56.25 1569.48 55.7 1567.81 55.7C1566.78 55.7 1565.58 55.9833 1564.21 56.55C1562.88 57.0833 1561.53 57.9833 1560.16 59.25C1558.83 60.5167 1557.64 62.2 1556.61 64.3V50.6C1558.98 48.3333 1561.53 46.2833 1564.26 44.45C1567.03 42.6167 1570.18 41.7 1573.71 41.7C1576.78 41.7 1579.34 42.4667 1581.41 44C1583.48 45.5 1585.04 47.5833 1586.11 50.25C1587.18 52.9167 1587.71 56 1587.71 59.5V80ZM1617.4 92.5C1616.3 92.7 1615.05 92.85 1613.65 92.95C1612.28 93.05 1610.93 93.1 1609.6 93.1C1608.3 93.1 1606.95 93.05 1605.55 92.95C1604.18 92.85 1602.91 92.7 1601.75 92.5V59.4C1601.75 57.7333 1601.4 56.35 1600.7 55.25C1600.03 54.15 1598.81 53.6 1597.05 53.6H1595.55C1595.11 51.9 1594.9 50.1333 1594.9 48.3C1594.9 47.4333 1594.95 46.5167 1595.05 45.55C1595.15 44.55 1595.31 43.6 1595.55 42.7C1597.08 42.5333 1598.65 42.4167 1600.25 42.35C1601.88 42.25 1603.25 42.2 1604.35 42.2H1606.5C1609.86 42.2 1612.51 43.2833 1614.45 45.45C1616.41 47.5833 1617.4 50.4833 1617.4 54.15V92.5ZM1598.75 28.55C1598.75 27.6167 1598.85 26.65 1599.05 25.65C1599.25 24.6167 1599.53 23.6333 1599.9 22.7C1600.76 22.2667 1601.88 21.9 1603.25 21.6C1604.65 21.3 1606.01 21.15 1607.35 21.15C1608.71 21.15 1610.1 21.3 1611.5 21.6C1612.93 21.9 1614.03 22.2667 1614.8 22.7C1615.16 23.6333 1615.45 24.6333 1615.65 25.7C1615.85 26.7333 1615.95 27.6833 1615.95 28.55C1615.95 29.45 1615.85 30.4167 1615.65 31.45C1615.45 32.4833 1615.16 33.45 1614.8 34.35C1614.03 34.7833 1612.93 35.15 1611.5 35.45C1610.1 35.75 1608.71 35.9 1607.35 35.9C1606.01 35.9 1604.63 35.7667 1603.2 35.5C1601.76 35.2 1600.66 34.8167 1599.9 34.35C1599.53 33.45 1599.25 32.4833 1599.05 31.45C1598.85 30.4167 1598.75 29.45 1598.75 28.55ZM1654.13 64.75C1654.16 62.15 1654.05 59.9667 1653.78 58.2C1653.55 56.4 1653.01 55.0333 1652.18 54.1C1651.35 53.1667 1650.06 52.7 1648.33 52.7C1646 52.7 1644.38 53.8833 1643.48 56.25C1642.61 58.6167 1642.18 62.4167 1642.18 67.65C1642.18 72.95 1642.91 76.6333 1644.38 78.7C1645.85 80.7667 1648 81.8 1650.83 81.8C1652.8 81.8 1654.73 81.3833 1656.63 80.55C1658.53 79.7167 1660.26 78.7333 1661.83 77.6C1663.1 78.3333 1664.31 79.5833 1665.48 81.35C1666.65 83.1167 1667.4 84.7667 1667.73 86.3C1665.5 88.6333 1662.61 90.5 1659.08 91.9C1655.58 93.3 1651.98 94 1648.28 94C1644.68 94 1641.51 93.3833 1638.78 92.15C1636.05 90.9167 1633.75 89.15 1631.88 86.85C1630.01 84.5167 1628.6 81.7333 1627.63 78.5C1626.7 75.2667 1626.23 71.65 1626.23 67.65C1626.23 62.8167 1626.86 58.7167 1628.13 55.35C1629.43 51.95 1631.16 49.2167 1633.33 47.15C1635.5 45.05 1637.9 43.5167 1640.53 42.55C1643.2 41.5833 1645.9 41.1 1648.63 41.1C1651.43 41.1 1654.01 41.5 1656.38 42.3C1658.78 43.1 1660.85 44.2333 1662.58 45.7C1664.35 47.1667 1665.71 48.9167 1666.68 50.95C1667.65 52.9833 1668.13 55.2333 1668.13 57.7C1668.13 60.3333 1667.4 62.2667 1665.93 63.5C1664.5 64.7 1662.68 65.3 1660.48 65.3C1659.15 65.3 1658 65.25 1657.03 65.15C1656.06 65.05 1655.1 64.9167 1654.13 64.75Z" fill="#5B8C51"/>
</g>
<g clip-path="url(#clip4_1_2631)">
<path d="M1787.12 48.34L1792.52 57.88L1776.09 64L1792.52 69.985L1786.98 79.93L1773.34 69.04L1776 86.5H1764.84L1767.27 69.04L1753.49 80.155L1747.73 69.985L1764.03 63.865L1747.87 57.88L1753.22 48.205L1767.27 58.96L1764.75 41.5H1776L1773.34 58.96L1787.12 48.34Z" fill="#EDDD5E"/>
</g>
<g filter="url(#filter4_ddddd_1_2631)">
<path d="M1835.61 24.2C1836.78 23.9333 1837.96 23.7667 1839.16 23.7C1840.39 23.6333 1841.53 23.6 1842.56 23.6C1843.53 23.6 1844.73 23.6833 1846.16 23.85C1847.59 24.0167 1848.84 24.2833 1849.91 24.65L1850.56 25.55L1831.81 92.5C1829.98 92.7 1827.91 92.85 1825.61 92.95C1823.31 93.05 1821.13 93.1 1819.06 93.1C1816.06 93.1 1813.71 92.6167 1812.01 91.65C1810.31 90.65 1809.06 88.7333 1808.26 85.9L1791.61 25.65C1793.08 25.0167 1794.61 24.4667 1796.21 24C1797.84 23.5333 1799.53 23.3 1801.26 23.3C1803.63 23.3 1805.48 23.9333 1806.81 25.2C1808.14 26.4667 1809.16 28.4833 1809.86 31.25L1817.56 59.7C1818.09 61.6667 1818.58 63.6833 1819.01 65.75C1819.48 67.7833 1819.91 69.8333 1820.31 71.9C1820.71 73.9333 1821.06 75.9333 1821.36 77.9C1821.53 78.7333 1821.88 79.15 1822.41 79.15L1835.61 24.2ZM1859.62 72.6V61.85H1878.47V60.7C1878.47 59.1667 1878.25 57.7667 1877.82 56.5C1877.39 55.2 1876.69 54.1667 1875.72 53.4C1874.79 52.6 1873.52 52.2 1871.92 52.2C1869.49 52.2 1867.77 53.2 1866.77 55.2C1865.8 57.2 1865.32 60.2833 1865.32 64.45V69.15C1865.32 71.4167 1865.52 73.5333 1865.92 75.5C1866.32 77.4667 1867.17 79.05 1868.47 80.25C1869.77 81.45 1871.75 82.05 1874.42 82.05C1876.69 82.05 1878.9 81.7667 1881.07 81.2C1883.27 80.6 1885.37 79.8833 1887.37 79.05C1888.54 80.1833 1889.47 81.6167 1890.17 83.35C1890.87 85.0833 1891.34 86.7333 1891.57 88.3C1889.04 90.1333 1886 91.5333 1882.47 92.5C1878.97 93.5 1875.44 94 1871.87 94C1867.47 94 1863.84 93.2833 1860.97 91.85C1858.1 90.3833 1855.84 88.4167 1854.17 85.95C1852.5 83.45 1851.32 80.65 1850.62 77.55C1849.95 74.4167 1849.62 71.2 1849.62 67.9C1849.62 62.8667 1850.37 58.3333 1851.87 54.3C1853.4 50.2333 1855.82 47.0167 1859.12 44.65C1862.42 42.2833 1866.72 41.1 1872.02 41.1C1876.42 41.1 1880.17 42.0333 1883.27 43.9C1886.37 45.7667 1888.74 48.3 1890.37 51.5C1892.04 54.6667 1892.87 58.2667 1892.87 62.3C1892.87 64.5333 1892.75 66.4 1892.52 67.9C1892.32 69.3667 1891.99 70.9333 1891.52 72.6H1859.62ZM1946.83 49.8C1946 50.4 1945.31 51.3667 1944.78 52.7C1944.28 54 1944.03 55.4333 1944.03 57V83.4C1944.03 88.0667 1943.81 91.9167 1943.38 94.95C1942.98 98.0167 1942.4 100.5 1941.63 102.4C1940.86 104.333 1939.95 105.967 1938.88 107.3C1936.91 109.833 1934.3 111.683 1931.03 112.85C1927.76 114.017 1924.13 114.6 1920.13 114.6C1917 114.6 1913.73 114.283 1910.33 113.65C1906.93 113.05 1903.93 112.267 1901.33 111.3C1901.33 109.467 1901.7 107.45 1902.43 105.25C1903.16 103.05 1904.08 101.3 1905.18 100C1907.31 100.933 1909.55 101.667 1911.88 102.2C1914.21 102.733 1916.48 103 1918.68 103C1921.11 103 1923.06 102.583 1924.53 101.75C1926.03 100.917 1927.11 99.7333 1927.78 98.2C1928.45 96.6667 1928.78 94.8833 1928.78 92.85V56.8C1928.78 52.6333 1929.9 49.1167 1932.13 46.25C1934.36 43.35 1937.68 41.8667 1942.08 41.8C1943.05 42.5333 1944.03 43.7167 1945.03 45.35C1946.03 46.95 1946.63 48.4333 1946.83 49.8ZM1899.43 67.65C1899.43 61.9167 1900.35 57.0833 1902.18 53.15C1904.01 49.1833 1906.45 46.1833 1909.48 44.15C1912.51 42.1167 1915.85 41.1 1919.48 41.1C1922.75 41.1 1925.51 41.6333 1927.78 42.7C1930.08 43.7667 1931.98 45.0667 1933.48 46.6C1935.01 48.1333 1936.2 49.6333 1937.03 51.1L1934.48 63.85C1932.55 60.2167 1930.46 57.45 1928.23 55.55C1926.03 53.65 1924.03 52.7 1922.23 52.7C1919.8 52.7 1918.05 54.05 1916.98 56.75C1915.95 59.4167 1915.43 63.0833 1915.43 67.75C1915.43 72.3833 1915.98 75.75 1917.08 77.85C1918.21 79.9167 1919.63 80.95 1921.33 80.95C1923.33 80.95 1925.28 80.2667 1927.18 78.9C1929.11 77.5333 1930.73 75.5 1932.03 72.8L1934.23 83.65C1933.13 85.5167 1931.71 87.2 1929.98 88.7C1928.25 90.2 1926.3 91.3833 1924.13 92.25C1922 93.0833 1919.76 93.5 1917.43 93.5C1913.36 93.5 1910 92.4 1907.33 90.2C1904.66 88 1902.68 84.9667 1901.38 81.1C1900.08 77.2 1899.43 72.7167 1899.43 67.65ZM1962.84 72.6V61.85H1981.69V60.7C1981.69 59.1667 1981.48 57.7667 1981.04 56.5C1980.61 55.2 1979.91 54.1667 1978.94 53.4C1978.01 52.6 1976.74 52.2 1975.14 52.2C1972.71 52.2 1970.99 53.2 1969.99 55.2C1969.03 57.2 1968.54 60.2833 1968.54 64.45V69.15C1968.54 71.4167 1968.74 73.5333 1969.14 75.5C1969.54 77.4667 1970.39 79.05 1971.69 80.25C1972.99 81.45 1974.98 82.05 1977.64 82.05C1979.91 82.05 1982.13 81.7667 1984.29 81.2C1986.49 80.6 1988.59 79.8833 1990.59 79.05C1991.76 80.1833 1992.69 81.6167 1993.39 83.35C1994.09 85.0833 1994.56 86.7333 1994.79 88.3C1992.26 90.1333 1989.23 91.5333 1985.69 92.5C1982.19 93.5 1978.66 94 1975.09 94C1970.69 94 1967.06 93.2833 1964.19 91.85C1961.33 90.3833 1959.06 88.4167 1957.39 85.95C1955.73 83.45 1954.54 80.65 1953.84 77.55C1953.18 74.4167 1952.84 71.2 1952.84 67.9C1952.84 62.8667 1953.59 58.3333 1955.09 54.3C1956.63 50.2333 1959.04 47.0167 1962.34 44.65C1965.64 42.2833 1969.94 41.1 1975.24 41.1C1979.64 41.1 1983.39 42.0333 1986.49 43.9C1989.59 45.7667 1991.96 48.3 1993.59 51.5C1995.26 54.6667 1996.09 58.2667 1996.09 62.3C1996.09 64.5333 1995.98 66.4 1995.74 67.9C1995.54 69.3667 1995.21 70.9333 1994.74 72.6H1962.84ZM2007.5 36.95C2007.5 33.4833 2008.13 31.05 2009.4 29.65C2010.7 28.25 2012.88 27.55 2015.95 27.55H2022.05L2022.75 28.25V76.4C2022.75 77.9 2023.08 79.0667 2023.75 79.9C2024.45 80.7 2025.6 81.1 2027.2 81.1H2032.8C2033.63 83.5333 2034.05 86 2034.05 88.5C2034.05 89.0667 2034.02 89.6667 2033.95 90.3C2033.92 90.9333 2033.82 91.5 2033.65 92C2031.82 92.2333 2029.7 92.45 2027.3 92.65C2024.9 92.8833 2022.7 93 2020.7 93C2016.17 93 2012.83 91.8833 2010.7 89.65C2008.57 87.3833 2007.5 83.8667 2007.5 79.1V36.95ZM2034.6 42.5C2035.07 44.2667 2035.3 46.0833 2035.3 47.95C2035.3 49.9833 2035.07 51.8667 2034.6 53.6L2015.95 53.3L1999.65 53.6C1999.22 51.8333 1999 49.95 1999 47.95C1999 46.15 1999.22 44.3333 1999.65 42.5L2016.4 42.75L2034.6 42.5ZM2039.85 78.85C2039.85 74.8167 2040.79 71.5333 2042.65 69C2044.52 66.4333 2046.95 64.5333 2049.95 63.3C2052.99 62.0667 2056.22 61.45 2059.65 61.45C2061.15 61.45 2063.04 61.4833 2065.3 61.55C2067.6 61.6167 2069.67 61.8333 2071.5 62.2V72.1C2070.07 71.7667 2068.34 71.5833 2066.3 71.55C2064.3 71.4833 2062.64 71.45 2061.3 71.45C2059.07 71.45 2057.47 72.05 2056.5 73.25C2055.54 74.4167 2055.05 75.9333 2055.05 77.8C2055.05 79.1333 2055.47 80.25 2056.3 81.15C2057.14 82.0167 2058.25 82.45 2059.65 82.45C2061.65 82.45 2063.69 81.7333 2065.75 80.3C2067.82 78.8667 2069.57 76.9 2071 74.4L2073.2 84.3C2071.9 85.8333 2070.42 87.35 2068.75 88.85C2067.09 90.35 2065.14 91.5833 2062.9 92.55C2060.67 93.5167 2058.05 94 2055.05 94C2051.62 94 2048.77 93.2333 2046.5 91.7C2044.27 90.1667 2042.6 88.2333 2041.5 85.9C2040.4 83.5667 2039.85 81.2167 2039.85 78.85ZM2085.2 85.3C2084.94 86.6667 2084.32 88.15 2083.35 89.75C2082.39 91.35 2081.42 92.5333 2080.45 93.3C2077.52 93.2333 2075.09 92.5667 2073.15 91.3C2071.25 90.0333 2069.79 88.4833 2068.75 86.65C2067.75 84.7833 2067.1 82.9667 2066.8 81.2V59.8C2066.8 57.7 2066.27 56.1167 2065.2 55.05C2064.17 53.9833 2062.52 53.45 2060.25 53.45C2058.12 53.45 2055.79 53.8 2053.25 54.5C2050.72 55.1667 2048.14 55.8833 2045.5 56.65C2044.4 55.3833 2043.54 53.75 2042.9 51.75C2042.3 49.7167 2041.92 47.7333 2041.75 45.8C2043.99 44.8667 2046.47 44.0833 2049.2 43.45C2051.94 42.7833 2054.65 42.2833 2057.35 41.95C2060.09 41.5833 2062.52 41.4 2064.65 41.4C2067.59 41.4 2070.4 41.95 2073.1 43.05C2075.8 44.1167 2078.02 45.9 2079.75 48.4C2081.52 50.8667 2082.4 54.2167 2082.4 58.45V78.8C2082.4 80.2333 2082.62 81.5 2083.05 82.6C2083.52 83.7 2084.24 84.6 2085.2 85.3ZM2109.37 90H2094.07V19.6L2094.77 18.9H2100.67C2103.74 18.9 2105.96 19.6 2107.32 21C2108.69 22.4 2109.37 24.8333 2109.37 28.3V90ZM2138.62 66.85C2138.66 72.25 2137.66 76.95 2135.62 80.95C2133.59 84.9167 2130.69 87.9833 2126.92 90.15C2123.19 92.3167 2118.77 93.4 2113.67 93.4C2110.04 93.4 2106.52 93.1 2103.12 92.5C2099.76 91.8667 2096.74 91.0333 2094.07 90L2101.47 78.5C2103.34 79.7 2105.31 80.6167 2107.37 81.25C2109.47 81.8833 2111.67 82.2 2113.97 82.2C2116.01 82.2 2117.66 81.6 2118.92 80.4C2120.19 79.1667 2121.12 77.4167 2121.72 75.15C2122.32 72.8833 2122.62 70.2 2122.62 67.1C2122.62 62.5667 2122.09 59.2833 2121.02 57.25C2119.99 55.2167 2118.39 54.1833 2116.22 54.15C2114.79 54.0833 2113.21 54.55 2111.47 55.55C2109.77 56.55 2108.31 58.1833 2107.07 60.45L2104.87 48.65C2106.24 47.3167 2107.71 46.1167 2109.27 45.05C2110.84 43.9833 2112.57 43.15 2114.47 42.55C2116.41 41.9167 2118.54 41.6 2120.87 41.6C2124.84 41.6 2128.12 42.7 2130.72 44.9C2133.36 47.0667 2135.32 50.05 2136.62 53.85C2137.96 57.65 2138.62 61.9833 2138.62 66.85ZM2169.84 81.1C2170.21 82.2 2170.51 83.4 2170.74 84.7C2170.97 85.9667 2171.09 87.2333 2171.09 88.5C2171.09 89.0667 2171.06 89.6667 2170.99 90.3C2170.96 90.9333 2170.86 91.5 2170.69 92C2169.19 92.2333 2167.51 92.45 2165.64 92.65C2163.77 92.8833 2161.87 93 2159.94 93C2155.41 93 2152.19 91.8833 2150.29 89.65C2148.42 87.3833 2147.49 83.8667 2147.49 79.1V19.6L2148.19 18.9H2154.29C2157.36 18.9 2159.52 19.6 2160.79 21C2162.09 22.4 2162.74 24.8333 2162.74 28.3V76.35C2162.74 79.5167 2164.19 81.1 2167.09 81.1H2169.84ZM2185.01 72.6V61.85H2203.86V60.7C2203.86 59.1667 2203.64 57.7667 2203.21 56.5C2202.78 55.2 2202.08 54.1667 2201.11 53.4C2200.18 52.6 2198.91 52.2 2197.31 52.2C2194.88 52.2 2193.16 53.2 2192.16 55.2C2191.19 57.2 2190.71 60.2833 2190.71 64.45V69.15C2190.71 71.4167 2190.91 73.5333 2191.31 75.5C2191.71 77.4667 2192.56 79.05 2193.86 80.25C2195.16 81.45 2197.14 82.05 2199.81 82.05C2202.08 82.05 2204.29 81.7667 2206.46 81.2C2208.66 80.6 2210.76 79.8833 2212.76 79.05C2213.93 80.1833 2214.86 81.6167 2215.56 83.35C2216.26 85.0833 2216.73 86.7333 2216.96 88.3C2214.43 90.1333 2211.39 91.5333 2207.86 92.5C2204.36 93.5 2200.83 94 2197.26 94C2192.86 94 2189.23 93.2833 2186.36 91.85C2183.49 90.3833 2181.23 88.4167 2179.56 85.95C2177.89 83.45 2176.71 80.65 2176.01 77.55C2175.34 74.4167 2175.01 71.2 2175.01 67.9C2175.01 62.8667 2175.76 58.3333 2177.26 54.3C2178.79 50.2333 2181.21 47.0167 2184.51 44.65C2187.81 42.2833 2192.11 41.1 2197.41 41.1C2201.81 41.1 2205.56 42.0333 2208.66 43.9C2211.76 45.7667 2214.13 48.3 2215.76 51.5C2217.43 54.6667 2218.26 58.2667 2218.26 62.3C2218.26 64.5333 2218.14 66.4 2217.91 67.9C2217.71 69.3667 2217.38 70.9333 2216.91 72.6H2185.01ZM2223.57 89.05C2223.64 87.3833 2224.09 85.5167 2224.92 83.45C2225.79 81.3833 2226.79 79.75 2227.92 78.55C2230.12 79.6833 2232.39 80.6667 2234.72 81.5C2237.09 82.3 2239.44 82.7 2241.77 82.7C2243.7 82.7 2245.15 82.3667 2246.12 81.7C2247.12 81.0333 2247.62 80.2 2247.62 79.2C2247.62 78.2333 2247.27 77.3833 2246.57 76.65C2245.87 75.8833 2244.7 75.2167 2243.07 74.65L2237.52 72.65C2235.19 71.7833 2233.07 70.7 2231.17 69.4C2229.27 68.0667 2227.77 66.45 2226.67 64.55C2225.57 62.6167 2225.02 60.3167 2225.02 57.65C2225.02 54.25 2225.82 51.3167 2227.42 48.85C2229.02 46.3833 2231.27 44.4833 2234.17 43.15C2237.07 41.7833 2240.47 41.1 2244.37 41.1C2247.54 41.1 2250.85 41.5333 2254.32 42.4C2257.79 43.2667 2260.6 44.2333 2262.77 45.3C2262.84 46.5 2262.69 47.8333 2262.32 49.3C2261.95 50.7667 2261.42 52.1167 2260.72 53.35C2260.05 54.5833 2259.3 55.5167 2258.47 56.15C2256.4 55.2167 2254.15 54.3667 2251.72 53.6C2249.29 52.8 2246.89 52.4 2244.52 52.4C2243.19 52.4 2242.17 52.7167 2241.47 53.35C2240.77 53.9833 2240.42 54.7333 2240.42 55.6C2240.42 56.4667 2240.72 57.2 2241.32 57.8C2241.92 58.4 2242.89 58.9333 2244.22 59.4L2250.42 61.6C2254.22 62.9333 2257.39 64.8833 2259.92 67.45C2262.45 70.0167 2263.72 73.4333 2263.72 77.7C2263.72 82.6667 2261.8 86.6333 2257.97 89.6C2254.17 92.5333 2248.89 94 2242.12 94C2238.55 94 2235.15 93.5 2231.92 92.5C2228.72 91.5333 2225.94 90.3833 2223.57 89.05Z" fill="#5B8C51"/>
</g>
</g>
<defs>
<filter id="filter0_ddddd_1_2631" x="-366.78" y="17.3999" width="474.11" height="97.7002" filterUnits="userSpaceOnUse" color-interpolation-filters="sRGB">
<feFlood flood-opacity="0" result="BackgroundImageFix"/>
<feColorMatrix in="SourceAlpha" type="matrix" values="0 0 0 0 0 0 0 0 0 0 0 0 0 0 0 0 0 0 127 0" result="hardAlpha"/>
<feOffset dx="1" dy="1"/>
<feComposite in2="hardAlpha" operator="out"/>
<feColorMatrix type="matrix" values="0 0 0 0 1 0 0 0 0 1 0 0 0 0 1 0 0 0 0.5 0"/>
<feBlend mode="normal" in2="BackgroundImageFix" result="effect1_dropShadow_1_2631"/>
<feColorMatrix in="SourceAlpha" type="matrix" values="0 0 0 0 0 0 0 0 0 0 0 0 0 0 0 0 0 0 127 0" result="hardAlpha"/>
<feOffset dx="-1" dy="1"/>
<feComposite in2="hardAlpha" operator="out"/>
<feColorMatrix type="matrix" values="0 0 0 0 1 0 0 0 0 1 0 0 0 0 1 0 0 0 0.5 0"/>
<feBlend mode="normal" in2="effect1_dropShadow_1_2631" result="effect2_dropShadow_1_2631"/>
<feColorMatrix in="SourceAlpha" type="matrix" values="0 0 0 0 0 0 0 0 0 0 0 0 0 0 0 0 0 0 127 0" result="hardAlpha"/>
<feOffset dx="1" dy="-1"/>
<feComposite in2="hardAlpha" operator="out"/>
<feColorMatrix type="matrix" values="0 0 0 0 1 0 0 0 0 1 0 0 0 0 1 0 0 0 0.5 0"/>
<feBlend mode="normal" in2="effect2_dropShadow_1_2631" result="effect3_dropShadow_1_2631"/>
<feColorMatrix in="SourceAlpha" type="matrix" values="0 0 0 0 0 0 0 0 0 0 0 0 0 0 0 0 0 0 127 0" result="hardAlpha"/>
<feOffset dx="-1" dy="-1"/>
<feComposite in2="hardAlpha" operator="out"/>
<feColorMatrix type="matrix" values="0 0 0 0 1 0 0 0 0 1 0 0 0 0 1 0 0 0 0.5 0"/>
<feBlend mode="normal" in2="effect3_dropShadow_1_2631" result="effect4_dropShadow_1_2631"/>
<feColorMatrix in="SourceAlpha" type="matrix" values="0 0 0 0 0 0 0 0 0 0 0 0 0 0 0 0 0 0 127 0" result="hardAlpha"/>
<feOffset dx="1" dy="1"/>
<feComposite in2="hardAlpha" operator="out"/>
<feColorMatrix type="matrix" values="0 0 0 0 1 0 0 0 0 1 0 0 0 0 1 0 0 0 0.5 0"/>
<feBlend mode="normal" in2="effect4_dropShadow_1_2631" result="effect5_dropShadow_1_2631"/>
<feBlend mode="normal" in="SourceGraphic" in2="effect5_dropShadow_1_2631" result="shape"/>
</filter>
<filter id="filter1_ddddd_1_2631" x="228.53" y="17.8999" width="498.279" height="97.7002" filterUnits="userSpaceOnUse" color-interpolation-filters="sRGB">
<feFlood flood-opacity="0" result="BackgroundImageFix"/>
<feColorMatrix in="SourceAlpha" type="matrix" values="0 0 0 0 0 0 0 0 0 0 0 0 0 0 0 0 0 0 127 0" result="hardAlpha"/>
<feOffset dx="1" dy="1"/>
<feComposite in2="hardAlpha" operator="out"/>
<feColorMatrix type="matrix" values="0 0 0 0 1 0 0 0 0 1 0 0 0 0 1 0 0 0 0.5 0"/>
<feBlend mode="normal" in2="BackgroundImageFix" result="effect1_dropShadow_1_2631"/>
<feColorMatrix in="SourceAlpha" type="matrix" values="0 0 0 0 0 0 0 0 0 0 0 0 0 0 0 0 0 0 127 0" result="hardAlpha"/>
<feOffset dx="-1" dy="1"/>
<feComposite in2="hardAlpha" operator="out"/>
<feColorMatrix type="matrix" values="0 0 0 0 1 0 0 0 0 1 0 0 0 0 1 0 0 0 0.5 0"/>
<feBlend mode="normal" in2="effect1_dropShadow_1_2631" result="effect2_dropShadow_1_2631"/>
<feColorMatrix in="SourceAlpha" type="matrix" values="0 0 0 0 0 0 0 0 0 0 0 0 0 0 0 0 0 0 127 0" result="hardAlpha"/>
<feOffset dx="1" dy="-1"/>
<feComposite in2="hardAlpha" operator="out"/>
<feColorMatrix type="matrix" values="0 0 0 0 1 0 0 0 0 1 0 0 0 0 1 0 0 0 0.5 0"/>
<feBlend mode="normal" in2="effect2_dropShadow_1_2631" result="effect3_dropShadow_1_2631"/>
<feColorMatrix in="SourceAlpha" type="matrix" values="0 0 0 0 0 0 0 0 0 0 0 0 0 0 0 0 0 0 127 0" result="hardAlpha"/>
<feOffset dx="-1" dy="-1"/>
<feComposite in2="hardAlpha" operator="out"/>
<feColorMatrix type="matrix" values="0 0 0 0 1 0 0 0 0 1 0 0 0 0 1 0 0 0 0.5 0"/>
<feBlend mode="normal" in2="effect3_dropShadow_1_2631" result="effect4_dropShadow_1_2631"/>
<feColorMatrix in="SourceAlpha" type="matrix" values="0 0 0 0 0 0 0 0 0 0 0 0 0 0 0 0 0 0 127 0" result="hardAlpha"/>
<feOffset dx="1" dy="1"/>
<feComposite in2="hardAlpha" operator="out"/>
<feColorMatrix type="matrix" values="0 0 0 0 1 0 0 0 0 1 0 0 0 0 1 0 0 0 0.5 0"/>
<feBlend mode="normal" in2="effect4_dropShadow_1_2631" result="effect5_dropShadow_1_2631"/>
<feBlend mode="normal" in="SourceGraphic" in2="effect5_dropShadow_1_2631" result="shape"/>
</filter>
<filter id="filter2_ddddd_1_2631" x="855.73" y="20.1499" width="350.957" height="95.4502" filterUnits="userSpaceOnUse" color-interpolation-filters="sRGB">
<feFlood flood-opacity="0" result="BackgroundImageFix"/>
<feColorMatrix in="SourceAlpha" type="matrix" values="0 0 0 0 0 0 0 0 0 0 0 0 0 0 0 0 0 0 127 0" result="hardAlpha"/>
<feOffset dx="1" dy="1"/>
<feComposite in2="hardAlpha" operator="out"/>
<feColorMatrix type="matrix" values="0 0 0 0 1 0 0 0 0 1 0 0 0 0 1 0 0 0 0.5 0"/>
<feBlend mode="normal" in2="BackgroundImageFix" result="effect1_dropShadow_1_2631"/>
<feColorMatrix in="SourceAlpha" type="matrix" values="0 0 0 0 0 0 0 0 0 0 0 0 0 0 0 0 0 0 127 0" result="hardAlpha"/>
<feOffset dx="-1" dy="1"/>
<feComposite in2="hardAlpha" operator="out"/>
<feColorMatrix type="matrix" values="0 0 0 0 1 0 0 0 0 1 0 0 0 0 1 0 0 0 0.5 0"/>
<feBlend mode="normal" in2="effect1_dropShadow_1_2631" result="effect2_dropShadow_1_2631"/>
<feColorMatrix in="SourceAlpha" type="matrix" values="0 0 0 0 0 0 0 0 0 0 0 0 0 0 0 0 0 0 127 0" result="hardAlpha"/>
<feOffset dx="1" dy="-1"/>
<feComposite in2="hardAlpha" operator="out"/>
<feColorMatrix type="matrix" values="0 0 0 0 1 0 0 0 0 1 0 0 0 0 1 0 0 0 0.5 0"/>
<feBlend mode="normal" in2="effect2_dropShadow_1_2631" result="effect3_dropShadow_1_2631"/>
<feColorMatrix in="SourceAlpha" type="matrix" values="0 0 0 0 0 0 0 0 0 0 0 0 0 0 0 0 0 0 127 0" result="hardAlpha"/>
<feOffset dx="-1" dy="-1"/>
<feComposite in2="hardAlpha" operator="out"/>
<feColorMatrix type="matrix" values="0 0 0 0 1 0 0 0 0 1 0 0 0 0 1 0 0 0 0.5 0"/>
<feBlend mode="normal" in2="effect3_dropShadow_1_2631" result="effect4_dropShadow_1_2631"/>
<feColorMatrix in="SourceAlpha" type="matrix" values="0 0 0 0 0 0 0 0 0 0 0 0 0 0 0 0 0 0 127 0" result="hardAlpha"/>
<feOffset dx="1" dy="1"/>
<feComposite in2="hardAlpha" operator="out"/>
<feColorMatrix type="matrix" values="0 0 0 0 1 0 0 0 0 1 0 0 0 0 1 0 0 0 0.5 0"/>
<feBlend mode="normal" in2="effect4_dropShadow_1_2631" result="effect5_dropShadow_1_2631"/>
<feBlend mode="normal" in="SourceGraphic" in2="effect5_dropShadow_1_2631" result="shape"/>
</filter>
<filter id="filter3_ddddd_1_2631" x="1331.3" y="20.1499" width="337.831" height="95.4502" filterUnits="userSpaceOnUse" color-interpolation-filters="sRGB">
<feFlood flood-opacity="0" result="BackgroundImageFix"/>
<feColorMatrix in="SourceAlpha" type="matrix" values="0 0 0 0 0 0 0 0 0 0 0 0 0 0 0 0 0 0 127 0" result="hardAlpha"/>
<feOffset dx="1" dy="1"/>
<feComposite in2="hardAlpha" operator="out"/>
<feColorMatrix type="matrix" values="0 0 0 0 1 0 0 0 0 1 0 0 0 0 1 0 0 0 0.5 0"/>
<feBlend mode="normal" in2="BackgroundImageFix" result="effect1_dropShadow_1_2631"/>
<feColorMatrix in="SourceAlpha" type="matrix" values="0 0 0 0 0 0 0 0 0 0 0 0 0 0 0 0 0 0 127 0" result="hardAlpha"/>
<feOffset dx="-1" dy="1"/>
<feComposite in2="hardAlpha" operator="out"/>
<feColorMatrix type="matrix" values="0 0 0 0 1 0 0 0 0 1 0 0 0 0 1 0 0 0 0.5 0"/>
<feBlend mode="normal" in2="effect1_dropShadow_1_2631" result="effect2_dropShadow_1_2631"/>
<feColorMatrix in="SourceAlpha" type="matrix" values="0 0 0 0 0 0 0 0 0 0 0 0 0 0 0 0 0 0 127 0" result="hardAlpha"/>
<feOffset dx="1" dy="-1"/>
<feComposite in2="hardAlpha" operator="out"/>
<feColorMatrix type="matrix" values="0 0 0 0 1 0 0 0 0 1 0 0 0 0 1 0 0 0 0.5 0"/>
<feBlend mode="normal" in2="effect2_dropShadow_1_2631" result="effect3_dropShadow_1_2631"/>
<feColorMatrix in="SourceAlpha" type="matrix" values="0 0 0 0 0 0 0 0 0 0 0 0 0 0 0 0 0 0 127 0" result="hardAlpha"/>
<feOffset dx="-1" dy="-1"/>
<feComposite in2="hardAlpha" operator="out"/>
<feColorMatrix type="matrix" values="0 0 0 0 1 0 0 0 0 1 0 0 0 0 1 0 0 0 0.5 0"/>
<feBlend mode="normal" in2="effect3_dropShadow_1_2631" result="effect4_dropShadow_1_2631"/>
<feColorMatrix in="SourceAlpha" type="matrix" values="0 0 0 0 0 0 0 0 0 0 0 0 0 0 0 0 0 0 127 0" result="hardAlpha"/>
<feOffset dx="1" dy="1"/>
<feComposite in2="hardAlpha" operator="out"/>
<feColorMatrix type="matrix" values="0 0 0 0 1 0 0 0 0 1 0 0 0 0 1 0 0 0 0.5 0"/>
<feBlend mode="normal" in2="effect4_dropShadow_1_2631" result="effect5_dropShadow_1_2631"/>
<feBlend mode="normal" in="SourceGraphic" in2="effect5_dropShadow_1_2631" result="shape"/>
</filter>
<filter id="filter4_ddddd_1_2631" x="1790.61" y="17.8999" width="474.109" height="97.7002" filterUnits="userSpaceOnUse" color-interpolation-filters="sRGB">
<feFlood flood-opacity="0" result="BackgroundImageFix"/>
<feColorMatrix in="SourceAlpha" type="matrix" values="0 0 0 0 0 0 0 0 0 0 0 0 0 0 0 0 0 0 127 0" result="hardAlpha"/>
<feOffset dx="1" dy="1"/>
<feComposite in2="hardAlpha" operator="out"/>
<feColorMatrix type="matrix" values="0 0 0 0 1 0 0 0 0 1 0 0 0 0 1 0 0 0 0.5 0"/>
<feBlend mode="normal" in2="BackgroundImageFix" result="effect1_dropShadow_1_2631"/>
<feColorMatrix in="SourceAlpha" type="matrix" values="0 0 0 0 0 0 0 0 0 0 0 0 0 0 0 0 0 0 127 0" result="hardAlpha"/>
<feOffset dx="-1" dy="1"/>
<feComposite in2="hardAlpha" operator="out"/>
<feColorMatrix type="matrix" values="0 0 0 0 1 0 0 0 0 1 0 0 0 0 1 0 0 0 0.5 0"/>
<feBlend mode="normal" in2="effect1_dropShadow_1_2631" result="effect2_dropShadow_1_2631"/>
<feColorMatrix in="SourceAlpha" type="matrix" values="0 0 0 0 0 0 0 0 0 0 0 0 0 0 0 0 0 0 127 0" result="hardAlpha"/>
<feOffset dx="1" dy="-1"/>
<feComposite in2="hardAlpha" operator="out"/>
<feColorMatrix type="matrix" values="0 0 0 0 1 0 0 0 0 1 0 0 0 0 1 0 0 0 0.5 0"/>
<feBlend mode="normal" in2="effect2_dropShadow_1_2631" result="effect3_dropShadow_1_2631"/>
<feColorMatrix in="SourceAlpha" type="matrix" values="0 0 0 0 0 0 0 0 0 0 0 0 0 0 0 0 0 0 127 0" result="hardAlpha"/>
<feOffset dx="-1" dy="-1"/>
<feComposite in2="hardAlpha" operator="out"/>
<feColorMatrix type="matrix" values="0 0 0 0 1 0 0 0 0 1 0 0 0 0 1 0 0 0 0.5 0"/>
<feBlend mode="normal" in2="effect3_dropShadow_1_2631" result="effect4_dropShadow_1_2631"/>
<feColorMatrix in="SourceAlpha" type="matrix" values="0 0 0 0 0 0 0 0 0 0 0 0 0 0 0 0 0 0 127 0" result="hardAlpha"/>
<feOffset dx="1" dy="1"/>
<feComposite in2="hardAlpha" operator="out"/>
<feColorMatrix type="matrix" values="0 0 0 0 1 0 0 0 0 1 0 0 0 0 1 0 0 0 0.5 0"/>
<feBlend mode="normal" in2="effect4_dropShadow_1_2631" result="effect5_dropShadow_1_2631"/>
<feBlend mode="normal" in="SourceGraphic" in2="effect5_dropShadow_1_2631" result="shape"/>
</filter>
<clipPath id="clip0_1_2631">
<rect width="1920" height="128" fill="white"/>
</clipPath>
<clipPath id="clip1_1_2631">
<rect width="44.78" height="45" fill="white" transform="matrix(1 0 0 -1 185.66 86.5)"/>
</clipPath>
<clipPath id="clip2_1_2631">
<rect width="44.78" height="45" fill="white" transform="matrix(1 0 0 -1 806.11 86.5)"/>
</clipPath>
<clipPath id="clip3_1_2631">
<rect width="44.78" height="45" fill="white" transform="matrix(1 0 0 -1 1285.67 86.5)"/>
</clipPath>
<clipPath id="clip4_1_2631">
<rect width="44.79" height="45" fill="white" transform="matrix(1 0 0 -1 1747.73 86.5)"/>
</clipPath>
</defs>
</svg>
