<svg width="70" height="45" viewBox="0 0 70 45" fill="none" xmlns="http://www.w3.org/2000/svg">
<path d="M65.1 18.8999L63.2333 11.4333C63.8556 11.4333 64.1667 11.1221 64.1667 10.4999V9.33326C64.1667 8.08881 63.7 6.99992 62.7667 6.06659C61.8333 5.13326 60.7444 4.66659 59.5 4.66659H51.3333V2.33326C51.3333 1.71103 51.1 1.16659 50.6333 0.699921C50.1667 0.233253 49.6222 -8.01086e-05 49 -8.01086e-05H7C6.37778 -8.01086e-05 5.83333 0.233253 5.36667 0.699921C4.9 1.16659 4.66667 1.71103 4.66667 2.33326V22.1666C4.66667 22.4777 4.78333 22.7499 5.01667 22.9833C5.25 23.2166 5.52222 23.3333 5.83333 23.3333C6.14444 23.3333 6.37778 23.2166 6.53333 22.9833C6.68889 22.7499 6.76667 22.4777 6.76667 22.1666V2.33326H7H49V22.1666C49 22.4777 49.1167 22.7499 49.35 22.9833C49.5833 23.2166 49.8556 23.3333 50.1667 23.3333C50.4778 23.3333 50.75 23.2166 50.9833 22.9833C51.2167 22.7499 51.3333 22.4777 51.3333 22.1666V20.9999H64.1667C64.9444 20.9999 65.6444 21.2333 66.2667 21.6999C66.8889 22.1666 67.3556 22.711 67.6667 23.3333H64.1667C63.8556 23.3333 63.6222 23.4499 63.4667 23.6833C63.3111 23.9166 63.2333 24.1888 63.2333 24.4999V26.8333C63.2333 27.7666 63.5444 28.5833 64.1667 29.2833C64.7889 29.9833 65.5667 30.3333 66.5 30.3333H67.9V34.9999H64.8667C64.4 33.7555 63.5833 32.6666 62.4167 31.7333C61.25 30.7999 59.9278 30.3333 58.45 30.3333C56.9722 30.3333 55.6111 30.7999 54.3667 31.7333C53.1222 32.6666 52.2667 33.7555 51.8 34.9999H51.3333V26.8333C51.3333 26.5221 51.2167 26.2499 50.9833 26.0166C50.75 25.7833 50.4778 25.6666 50.1667 25.6666C49.8556 25.6666 49.5833 25.7833 49.35 26.0166C49.1167 26.2499 49 26.5221 49 26.8333V34.9999H26.3667C25.9 33.7555 25.0444 32.6666 23.8 31.7333C22.5556 30.7999 21.1944 30.3333 19.7167 30.3333C18.2389 30.3333 16.9167 30.7999 15.75 31.7333C14.5833 32.6666 13.7667 33.7555 13.3 34.9999H7H6.76667V32.6666H11.6667C11.9778 32.6666 12.2111 32.5499 12.3667 32.3166C12.5222 32.0833 12.6 31.811 12.6 31.4999C12.6 31.1888 12.5222 30.9166 12.3667 30.6833C12.2111 30.4499 11.9778 30.3333 11.6667 30.3333H1.16667C0.855556 30.3333 0.583333 30.4499 0.35 30.6833C0.116667 30.9166 0 31.1888 0 31.4999C0 31.811 0.116667 32.0833 0.35 32.3166C0.583333 32.5499 0.855556 32.6666 1.16667 32.6666H4.66667V34.9999C4.66667 35.6221 4.9 36.1666 5.36667 36.6333C5.83333 37.0999 6.37778 37.3333 7 37.3333H12.8333C12.8333 39.1999 13.5333 40.8333 14.9333 42.2333C16.3333 43.6333 17.9667 44.3333 19.8333 44.3333C21.7 44.3333 23.3333 43.6333 24.7333 42.2333C26.1333 40.8333 26.8333 39.1999 26.8333 37.3333H51.3333C51.3333 39.1999 52.0333 40.8333 53.4333 42.2333C54.8333 43.6333 56.5056 44.3333 58.45 44.3333C60.3944 44.3333 62.0278 43.6333 63.35 42.2333C64.6722 40.8333 65.3333 39.1999 65.3333 37.3333H68.8333C69.1444 37.3333 69.4167 37.2166 69.65 36.9833C69.8833 36.7499 70 36.4777 70 36.1666V24.4999C70 23.0999 69.5333 21.8555 68.6 20.7666C67.6667 19.6777 66.5 19.0555 65.1 18.8999ZM51.3333 6.99992H59.5C60.1222 6.99992 60.7056 7.23325 61.25 7.69992C61.7944 8.16659 62.0667 8.71103 62.0667 9.33326H51.3333V6.99992ZM51.3333 18.6666V11.6666H61.1333L62.7667 18.6666H51.3333ZM19.8333 41.9999C18.4333 41.9999 17.3056 41.5721 16.45 40.7166C15.5944 39.861 15.1667 38.7721 15.1667 37.4499C15.1667 36.1277 15.5944 34.9999 16.45 34.0666C17.3056 33.1333 18.3944 32.6666 19.7167 32.6666C21.0389 32.6666 22.1667 33.1333 23.1 34.0666C24.0333 34.9999 24.5 36.1277 24.5 37.4499C24.5 38.7721 24.0333 39.861 23.1 40.7166C22.1667 41.5721 21.0778 41.9999 19.8333 41.9999ZM58.3333 41.9999C57.0889 41.9999 56 41.5721 55.0667 40.7166C54.1333 39.861 53.6667 38.7721 53.6667 37.4499C53.6667 36.1277 54.1333 34.9999 55.0667 34.0666C56 33.1333 57.1278 32.6666 58.45 32.6666C59.7722 32.6666 60.9 33.1333 61.8333 34.0666C62.7667 34.9999 63.2333 36.1277 63.2333 37.4499C63.2333 38.7721 62.7667 39.861 61.8333 40.7166C60.9 41.5721 59.7333 41.9999 58.3333 41.9999ZM67.9 27.9999H66.5C66.1889 27.9999 65.9167 27.8833 65.6833 27.6499C65.45 27.4166 65.3333 27.1444 65.3333 26.8333V25.6666H67.9V27.9999ZM19.8333 34.9999C19.2111 34.9999 18.6667 35.2333 18.2 35.6999C17.7333 36.1666 17.5 36.711 17.5 37.3333C17.5 37.9555 17.7333 38.4999 18.2 38.9666C18.6667 39.4333 19.2111 39.6666 19.8333 39.6666C20.4556 39.6666 21 39.4333 21.4667 38.9666C21.9333 38.4999 22.1667 37.9555 22.1667 37.3333C22.1667 36.711 21.9333 36.1666 21.4667 35.6999C21 35.2333 20.4556 34.9999 19.8333 34.9999ZM58.3333 34.9999C57.7111 34.9999 57.2056 35.2333 56.8167 35.6999C56.4278 36.1666 56.2333 36.711 56.2333 37.3333C56.2333 37.9555 56.4278 38.4999 56.8167 38.9666C57.2056 39.4333 57.7111 39.6666 58.3333 39.6666C58.9556 39.6666 59.5 39.4333 59.9667 38.9666C60.4333 38.4999 60.6667 37.9555 60.6667 37.3333C60.6667 36.711 60.4333 36.1666 59.9667 35.6999C59.5 35.2333 58.9556 34.9999 58.3333 34.9999ZM45.5 30.3333H29.1667C28.8556 30.3333 28.5833 30.4499 28.35 30.6833C28.1167 30.9166 28 31.1888 28 31.4999C28 31.811 28.1167 32.0833 28.35 32.3166C28.5833 32.5499 28.8556 32.6666 29.1667 32.6666H45.5C45.8111 32.6666 46.0833 32.5499 46.3167 32.3166C46.55 32.0833 46.6667 31.811 46.6667 31.4999C46.6667 31.1888 46.55 30.9166 46.3167 30.6833C46.0833 30.4499 45.8111 30.3333 45.5 30.3333ZM17.5 25.6666H3.5C3.18889 25.6666 2.91667 25.7833 2.68333 26.0166C2.45 26.2499 2.33333 26.5221 2.33333 26.8333C2.33333 27.1444 2.45 27.4166 2.68333 27.6499C2.91667 27.8833 3.18889 27.9999 3.5 27.9999H17.5C17.8111 27.9999 18.0833 27.8833 18.3167 27.6499C18.55 27.4166 18.6667 27.1444 18.6667 26.8333C18.6667 26.5221 18.55 26.2499 18.3167 26.0166C18.0833 25.7833 17.8111 25.6666 17.5 25.6666ZM38.0333 10.9666C37.8778 10.6555 37.6444 10.4999 37.3333 10.4999C37.0222 10.4999 36.7889 10.6555 36.6333 10.9666L26.8333 20.5333L21.7 15.6333C21.5444 15.3221 21.3111 15.1666 21 15.1666C20.6889 15.1666 20.4167 15.2833 20.1833 15.5166C19.95 15.7499 19.8333 16.0221 19.8333 16.3333C19.8333 16.6444 19.9889 16.8777 20.3 17.0333L26.1333 22.8666C26.2889 23.1777 26.5222 23.3333 26.8333 23.3333C27.1444 23.3333 27.3778 23.1777 27.5333 22.8666L38.0333 12.3666C38.3444 12.211 38.5 11.9777 38.5 11.6666C38.5 11.3555 38.3444 11.1221 38.0333 10.9666Z" fill="#5B8C51"/>
</svg>
